<?xml version="1.0" encoding="UTF-8"?>
<svg width="58px" height="30px" viewBox="0 0 58 30" version="1.1" xmlns="http://www.w3.org/2000/svg" xmlns:xlink="http://www.w3.org/1999/xlink">
    <!-- Generator: Sketch 46.2 (44496) - http://www.bohemiancoding.com/sketch -->
    <title>if_crew_2318458</title>
    <desc>Created with Sketch.</desc>
    <defs></defs>
    <g id="Page-1" stroke="none" stroke-width="1" fill="none" fill-rule="evenodd">
        <g id="Desktop" transform="translate(-725.000000, -1509.000000)" fill-rule="nonzero" fill="#000000">
            <g id="2-Shift-developer-conference" transform="translate(-1.000000, 833.000000)">
                <g id="Workshops" transform="translate(725.000000, 676.000000)">
                    <g id="if_crew_2318458" transform="translate(1.000000, 0.000000)">
                        <path d="M9.5,22 C5.36678832,22 2,18.6332117 2,14.5 C2,10.3667883 5.36678832,7 9.5,7 C13.6332117,7 17,10.3667883 17,14.5 C17,18.6468978 13.6332117,22 9.5,22 Z M9.5,10.7636861 C7.43339416,10.7636861 5.75,12.4470803 5.75,14.5136861 C5.75,16.580292 7.43339416,18.2636861 9.5,18.2636861 C11.5666058,18.2636861 13.25,16.580292 13.25,14.5136861 C13.25,12.4470803 11.5666058,10.7636861 9.5,10.7636861 Z" id="Shape"></path>
                        <path d="M42,30 L38.1388309,30 C38.1388309,24.4906054 33.8126305,20.0041754 28.5,20.0041754 C23.1873695,20.0041754 18.8611691,24.4906054 18.8611691,30 L15,30 C15,22.2839248 21.059499,16 28.5,16 C35.940501,16 42,22.2839248 42,30 Z" id="Shape"></path>
                        <path d="M47.5,22 C43.3667883,22 40,18.6332117 40,14.5 C40,10.3667883 43.3667883,7 47.5,7 C51.6332117,7 55,10.3667883 55,14.5 C54.9863139,18.6468978 51.6332117,22 47.5,22 Z M47.5,10.7636861 C45.4333942,10.7636861 43.75,12.4470803 43.75,14.5136861 C43.75,16.580292 45.4333942,18.2636861 47.5,18.2636861 C49.5666058,18.2636861 51.25,16.580292 51.25,14.5136861 C51.25,12.4470803 49.5666058,10.7636861 47.5,10.7636861 Z" id="Shape"></path>
                        <path d="M28.5,20 C23.2638889,20 19,15.5116959 19,10 C19,4.48830409 23.2638889,0 28.5,0 C33.7361111,0 38,4.48830409 38,10 C38,15.5116959 33.7361111,20 28.5,20 Z M28.5,3.99122807 C25.3611111,3.99122807 22.7916667,6.68128655 22.7916667,10 C22.7916667,13.3187135 25.3472222,16.0087719 28.5,16.0087719 C31.6527778,16.0087719 34.2083333,13.3187135 34.2083333,10 C34.2083333,6.68128655 31.6388889,3.99122807 28.5,3.99122807 Z" id="Shape"></path>
                        <path d="M42.8055556,30 L39,30 L39,28.1644336 C39,23.1132765 43.2638889,19 48.5,19 C53.7361111,19 58,23.1132765 58,28.1644336 L54.1944444,28.1644336 C54.1944444,25.136419 51.6388889,22.6577345 48.4861111,22.6577345 C45.3333333,22.6577345 42.7777778,25.1230207 42.7777778,28.1644336 L42.7777778,30 L42.8055556,30 Z" id="Shape"></path>
                        <path d="M19,30 L15.1972243,30 L15.1972243,28.1644336 C15.1972243,25.136419 12.6435354,22.6577345 9.49306063,22.6577345 C6.34258583,22.6577345 3.78889701,25.1230207 3.78889701,28.1644336 L0,28.1644336 C0,23.1132765 4.26077429,19 9.49306063,19 C14.725347,19 18.9861213,23.1132765 18.9861213,28.1644336 L18.9861213,30 L19,30 Z" id="Shape"></path>
                    </g>
                </g>
            </g>
        </g>
    </g>
</svg>