<?xml version="1.0" encoding="UTF-8"?>
<svg width="39px" height="26px" viewBox="0 0 39 26" version="1.1" xmlns="http://www.w3.org/2000/svg" xmlns:xlink="http://www.w3.org/1999/xlink">
    <!-- Generator: Sketch 46.2 (44496) - http://www.bohemiancoding.com/sketch -->
    <title>bed icon</title>
    <desc>Created with Sketch.</desc>
    <defs></defs>
    <g id="Page-1" stroke="none" stroke-width="1" fill="none" fill-rule="evenodd">
        <g id="Desktop" transform="translate(-842.000000, -7511.000000)" stroke="#000000" stroke-width="0.4" fill="#000000" fill-rule="nonzero">
            <g id="9-Location" transform="translate(140.000000, 7037.000000)">
                <g id="bed-icon" transform="translate(703.000000, 475.000000)">
                    <path d="M32.6832709,6.62496742 L13.3852766,6.62496742 C13.5016531,6.35906028 13.5666005,6.06336796 13.5666005,5.74995346 L13.5666005,4.99996277 C13.5666005,3.81242786 12.6416134,2.8749395 11.469914,2.8749395 L7.02997575,2.8749395 C5.85827639,2.8749395 4.93328925,3.81242786 4.93328925,4.99996277 L4.93328925,5.74995346 C4.93328925,6.06336796 4.99823672,6.35898581 5.11461318,6.62496742 L3.70002204,6.62496742 L3.70002204,1.25000931 C3.70002204,0.562493019 3.14502976,-1.77635684e-15 2.46668136,-1.77635684e-15 L1.23334068,-1.77635684e-15 C0.554992286,-1.77635684e-15 0,0.562493019 0,1.25000931 L0,7.25000931 L0,22.7499907 C0,23.437507 0.554992286,24 1.23334068,24 L2.46668136,24 C3.14502976,24 3.70002204,23.437507 3.70002204,22.7499907 L3.70002204,16.6249674 L9.25001837,16.6249674 L33.299978,16.6249674 L33.299978,22.7499907 C33.299978,23.437507 33.8549702,24 34.5333186,24 L35.7666593,24 C36.4450077,24 37,23.437507 37,22.7499907 L37,10.9999628 C37,8.56249302 35.0883109,6.62496742 32.6832709,6.62496742 Z M6.16662993,5.74995346 L6.16662993,4.99996277 C6.16662993,4.49994415 6.53662479,4.12494881 7.02997575,4.12494881 L11.4699875,4.12494881 C11.9633385,4.12494881 12.3333333,4.49994415 12.3333333,4.99996277 L12.3333333,5.74995346 C12.3333333,6.24997208 11.9633385,6.62496742 11.4699875,6.62496742 L9.25001837,6.62496742 L7.02997575,6.62496742 C6.53669826,6.62496742 6.16662993,6.24997208 6.16662993,5.74995346 Z M1.23334068,1.25000931 L2.46668136,1.25000931 L2.46668136,6.62504189 L1.23334068,6.62504189 L1.23334068,1.25000931 Z M3.08331497,15.3749581 C2.71332011,15.3749581 2.46668136,15.6249302 2.46668136,15.9999255 L2.46668136,22.7499162 L1.23334068,22.7499162 L1.23334068,7.87497673 L3.08331497,7.87497673 L7.02997575,7.87497673 L8.63331129,7.87497673 L8.63331129,15.3749581 L3.08331497,15.3749581 Z M34.5333186,22.7499907 L34.5333186,16 C34.5333186,15.6250047 34.2866799,15.3750326 33.916685,15.3750326 L9.86665197,15.3750326 L9.86665197,7.87497673 L11.4699875,7.87497673 L32.6832709,7.87497673 C34.4099625,7.87497673 35.7665858,9.25000931 35.7665858,10.9999628 L35.7665858,22.7499907 L34.5333186,22.7499907 Z" id="Shape"></path>
                </g>
            </g>
        </g>
    </g>
</svg>