<?xml version="1.0" encoding="UTF-8"?>
<svg width="31px" height="31px" viewBox="0 0 31 31" version="1.1" xmlns="http://www.w3.org/2000/svg" xmlns:xlink="http://www.w3.org/1999/xlink">
    <!-- Generator: Sketch 46.2 (44496) - http://www.bohemiancoding.com/sketch -->
    <title>Shape</title>
    <desc>Created with Sketch.</desc>
    <defs></defs>
    <g id="Page-1" stroke="none" stroke-width="1" fill="none" fill-rule="evenodd">
        <g id="Desktop" transform="translate(-725.000000, -1141.000000)" fill-rule="nonzero" fill="#000000">
            <g id="2-Shift-developer-conference" transform="translate(-1.000000, 833.000000)">
                <g id="Event" transform="translate(724.000000, 308.000000)">
                    <g id="Group-2">
                        <g id="calendar-icon" transform="translate(2.000000, 0.000000)">
                            <path d="M17.9474778,16.3149198 L17.9474778,16.3149198 C17.0453653,16.3149198 16.3158606,17.0453549 16.3158606,17.9473575 C16.3158606,18.8476974 17.0471319,19.5789638 17.9474778,19.5789638 L17.9474778,19.5789638 C18.8478238,19.5789638 19.579095,18.8476974 19.579095,17.9473575 C19.579199,17.0453549 18.8494864,16.3149198 17.9474778,16.3149198 Z M13.0526261,14.6841449 C13.9533877,14.6841449 14.6842433,13.9532942 14.6842433,13.0525386 C14.6842433,12.1511595 13.9533877,11.4211401 13.0526261,11.4211401 C12.1520723,11.4211401 11.4212167,12.1511595 11.4212167,13.0525386 C11.4212167,13.9532942 12.1520723,14.6841449 13.0526261,14.6841449 Z M17.9474778,11.4211401 L17.9474778,11.4211401 C17.0453653,11.4211401 16.3158606,12.1511595 16.3158606,13.0525386 C16.3158606,13.9532942 17.0454692,14.6841449 17.9474778,14.6841449 L17.9474778,14.6841449 C18.8478238,14.6841449 19.579095,13.9532942 19.579095,13.0525386 C19.579199,12.1511595 18.8494864,11.4211401 17.9474778,11.4211401 Z M19.579199,3.26300475 L11.4212167,3.26300475 L11.4212167,6.52621734 L19.579199,6.52621734 L19.579199,3.26300475 Z M22.8424334,14.6841449 C23.7423637,14.6841449 24.4740507,13.9532942 24.4740507,13.0525386 C24.4740507,12.1511595 23.7440264,11.4211401 22.8424334,11.4211401 C21.9403209,11.4211401 21.2108162,12.1511595 21.2108162,13.0525386 C21.2108162,13.9532942 21.9420875,14.6841449 22.8424334,14.6841449 Z M22.8424334,19.5789638 C23.7423637,19.5789638 24.4740507,18.8476974 24.4740507,17.9473575 C24.4740507,17.0453549 23.7440264,16.3157512 22.8424334,16.3157512 C21.9403209,16.3157512 21.2108162,17.0453549 21.2108162,17.9473575 C21.2108162,18.8476974 21.9420875,19.5789638 22.8424334,19.5789638 Z M13.0526261,19.5789638 C13.9533877,19.5789638 14.6842433,18.8476974 14.6842433,17.9473575 C14.6842433,17.0453549 13.9542191,16.3149198 13.0526261,16.3149198 C12.151241,16.3149198 11.4212167,17.0453549 11.4212167,17.9473575 C11.4212167,18.8476974 12.1520723,19.5789638 13.0526261,19.5789638 Z M8.15798225,24.4738866 C9.05853603,24.4738866 9.78959948,23.7422045 9.78959948,22.8422803 C9.78959948,21.9402777 9.05853603,21.210674 8.15798225,21.210674 C7.25659712,21.210674 6.52636501,21.9402777 6.52636501,22.8422803 C6.52636501,23.7422045 7.25732455,24.4738866 8.15798225,24.4738866 Z M27.7368695,3.26300475 L26.1057718,3.26300475 L26.1057718,6.52621734 L27.7368695,6.52621734 L27.7368695,27.7365796 L3.26323447,27.7365796 L3.26323447,6.52632126 L4.89464386,6.52632126 L4.89464386,3.26300475 L3.26323447,3.26300475 C1.46108772,3.26300475 0,4.72356309 0,6.52632126 L0,27.7359561 C0,29.5391299 1.46108772,31 3.26323447,31 L27.7367655,31 C29.539224,31 31,29.539026 31,27.7359561 L31,6.52632126 C31.0001039,4.72356309 29.539224,3.26300475 27.7368695,3.26300475 Z M8.15798225,19.5789638 C9.05853603,19.5789638 9.78959948,18.8476974 9.78959948,17.9473575 C9.78959948,17.0453549 9.05853603,16.3149198 8.15798225,16.3149198 C7.25659712,16.3149198 6.52636501,17.0453549 6.52636501,17.9473575 C6.52636501,18.8476974 7.25732455,19.5789638 8.15798225,19.5789638 Z M8.15798225,14.6841449 C9.05853603,14.6841449 9.78959948,13.9532942 9.78959948,13.0525386 C9.78959948,12.1511595 9.05853603,11.4211401 8.15798225,11.4211401 C7.25659712,11.4211401 6.52636501,12.1511595 6.52636501,13.0525386 C6.52636501,13.9532942 7.25732455,14.6841449 8.15798225,14.6841449 Z M13.0526261,24.4738866 C13.9533877,24.4738866 14.6842433,23.7422045 14.6842433,22.8422803 C14.6842433,21.9402777 13.9533877,21.210674 13.0526261,21.210674 C12.1520723,21.210674 11.4212167,21.9402777 11.4212167,22.8422803 C11.4212167,23.7422045 12.1520723,24.4738866 13.0526261,24.4738866 Z M8.15798225,6.52632126 C9.05853603,6.52632126 9.78959948,5.79547054 9.78959948,4.89471496 L9.78959948,1.63171021 C9.78959948,0.730019376 9.05936737,0 8.15798225,0 C7.25732455,0 6.52636501,0.730019376 6.52636501,1.63160629 L6.52636501,4.89461105 C6.52636501,5.79547054 7.25732455,6.52632126 8.15798225,6.52632126 Z M22.8424334,6.52632126 C23.7423637,6.52632126 24.4740507,5.79547054 24.4740507,4.89471496 L24.4740507,1.63171021 C24.4740507,0.730019376 23.7423637,0 22.8424334,0 C21.9403209,0 21.2108162,0.730019376 21.2108162,1.63160629 L21.2108162,4.89461105 C21.2108162,5.79547054 21.9420875,6.52632126 22.8424334,6.52632126 Z" id="Shape"></path>
                        </g>
                    </g>
                </g>
            </g>
        </g>
    </g>
</svg>