<?xml version="1.0" encoding="UTF-8"?>
<svg width="30px" height="30px" viewBox="0 0 30 30" version="1.1" xmlns="http://www.w3.org/2000/svg" xmlns:xlink="http://www.w3.org/1999/xlink">
    <!-- Generator: Sketch 46.2 (44496) - http://www.bohemiancoding.com/sketch -->
    <title>map</title>
    <desc>Created with Sketch.</desc>
    <defs></defs>
    <g id="Page-1" stroke="none" stroke-width="1" fill="none" fill-rule="evenodd">
        <g id="Desktop" transform="translate(-843.000000, -7301.000000)" fill-rule="nonzero" fill="#000000">
            <g id="9-Location" transform="translate(140.000000, 7037.000000)">
                <g id="how-to-get-shift" transform="translate(702.000000, 264.000000)">
                    <g id="map" transform="translate(1.000000, 0.000000)">
                        <path d="M29.0625,12.7495209 C28.545,12.7495209 28.125,13.1788184 28.125,13.7077744 L28.125,24.5590367 L20.625,27.6254479 L20.625,17.5407883 C20.625,17.0118323 20.205,16.5825348 19.6875,16.5825348 C19.17,16.5825348 18.75,17.0118323 18.75,17.5407883 L18.75,27.6235314 L11.25,24.5571202 L11.25,9.37455212 L15.594375,11.1511541 C16.06875,11.3466378 16.62,11.1089909 16.813125,10.6164486 C17.00625,10.1258228 16.771875,9.56811932 16.29,9.37071911 L10.678125,7.07474377 C10.678125,7.07474377 10.678125,7.07474377 10.67625,7.07474377 L10.66125,7.06899425 C10.438125,6.97700192 10.18875,6.97700192 9.965625,7.06899425 L9.94875,7.07474377 C9.94875,7.07474377 9.94875,7.07474377 9.946875,7.07474377 L0.58875,10.9020082 C0.234375,11.0476627 0,11.3983835 0,11.7912674 L0,29.03983 C0,29.3579702 0.155625,29.6550287 0.4125,29.8332639 C0.57,29.9425048 0.751875,29.9980835 0.9375,29.9980835 C1.055625,29.9980835 1.17375,29.9750854 1.28625,29.9290892 L10.3125,26.2398133 L19.321875,29.9233397 C19.321875,29.9233397 19.321875,29.9233397 19.32375,29.9233397 L19.340625,29.9310057 C19.56375,30.0229981 19.813125,30.0229981 20.03625,29.9310057 L20.053125,29.9233397 C20.053125,29.9233397 20.053125,29.9233397 20.055,29.9233397 L29.413125,26.0979918 C29.765625,25.9504208 30,25.5997 30,25.2068161 L30,13.7077744 C30,13.1788184 29.58,12.7495209 29.0625,12.7495209 Z M9.375,24.5571202 L1.875,27.6235314 L1.875,12.4390467 L9.375,9.37263561 L9.375,24.5571202 Z" id="Shape"></path>
                        <path d="M23.5,4 C22.1216667,4 21,5.12166667 21,6.5 C21,7.87833333 22.1216667,9 23.5,9 C24.8783333,9 26,7.87833333 26,6.5 C26,5.12166667 24.8783333,4 23.5,4 Z M23.5,7.33333333 C23.04,7.33333333 22.6666667,6.96 22.6666667,6.5 C22.6666667,6.04 23.04,5.66666667 23.5,5.66666667 C23.96,5.66666667 24.3333333,6.04 24.3333333,6.5 C24.3333333,6.96 23.96,7.33333333 23.5,7.33333333 Z" id="Shape"></path>
                        <path d="M23.5,0 C19.9157143,0 17,2.96555556 17,6.61111111 C17,10.0035556 22.2148571,16.0121111 22.8091429,16.6864444 C22.9855714,16.8847778 23.2362857,17 23.5,17 C23.7637143,17 24.0144286,16.8847778 24.1908571,16.6864444 C24.7851429,16.0121111 30,10.0035556 30,6.61111111 C30,2.96555556 27.0842857,0 23.5,0 Z M23.5,14.6143333 C21.472,12.1682222 18.8571429,8.41311111 18.8571429,6.61111111 C18.8571429,4.00822222 20.9408571,1.88888889 23.5,1.88888889 C26.0591429,1.88888889 28.1428571,4.00822222 28.1428571,6.61111111 C28.1428571,8.41122222 25.528,12.1682222 23.5,14.6143333 Z" id="Shape"></path>
                    </g>
                </g>
            </g>
        </g>
    </g>
</svg>