<?xml version="1.0" encoding="UTF-8"?>
<svg width="68px" height="14px" viewBox="0 0 68 14" version="1.1" xmlns="http://www.w3.org/2000/svg" xmlns:xlink="http://www.w3.org/1999/xlink">
    <!-- Generator: Sketch 46.2 (44496) - http://www.bohemiancoding.com/sketch -->
    <title>f</title>
    <desc>Created with Sketch.</desc>
    <defs></defs>
    <g id="Page-1" stroke="none" stroke-width="1" fill="none" fill-rule="evenodd">
        <g id="Desktop" transform="translate(-517.000000, -8747.000000)" fill="#3B5998">
            <g id="12-footer" transform="translate(-1.000000, 8554.000000)">
                <g id="footer-/-social-media" transform="translate(445.000000, 191.000000)">
                    <path d="M77.7479051,2.5 L79.7391304,2.5 L79.7734618,2.53515625 L79.7734618,4.78515625 L79.7391304,4.8203125 L78.5375289,4.8203125 C78.1636955,4.8203125 77.9310067,4.9257802 77.8394557,5.13671875 C77.7784217,5.25390684 77.7479051,5.48046707 77.7479051,5.81640625 L77.7479051,6.87109375 L79.762018,6.87109375 L79.7734618,6.89453125 L79.7963495,6.89453125 L79.5331416,9.19140625 L77.7479051,9.19140625 L77.7479051,15.8359375 L77.7135736,15.8710938 L75.0700505,15.8710938 L75.035719,15.8359375 L75.035719,9.19140625 L73.7311231,9.19140625 L73.6967917,9.15625 L73.6967917,6.90625 L73.7311231,6.87109375 L75.035719,6.87109375 L75.035719,5.48828125 C75.035719,4.04296152 75.5125402,3.12890816 76.4661969,2.74609375 C76.9010644,2.58203043 77.3282962,2.5 77.7479051,2.5 Z M106.620671,2.72265625 L106.643559,2.74609375 L106.643559,7.0703125 C107.314933,6.84374887 107.967225,6.73046875 108.600453,6.73046875 C110.16445,6.73046875 111.129536,7.15233953 111.49574,7.99609375 C111.716988,8.34765801 111.827611,9.21483684 111.827611,10.5976562 L111.827611,11.5 C111.827611,12.9531323 111.716988,13.8593732 111.49574,14.21875 C111.427077,14.4531262 111.240163,14.7304671 110.934993,15.0507812 C110.255989,15.6835969 109.123062,16 107.536177,16 C106.437565,16 105.235975,15.8750013 103.931373,15.625 L103.931373,3.21484375 C103.931373,3.16796852 104.324274,3.09375051 105.110087,2.9921875 L106.620671,2.72265625 Z M132.540931,2.72265625 L132.563819,2.74609375 L132.563819,10.84375 L132.575263,10.84375 C134.146889,8.26561211 134.967021,6.9414066 135.035685,6.87109375 L137.919528,6.87109375 L137.95386,6.90625 L135.276005,11.2304688 C135.276005,11.277344 135.710866,12.0351489 136.580601,13.5039062 L137.95386,15.859375 L137.930972,15.8710937 L135.035685,15.8710937 C134.989909,15.8242185 134.169777,14.4297012 132.575263,11.6875 L132.563819,11.6875 L132.563819,15.8359375 L132.529487,15.8710937 L129.885964,15.8710937 L129.851633,15.8359375 L129.851633,3.21484375 C129.851633,3.16796852 130.103394,3.11718777 130.606925,3.0625 L132.540931,2.72265625 Z M91.8238078,6.73046875 C92.6859135,6.73046875 93.6128539,6.8554675 94.6046569,7.10546875 L94.6046569,9.3203125 L94.5703254,9.35546875 C93.4869714,9.15234273 92.674468,9.05078125 92.132791,9.05078125 C91.469046,9.05078125 91.034185,9.16406137 90.8281952,9.390625 C90.6450931,9.50781309 90.5535434,9.98046461 90.5535434,10.8085938 L90.5535434,11.96875 C90.5535434,12.7343788 90.6336494,13.1796869 90.7938637,13.3046875 C90.9693365,13.5546888 91.4003829,13.6796875 92.0870157,13.6796875 L92.2701169,13.6796875 C92.7507599,13.6796875 93.5251175,13.578126 94.593213,13.375 L94.6046569,13.3984375 L94.6046569,15.6132812 C94.6046569,15.667969 94.1202065,15.7656243 93.1512913,15.90625 C92.7698286,15.9687503 92.323524,16 91.812364,16 C89.9431968,16 88.71872,15.3007882 88.1388967,13.9023438 C87.9405361,13.4726541 87.8413573,12.7226616 87.8413573,11.6523438 L87.8413573,11.0546875 C87.8413573,9.76561855 88.0091983,8.88672109 88.3448855,8.41796875 C88.9857428,7.29296313 90.145372,6.73046875 91.8238078,6.73046875 Z M99.2050738,6.73046875 C101.028465,6.73046875 102.207167,7.33593145 102.741215,8.546875 C102.947205,9.03906496 103.050198,9.72265187 103.050198,10.5976562 L103.050198,12.1445312 L103.015867,12.1796875 L98.1064668,12.1796875 L98.1064668,12.4492188 C98.1064668,13.0585968 98.3010098,13.4257806 98.6901018,13.5507812 C98.8960916,13.6367192 99.2165155,13.6796875 99.6513829,13.6796875 L99.8573718,13.6796875 C100.765253,13.6796875 101.749412,13.578126 102.809878,13.375 L102.832766,13.3984375 L102.832766,15.6132812 C102.832766,15.6445314 102.375017,15.7382805 101.459507,15.8945312 C100.872054,15.9648441 100.208319,16 99.4682818,16 C97.5304513,16 96.2754579,15.3242255 95.7032639,13.9726562 C95.497274,13.4335911 95.3942807,12.8828153 95.3942807,12.3203125 L95.3942807,10.1757812 C95.3942807,8.59764836 96.0465721,7.54297141 97.3511745,7.01171875 C97.9462562,6.82421781 98.5642165,6.73046875 99.2050738,6.73046875 Z M116.370809,6.75390625 L116.668348,6.75390625 C118.529886,6.75390625 119.720032,7.46093043 120.238821,8.875 C120.383777,9.35937742 120.456254,9.91015316 120.456254,10.5273438 L120.456254,12.1796875 C120.456254,13.9375088 119.849737,15.0742162 118.636686,15.5898438 C118.056863,15.8476575 117.347353,15.9765625 116.508135,15.9765625 C114.71526,15.9765625 113.532743,15.3867246 112.960549,14.2070312 C112.708784,13.6757786 112.582903,13.0546911 112.582903,12.34375 L112.582903,10.3398438 C112.582903,8.589835 113.319115,7.46875246 114.791561,6.9765625 C115.287463,6.82812426 115.813873,6.75390625 116.370809,6.75390625 Z M125.010895,6.75390625 L125.296991,6.75390625 C127.074607,6.75390625 128.238051,7.39061863 128.787357,8.6640625 C128.993347,9.17969008 129.09634,9.76562172 129.09634,10.421875 L129.09634,12.34375 C129.09634,14.1484465 128.333426,15.2890601 126.807576,15.765625 C126.281157,15.9062507 125.728045,15.9765625 125.148221,15.9765625 C123.340088,15.9765625 122.142313,15.3671936 121.554861,14.1484375 C121.325983,13.5781221 121.211546,12.9882843 121.211546,12.3789062 L121.211546,10.3867188 C121.211546,8.69139777 121.88291,7.57812766 123.225659,7.046875 C123.774965,6.85156152 124.370038,6.75390625 125.010895,6.75390625 Z M83.4011538,6.87109375 C85.1177359,6.87109375 86.1858154,7.31249559 86.6054244,8.1953125 C86.8495605,8.71875262 86.9716267,9.43358922 86.9716267,10.3398438 L86.9716267,15.859375 L86.9372952,15.8945312 L84.7400812,15.8945312 C84.7019349,15.8945312 84.6599746,15.6992207 84.6141991,15.3085938 C83.8131275,15.7539085 83.0006241,15.9765625 82.1766647,15.9765625 L81.9249006,15.9765625 C81.1314582,15.9765625 80.4944251,15.6562532 80.0137821,15.015625 C79.6933535,14.5312476 79.5331416,13.9726594 79.5331416,13.3398438 L79.5331416,13.2695312 C79.5331416,12.1835883 79.9069694,11.4648455 80.6546362,11.1132812 C80.9826941,10.8867176 81.7608663,10.7734375 82.9891762,10.7734375 L84.2594406,10.7734375 L84.2594406,10.4804688 C84.2594406,9.85546562 84.1717055,9.50390664 83.9962326,9.42578125 C83.8055013,9.26953047 83.46219,9.19140625 82.9662885,9.19140625 L80.4600912,9.19140625 L80.4486474,9.1796875 L80.4257598,9.1796875 L80.6660801,6.87109375 L83.4011538,6.87109375 Z M98.1064668,9.89453125 L98.1064668,10.3164062 L100.338012,10.3164062 L100.338012,10.1640625 C100.338012,9.53905937 100.212132,9.1562507 99.9603662,9.015625 C99.7543763,8.89062438 99.5102439,8.828125 99.2279615,8.828125 C98.4802946,8.828125 98.1064668,9.1835902 98.1064668,9.89453125 Z M106.643559,9.4609375 L106.643559,13.6796875 L107.444627,13.7148438 L107.650615,13.7148438 C108.428799,13.7148438 108.886548,13.4570338 109.023874,12.9414062 C109.06965,12.7773429 109.092537,12.593751 109.092537,12.390625 L109.092537,10.1054688 C109.092537,9.5351534 108.836961,9.19531305 108.325801,9.0859375 L108.096925,9.07421875 L107.925267,9.07421875 C107.505658,9.07421875 107.078426,9.20312371 106.643559,9.4609375 Z M115.295089,10.2460938 L115.295089,12.53125 C115.295089,13.2968788 115.699434,13.6796875 116.508135,13.6796875 L116.565354,13.6796875 C117.190953,13.6796875 117.57241,13.4023465 117.709736,12.8476562 C117.732624,12.7070305 117.744068,12.5156262 117.744068,12.2734375 L117.744068,10.421875 C117.744068,9.71874648 117.54571,9.30468812 117.148989,9.1796875 C116.988774,9.10937465 116.817119,9.07421875 116.634017,9.07421875 L116.40514,9.07421875 C115.916868,9.07421875 115.573557,9.27734172 115.375196,9.68359375 C115.321791,9.82421945 115.295089,10.0117176 115.295089,10.2460938 Z M123.923732,10.3046875 L123.923732,12.4609375 C123.923732,13.2734416 124.320447,13.6796875 125.11389,13.6796875 L125.193997,13.6796875 C125.987439,13.6796875 126.384154,13.2617229 126.384154,12.4257812 L126.384154,10.3164062 C126.384154,9.7070282 126.178167,9.32031332 125.766188,9.15625 C125.567827,9.10156223 125.399986,9.07421875 125.26266,9.07421875 L125.045227,9.07421875 C124.564584,9.07421875 124.225087,9.26562309 124.026727,9.6484375 C123.958063,9.81250082 123.923732,10.0312486 123.923732,10.3046875 Z M82.2453277,13.2695312 C82.2453277,13.7617212 82.4970893,14.0078125 83.00062,14.0078125 C83.3591949,14.0078125 83.7787976,13.88672 84.2594406,13.6445312 L84.2594406,12.6367188 L83.3439347,12.6367188 C82.809887,12.6367188 82.4894631,12.6914057 82.3826536,12.8007812 C82.2911025,12.9023443 82.2453277,13.0585927 82.2453277,13.2695312 Z M139.475888,14.2773438 C139.86498,14.2773438 140.135814,14.4921854 140.2884,14.921875 L140.299843,15.0273438 L140.299843,15.2617188 C140.299843,15.4960949 140.158704,15.7109365 139.876422,15.90625 C139.761983,15.9687503 139.651361,16 139.544551,16 L139.372894,16 C139.235567,16 139.071541,15.9179696 138.880809,15.7539062 C138.728224,15.5507802 138.651933,15.3632821 138.651933,15.1914062 L138.651933,15.1328125 C138.651933,14.7109354 138.865549,14.4375006 139.292787,14.3125 L139.475888,14.2773438 Z M138.82359,15.15625 C138.82359,15.4921892 139.002875,15.7187494 139.36145,15.8359375 L139.498776,15.859375 C139.796317,15.859375 140.006118,15.6718769 140.128186,15.296875 L140.151074,15.15625 C140.08241,14.6718726 139.857351,14.4296875 139.475888,14.4296875 C139.109684,14.4296875 138.892253,14.6718726 138.82359,15.15625 Z M139.304231,14.6640625 L139.533107,14.6640625 C139.723839,14.6640625 139.819203,14.7499991 139.819203,14.921875 C139.796315,15.0781258 139.746726,15.15625 139.670433,15.15625 C139.739096,15.2031252 139.800129,15.3593737 139.853534,15.625 L139.84209,15.6484375 L139.704765,15.6484375 C139.681877,15.6484375 139.647546,15.5351574 139.60177,15.3085938 C139.555995,15.2617185 139.51022,15.2382812 139.464444,15.2382812 L139.338562,15.2382812 L139.338562,15.6132812 L139.304231,15.6484375 L139.201236,15.6484375 L139.166905,15.6132812 L139.166905,14.7109375 C139.182163,14.6796873 139.227938,14.6640625 139.304231,14.6640625 Z M139.338562,14.8046875 L139.338562,15.0976562 L139.441557,15.0976562 C139.578883,15.0976562 139.647545,15.0468755 139.647545,14.9453125 C139.647545,14.851562 139.567439,14.7968751 139.407225,14.78125 L139.338562,14.8046875 Z" id="f"></path>
                </g>
            </g>
        </g>
    </g>
</svg>