<?xml version="1.0" encoding="UTF-8"?>
<svg width="49px" height="14px" viewBox="0 0 49 14" version="1.1" xmlns="http://www.w3.org/2000/svg" xmlns:xlink="http://www.w3.org/1999/xlink">
    <!-- Generator: Sketch 46.2 (44496) - http://www.bohemiancoding.com/sketch -->
    <title>flicker</title>
    <desc>Created with Sketch.</desc>
    <defs></defs>
    <g id="Page-1" stroke="none" stroke-width="1" fill="none" fill-rule="evenodd">
        <g id="Desktop" transform="translate(-728.000000, -8748.000000)">
            <g id="12-footer" transform="translate(-1.000000, 8554.000000)">
                <g id="footer-/-social-media" transform="translate(445.000000, 191.000000)">
                    <g id="flicker" transform="translate(284.000000, 3.000000)">
                        <path d="M42.9767343,4.484375 L43.0797287,4.484375 C43.3696404,4.484375 43.6900642,4.5195309 44.0410099,4.58984375 L44.0410099,4.61328125 L43.903684,7.19140625 L43.8922402,7.21484375 L43.8693525,7.21484375 C43.6175872,7.15234344 43.4001567,7.12109375 43.2170546,7.12109375 L42.7936332,7.12109375 C41.946786,7.12109375 41.3402694,7.58593285 40.9740652,8.515625 C40.8214802,8.92187703 40.7451888,9.37890371 40.7451888,9.88671875 L40.7451888,13.765625 L40.7108573,13.8007812 L37.7926824,13.8007812 L37.7583509,13.765625 L37.7583509,4.73046875 L37.7926824,4.6953125 L40.4590932,4.6953125 L40.4934247,4.73046875 L40.4934247,6.37109375 L40.5048685,6.37109375 C41.031287,5.11327496 41.855234,4.484375 42.9767343,4.484375 Z M44.6933078,4.58984375 L45.9635722,4.58984375 L45.9979037,4.625 L45.9979037,4.87109375 L45.9635722,4.90625 L45.4829316,4.90625 L45.4829316,6.3125 L45.4486002,6.34765625 L45.2082799,6.34765625 L45.1739484,6.3125 L45.1739484,4.90625 L44.6933078,4.90625 L44.6589764,4.87109375 L44.6589764,4.625 L44.6933078,4.58984375 Z M46.4098813,4.58984375 L46.8447466,4.58984375 C46.9134099,4.67578168 47.0621781,5.06249656 47.2910557,5.75 L47.3024995,5.75 C47.5695234,4.97655863 47.7182916,4.58984375 47.7488087,4.58984375 L48.1607863,4.58984375 L48.1951178,4.625 L48.1951178,6.3125 L48.1607863,6.34765625 L47.920466,6.34765625 L47.8861345,6.3125 L47.8861345,5.0703125 L47.8746907,5.0703125 C47.5847791,5.92187926 47.4283817,6.34765625 47.405494,6.34765625 L47.1880613,6.34765625 C47.149915,6.34765625 46.9935177,5.92578547 46.7188646,5.08203125 L46.7074207,5.08203125 L46.7074207,6.3125 L46.6730893,6.34765625 L46.4098813,6.34765625 L46.3755499,6.3125 L46.3755499,4.625 L46.4098813,4.58984375 Z" id="e-copy" fill="#FF0084"></path>
                        <path d="M5.68131415,0.5 L6.10473561,0.5 C6.44042277,0.5 6.87146914,0.558593164 7.39788765,0.67578125 L7.39788765,0.6875 L7.2262303,2.8203125 L7.16901118,2.83203125 C6.95539208,2.75390586 6.6883722,2.71484375 6.36794355,2.71484375 L6.23061767,2.71484375 C5.77286245,2.71484375 5.46769688,2.94921641 5.3151118,3.41796875 C5.24644852,3.56640699 5.21211739,3.96874672 5.21211739,4.625 L5.21211739,4.6953125 L7.29489324,4.6953125 L7.32922471,4.73046875 L7.32922471,6.875 L7.29489324,6.91015625 L5.21211739,6.91015625 L5.21211739,13.765625 L5.17778592,13.8007812 L2.28249863,13.8007812 L2.24816716,13.765625 L2.24816716,6.91015625 L0.543037482,6.91015625 L0.508706012,6.875 L0.508706012,4.73046875 L0.543037482,4.6953125 L2.29394245,4.6953125 L2.29394245,4.2265625 C2.29394245,2.52342898 2.74024709,1.43750234 3.63286978,0.96875 C4.17454679,0.656248438 4.85735475,0.5 5.68131415,0.5 Z M8.88558468,0.6875 L11.8037596,0.6875 L11.8380911,0.72265625 L11.8380911,13.765625 L11.8037596,13.8007812 L8.88558468,13.8007812 L8.85125321,13.765625 L8.85125321,0.72265625 L8.88558468,0.6875 Z M27.7564493,0.6875 L30.6746243,0.6875 L30.7089557,0.72265625 L30.7089557,8.515625 L30.7203996,8.515625 C32.0478897,6.42967707 32.8718367,5.1562523 33.1922654,4.6953125 L36.4194236,4.6953125 L36.4194236,4.71875 L33.4669172,8.8671875 L36.6826315,13.7890625 L36.6597439,13.8007812 L33.1121586,13.8007812 C33.0892709,13.7929687 32.8069927,13.2773489 32.2653157,12.2539062 L30.7089557,9.30078125 L30.7089557,13.765625 L30.6746243,13.8007812 L27.7564493,13.8007812 L27.7221179,13.765625 L27.7221179,0.72265625 L27.7564493,0.6875 Z M14.3786199,0.8984375 L17.2967948,0.8984375 L17.3311263,0.93359375 L17.3311263,3.18359375 L17.2967948,3.21875 L14.3786199,3.21875 L14.3442884,3.18359375 L14.3442884,0.93359375 L14.3786199,0.8984375 Z M23.9914315,4.484375 L24.1287573,4.484375 C25.0366385,4.484375 25.803367,4.65624828 26.4289658,5 L26.4289658,5.01171875 C26.3068978,6.53516387 26.2267918,7.296875 26.1886455,7.296875 C25.7003733,6.96874836 25.1281878,6.8046875 24.472072,6.8046875 L24.3347462,6.8046875 C23.5336745,6.8046875 22.9042705,7.1992148 22.4465153,7.98828125 C22.255784,8.4179709 22.1604197,8.85546652 22.1604197,9.30078125 C22.1604197,10.253911 22.6181681,10.97656 23.5336785,11.46875 C23.8998827,11.6093757 24.2126774,11.6796875 24.472072,11.6796875 L24.5292911,11.6796875 L24.5750664,11.6914062 L24.666617,11.6796875 L24.7009485,11.6796875 C25.3036595,11.6796875 25.875845,11.5390639 26.417522,11.2578125 L26.4518535,11.4101562 L26.4976288,13.5898438 C25.7575911,13.8632826 25.0023064,14 24.2317517,14 L23.8769932,14 C22.5723908,14 21.4203908,13.5585982 20.4209586,12.6757812 C19.5283359,11.7773393 19.0820313,10.6367257 19.0820313,9.25390625 C19.0820313,7.49608496 19.7686538,6.16406703 21.1419194,5.2578125 C21.9887666,4.74218492 22.9385944,4.484375 23.9914315,4.484375 Z M14.3786199,4.6953125 L17.2967948,4.6953125 L17.3311263,4.73046875 L17.3311263,13.765625 L17.2967948,13.8007812 L14.3786199,13.8007812 L14.3442884,13.765625 L14.3442884,4.73046875 L14.3786199,4.6953125 Z" id="e-copy-2" fill="#0063DB"></path>
                    </g>
                </g>
            </g>
        </g>
    </g>
</svg>