<?xml version="1.0" encoding="UTF-8"?>
<svg width="20px" height="19px" viewBox="0 0 20 19" version="1.1" xmlns="http://www.w3.org/2000/svg" xmlns:xlink="http://www.w3.org/1999/xlink">
    <!-- Generator: Sketch 46.2 (44496) - http://www.bohemiancoding.com/sketch -->
    <title>Fill 3</title>
    <desc>Created with Sketch.</desc>
    <defs></defs>
    <g id="Page-1" stroke="none" stroke-width="1" fill="none" fill-rule="evenodd">
        <g id="Desktop" transform="translate(-384.000000, -2512.000000)" fill="#8E4CBC">
            <g id="3-Speakers" transform="translate(3.000000, 2073.000000)">
                <g id="Speakers" transform="translate(132.000000, 184.000000)">
                    <g id="Christian-Heilmann" transform="translate(1.000000, 0.000000)">
                        <path d="M257.999079,255 C252.477731,255 248,259.360899 248,264.740717 C248,269.044213 250.865036,272.69474 254.838761,273.982739 C255.339083,274.072432 255.521409,273.77166 255.521409,273.513343 C255.521409,273.282531 255.512815,272.669626 255.507904,271.857002 C252.726357,272.445392 252.139476,270.551064 252.139476,270.551064 C251.684582,269.42571 251.028945,269.126133 251.028945,269.126133 C250.120998,268.522197 251.097701,268.534156 251.097701,268.534156 C252.101415,268.602921 252.629362,269.538125 252.629362,269.538125 C253.521348,271.02644 254.970134,270.596509 255.539826,270.347161 C255.630682,269.71811 255.889131,269.288777 256.174591,269.045409 C253.954142,268.799649 251.619509,267.963705 251.619509,264.231258 C251.619509,263.168091 252.009331,262.298064 252.649007,261.617589 C252.545873,261.37123 252.202707,260.380416 252.74723,259.039797 C252.74723,259.039797 253.586421,258.777892 255.496854,260.038385 C256.2943,259.821924 257.150066,259.714292 258.000307,259.710106 C258.849934,259.714292 259.705086,259.821924 260.50376,260.038385 C262.412965,258.777892 263.250929,259.039797 263.250929,259.039797 C263.796679,260.380416 263.453513,261.37123 263.350993,261.617589 C263.991897,262.298064 264.378649,263.168091 264.378649,264.231258 C264.378649,267.973272 262.040333,268.796659 259.813131,269.037636 C260.171644,269.338408 260.491482,269.932777 260.491482,270.841671 C260.491482,272.143424 260.479204,273.194034 260.479204,273.513343 C260.479204,273.774052 260.659689,274.077216 261.166764,273.982141 C265.13742,272.691152 268,269.043017 268,264.740717 C268,259.360899 263.522269,255 257.999079,255" id="Fill-3"></path>
                    </g>
                </g>
            </g>
        </g>
    </g>
</svg>