<?xml version="1.0" encoding="UTF-8"?>
<svg width="17px" height="18px" viewBox="0 0 17 18" version="1.1" xmlns="http://www.w3.org/2000/svg" xmlns:xlink="http://www.w3.org/1999/xlink">
    <!-- Generator: Sketch 46.2 (44496) - http://www.bohemiancoding.com/sketch -->
    <title>F</title>
    <desc>Created with Sketch.</desc>
    <defs></defs>
    <g id="Page-1" stroke="none" stroke-width="1" fill="none" fill-rule="evenodd">
        <g id="Desktop" transform="translate(-224.000000, -2515.000000)" fill="#0287D2">
            <g id="3-Speakers" transform="translate(3.000000, 2073.000000)">
                <g id="Speakers" transform="translate(132.000000, 184.000000)">
                    <g id="Christian-Heilmann" transform="translate(1.000000, 0.000000)">
                        <g id="SOCIAL" transform="translate(88.000000, 258.000000)">
                            <path d="M1.62359034,0.95 L15.4176567,0.95 C15.8830458,0.95 16.2320825,1.22922932 16.4647771,1.78769634 L16.5066619,2.16465969 L16.5066619,15.8191099 C16.5066619,16.377577 16.2507017,16.7591904 15.7387736,16.9639616 C15.6270802,17.0105005 15.5200423,17.0337696 15.4176567,17.0337696 L1.62359034,17.0337696 C1.13027781,17.0337696 0.767279694,16.7452327 0.534585105,16.1681501 L0.506661893,15.9168412 L0.506661893,2.05296684 C0.506661893,1.54103874 0.809160323,1.17804063 1.41416626,0.963961606 L1.62359034,0.95 Z M2.81032681,4.84528796 L2.81032681,4.90113438 C2.81032681,5.48752475 3.11282524,5.88775344 3.71783118,6.10183246 L4.0249865,6.14371728 L4.2762954,6.14371728 C4.86268577,6.14371728 5.26756828,5.82260356 5.49095509,5.18036649 L5.5188783,4.90113438 C5.5188783,4.30543623 5.19776458,3.90055372 4.55552751,3.68647469 L4.13667935,3.64458988 C3.50375006,3.64458988 3.07559844,3.94708831 2.85221163,4.55209424 L2.81032681,4.84528796 Z M9.12097254,8.15418848 L9.09304933,8.15418848 L9.09304933,7.14895288 L6.70561477,7.14895288 L6.70561477,14.4089878 L9.09304933,14.4089878 L9.09304933,10.6672775 C9.09304933,9.95057815 9.20474106,9.51777271 9.42812786,9.36884817 C9.69805359,9.04307574 10.000552,8.88019197 10.3356322,8.88019197 L10.5031715,8.88019197 C11.0430229,8.88019197 11.4060211,9.20130569 11.5921767,9.84354276 C11.6294079,10.0948529 11.6480231,10.3182364 11.6480231,10.5136998 L11.6480231,14.4089878 L14.0633809,14.4089878 L14.0633809,10.4299302 C14.0633809,8.67075909 13.4816532,7.57711092 12.3181802,7.14895288 C11.9272533,7.03725948 11.5642552,6.98141361 11.229175,6.98141361 C10.3635511,6.98141361 9.66082399,7.37233466 9.12097254,8.15418848 Z M2.96390448,7.14895288 L2.96390448,14.4089878 L5.35133903,14.4089878 L5.35133903,7.14895288 L2.96390448,7.14895288 Z" id="F"></path>
                        </g>
                    </g>
                </g>
            </g>
        </g>
    </g>
</svg>