<?xml version="1.0" encoding="UTF-8"?>
<svg width="18px" height="14px" viewBox="0 0 18 14" version="1.1" xmlns="http://www.w3.org/2000/svg" xmlns:xlink="http://www.w3.org/1999/xlink">
    <!-- Generator: Sketch 46.2 (44496) - http://www.bohemiancoding.com/sketch -->
    <title>Shape</title>
    <desc>Created with Sketch.</desc>
    <defs></defs>
    <g id="Page-1" stroke="none" stroke-width="1" fill="none" fill-rule="evenodd">
        <g id="Desktop" transform="translate(-303.000000, -2515.000000)" fill-rule="nonzero" fill="#0287D2">
            <g id="3-Speakers" transform="translate(3.000000, 2073.000000)">
                <g id="Speakers" transform="translate(132.000000, 184.000000)">
                    <g id="Christian-Heilmann" transform="translate(1.000000, 0.000000)">
                        <g id="SOCIAL" transform="translate(88.000000, 258.000000)">
                            <g id="Logo__x2014__FIXED" transform="translate(79.000000, 0.000000)">
                                <path d="M5.7327541,14 C12.3657205,14 15.9952122,8.61220472 15.9952122,3.94783465 C15.9952122,3.79625984 15.9952122,3.64468504 15.9881783,3.49311024 C16.6915681,2.99704724 17.3035173,2.37007874 17.7888563,1.66043307 C17.1417376,1.94291339 16.4453817,2.12893701 15.7138562,2.21850394 C16.4594495,1.78444882 17.0291953,1.08858268 17.3035173,0.261811024 C16.6071613,0.668307087 15.8334325,0.957677165 15.0104664,1.11614173 C14.3492799,0.427165354 13.4137714,0 12.3797883,0 C10.389195,0 8.7713983,1.58464567 8.7713983,3.53444882 C8.7713983,3.81003937 8.80656779,4.07874016 8.86283898,4.34055118 C5.86639817,4.19586614 3.2075845,2.78346457 1.42800815,0.647637795 C1.11851661,1.17125984 0.94266915,1.77755906 0.94266915,2.42519685 C0.94266915,3.6515748 1.58275392,4.73326772 2.54639803,5.36712598 C1.95555055,5.34645669 1.39987256,5.18799213 0.914533555,4.9261811 C0.914533555,4.93996063 0.914533555,4.95374016 0.914533555,4.97440945 C0.914533555,6.68307087 2.15953361,8.11614173 3.80546588,8.43996063 C3.50300824,8.5226378 3.1864828,8.56397638 2.85588957,8.56397638 C2.62377092,8.56397638 2.39868616,8.54330709 2.1806353,8.5019685 C2.63783871,9.90748031 3.97427945,10.9271654 5.54987274,10.9547244 C4.31190658,11.9055118 2.75741499,12.4704724 1.06927932,12.4704724 C0.780889482,12.4704724 0.492499639,12.4566929 0.211143695,12.4222441 C1.80080478,13.4143701 3.6999574,14 5.7327541,14" id="Shape"></path>
                            </g>
                        </g>
                    </g>
                </g>
            </g>
        </g>
    </g>
</svg>