<?xml version="1.0" encoding="UTF-8"?>
<svg width="41px" height="17px" viewBox="0 0 41 17" version="1.1" xmlns="http://www.w3.org/2000/svg" xmlns:xlink="http://www.w3.org/1999/xlink">
    <!-- Generator: Sketch 46.2 (44496) - http://www.bohemiancoding.com/sketch -->
    <title>yt</title>
    <desc>Created with Sketch.</desc>
    <defs></defs>
    <g id="Page-1" stroke="none" stroke-width="1" fill="none" fill-rule="evenodd">
        <g id="Desktop" transform="translate(-636.000000, -8746.000000)">
            <g id="12-footer" transform="translate(-1.000000, 8554.000000)">
                <g id="footer-/-social-media" transform="translate(445.000000, 191.000000)">
                    <g id="yt" transform="translate(192.000000, 1.000000)">
                        <path d="M2.11680661,3.33544922 C2.15368134,3.33544922 2.2412575,3.66112956 2.37953772,4.3125 C2.61922344,5.19043408 2.89117047,6.29019521 3.19538696,7.61181641 L3.29218263,7.61181641 L4.28779526,3.33544922 L5.90566578,3.33544922 L5.93332169,3.36376953 L5.94714964,3.36376953 C4.69340895,7.50799598 4.06654801,9.62255817 4.06654801,9.70751953 L4.06654801,14.0263672 L4.02506415,14.0688477 L2.46250544,14.0688477 L2.42102158,14.0263672 L2.42102158,9.90576172 C2.42102158,9.7735996 1.86329971,7.86671763 0.747839248,4.18505859 L0.512764044,3.36376953 L0.540419951,3.33544922 L2.11680661,3.33544922 Z M7.92454694,5.95507812 L8.04899852,5.95507812 C8.94321063,5.95507812 9.5654623,6.37987856 9.9157722,7.22949219 C9.99874033,7.43717552 10.0402238,7.66845576 10.0402238,7.92333984 L10.0402238,12.1572266 C10.0402238,13.2050834 9.57007807,13.8847641 8.62977256,14.1962891 L7.9383749,14.28125 C6.87822652,14.28125 6.20066359,13.7431694 5.90566578,12.6669922 C5.86879105,12.4121081 5.85035397,12.0864278 5.85035397,11.6899414 L5.85035397,8.29150391 C5.85035397,7.33804862 6.07620828,6.71500797 6.52792367,6.42236328 C6.88745225,6.11083829 7.35298869,5.95507812 7.92454694,5.95507812 Z M11.2847396,6.13916016 L12.6537069,6.13916016 L12.6951908,6.18164062 L12.6951908,12.0864258 C12.6951908,12.5112326 12.8058133,12.7236328 13.0270617,12.7236328 L13.0823735,12.7236328 C13.2944032,12.7236328 13.5663502,12.5348326 13.8982227,12.1572266 L13.8982227,6.18164062 L13.9397066,6.13916016 L15.3225019,6.13916016 L15.3639857,6.18164062 L15.3639857,14.0263672 L15.3225019,14.0688477 L13.9397066,14.0688477 L13.8982227,14.0263672 L13.8982227,13.2333984 C13.3266645,13.8753287 12.7781611,14.1962891 12.2526963,14.1962891 C11.7825435,14.1962891 11.4737223,13.9555688 11.3262234,13.4741211 C11.2709113,13.2286772 11.2432557,12.9454769 11.2432557,12.6245117 L11.2432557,6.18164062 L11.2847396,6.13916016 Z M7.35760086,7.88085938 L7.35760086,12.2421875 C7.35760086,12.6669943 7.546581,12.8793945 7.92454694,12.8793945 L7.9383749,12.8793945 C8.35321557,12.8793945 8.56063279,12.6150743 8.56063279,12.0864258 L8.56063279,7.99414062 C8.56063279,7.68261563 8.43618246,7.47493542 8.18727805,7.37109375 L7.92454694,7.32861328 C7.546581,7.37581404 7.35760086,7.55989423 7.35760086,7.88085938 Z" id="you" fill="#222321"></path>
                        <path d="M27.3113373,0.6875 L29.5929496,0.6875 C32.5152716,0.6875 35.0826359,0.748860063 37.2951195,0.871582031 C38.1524569,1.06982521 38.7793178,1.40966556 39.1757211,1.89111328 C39.8394662,2.50472312 40.1713337,3.49120414 40.1713337,4.85058594 C40.2543019,5.76628062 40.2957853,6.91324181 40.2957853,8.29150391 L40.2957853,9.39599609 C40.2404732,12.511246 40.1390693,14.1962878 39.9915703,14.4511719 C39.6873539,15.3574264 39.0973671,16.0418271 38.2215923,16.5043945 C37.7790956,16.7498385 37.0185658,16.8725586 35.9399801,16.8725586 C34.1054624,16.95752 31.9851975,17 29.5791216,17 L27.3528211,17 C24.4397178,17 21.8677442,16.9339199 19.6368233,16.8017578 C19.0283903,16.7167965 18.429185,16.4052761 17.8391894,15.8671875 C17.1201322,15.2346974 16.760609,14.2387763 16.760609,12.8793945 C16.6776409,11.8598582 16.6361574,10.6468169 16.6361574,9.24023438 L16.6361574,8.43310547 C16.6361574,6.76219868 16.7052965,5.15739702 16.8435767,3.61865234 C16.8712328,3.40152886 17.0233387,3.01920847 17.2998992,2.47167969 C17.6963025,1.79198879 18.332382,1.29638828 19.2081567,0.984863281 C19.3556556,0.881021616 20.3420398,0.810221543 22.1673387,0.772460938 C23.577797,0.715820029 25.292446,0.6875 27.3113373,0.6875 Z M18.5029311,3.46289062 L18.5029311,4.9921875 L20.1346296,4.9921875 L20.1761135,5.03466797 L20.1761135,14.1679688 L21.780156,14.1679688 L21.780156,5.03466797 L21.8216399,4.9921875 L23.4533384,4.9921875 L23.4533384,3.46289062 L18.5029311,3.46289062 Z M28.9568637,3.46289063 L28.9568637,14.1679688 L30.3811429,14.1679688 L30.3811429,13.6015625 L30.4087988,13.6015625 C30.7959834,14.0358095 31.2154271,14.2529297 31.6671425,14.2529297 L31.8607339,14.2529297 C32.3954174,14.2529297 32.7687684,13.9366894 32.9807981,13.3041992 C33.0361102,13.0304348 33.0637658,12.7755546 33.0637658,12.5395508 L33.0637658,8.20654297 C33.0637658,6.84716117 32.5982294,6.16748047 31.6671425,6.16748047 C31.2430832,6.16748047 30.8236395,6.40820072 30.4087988,6.88964844 L30.3811429,6.88964844 L30.3811429,3.46289063 L28.9568637,3.46289063 Z M34.1561741,8.33398438 L34.1561741,12.0297852 C34.1561741,13.1059624 34.5571807,13.8328432 35.359206,14.2104492 C35.6265478,14.323731 35.9169319,14.3803711 36.2303671,14.3803711 C37.2444221,14.3803711 37.9035479,13.9508506 38.2077644,13.0917969 C38.3183886,12.7802719 38.3736998,12.3129914 38.3736998,11.6899414 L38.3736998,11.3500977 L36.8941088,11.3500977 L36.8941088,11.9589844 C36.8941088,12.4687525 36.8203605,12.7802729 36.6728616,12.8935547 C36.5438,12.9690759 36.4193497,13.0068359 36.2995069,13.0068359 L36.1750553,13.0068359 C35.7970893,13.0068359 35.6081092,12.6009155 35.6081092,11.7890625 L35.6081092,10.4296875 L35.6495931,10.387207 L38.3736998,10.387207 L38.3736998,8.56054688 C38.3736998,6.90852039 37.7099647,6.08251953 36.3824746,6.08251953 L36.2303671,6.08251953 C35.3730297,6.08251953 34.7369502,6.52147999 34.3221095,7.39941406 C34.2114854,7.71093906 34.1561741,8.02245938 34.1561741,8.33398438 Z M23.4395104,6.26660156 L23.4395104,12.3413086 C23.4395104,13.2098025 23.5224773,13.7337231 23.6884136,13.9130859 C23.8635685,14.1585299 24.1032506,14.28125 24.4074671,14.28125 L24.435123,14.28125 C24.9698066,14.28125 25.5229192,13.9602897 26.0944774,13.3183594 L26.1083054,13.3183594 L26.1083054,14.1679688 L27.5464125,14.1679688 L27.5464125,6.26660156 L26.1083054,6.26660156 L26.1083054,12.2563477 C25.7764328,12.652834 25.4998765,12.8510742 25.2786282,12.8510742 L25.1818325,12.8510742 C24.9698028,12.8510742 24.8637896,12.676434 24.8637896,12.3271484 L24.8637896,6.26660156 L23.4395104,6.26660156 Z M31.0310567,7.41357422 C31.3629292,7.41357422 31.5473001,7.66373448 31.5841748,8.1640625 L31.5841748,12.3413086 C31.5841748,12.7944359 31.4412874,13.0209961 31.1555083,13.0209961 L31.0310567,13.0209961 C30.8098083,13.0209961 30.5931726,12.902996 30.3811429,12.6669922 L30.3811429,7.75341797 C30.5655165,7.52685434 30.7821523,7.41357422 31.0310567,7.41357422 Z M36.2718509,7.44189453 C36.6866916,7.44189453 36.8941088,7.72981483 36.8941088,8.30566406 L36.8941088,9.14111328 L36.852625,9.18359375 L35.6495931,9.18359375 L35.6081092,9.14111328 L35.6081092,8.80126953 C35.6081092,8.12157863 35.672639,7.72981823 35.8017005,7.62597656 C35.9399808,7.50325459 36.096696,7.44189453 36.2718509,7.44189453 Z" id="tube" fill="#D9252A"></path>
                    </g>
                </g>
            </g>
        </g>
    </g>
</svg>