<svg version="1" xmlns="http://www.w3.org/2000/svg" width="3110.667" height="3110.667" viewBox="0 0 2333.000000 2333.000000"><path d="M171 1166.5V2333h1991V0H171v1166.5zM2039.7 122.4c.5.4.9 2066.9.4 2085.3l-.1 3.3H292.5l.1-1044.1c.1-703 .5-1044.4 1.2-1044.8 1.3-.8 1745.1-.6 1745.9.3z"/><path d="M762.9 405.4c-.2.2-4.9.7-10.4 1.1-35.5 2.3-75.2 12.9-103 27.4-18.6 9.8-30.2 18.3-43.9 32.4-7.4 7.7-21.6 26.8-21.6 29.1 0 .3-1 2.3-2.3 4.4-5.4 8.8-12.3 31.1-14.4 46.7-1 7.4-1.1 39.1-.1 46.5 5 37.7 17.6 65.2 40.9 89 21.6 22 48.6 37.1 90.4 50.4 5.4 1.7 24.1 6.2 39.5 9.5 5.2 1.1 13.6 3 18.5 4.1 10.8 2.5 22.1 4.9 25.5 5.6 1.4.3 3.3.7 4.2 1 1 .3 3 .8 4.5 1 1.6.3 7.3 1.6 12.8 3 39.3 9.8 52.9 22.5 51.3 47.8-1.1 17-12.6 29.5-33.8 36.6-3.6 1.2-7.8 2.4-9.5 2.7-1.6.2-4.8.9-7 1.5-6.4 1.6-39.7 1.8-50.5.3-47.4-6.5-86-29-118.4-68.7l-3.8-4.8-10.7 9.8c-5.8 5.3-13.1 12-16.1 14.8-3 2.8-7.9 7.3-10.9 10s-6.2 5.6-7.1 6.4c-.9.8-4.1 3.8-7.1 6.6-3 2.7-13 12-22.4 20.5-18.5 16.8-25.1 22.9-29.7 27.3l-2.9 2.9 2.8 3.1c4.3 4.8 20.4 20.8 24.3 24.2 18 15.5 42.1 30.3 67.7 41.5 20.6 8.9 52.6 18.7 70.3 21.5 1.9.3 5.1.9 7 1.4 1.9.5 5.9 1.2 8.9 1.5 3 .4 6.3.8 7.4 1.1 1 .2 4.5.6 7.6.9 3.1.3 7 .8 8.6 1 17 2.3 71.2 2.3 83 .1 1.1-.2 5.1-.7 8.8-1.1 3.7-.3 7.8-.8 9-1.1 1.2-.2 3.3-.6 4.7-.9 1.4-.2 4.5-.7 7-1.1 2.4-.3 4.7-.7 5-.9.3-.2 2.1-.6 4.2-.9 5-.8 23.7-6 32.3-8.9 46.2-16 80.5-42.9 101.1-79.4 3-5.2 5.4-9.8 5.4-10.2 0-.4.7-2.2 1.5-3.8 4.6-9.2 10.9-32.2 12.1-44.2.2-2.5.6-6.2.9-8.1.6-4.1.6-34.2 0-38.4-.2-1.6-.6-5.9-1-9.4-.3-3.6-.8-6.8-1-7.1-.1-.3-.6-2.4-.9-4.6-1.4-8.5-6.9-25.4-11.3-34.5-4.6-9.5-9.2-17.2-10.5-17.8-.5-.2-.8-.8-.8-1.4 0-1.5-7.8-10.7-15.5-18.1-15.8-15.3-38.7-28.7-65.5-38.2-7.3-2.7-26.1-8.3-29.7-8.9-1.3-.3-3.1-.7-4.1-1-.9-.3-2.8-.7-4.2-1-1.4-.3-17.6-3.9-36-8.1-18.4-4.2-34.4-7.8-35.5-8-37.6-7.9-60.5-16.5-70.4-26.6-10-10.1-12.3-25.9-5.8-38.5 3.7-7.3 15.7-15.3 28.2-18.9 11.5-3.3 17.6-4 35-4 20.4 0 31.8 1.6 51 7.2 31.9 9.2 65.9 29.5 88 52.2 5.4 5.6 6.7 6.1 8.7 3.2 1.1-1.5 11.4-13.2 15.3-17.5.6-.6 5.1-5.6 10-11.1s14.8-16.5 22-24.5c7.1-8 13.5-15 14-15.6 10.4-11.7 15.9-17.8 20.3-22.6 2.8-3.2 5.2-6.2 5.2-6.7 0-1.6-17.7-17-28.1-24.3-11.1-8-14.9-10.4-25.3-16.2-13.9-7.8-31.9-15.9-46.6-21.1-10.6-3.7-29.1-9-35.1-10-1.8-.3-3.5-.7-3.8-.9-.3-.2-2.2-.7-4.1-1-1.9-.3-4.5-.8-5.6-1-1.2-.2-3.9-.7-6-1-2.2-.3-5-.8-6.4-1.1-5-.9-16.1-2.3-24.5-3.1-7.3-.7-61-1.6-61.6-1zM540.2 1872.5c-1.1 1.7-.8 78.4.3 78.8.5.2 84.4.3 186.4.3l185.4-.1.1-38.8c.1-21.4-.2-39.4-.6-40-.9-1.4-370.7-1.6-371.6-.2z"/></svg>