<?xml version="1.0" encoding="UTF-8"?>
<svg width="258px" height="62px" viewBox="0 0 258 62" version="1.1" xmlns="http://www.w3.org/2000/svg" xmlns:xlink="http://www.w3.org/1999/xlink">
    <!-- Generator: Sketch 46.2 (44496) - http://www.bohemiancoding.com/sketch -->
    <title>gbb-logo-vector-2</title>
    <desc>Created with Sketch.</desc>
    <defs>
        <path d="M9.791846,30.82344 C9.791846,32.09578 9.848646,33.29995 9.962248,34.43597 C10.07585,35.57199 10.30305,36.58304 10.64386,37.46913 C10.98466,38.35523 11.46179,39.05955 12.07524,39.58212 C12.68869,40.10469 13.49525,40.36597 14.49495,40.36597 C15.49465,40.36597 16.32393,40.10469 16.98283,39.58212 C17.64172,39.05955 18.16428,38.34387 18.55053,37.43505 C18.93678,36.52623 19.20942,35.42431 19.36846,34.12924 C19.5275,32.83418 19.60702,31.41417 19.60702,29.86919 C19.60702,25.41598 19.25486,22.25789 18.55053,20.39481 C17.8462,18.53174 16.56251,17.60021 14.69943,17.60021 C13.65429,17.60021 12.81365,17.82741 12.17748,18.28182 C11.54131,18.73623 11.04147,19.47463 10.67794,20.49705 C10.31441,21.51947 10.07585,22.88268 9.962248,24.58671 C9.848646,26.29074 9.791846,28.36963 9.791846,30.82344 Z M28.60427,11.3294 L28.60427,46.15965 C28.60427,50.8855 27.43419,54.429839 25.09398,56.792764 C22.75378,59.155689 18.83456,60.3371335 13.33622,60.3371335 C9.337419,60.3371335 6.258847,59.48513 4.100406,57.781098 C1.941965,56.077065 0.8627603,53.657375 0.8627603,50.52196 L9.860007,50.52196 C9.860007,51.703418 10.33713,52.634942 11.29139,53.316555 C11.7458,53.634641 12.23428,53.884562 12.75685,54.066325 C13.27942,54.248089 13.83606,54.338969 14.42679,54.338969 C16.33531,54.338969 17.67579,53.725527 18.44829,52.498623 C19.22078,51.27172 19.60702,49.74947 19.60702,47.93184 L19.60702,43.09241 L19.4707,43.09241 C18.51644,44.45564 17.34636,45.5462 15.96041,46.36414 C14.57447,47.18207 13.13174,47.59103 11.63219,47.59103 C7.906041,47.59103 5.100109,46.17103 3.214313,43.33097 C1.328517,40.49092 0.3856335,35.73106 0.3856335,29.05125 C0.3856335,26.91553 0.5105941,24.7344 0.7605188,22.5078 C1.010444,20.2812 1.533006,18.27047 2.328221,16.47556 C3.123436,14.68064 4.282161,13.2152 5.80443,12.07917 C7.326699,10.94315 9.360147,10.37515 11.90484,10.37515 C13.22262,10.37515 14.58583,10.73867 15.99449,11.46573 C17.40316,12.19278 18.56188,13.51055 19.4707,15.41906 L19.60702,15.41906 L19.60702,11.3294 L28.60427,11.3294 Z M51.26957,25.50688 C51.22413,24.09822 51.13325,22.85997 50.99693,21.79211 C50.86061,20.72425 50.62204,19.81545 50.28124,19.06567 C49.94043,18.3159 49.46331,17.7479 48.84986,17.36165 C48.23641,16.9754 47.45256,16.78228 46.4983,16.78228 C45.54405,16.78228 44.7602,16.99812 44.14675,17.42981 C43.5333,17.8615 43.04482,18.4295 42.68129,19.13383 C42.31776,19.83817 42.05648,20.62201 41.89744,21.48539 C41.7384,22.34876 41.65888,23.21213 41.65888,24.0755 L41.65888,25.50688 L51.26957,25.50688 Z M41.65888,31.09608 L41.65888,34.027 C41.65888,35.11758 41.7384,36.17407 41.89744,37.19649 C42.05648,38.21891 42.31776,39.12771 42.68129,39.92293 C43.04482,40.71814 43.52194,41.3543 44.11267,41.83143 C44.7034,42.30856 45.43045,42.54712 46.29382,42.54712 C47.88425,42.54712 49.04298,41.97912 49.77003,40.8431 C50.49708,39.70708 50.99693,37.98035 51.26957,35.66287 L59.72153,35.66287 C59.53977,39.93431 58.40376,43.18328 56.31348,45.40988 C54.2232,47.63649 50.92879,48.74977 46.43014,48.74977 C43.02208,48.74977 40.36383,48.18177 38.45531,47.04575 C36.54679,45.90972 35.13815,44.4102 34.22933,42.54712 C33.32051,40.68405 32.76387,38.5938 32.55939,36.27632 C32.3549,33.95883 32.25266,31.64138 32.25266,29.3239 C32.25266,26.87009 32.42306,24.5072 32.76387,22.23516 C33.10468,19.96311 33.78628,17.94103 34.8087,16.16883 C35.83112,14.39664 37.29657,12.98799 39.20508,11.94285 C41.1136,10.89771 43.65825,10.37515 46.83911,10.37515 C49.56556,10.37515 51.80349,10.81819 53.55296,11.70429 C55.30244,12.59039 56.677,13.83999 57.6767,15.45314 C58.6764,17.06629 59.358,19.02022 59.72153,21.31498 C60.08506,23.60975 60.26682,26.16576 60.26682,28.98309 L60.26682,31.09608 L41.65888,31.09608 Z M66.61924,0.83262 L66.61924,11.3294 L61.84797,11.3294 L61.84797,17.73653 L66.61924,17.73653 L66.61924,38.73011 C66.61924,40.59319 66.73284,42.13815 66.96004,43.36505 C67.18724,44.59196 67.60757,45.58028 68.22102,46.33006 C68.83447,47.07983 69.72055,47.57967 70.8793,47.8296 C72.03804,48.07952 73.5262,48.20448 75.34384,48.20448 C76.43442,48.20448 77.46818,48.1704 78.44516,48.10224 C79.42214,48.03408 80.43318,48 81.47832,48 L81.47832,41.45655 C81.16024,41.50199 80.81944,41.53607 80.45591,41.55879 C80.09238,41.58151 79.72886,41.59287 79.36533,41.59287 C78.00211,41.59287 77.10467,41.28615 76.67298,40.6727 C76.24129,40.05925 76.02545,39.02548 76.02545,37.57137 L76.02545,17.73653 L81.47832,17.73653 L81.47832,11.3294 L76.02545,11.3294 L76.02545,0.83262 L66.61924,0.83262 Z" id="path-1"></path>
        <path d="M0.15005,0.33308 L9.55626,0.33308 L9.55626,15.73745 L9.69258,15.73745 C10.69228,14.28334 11.81693,13.19278 13.06655,12.46573 C14.31618,11.73867 15.8271,11.37515 17.5993,11.37515 C21.4617,11.37515 24.3017,12.88604 26.1194,15.90785 C27.937,18.92967 28.8458,23.84857 28.8458,30.6647 C28.8458,37.48083 27.937,42.36565 26.1194,45.31931 C24.3017,48.27296 21.4617,49.74977 17.5993,49.74977 C15.6907,49.74977 14.08897,49.40897 12.79391,48.72736 C11.49884,48.04574 10.32876,46.84158 9.28362,45.11483 L9.1473,45.11483 L9.1473,49 L0.15005,49 L0.15005,0.33308 Z M9.55626,30.6647 C9.55626,34.6635 9.86298,37.67391 10.47644,39.69603 C11.08989,41.71815 12.44173,42.72919 14.53201,42.72919 C16.5769,42.72919 17.906,41.71815 18.5194,39.69603 C19.1329,37.67391 19.4396,34.6635 19.4396,30.6647 C19.4396,26.66591 19.1329,23.65549 18.5194,21.63338 C17.906,19.61126 16.5769,18.60021 14.53201,18.60021 C12.44173,18.60021 11.08989,19.61126 10.47644,21.63338 C9.86298,23.65549 9.55626,26.66591 9.55626,30.6647 Z" id="path-3"></path>
        <path d="M3.6305,41.771267 L3.6305,48.791846 L7.4475,48.791846 C9.6287,48.791846 11.435,48.632805 12.8663,48.314719 C14.2977,47.996633 15.5246,47.32639 16.547,46.303971 C17.5695,45.281551 18.4555,43.827465 19.2053,41.941669 C19.9551,40.055874 20.7389,37.59074 21.5569,34.54621 L30.4178,0.3294 L21.0116,0.3294 L16.2403,25.68528 L16.104,25.68528 L10.6511,0.3294 L0.8359,0.3294 L11.1282,37 C10.9919,38.49955 10.5489,39.70371 9.7991,40.612531 C9.0493,41.521348 7.8111,41.97575 6.0843,41.97575 C5.2664,41.97575 4.4485,41.90759 3.6305,41.771267 Z" id="path-5"></path>
        <path d="M0.294,0.33308 L9.7002,0.33308 L9.7002,15.73745 L9.8365,15.73745 C10.8362,14.28334 11.9609,13.19278 13.2105,12.46573 C14.4601,11.73867 15.971,11.37515 17.7432,11.37515 C21.6057,11.37515 24.4457,12.88604 26.2633,15.90785 C28.081,18.92967 28.9898,23.84857 28.9898,30.6647 C28.9898,37.48083 28.081,42.36565 26.2633,45.31931 C24.4457,48.27296 21.6057,49.74977 17.7432,49.74977 C15.8347,49.74977 14.2329,49.40897 12.9379,48.72736 C11.6428,48.04574 10.4727,46.84158 9.4276,45.11483 L9.2912,45.11483 L9.2912,49 L0.294,49 L0.294,0.33308 Z M9.7002,30.6647 C9.7002,34.6635 10.0069,37.67391 10.6204,39.69603 C11.2338,41.71815 12.5857,42.72919 14.676,42.72919 C16.7208,42.72919 18.0499,41.71815 18.6634,39.69603 C19.2768,37.67391 19.5835,34.6635 19.5835,30.6647 C19.5835,26.66591 19.2768,23.65549 18.6634,21.63338 C18.0499,19.61126 16.7208,18.60021 14.676,18.60021 C12.5857,18.60021 11.2338,19.61126 10.6204,21.63338 C10.0069,23.65549 9.7002,26.66591 9.7002,30.6647 Z" id="path-7"></path>
        <path d="M19.5869,32.70586 L19.5869,37 L28.5841,37 L28.5841,0.3294 L19.1779,0.3294 L19.1779,24.66287 C19.1779,28.7071 17.5194,30.72919 14.2022,30.72919 C12.7935,30.72919 11.7711,30.35431 11.1349,29.60454 C10.4988,28.85476 10.1807,27.52564 10.1807,25.61712 L10.1807,0.3294 L0.7745,0.3294 L0.7745,27.52563 C0.7745,31.20634 1.581,33.83051 3.1942,35.39822 C4.8073,36.96593 7.1134,37.74977 10.1125,37.74977 C12.1574,37.74977 13.975,37.36353 15.5654,36.59103 C17.1558,35.81854 18.4509,34.52349 19.4506,32.70586 L19.5869,32.70586 Z" id="path-9"></path>
        <path d="M9.1392,26.00367 L0.6873,26.00367 L0.6873,27.29873 C0.6873,29.07092 0.8917,30.67269 1.3007,32.10408 C1.7097,33.53546 2.4254,34.75099 3.4478,35.75069 C4.4702,36.75039 5.8561,37.50015 7.6056,38 C9.3551,38.49985 11.5476,38.74977 14.1831,38.74977 C16.1825,38.74977 18.0115,38.54529 19.6701,38.13632 C21.3287,37.72735 22.76,37.04575 23.9642,36.09149 C25.1684,35.13723 26.1113,33.94443 26.7929,32.51304 C27.4745,31.08166 27.8153,29.38901 27.8153,27.43505 C27.8153,24.66316 27.2019,22.47067 25.975,20.85752 C24.7481,19.24437 22.6578,17.93796 19.7042,16.93826 L14.0468,15.02976 C12.4564,14.52991 11.3772,13.91647 10.8092,13.18941 C10.2411,12.46236 9.9571,11.64443 9.9571,10.73562 C9.9571,9.41783 10.4002,8.42951 11.2863,7.77061 C12.1724,7.11172 13.2061,6.78228 14.3876,6.78228 C15.9326,6.78228 17.0118,7.22532 17.6252,8.11142 C18.2387,8.99752 18.5454,10.3948 18.5454,12.30332 L26.9974,12.30332 L26.9974,10.80378 C26.9974,7.48659 25.975,4.91922 23.9301,3.10159 C21.8853,1.28395 18.7272,0.37515 14.4558,0.37515 C12.0474,0.37515 9.9912,0.67051 8.2872,1.26124 C6.5832,1.85197 5.1859,2.64718 4.0953,3.64688 C3.0047,4.64658 2.2095,5.81666 1.7097,7.15717 C1.2098,8.49767 0.9599,9.91768 0.9599,11.41723 C0.9599,14.00736 1.6188,16.13168 2.9366,17.79028 C4.2543,19.44887 6.2083,20.73255 8.7984,21.64137 L15.41,24.027 C16.3188,24.39053 17.114,24.87901 17.7957,25.49246 C18.4773,26.10592 18.8181,27.00336 18.8181,28.18482 C18.8181,29.63893 18.3864,30.72949 17.523,31.45655 C16.6596,32.1836 15.5009,32.54712 14.0468,32.54712 C12.4564,32.54712 11.2408,32.05864 10.4002,31.08166 C9.5595,30.10468 9.1392,28.821 9.1392,27.23057 L9.1392,26.00367 Z" id="path-11"></path>
    </defs>
    <g id="Page-1" stroke="none" stroke-width="1" fill="none" fill-rule="evenodd">
        <g id="gbb-logo-vector-2">
            <g id="Group-3" transform="translate(0.000000, 1.000000)">
                <mask id="mask-2" fill="white">
                    <use xlink:href="#path-1"></use>
                </mask>
                <g id="Clip-2"></g>
                <polygon id="Fill-1" fill="#70CF00" mask="url(#mask-2)" points="-4.614366 -4.16738 86.47832 -4.16738 86.47832 65.337133 -4.614366 65.337133"></polygon>
            </g>
            <g id="Group-6" transform="translate(85.000000, 0.000000)">
                <mask id="mask-4" fill="white">
                    <use xlink:href="#path-3"></use>
                </mask>
                <g id="Clip-5"></g>
                <polygon id="Fill-4" fill="#F69D00" mask="url(#mask-4)" points="-4.84995 -4.66692 33.8458 -4.66692 33.8458 54.749771 -4.84995 54.749771"></polygon>
            </g>
            <g id="Group-9" transform="translate(114.000000, 12.000000)">
                <mask id="mask-6" fill="white">
                    <use xlink:href="#path-5"></use>
                </mask>
                <g id="Clip-8"></g>
                <polygon id="Fill-7" fill="#F69D00" mask="url(#mask-6)" points="-4.1641 -4.6706 35.4178 -4.6706 35.4178 53.791846 -4.1641 53.791846"></polygon>
            </g>
            <g id="Group-12" transform="translate(147.000000, 0.000000)">
                <mask id="mask-8" fill="white">
                    <use xlink:href="#path-7"></use>
                </mask>
                <g id="Clip-11"></g>
                <polygon id="Fill-10" fill="#3D83E1" mask="url(#mask-8)" points="-4.706 -4.66692 33.9898 -4.66692 33.9898 54.749771 -4.706 54.749771"></polygon>
            </g>
            <g id="Group-15" transform="translate(178.000000, 12.000000)">
                <mask id="mask-10" fill="white">
                    <use xlink:href="#path-9"></use>
                </mask>
                <g id="Clip-14"></g>
                <polygon id="Fill-13" fill="#3D83E1" mask="url(#mask-10)" points="-4.2255 -4.6706 33.5841 -4.6706 33.5841 42.749771 -4.2255 42.749771"></polygon>
            </g>
            <g id="Group-18" transform="translate(209.000000, 11.000000)">
                <mask id="mask-12" fill="white">
                    <use xlink:href="#path-11"></use>
                </mask>
                <g id="Clip-17"></g>
                <polygon id="Fill-16" fill="#3D83E1" mask="url(#mask-12)" points="-4.3127 -4.62485 32.8153 -4.62485 32.8153 43.749771 -4.3127 43.749771"></polygon>
            </g>
            <text id="©" font-family="HelveticaNeue-Bold, Helvetica Neue" font-size="24.57" font-weight="bold" fill="#7ED321">
                <tspan x="238.378" y="17.297577">©</tspan>
            </text>
        </g>
    </g>
</svg>