<?xml version="1.0" encoding="UTF-8"?>
<svg width="379px" height="136px" viewBox="0 0 379 136" version="1.1" xmlns="http://www.w3.org/2000/svg" xmlns:xlink="http://www.w3.org/1999/xlink">
    <!-- Generator: Sketch 46.2 (44496) - http://www.bohemiancoding.com/sketch -->
    <title>PB_AWS_logo_CMYK</title>
    <desc>Created with Sketch.</desc>
    <defs>
        <polygon id="path-1" points="227.335 0.936293406 227.335 52 113.963637 52 0.5922749 52 0.5922749 0.936293406 227.335 0.936293406"></polygon>
    </defs>
    <g id="Page-1" stroke="none" stroke-width="1" fill="none" fill-rule="evenodd">
        <g id="PB_AWS_logo_CMYK">
            <path d="M342.283,71.273 C338.325,71.273 334.454,70.832 330.672,69.954 C326.889,69.075 323.986,68.063 321.964,66.919 C320.731,66.216 319.962,65.513 319.655,64.808 C319.346,64.105 319.193,63.402 319.193,62.697 L319.193,58.87 C319.193,57.287 319.765,56.496 320.909,56.496 C321.348,56.496 321.809,56.584 322.294,56.759 C322.776,56.937 323.415,57.2 324.207,57.551 C326.757,58.695 329.528,59.576 332.519,60.19 C335.509,60.806 338.5,61.114 341.492,61.114 C346.242,61.114 349.914,60.279 352.509,58.607 C355.102,56.937 356.401,54.562 356.401,51.482 C356.401,49.371 355.719,47.612 354.356,46.204 C352.991,44.798 350.464,43.478 346.77,42.246 L335.818,38.815 C330.277,37.056 326.252,34.506 323.745,31.162 C321.239,27.82 319.985,24.169 319.985,20.211 C319.985,17.044 320.665,14.253 322.03,11.832 C323.393,9.414 325.197,7.346 327.44,5.631 C329.682,3.916 332.299,2.619 335.29,1.738 C338.279,0.86 341.446,0.419 344.79,0.419 C346.46,0.419 348.155,0.531 349.87,0.749 C351.586,0.969 353.212,1.256 354.752,1.607 C356.29,1.959 357.721,2.355 359.04,2.794 C360.36,3.235 361.415,3.675 362.207,4.113 C363.263,4.73 364.009,5.346 364.45,5.961 C364.889,6.577 365.11,7.412 365.11,8.468 L365.11,12.03 C365.11,13.613 364.537,14.405 363.395,14.405 C362.778,14.405 361.811,14.098 360.492,13.482 C356.181,11.548 351.342,10.579 345.978,10.579 C341.667,10.579 338.325,11.284 335.95,12.69 C333.575,14.098 332.388,16.341 332.388,19.419 C332.388,21.53 333.134,23.312 334.63,24.763 C336.125,26.214 338.897,27.6 342.943,28.919 L353.631,32.35 C359.084,34.11 362.976,36.529 365.307,39.607 C367.637,42.687 368.804,46.204 368.804,50.162 C368.804,53.417 368.144,56.343 366.825,58.937 C365.506,61.532 363.679,63.753 361.349,65.599 C359.018,67.447 356.225,68.855 352.971,69.822 C349.716,70.789 346.153,71.273 342.283,71.273 Z M245.436,69.294 C244.117,69.294 243.148,69.053 242.534,68.568 C241.917,68.086 241.389,67.096 240.95,65.599 L223.27,7.28 C222.828,5.786 222.61,4.773 222.61,4.246 C222.61,3.015 223.224,2.398 224.457,2.398 L231.846,2.398 C233.252,2.398 234.241,2.642 234.815,3.124 C235.386,3.608 235.891,4.598 236.332,6.093 L248.999,55.968 L260.742,6.093 C261.092,4.598 261.576,3.608 262.193,3.124 C262.808,2.642 263.82,2.398 265.228,2.398 L271.297,2.398 C272.703,2.398 273.716,2.642 274.332,3.124 C274.946,3.608 275.431,4.598 275.783,6.093 L287.658,56.628 L300.721,6.093 C301.16,4.598 301.665,3.608 302.238,3.124 C302.809,2.642 303.799,2.398 305.207,2.398 L312.2,2.398 C313.431,2.398 314.047,3.015 314.047,4.246 C314.047,4.598 314.002,4.994 313.915,5.433 C313.827,5.874 313.652,6.489 313.388,7.28 L295.18,65.599 C294.738,67.096 294.211,68.086 293.596,68.568 C292.98,69.053 292.013,69.294 290.693,69.294 L284.228,69.294 C282.82,69.294 281.808,69.031 281.193,68.503 C280.577,67.975 280.092,66.965 279.742,65.468 L267.998,16.912 L256.388,65.468 C256.035,66.965 255.551,67.975 254.936,68.503 C254.32,69.031 253.308,69.294 251.902,69.294 L245.436,69.294 Z M184.873,61.114 C187.336,61.114 189.931,60.651 192.658,59.728 C195.384,58.805 197.759,57.2 199.783,54.912 C201.015,53.506 201.872,51.9 202.356,50.096 C202.839,48.294 203.082,46.117 203.082,43.565 L203.082,40.398 C200.882,39.87 198.573,39.454 196.155,39.145 C193.735,38.838 191.382,38.683 189.096,38.683 C184.082,38.683 180.342,39.695 177.881,41.718 C175.417,43.742 174.186,46.645 174.186,50.426 C174.186,53.945 175.11,56.607 176.957,58.409 C178.804,60.213 181.443,61.114 184.873,61.114 Z M215.485,49.634 C215.485,52.451 215.769,54.693 216.343,56.363 C216.913,58.035 217.728,59.839 218.784,61.774 C219.134,62.39 219.311,62.96 219.311,63.488 C219.311,64.28 218.827,65.029 217.86,65.732 L213.11,68.898 C212.405,69.338 211.745,69.558 211.131,69.558 C210.339,69.558 209.591,69.207 208.888,68.503 C207.832,67.447 206.929,66.282 206.183,65.006 C205.435,63.732 204.665,62.258 203.874,60.586 C197.98,67.536 190.591,71.01 181.707,71.01 C175.374,71.01 170.36,69.207 166.666,65.599 C162.971,61.994 161.123,57.156 161.123,51.085 C161.123,44.666 163.41,39.498 167.985,35.582 C172.557,31.669 178.716,29.711 186.457,29.711 C189.007,29.711 191.669,29.909 194.439,30.304 C197.211,30.7 200.09,31.251 203.082,31.954 L203.082,26.412 C203.082,20.695 201.894,16.671 199.52,14.339 C197.145,12.01 193.054,10.843 187.249,10.843 C184.61,10.843 181.905,11.173 179.134,11.832 C176.363,12.492 173.658,13.35 171.019,14.405 C169.787,14.933 168.908,15.263 168.38,15.395 C167.853,15.527 167.457,15.593 167.193,15.593 C166.138,15.593 165.61,14.801 165.61,13.218 L165.61,9.523 C165.61,8.293 165.785,7.412 166.138,6.884 C166.488,6.357 167.193,5.829 168.249,5.301 C170.887,3.982 174.054,2.84 177.749,1.871 C181.443,0.904 185.356,0.419 189.492,0.419 C198.464,0.419 205.038,2.464 209.218,6.555 C213.395,10.645 215.485,16.826 215.485,25.093 L215.485,49.634 L215.485,49.634 Z" id="Fill-1" fill="#1E222F"></path>
            <g id="Group-5" transform="translate(151.000000, 84.000000)">
                <mask id="mask-2" fill="white">
                    <use xlink:href="#path-1"></use>
                </mask>
                <g id="Clip-3"></g>
                <path d="M205.544,23.939 C180.719,42.259 144.731,52 113.74,52 C70.306,52 31.193,35.945 1.596,9.221 C-0.728,7.121 1.345,4.256 4.139,5.881 C36.072,24.462 75.562,35.653 116.348,35.653 C143.861,35.653 174.106,29.943 201.936,18.139 C206.132,16.359 209.651,20.904 205.544,23.939" id="Fill-2" fill="#EB8E36" mask="url(#mask-2)"></path>
                <path d="M215.874,12.145 C212.698,8.08 194.887,10.219 186.883,11.178 C184.459,11.468 184.083,9.35 186.268,7.816 C200.479,-2.164 223.762,0.717 226.468,4.059 C229.194,7.429 225.752,30.773 212.436,41.913 C210.387,43.625 208.439,42.712 209.347,40.45 C212.344,32.966 219.052,16.213 215.874,12.145" id="Fill-4" fill="#EB8E36" mask="url(#mask-2)"></path>
            </g>
            <path d="M8.366,29.462 C10.454,29.462 12.027,28.781 13.084,27.418 C14.141,26.057 14.669,24.025 14.669,21.325 C14.669,15.926 12.619,13.228 8.519,13.228 C6.405,13.228 4.291,14.043 2.177,15.673 L2.177,26.864 C3.222,27.756 4.24,28.412 5.234,28.832 C6.227,29.252 7.271,29.462 8.366,29.462 Z M0.573,38.898 C0.191,38.898 0,38.708 0,38.325 L0,12.386 C0,12.005 0.191,11.814 0.573,11.814 L1.299,11.814 C1.706,11.814 1.923,12.005 1.949,12.386 L2.101,13.953 C3.272,13.01 4.412,12.323 5.52,11.891 C6.628,11.457 7.767,11.241 8.94,11.241 C11.409,11.241 13.357,12.127 14.784,13.896 C16.21,15.667 16.923,18.092 16.923,21.172 C16.923,24.306 16.172,26.802 14.669,28.661 C13.166,30.52 11.142,31.449 8.595,31.449 C6.252,31.449 4.112,30.583 2.177,28.851 L2.177,38.325 C2.177,38.708 1.987,38.898 1.604,38.898 L0.573,38.898 L0.573,38.898 Z" id="Fill-6" fill="#1E222F"></path>
            <path d="M28.231,29.615 C32.637,29.615 34.84,26.878 34.84,21.402 C34.84,15.953 32.637,13.228 28.231,13.228 C23.825,13.228 21.622,15.953 21.622,21.402 C21.622,26.878 23.825,29.615 28.231,29.615 Z M28.231,31.602 C25.429,31.602 23.251,30.705 21.698,28.908 C20.144,27.114 19.368,24.61 19.368,21.402 C19.368,18.194 20.144,15.698 21.698,13.915 C23.251,12.133 25.429,11.241 28.231,11.241 C31.032,11.241 33.209,12.133 34.763,13.915 C36.316,15.698 37.094,18.194 37.094,21.402 C37.094,24.61 36.316,27.114 34.763,28.908 C33.209,30.705 31.032,31.602 28.231,31.602 L28.231,31.602 Z" id="Fill-7" fill="#1E222F"></path>
            <path d="M45.077,31.029 C44.72,31.029 44.478,30.85 44.351,30.495 L38.277,12.731 C38.175,12.451 38.124,12.26 38.124,12.158 C38.124,11.928 38.277,11.814 38.583,11.814 L39.805,11.814 C40.136,11.814 40.352,11.979 40.454,12.311 L45.688,28.508 L50.311,12.349 C50.437,11.993 50.679,11.814 51.036,11.814 L52.45,11.814 C52.806,11.814 53.048,11.993 53.175,12.349 L57.759,28.622 L63.107,12.311 C63.209,11.979 63.426,11.814 63.757,11.814 L64.903,11.814 C65.208,11.814 65.362,11.928 65.362,12.158 C65.362,12.26 65.311,12.451 65.208,12.731 L58.982,30.495 C58.855,30.85 58.612,31.029 58.256,31.029 L56.995,31.029 C56.639,31.029 56.396,30.85 56.27,30.495 L51.648,14.259 L47.063,30.495 C46.936,30.85 46.694,31.029 46.338,31.029 L45.077,31.029" id="Fill-8" fill="#1E222F"></path>
            <path d="M80.222,20.028 C80.247,19.67 80.259,19.25 80.259,18.767 C80.259,16.933 79.814,15.545 78.923,14.603 C78.031,13.66 76.719,13.189 74.988,13.189 C70.963,13.189 68.838,15.468 68.608,20.028 L80.222,20.028 Z M75.522,31.602 C72.492,31.602 70.213,30.742 68.685,29.024 C67.157,27.304 66.392,24.752 66.392,21.365 C66.392,18.154 67.163,15.667 68.704,13.896 C70.245,12.127 72.403,11.241 75.179,11.241 C77.496,11.241 79.273,11.903 80.508,13.228 C81.743,14.552 82.361,16.448 82.361,18.918 C82.361,19.937 82.309,20.701 82.208,21.212 C82.132,21.593 81.915,21.785 81.558,21.785 L68.608,21.785 C68.634,24.459 69.22,26.432 70.366,27.705 C71.512,28.979 73.281,29.615 75.676,29.615 C77.51,29.615 79.253,29.297 80.909,28.661 C81.24,28.533 81.469,28.469 81.596,28.469 C81.699,28.469 81.788,28.514 81.865,28.604 C81.941,28.692 81.979,28.8 81.979,28.928 L81.979,29.501 C81.979,29.908 81.839,30.177 81.558,30.302 C79.725,31.168 77.713,31.602 75.522,31.602 L75.522,31.602 Z" id="Fill-9" fill="#1E222F"></path>
            <path d="M86.983,31.029 C86.601,31.029 86.41,30.838 86.41,30.456 L86.41,12.386 C86.41,12.005 86.601,11.814 86.983,11.814 L87.709,11.814 C88.116,11.814 88.333,12.005 88.359,12.386 L88.549,14.603 C89.517,13.533 90.465,12.775 91.395,12.329 C92.325,11.885 93.375,11.661 94.546,11.661 C94.954,11.661 95.285,11.673 95.54,11.699 C95.922,11.724 96.113,11.928 96.113,12.311 L96.113,13.265 C96.113,13.368 96.075,13.464 95.998,13.552 C95.922,13.64 95.82,13.686 95.693,13.686 C95.489,13.686 95.298,13.68 95.12,13.666 C94.941,13.654 94.674,13.648 94.318,13.648 C93.146,13.648 92.108,13.864 91.205,14.296 C90.299,14.73 89.428,15.431 88.587,16.397 L88.587,30.456 C88.587,30.838 88.397,31.029 88.014,31.029 L86.983,31.029" id="Fill-10" fill="#1E222F"></path>
            <path d="M111.241,20.028 C111.265,19.67 111.278,19.25 111.278,18.767 C111.278,16.933 110.832,15.545 109.942,14.603 C109.05,13.66 107.738,13.189 106.007,13.189 C101.982,13.189 99.857,15.468 99.627,20.028 L111.241,20.028 Z M106.541,31.602 C103.511,31.602 101.232,30.742 99.704,29.024 C98.176,27.304 97.411,24.752 97.411,21.365 C97.411,18.154 98.182,15.667 99.723,13.896 C101.263,12.127 103.421,11.241 106.198,11.241 C108.514,11.241 110.291,11.903 111.526,13.228 C112.761,14.552 113.38,16.448 113.38,18.918 C113.38,19.937 113.328,20.701 113.227,21.212 C113.15,21.593 112.933,21.785 112.577,21.785 L99.627,21.785 C99.652,24.459 100.239,26.432 101.384,27.705 C102.531,28.979 104.3,29.615 106.694,29.615 C108.528,29.615 110.272,29.297 111.928,28.661 C112.259,28.533 112.488,28.469 112.615,28.469 C112.717,28.469 112.807,28.514 112.883,28.604 C112.96,28.692 112.998,28.8 112.998,28.928 L112.998,29.501 C112.998,29.908 112.858,30.177 112.577,30.302 C110.744,31.168 108.731,31.602 106.541,31.602 L106.541,31.602 Z" id="Fill-11" fill="#1E222F"></path>
            <path d="M124.343,29.462 C126.253,29.462 128.252,28.647 130.341,27.018 L130.341,15.71 C129.271,14.844 128.246,14.214 127.266,13.819 C126.285,13.425 125.247,13.228 124.152,13.228 C122.114,13.228 120.567,13.915 119.511,15.29 C118.454,16.666 117.925,18.702 117.925,21.402 C117.925,26.776 120.065,29.462 124.343,29.462 Z M123.847,31.449 C121.325,31.449 119.332,30.564 117.868,28.794 C116.404,27.023 115.671,24.599 115.671,21.516 C115.671,18.359 116.411,15.857 117.887,14.01 C119.365,12.164 121.376,11.241 123.923,11.241 C126.292,11.241 128.431,12.082 130.341,13.762 L130.341,3.332 C130.341,2.951 130.532,2.761 130.914,2.761 L131.945,2.761 C132.327,2.761 132.519,2.951 132.519,3.332 L132.519,30.456 C132.519,30.838 132.327,31.029 131.945,31.029 L131.143,31.029 C130.761,31.029 130.544,30.838 130.493,30.456 L130.341,28.889 C129.399,29.68 128.348,30.302 127.189,30.762 C126.031,31.219 124.916,31.449 123.847,31.449 L123.847,31.449 Z" id="Fill-12" fill="#1E222F"></path>
            <path d="M106.389,67.869 C108.477,67.869 110.05,67.188 111.106,65.825 C112.164,64.465 112.692,62.432 112.692,59.733 C112.692,54.333 110.642,51.635 106.542,51.635 C105.447,51.635 104.389,51.832 103.371,52.226 C102.352,52.621 101.295,53.24 100.2,54.08 L100.2,65.272 C101.245,66.189 102.263,66.852 103.256,67.259 C104.25,67.667 105.293,67.869 106.389,67.869 Z M106.618,69.856 C104.274,69.856 102.122,68.979 100.162,67.221 L100.01,68.863 C99.983,69.246 99.767,69.436 99.36,69.436 L98.596,69.436 C98.214,69.436 98.023,69.246 98.023,68.863 L98.023,41.74 C98.023,41.359 98.214,41.168 98.596,41.168 L99.627,41.168 C100.01,41.168 100.2,41.359 100.2,41.74 L100.2,52.283 C101.32,51.392 102.435,50.73 103.543,50.298 C104.65,49.864 105.79,49.648 106.962,49.648 C109.431,49.648 111.38,50.534 112.807,52.303 C114.233,54.074 114.946,56.499 114.946,59.58 C114.946,62.739 114.195,65.24 112.692,67.086 C111.189,68.933 109.164,69.856 106.618,69.856 L106.618,69.856 Z" id="Fill-13" fill="#1E222F"></path>
            <path d="M120.6,77.763 C119.988,77.763 119.402,77.675 118.842,77.496 C118.459,77.394 118.269,77.139 118.269,76.732 L118.269,76.198 C118.269,75.866 118.422,75.702 118.727,75.702 C118.881,75.702 119.02,75.713 119.148,75.739 C119.274,75.764 119.44,75.784 119.644,75.796 C119.848,75.809 120.115,75.815 120.446,75.815 C121.287,75.815 121.955,75.599 122.452,75.165 C122.949,74.734 123.426,73.956 123.884,72.837 L125.183,69.627 L117.657,51.139 C117.555,50.883 117.505,50.718 117.505,50.642 C117.505,50.361 117.657,50.222 117.964,50.222 L119.186,50.222 C119.517,50.222 119.733,50.387 119.835,50.718 L126.215,67.145 L132.671,50.718 C132.772,50.387 132.989,50.222 133.32,50.222 L134.467,50.222 C134.772,50.222 134.925,50.361 134.925,50.642 C134.925,50.718 134.873,50.883 134.772,51.139 L125.757,73.485 C125.119,75.038 124.406,76.141 123.617,76.789 C122.827,77.439 121.822,77.763 120.6,77.763" id="Fill-14" fill="#1E222F"></path>
        </g>
    </g>
</svg>