<svg height="72" viewBox="0 0 351 72" width="351" xmlns="http://www.w3.org/2000/svg"><g fill="#1b2022" fill-rule="evenodd"><path d="m84.214 42.627c-.187-5.268-3.699-9.981-11.088-9.981-6.745 0-10.626 5.174-10.996 9.981zm10.256 14.598c-2.402 7.855-9.516 14.23-20.33 14.23-12.197 0-23.006-8.87-23.006-24.117 0-14.229 10.535-23.654 21.897-23.654 13.863 0 21.992 9.147 21.992 23.376 0 1.756-.183 3.236-.274 3.42h-32.897c.278 6.837 5.635 11.734 12.288 11.734 6.471 0 9.796-3.417 11.275-7.854z"/><path d="m164.023 51.403v-2.032l-11.731 1.756c-3.329.554-6.01 2.402-6.01 6.098 0 3.049 2.311 5.821 6.562 5.821 6.006 0 11.179-2.864 11.179-11.643zm-14.873-7.114 11.549-1.756c2.589-.37 3.324-1.662 3.324-3.234 0-3.788-2.584-6.837-8.498-6.837-5.635 0-8.777 3.602-9.243 8.13l-9.791-2.217c.831-7.761 7.855-14.691 18.942-14.691 13.86 0 19.125 7.855 19.125 16.817v22.36c0 4.066.462 6.746.557 7.208h-9.982c-.091-.276-.462-2.126-.462-5.729-2.123 3.418-6.561 7.115-13.859 7.115-9.425 0-15.247-6.469-15.247-13.583 0-8.039 5.913-12.474 13.585-13.583z"/><path d="m263.873 42.627c-.183-5.268-3.695-9.981-11.088-9.981-6.745 0-10.626 5.174-10.996 9.981zm10.256 14.598c-2.401 7.855-9.517 14.23-20.326 14.23-12.196 0-23.01-8.87-23.01-24.117 0-14.229 10.535-23.654 21.9-23.654 13.86 0 21.993 9.147 21.993 23.376 0 1.756-.187 3.236-.279 3.42h-32.892c.274 6.837 5.634 11.734 12.288 11.734 6.467 0 9.796-3.417 11.271-7.854z"/><path d="m307.491 51.403v-2.032l-11.735 1.756c-3.325.554-6.006 2.402-6.006 6.098 0 3.049 2.311 5.821 6.563 5.821 6.004 0 11.178-2.864 11.178-11.643zm-14.878-7.114 11.554-1.756c2.585-.37 3.324-1.662 3.324-3.234 0-3.788-2.589-6.837-8.503-6.837-5.634 0-8.776 3.602-9.238 8.13l-9.795-2.217c.831-7.761 7.855-14.691 18.943-14.691 13.859 0 19.128 7.855 19.128 16.817v22.36c0 4.066.461 6.746.553 7.208h-9.978c-.091-.276-.461-2.126-.461-5.729-2.128 3.418-6.563 7.115-13.864 7.115-9.421 0-15.244-6.469-15.244-13.583 0-8.039 5.914-12.474 13.581-13.583z"/><path d="m203.65 61.648c-6.836 0-12.105-5.358-12.105-14.229 0-8.962 5.269-14.044 12.105-14.044 7.115 0 12.106 5.082 12.106 14.044 0 8.871-5.082 14.229-12.106 14.229zm2.123-37.79c-6.927 0-12.101 3.233-14.133 6.745l-.002-12.286v-7.604c0-6.149-4.124-10.346-10.345-10.346h-.187v69.69h10.439v-6.005c2.589 4.343 7.484 7.116 13.859 7.116 13.124 0 21.161-10.257 21.161-23.84 0-13.214-7.297-23.47-20.792-23.47z"/><path d="m100.012.367h-.191v69.702h10.722v-59.17c0-6.259-4.198-10.532-10.531-10.532"/><path d="m119.044.367h-.191v69.702h10.722v-59.17c0-6.259-4.198-10.532-10.531-10.532"/><path d="m23.421 61.706c-6.836 0-12.106-5.359-12.106-14.229 0-8.963 5.27-14.045 12.106-14.045 7.114 0 12.105 5.082 12.105 14.045 0 8.87-5.082 14.229-12.105 14.229zm2.124-37.848c-6.928 0-12.103 3.233-14.135 6.745l-.002-12.286v-7.604c0-6.149-4.124-10.346-10.345-10.346h-.187v69.69h10.439v-6.005c2.589 4.343 7.484 7.116 13.859 7.116 13.124 0 21.162-10.257 21.162-23.84 0-13.214-7.298-23.47-20.791-23.47z"/><path d="m340.817 25.199h9.307v9.491h-9.307v20.823c0 3.961 1.752 5.619 5.713 5.619 1.475 0 3.223-.273 3.684-.367v8.846c-.645.277-2.671 1.013-6.542 1.013-8.29 0-13.452-4.975-13.452-13.359v-22.575h-8.29v-9.491h2.302c4.791 0 6.911-3.042 6.911-7.004v-6.726h9.674z"/></g></svg>