<svg height="95" viewBox="0 0 302 95" width="302" xmlns="http://www.w3.org/2000/svg"><g fill="none" fill-rule="evenodd" font-family="LucidaGrande, Lucida Grande" transform="translate(0 -5)"><g font-size="22.537445"><text fill="#1a1919" letter-spacing=".114"><tspan x="71" y="22">TH</tspan> <tspan letter-spacing="-.0437621136" x="102.040913" y="22">E </tspan><tspan x="121.299496" y="22">B</tspan> <tspan letter-spacing="-.336748896" x="134.376929" y="22">O</tspan> <tspan letter-spacing="-1.68899558" x="151.548517" y="22">T</tspan> <tspan x="164.110494" y="22">ANIS</tspan> <tspan letter-spacing="-2.74825549" x="215.396795" y="22">T</tspan> <tspan x="226.899512" y="22">.</tspan></text><text fill="#717170" letter-spacing=".114"><tspan x="0" y="47">WIL</tspan> <tspan letter-spacing="-.0437621136" x="38.131837" y="47">D</tspan> <tspan letter-spacing="-.201524227" x="54.969149" y="47">.</tspan> <tspan x="61.898613" y="47"/> <tspan x="68.985839" y="47">F</tspan> <tspan letter-spacing="-.336748896" x="81.182903" y="47">O</tspan> <tspan x="98.354491" y="47">R</tspan> <tspan letter-spacing="-.787497792" x="112.719464" y="47">A</tspan> <tspan x="127.481482" y="47">GE</tspan> <tspan letter-spacing="-.0437621136" x="156.211426" y="47">D</tspan> <tspan letter-spacing="-.201524227" x="173.048739" y="47">.</tspan> <tspan x="179.978203" y="47"/> <tspan letter-spacing="-.336748896" x="187.065429" y="47">D</tspan> <tspan x="203.609755" y="47">ISTILLE</tspan> <tspan letter-spacing="-.0437621136" x="280.031446" y="47">D</tspan> <tspan x="296.868759" y="47">.</tspan></text><text fill="#dc3b41" letter-spacing=".1"><tspan x="138" y="74">22</tspan></text></g><text fill="#5e5f5f" font-size="8.451542" letter-spacing=".114"><tspan x="89" y="90">F</tspan> <tspan letter-spacing="-.055030836" x="93.645149" y="90">O</tspan> <tspan x="100.155745" y="90">R</tspan> <tspan letter-spacing="-.224061672" x="105.613859" y="90">A</tspan> <tspan x="111.220866" y="90">GE</tspan> <tspan letter-spacing=".0548392074" x="122.137095" y="90">D </tspan><tspan x="131.251297" y="90">ISLAN</tspan> <tspan letter-spacing=".0548392074" x="155.389049" y="90">D </tspan><tspan x="164.503251" y="90">B</tspan> <tspan letter-spacing="-.055030836" x="169.478538" y="90">O</tspan> <tspan letter-spacing="-.562123344" x="175.989134" y="90">T</tspan> <tspan x="180.771125" y="90">AN</tspan> <tspan letter-spacing="-.055030836" x="193.073935" y="90">I</tspan> <tspan x="195.453674" y="90">CALS</tspan></text><text fill="#5e5f5f" font-size="8.451542" letter-spacing=".963475765"><tspan x="61" y="99">TH</tspan> <tspan letter-spacing=".904314973" x="74.481794" y="99">E </tspan><tspan x="83.545214" y="99">FIRS</tspan> <tspan letter-spacing=".904314973" x="104.260933" y="99">T </tspan><tspan x="114.087799" y="99">AN</tspan> <tspan letter-spacing=".904314973" x="128.08956" y="99">D </tspan><tspan letter-spacing=".794444929" x="138.902714" y="99">O</tspan> <tspan x="146.262785" y="99">N</tspan> <tspan letter-spacing=".118321585" x="153.470003" y="99">L</tspan> <tspan letter-spacing=".904314973" x="158.094713" y="99">Y </tspan><tspan x="167.84317" y="99">ISL</tspan> <tspan letter-spacing=".0338061672" x="182.226539" y="99">A</tspan> <tspan letter-spacing=".904314973" x="188.091413" y="99">Y </tspan><tspan letter-spacing=".794444929" x="197.839871" y="99">D</tspan> <tspan letter-spacing=".371867839" x="204.964719" y="99">R</tspan> <tspan letter-spacing=".904314973" x="210.680701" y="99">Y </tspan><tspan x="220.429158" y="99">GI</tspan> <tspan letter-spacing=".904314973" x="230.89844" y="99">N</tspan> <tspan x="238.046496" y="99">.</tspan></text></g></svg>