<?xml version="1.0" encoding="UTF-8"?>
<svg width="593px" height="225px" viewBox="0 0 593 225" version="1.1" xmlns="http://www.w3.org/2000/svg" xmlns:xlink="http://www.w3.org/1999/xlink">
    <!-- Generator: Sketch 46.2 (44496) - http://www.bohemiancoding.com/sketch -->
    <title>Asset 1</title>
    <desc>Created with Sketch.</desc>
    <defs></defs>
    <g id="Page-1" stroke="none" stroke-width="1" fill="none" fill-rule="evenodd">
        <g id="Asset-1" fill-rule="nonzero">
            <path d="M16.27,222.88 L0.42,222.88 L0.42,177.34 L16.27,177.34 C19.3905885,177.314912 22.48796,177.878071 25.4,179 C28.2204445,180.084958 30.7871266,181.739345 32.94,183.86 C35.0374886,185.947434 36.702606,188.428119 37.84,191.16 C38.9747247,193.92655 39.5524242,196.889809 39.54,199.88 C39.5614544,202.902387 39.0118195,205.901629 37.92,208.72 C35.702009,214.304876 31.3091421,218.748277 25.75,221.03 C22.7417117,222.261764 19.5206822,222.890341 16.27,222.88 L16.27,222.88 Z M7.49,215.81 L16.27,215.81 C18.5152622,215.839863 20.745457,215.439311 22.84,214.63 C24.7638192,213.900928 26.5193616,212.788404 28,211.36 C29.454118,209.950088 30.5895593,208.245221 31.33,206.36 C32.1381722,204.306947 32.5389593,202.116203 32.51,199.91 C32.5324268,197.786774 32.1242062,195.681036 31.31,193.72 C30.5228477,191.871376 29.3697002,190.201183 27.92,188.81 C26.4423388,187.397324 24.6985272,186.29257 22.79,185.56 C20.7194842,184.781079 18.5220359,184.394491 16.31,184.42 L7.49,184.42 L7.49,215.81 Z" id="Shape" fill="#404041"></path>
            <polygon id="Shape" fill="#404041" points="49.38 222.88 49.38 177.34 56.45 177.34 56.45 222.88"></polygon>
            <path d="M89.38,224 C86.2050858,223.999367 83.0627452,223.360016 80.14,222.12 C77.2853125,220.941564 74.6971923,219.200279 72.53,217 C70.3387136,214.829206 68.5986291,212.246268 67.41,209.4 C64.8905518,203.449011 64.8905518,196.730989 67.41,190.78 C67.9948463,189.374129 68.7255085,188.033464 69.59,186.78 C70.473056,185.503989 71.4561526,184.300198 72.53,183.18 C74.7156771,181.002105 77.2990826,179.263993 80.14,178.06 C90.8079528,173.538092 103.182575,177.333988 109.48,187.06 L103.48,190.95 C101.968208,188.580091 99.8796797,186.632633 97.41,185.29 C94.9267693,183.956901 92.1483599,183.269176 89.33,183.29 C87.0825826,183.277232 84.8565248,183.726528 82.79,184.61 C80.8024287,185.463547 78.9940393,186.684973 77.46,188.21 C75.9353579,189.742273 74.7169258,191.551254 73.87,193.54 C72.1098456,197.722354 72.1098456,202.437646 73.87,206.62 C74.7336039,208.626613 75.9686025,210.451968 77.51,212 C79.0351697,213.540813 80.8454416,214.770304 82.84,215.62 C84.9044141,216.511321 87.1314323,216.964216 89.38,216.95 C91.0384133,216.952324 92.688574,216.716587 94.28,216.25 C95.8211303,215.794284 97.289284,215.120819 98.64,214.25 C99.9634059,213.377227 101.16118,212.327493 102.2,211.13 C103.243002,209.928021 104.105386,208.580546 104.76,207.13 L87.91,207.13 L87.91,200 L113.36,200 C113.36,200.35 113.36,200.77 113.36,201.24 C113.36,201.71 113.28,202.16 113.21,202.59 L112.97,204.12 C112.547718,206.860982 111.618535,209.499318 110.23,211.9 C108.848933,214.325479 107.067072,216.499552 104.96,218.33 C102.797484,220.152197 100.333967,221.583609 97.68,222.56 C95.02311,223.537719 92.2109614,224.025609 89.38,224 L89.38,224 Z" id="Shape" fill="#404041"></path>
            <polygon id="Shape" fill="#404041" points="122.79 222.88 122.79 177.34 129.86 177.34 129.86 222.88"></polygon>
            <polygon id="Shape" fill="#404041" points="173.93 184.41 159.49 184.41 159.49 222.88 152.42 222.88 152.42 184.41 138.05 184.41 138.05 177.34 173.93 177.34"></polygon>
            <path d="M216,224.41 L209.93,211.68 L190.77,211.68 L184.77,224.41 L178.41,221.41 L200.32,175 L222.32,221.42 L216,224.41 Z M194.14,204.62 L206.57,204.62 L200.33,191.48 L194.14,204.62 Z" id="Shape" fill="#404041"></path>
            <polygon id="Shape" fill="#404041" points="230.13 222.88 230.13 177.34 237.2 177.34 237.2 215.81 258.06 215.81 258.06 222.88"></polygon>
            <path d="M304.48,223.88 L303.42,223.88 C301.789568,223.835488 300.169345,223.607382 298.59,223.2 C296.971099,222.785928 295.406888,222.181727 293.93,221.4 C292.4471,220.619943 291.077763,219.640884 289.86,218.49 C288.755338,217.454952 287.823542,216.249695 287.1,214.92 L293.4,211.68 C293.78723,212.359903 294.287763,212.968658 294.88,213.48 C295.589846,214.127863 296.379576,214.682355 297.23,215.13 C298.18258,215.642174 299.188637,216.04795 300.23,216.34 C301.329111,216.654114 302.466887,216.812326 303.61,216.81 L303.85,216.81 C304.968122,216.870888 306.089235,216.773254 307.18,216.52 C308.509293,216.235043 309.789591,215.756616 310.98,215.1 C313.57,213.65 314.98,211.71 315.1,209.27 C315.284978,207.90229 314.85682,206.52267 313.93,205.5 C312.866418,204.438726 311.541948,203.676466 310.09,203.29 C308.237923,202.737794 306.312435,202.471395 304.38,202.5 C303.75,202.5 302.89,202.45 301.79,202.38 C300.594965,202.28766 299.410387,202.09023 298.25,201.79 C295.455464,201.194451 292.884451,199.825785 290.83,197.84 C289.816771,196.71724 289.035161,195.405495 288.53,193.98 C288.008153,192.47781 287.787283,190.887546 287.88,189.3 C287.983401,186.111176 289.286998,183.078972 291.53,180.81 C292.496679,179.817841 293.613723,178.984276 294.84,178.34 C296.140648,177.652319 297.52576,177.137944 298.96,176.81 C300.810401,176.378166 302.712519,176.209837 304.61,176.31 C306.529913,176.415399 308.430204,176.75114 310.27,177.31 C312.149739,177.917768 313.929058,178.800687 315.55,179.93 C316.990619,180.93877 318.186639,182.25781 319.05,183.79 L312.92,187.26 C312.4565,186.525319 311.834681,185.9035 311.1,185.44 C310.184877,184.851357 309.191927,184.39359 308.15,184.08 C306.920052,183.683461 305.641398,183.458015 304.35,183.41 C303.074755,183.348087 301.796932,183.455694 300.55,183.73 C296.98,184.56 295.11,186.56 294.96,189.73 C294.847469,190.437239 294.937617,191.161889 295.22,191.82 C295.419959,192.231452 295.668388,192.617525 295.96,192.97 C297.010243,193.953025 298.317294,194.618685 299.73,194.89 C301.253929,195.25139 302.813844,195.439251 304.38,195.45 C307.292836,195.406783 310.191511,195.8634 312.95,196.8 C315.288663,197.577401 317.402882,198.912517 319.11,200.69 C321.445335,203.146609 322.569907,206.513 322.18,209.88 C321.971164,212.417483 321.049017,214.844185 319.52,216.88 C318.165166,218.694847 316.440481,220.201391 314.46,221.3 C312.926508,222.145471 311.289396,222.787542 309.59,223.21 C307.922976,223.654222 306.205197,223.87945 304.48,223.88 L304.48,223.88 Z" id="Shape" fill="#404041"></path>
            <polygon id="Shape" fill="#404041" points="371.23 177.34 371.23 222.88 364.16 222.88 364.16 201.38 339.71 201.38 339.71 222.88 332.64 222.88 332.64 177.34 339.71 177.34 339.71 194.34 364.16 194.34 364.16 177.34"></polygon>
            <path d="M416,224.41 L409.94,211.68 L390.79,211.68 L384.79,224.41 L378.43,221.41 L400.34,175 L422.34,221.42 L416,224.41 Z M394.14,204.62 L406.58,204.62 L400.34,191.48 L394.14,204.62 Z" id="Shape" fill="#404041"></path>
            <path d="M437.45,222.88 L430.38,222.88 L430.38,177.34 L445.46,177.34 C447.917603,177.306395 450.364889,177.664205 452.71,178.4 C454.736212,179.025405 456.618918,180.044921 458.25,181.4 C459.772608,182.70625 460.979484,184.34049 461.78,186.18 C462.628496,188.138813 463.05116,190.255539 463.02,192.39 C463.033675,194.60464 462.633476,196.802342 461.84,198.87 C461.035674,200.810725 459.852633,202.57169 458.36,204.05 C456.767969,205.604836 454.862089,206.801552 452.77,207.56 C450.543703,208.380213 448.192497,208.809858 445.82,208.83 C445.740336,208.840366 445.659664,208.840366 445.58,208.83 C445.50029,208.820365 445.41971,208.820365 445.34,208.83 L437.45,208.83 L437.45,222.88 Z M437.45,201.73 L445.45,201.73 C446.979598,201.825119 448.512811,201.614345 449.96,201.11 C451.242234,200.659572 452.417014,199.947894 453.41,199.02 C455.118098,197.257076 456.032007,194.872964 455.94,192.42 C456.06933,190.142125 455.080427,187.944148 453.29,186.53 C452.274043,185.810245 451.135452,185.281613 449.93,184.97 C448.469625,184.577688 446.962009,184.389236 445.45,184.41 L437.45,184.41 L437.45,201.73 Z" id="Shape" fill="#404041"></path>
            <polygon id="Shape" fill="#404041" points="480.28 184.41 480.28 195.6 499.84 195.6 499.84 202.67 480.28 202.67 480.28 215.81 500.49 215.81 500.49 222.88 473.21 222.88 473.21 177.34 500.49 177.34 500.49 184.41"></polygon>
            <path d="M538,224.35 L525,208.8 L517.57,208.8 L517.57,222.88 L510.5,222.88 L510.5,177.34 L525.59,177.34 C530.61,177.34 534.693333,178.556667 537.84,180.99 C539.567881,182.265413 540.944108,183.958173 541.84,185.91 C542.741649,187.960265 543.191826,190.180459 543.16,192.42 C543.180058,194.633375 542.78665,196.831036 542,198.9 C541.199352,200.840262 540.019662,202.601297 538.53,204.08 C537.008246,205.589916 535.180525,206.756111 533.17,207.5 L543.48,219.76 L538,224.35 Z M517.55,201.73 L525.55,201.73 C527.076323,201.825125 528.606269,201.614333 530.05,201.11 C531.334517,200.664419 532.510252,199.952162 533.5,199.02 C535.216193,197.262251 536.131488,194.874526 536.03,192.42 C536.173615,190.152702 535.207978,187.956717 533.44,186.53 C532.427743,185.810173 531.292411,185.281481 530.09,184.97 C528.609517,184.575972 527.081856,184.387538 525.55,184.41 L517.55,184.41 L517.55,201.73 Z" id="Shape" fill="#404041"></path>
            <path d="M569.48,223.88 L568.42,223.88 C566.789511,223.836169 565.169211,223.608052 563.59,223.2 C561.969994,222.789389 560.40538,222.185031 558.93,221.4 C557.448679,220.622303 556.082337,219.642979 554.87,218.49 C553.753637,217.463171 552.817326,216.256445 552.1,214.92 L558.4,211.68 C558.783246,212.359794 559.280485,212.968658 559.87,213.48 C560.585276,214.125642 561.378018,214.67989 562.23,215.13 C563.183091,215.641083 564.189026,216.04681 565.23,216.34 C566.332386,216.654783 567.473556,216.812998 568.62,216.81 L568.86,216.81 C569.978122,216.870888 571.099235,216.773254 572.19,216.52 C573.519293,216.235043 574.799591,215.756616 575.99,215.1 C578.58,213.65 579.99,211.71 580.11,209.27 C580.296541,207.900413 579.864108,206.518827 578.93,205.5 C577.871835,204.436816 576.550015,203.674095 575.1,203.29 C573.247923,202.737794 571.322435,202.471395 569.39,202.5 C568.76,202.5 567.9,202.45 566.8,202.38 C565.604965,202.28766 564.420387,202.09023 563.26,201.79 C560.462456,201.194676 557.888164,199.826109 555.83,197.84 C554.823074,196.714377 554.045234,195.403258 553.54,193.98 C553.022924,192.476665 552.802186,190.887347 552.89,189.3 C552.993129,186.109136 554.300824,183.075712 556.55,180.81 C557.507474,179.81597 558.618263,178.982035 559.84,178.34 C561.144867,177.653898 562.533072,177.139623 563.97,176.81 C565.820338,176.377769 567.722512,176.209435 569.62,176.31 C571.539759,176.416738 573.43989,176.75245 575.28,177.31 C577.157264,177.916201 578.933508,178.799268 580.55,179.93 C581.998622,180.932652 583.199141,182.25288 584.06,183.79 L577.93,187.26 C577.4665,186.525319 576.844681,185.9035 576.11,185.44 C575.179328,184.847111 574.169269,184.389218 573.11,184.08 C571.879628,183.685171 570.601212,183.459766 569.31,183.41 C568.034755,183.348087 566.756932,183.455694 565.51,183.73 C561.93,184.56 560.07,186.56 559.91,189.73 C559.800056,190.438176 559.893696,191.163014 560.18,191.82 C560.376264,192.233518 560.624977,192.620032 560.92,192.97 C561.966533,193.952711 563.27031,194.61847 564.68,194.89 C566.207305,195.251464 567.770541,195.43932 569.34,195.45 C572.252836,195.406783 575.151511,195.8634 577.91,196.8 C580.248663,197.577401 582.362882,198.912517 584.07,200.69 C586.401711,203.148364 587.522548,206.514537 587.13,209.88 C586.924624,212.416584 586.005924,214.843338 584.48,216.88 C583.126366,218.699721 581.397291,220.20712 579.41,221.3 C576.351905,222.956082 572.93743,223.844875 569.46,223.89 L569.48,223.88 Z" id="Shape" fill="#404041"></path>
            <path d="M41,121 C37.6435836,121.571081 34.244649,121.85544 30.84,121.85 L25.66,121.85 L25.66,27.09 L30.83,27.09 C34.2370616,27.0864003 37.6386081,27.3640093 41,27.92 L41,2.25 C37.7022777,1.88609455 34.3877024,1.69583192 31.07,1.68 L0,1.68 L0,147.28 L31.06,147.28 C34.3785465,147.263719 37.6936366,147.063411 40.99,146.68 L41,121 Z" id="Shape" fill="#404041"></path>
            <path d="M91,48.33 C87.9973333,40.8129566 83.4647773,34.0022038 77.69,28.33 C71.8674748,22.7130416 64.9362249,18.3737725 57.34,15.59 C48.9173794,12.5450991 40.0154511,11.0411203 31.06,11.15 L25.61,11.15 L25.61,17.62 L30.82,17.62 C38.8006306,17.5374117 46.7286444,18.920323 54.21,21.7 C61.0515315,24.2478335 67.2995935,28.1681861 72.57,33.22 C77.7780328,38.3203732 81.8650527,44.4509031 84.57,51.22 C87.5320129,58.6992047 88.9996671,66.6863693 88.89,74.73 C89.0084702,82.7354234 87.5402212,90.6850403 84.57,98.12 C81.8527253,104.83944 77.7227689,110.896255 72.46,115.88 C67.1069411,120.83991 60.836049,124.705714 54,127.26 C46.5997784,130.031623 38.7518722,131.414752 30.85,131.34 L25.61,131.34 L25.61,137.81 L31.06,137.81 C39.8531972,137.897216 48.5899324,136.396489 56.85,133.38 C72.3127764,127.815174 84.6930122,115.9582 90.92,100.75 C94.2883111,92.5016614 95.9582786,83.6586562 95.83,74.75 C95.9539129,65.7129921 94.313257,56.7386381 91,48.33 Z" id="Shape" fill="#FF9900"></path>
            <path d="M179.53,70 L179.13,69.72 L178.7,69.48 L155.43,56.77 L148.53,53.1 L147.65,52.63 C145.635831,51.5853606 143.741343,50.3246037 142,48.87 C140.654298,47.730049 139.502643,46.3791338 138.59,44.87 C137.990748,43.7037038 137.711262,42.3994369 137.78,41.09 C137.749285,38.9239731 138.132833,36.7720353 138.91,34.75 C139.605384,32.9430042 140.656102,31.2938193 142,29.9 C143.369339,28.478202 144.989956,27.3220713 146.78,26.49 C148.227276,25.8625137 149.782893,25.5228593 151.36,25.49 L151.36,0 C146.175938,0.069327731 141.052061,1.12124952 136.26,3.1 C126.460138,7.19351418 118.787874,15.1552971 115.06,25.1 C113.09275,30.2864368 112.106013,35.7931754 112.15,41.34 C112.15,55.09 118.15,65.61 129.61,71.75 L151.61,84.05 C154.34,85.74 157.29,87.41 160.39,89.05 C162.630817,90.1841674 164.737323,91.5661431 166.67,93.17 C168.255936,94.4600713 169.608879,96.0125738 170.67,97.76 C171.407567,99.1695311 171.752936,100.75132 171.67,102.34 C171.702584,105.179161 171.12631,107.992333 169.98,110.59 C168.840085,113.197736 167.226088,115.571261 165.22,117.59 C163.258094,119.552374 160.931,121.111697 158.37,122.18 C155.866148,123.261676 153.167508,123.819781 150.44,123.82 C145.56,123.82 141.66,122.5 138.53,119.82 C134.483811,116.090858 131.381903,111.45342 129.48,106.29 L125.72,96.89 L116.59,101.27 L110.59,104.15 L102.72,107.93 L105.85,116.08 C109.64,125.97 115.33,133.95 122.74,139.8 C130.480901,145.917245 140.094882,149.177239 149.96,149.03 C162.228229,149.006109 174.037945,144.365048 183.04,136.03 C187.464685,131.897086 191.041374,126.941351 193.57,121.44 C196.234499,115.684148 197.600107,109.412593 197.57,103.07 C197.57,95.64 195.96,89.14 192.78,83.75 C189.415908,78.2575657 184.894115,73.5651388 179.53,70 Z" id="Shape" fill="#404041"></path>
            <path d="M134.09,63.4 L151.36,73.05 L151.36,65.35 L150.88,65.08 L143.21,61 C140.596101,59.63484 138.141182,57.9848123 135.89,56.08 C133.754708,54.2691699 131.930544,52.1207103 130.49,49.72 C128.993231,47.0921943 128.249349,44.1028235 128.34,41.08 C128.308931,37.7195571 128.91636,34.3837869 130.13,31.25 C131.261515,28.3108035 132.96047,25.6230556 135.13,23.34 C137.299678,21.0959508 139.857563,19.2630822 142.68,17.93 C145.613108,16.5775528 148.810299,15.8943923 152.04,15.93 C157.12846,15.7966245 162.140317,17.1897746 166.43,19.93 C170.65497,22.7855765 174.251876,26.4743622 177,30.77 L182,26.45 C178.942085,21.3081786 174.631302,17.0249184 169.47,14 C164.349272,10.9791162 158.505271,9.40320581 152.56,9.44 C148.255537,9.37663104 143.982877,10.1862592 140,11.82 C132.543954,14.8975752 126.706572,20.9414942 123.89,28.5 C122.345462,32.5957499 121.575721,36.942923 121.62,41.32 C121.62,51.56 125.776667,58.92 134.09,63.4 Z" id="Shape" fill="#FF0066"></path>
            <polygon id="Shape" fill="#404041" points="452.72 26.21 452.72 71.87 477.76 71.87 477.76 10.88 477.76 1.65 468.52 1.65 440.43 1.65 431.19 1.65 431.19 10.88 431.19 16.97 431.19 26.21 440.43 26.21"></polygon>
            <polygon id="Shape" fill="#FF9900" points="462 142.94 462 17 440.43 17 440.43 10.88 468.52 10.88 468.52 142.94"></polygon>
            <path d="M248.69,121.61 L273.21,95.78 C275.97,92.86 278.79,89.71 281.61,86.41 C284.63714,82.8713994 287.366442,79.0885063 289.77,75.1 C292.161582,71.1221034 294.14819,66.9143813 295.7,62.54 C297.382388,57.79082 298.238117,52.7883604 298.23,47.75 C298.439011,29.5613948 287.61516,13.0568017 270.85,6 C265.334862,3.6447382 259.396967,2.44014509 253.4,2.46 L253.28,2.46 L253.28,27.28 L253.4,27.28 C255.981868,27.260555 258.54061,27.7675398 260.92,28.77 C263.217684,29.7088505 265.295001,31.1152963 267.02,32.9 C268.867854,34.8071069 270.355172,37.0330024 271.41,39.47 C272.492302,41.9332305 273.034462,44.5997036 273,47.29 C272.977818,49.8279352 272.475653,52.338759 271.52,54.69 C270.297048,57.7854772 268.748338,60.7421059 266.9,63.51 C264.844073,66.6280109 262.620819,69.6324091 260.24,72.51 C257.78,75.51 255.43,78.18 253.24,80.51 L211.12,125.21 L208.6,127.89 L208.6,146.18 L297.78,146.18 L297.78,121.61 L248.69,121.61 Z" id="Shape" fill="#404041"></path>
            <path d="M226.83,35.46 C228.20533,31.9568984 230.277123,28.7692638 232.92,26.09 C235.515604,23.4848008 238.620146,21.442339 242.04,20.09 C245.657206,18.6698976 249.51422,17.9602885 253.4,18 C257.218373,17.9833131 261.00074,18.7384261 264.52,20.22 C267.949247,21.6563099 271.054259,23.7682623 273.65,26.43 C276.247764,29.1221462 278.346998,32.2540675 279.85,35.68 C281.44113,39.334292 282.238696,43.2846302 282.19,47.27 C282.172194,50.9577031 281.456249,54.6086833 280.08,58.03 C278.62622,61.726837 276.786011,65.259771 274.59,68.57 C273.26,70.57 271.78,72.4 270.35,74.3 L279.22,74.3 C280.13,72.99 281.03,71.68 281.84,70.3 C283.918683,66.8650841 285.647348,63.2301989 287,59.45 C288.330423,55.6929604 289.006888,51.7356398 289,47.75 C289.197277,33.2653796 280.578845,20.1121798 267.22,14.51 C262.85399,12.6380349 258.150364,11.6816536 253.4,11.7 C249.007052,11.6917141 244.648165,12.4706915 240.53,14 C236.352877,15.5581124 232.530795,17.9384124 229.29,21 C225.903706,24.1925356 223.160868,28.0046729 221.21,32.23 C219.018448,37.0495886 217.863521,42.2757162 217.82,47.57 L224.61,47.57 C224.557124,43.4275174 225.311148,39.3143542 226.83,35.46 Z" id="Shape" fill="#66CC00"></path>
            <path d="M413.05,47 C411.114567,39.0526592 407.989284,31.4434198 403.78,24.43 C399.836544,17.8419314 394.460243,12.2263793 388.05,8 C381.500442,3.76201979 373.850789,1.54014311 366.05,1.61 C365.66,1.61 365.28,1.67 364.89,1.69 L364.89,26.54 C365.27,26.54 365.65,26.45 366.05,26.45 C369.220963,26.3801984 372.308053,27.472061 374.73,29.52 C378.131436,32.3745505 380.914842,35.8929393 382.91,39.86 C385.467348,44.8778057 387.353528,50.2102134 388.52,55.72 C389.829888,61.5971403 390.500452,67.5986877 390.52,73.62 C390.531261,80.2147553 389.861035,86.7930231 388.52,93.25 C387.395738,98.8901597 385.515435,104.352793 382.93,109.49 C381.014167,113.360281 378.285335,116.771321 374.93,119.49 C369.70514,123.448624 362.48486,123.448624 357.26,119.49 C353.904665,116.771321 351.175833,113.360281 349.26,109.49 C346.673827,104.354051 344.796695,98.8908556 343.68,93.25 C342.331538,86.7941718 341.661233,80.2151282 341.68,73.62 C341.68,73.62 341.68,73.54 341.68,73.5 L316.1,73.5 L316.1,73.62 C316.060939,82.5937522 317.091541,91.5401798 319.17,100.27 C321.035955,108.331151 324.114329,116.062487 328.3,123.2 C332.183055,129.836584 337.419986,135.581195 343.67,140.06 C350.220381,144.665098 358.053393,147.093016 366.06,147 C374.085312,147.08234 381.937707,144.667563 388.53,140.09 C394.85487,135.632244 400.153341,129.873481 404.07,123.2 C408.253689,116.057957 411.331908,108.323638 413.2,100.26 C415.275613,91.5330703 416.306181,82.5902933 416.27,73.62 C416.312912,64.6469943 415.231149,55.7039796 413.05,47 Z" id="Shape" fill="#404041"></path>
            <path d="M364.19,131.53 C359.594729,131.25273 355.191298,129.589676 351.56,126.76 C347.145753,123.242029 343.549325,118.806208 341.02,113.76 C338.032046,107.884969 335.868342,101.626042 334.59,95.16 C333.095734,88.0776958 332.348313,80.858213 332.36,73.62 C332.374117,66.9284217 333.121919,60.2585648 334.59,53.73 C335.913671,47.422887 338.069185,41.319521 341,35.58 C343.569188,30.496915 347.15693,25.9969191 351.54,22.36 C359.988932,15.4980948 372.091068,15.4980948 380.54,22.36 C384.917211,26.0001128 388.501093,30.4995357 391.07,35.58 C394.007727,41.3185174 396.169979,47.4219207 397.5,53.73 C398.958059,60.2196343 399.705791,66.8486314 399.73,73.5 L407,73.5 C407.038491,65.3359937 406.054161,57.1993172 404.07,49.28 C402.364931,42.2398062 399.607216,35.4972258 395.89,29.28 C392.657931,23.8773814 388.252657,19.2704695 383,15.8 C372.592032,9.26025466 359.357968,9.26025466 348.95,15.8 C343.748599,19.2850551 339.386771,23.8825655 336.18,29.26 C332.463978,35.466407 329.737932,42.2140447 328.1,49.26 C326.193442,57.231599 325.253347,65.4037095 325.3,73.6 C325.258164,81.8356235 326.198128,90.0468779 328.1,98.06 C329.751716,105.218293 332.475811,112.085845 336.18,118.43 C339.39966,123.946532 343.751955,128.718038 348.95,132.43 C353.420873,135.561657 358.696049,137.3455 364.15,137.57 L364.19,131.53 Z" id="Shape" fill="#00AEEF"></path>
            <path d="M586.51,81 C584.356198,77.3028502 581.632734,73.9685485 578.44,71.12 C580.59073,68.7942489 582.469509,66.2310569 584.04,63.48 C587.626547,57.3229764 589.517393,50.3254649 589.52,43.2 C589.560219,37.5050623 588.479703,31.8578407 586.34,26.58 C584.34065,21.6217844 581.403667,17.0957743 577.69,13.25 C573.935341,9.41375321 569.441352,6.37920455 564.48,4.33 C559.414129,2.20473642 553.973598,1.11663029 548.48,1.13 L548.48,26.13 C550.474692,26.1209157 552.447308,26.5475195 554.26,27.38 C556.21852,28.2681204 557.992655,29.5164598 559.49,31.06 C561.001318,32.6326783 562.19332,34.4835088 563,36.51 C564.722296,40.6722005 564.722296,45.3477995 563,49.51 C562.202889,51.4478468 561.034262,53.2109778 559.56,54.7 C558.077341,56.1755278 556.325785,57.353415 554.4,58.17 C552.493322,59.0042199 550.431056,59.4234905 548.35,59.4 C546.263133,59.4167205 544.195739,58.9977922 542.28,58.17 C540.459809,57.3978458 538.821357,56.2533138 537.47,54.81 C535.971222,53.200415 534.763284,51.3428295 533.9,49.32 C533.120231,47.4609181 532.715807,45.4659838 532.71,43.45 L507.5,43.45 C507.561575,50.4974845 509.457089,57.4074956 513,63.5 C514.605494,66.2828891 516.528341,68.8701757 518.73,71.21 C515.580929,74.0208392 512.882742,77.2991367 510.73,80.93 C506.659663,88.0220555 504.586252,96.0841677 504.73,104.26 C504.690215,110.192485 505.87846,116.069023 508.22,121.52 C510.43981,126.713779 513.692345,131.402055 517.78,135.3 C521.790222,139.094305 526.469338,142.111995 531.58,144.2 C536.931416,146.412057 542.669481,147.537234 548.46,147.51 L548.57,147.51 L548.57,122.76 L548.46,122.76 C546.050545,122.786031 543.663531,122.294988 541.46,121.32 C539.23583,120.361176 537.223736,118.971064 535.54,117.23 C533.778789,115.408657 532.371545,113.275749 531.39,110.94 C529.423871,106.206028 529.423871,100.883972 531.39,96.15 C533.285217,91.5938613 536.878669,87.953788 541.41,86 C543.612866,85.0218724 545.999846,84.5274266 548.41,84.55 C550.820672,84.5220933 553.208777,85.016772 555.41,86 C557.731148,86.9999084 559.849454,88.4166312 561.66,90.18 C565.157034,93.6049923 567.140726,98.285211 567.17,103.18 L592.36,103.18 C592.325619,95.4097866 590.312309,87.7764181 586.51,81 Z" id="Shape" fill="#404041"></path>
            <path d="M524.06,48.72 C523.630839,46.843317 523.409507,44.9251047 523.4,43 C523.395213,39.5668512 524.075139,36.1672192 525.4,33 C526.663104,29.8933936 528.502052,27.0535417 530.82,24.63 C533.089322,22.281044 535.766006,20.3633189 538.72,18.97 C541.745355,17.5534684 545.049554,16.8324901 548.39,16.86 C551.76493,16.8410765 555.103081,17.5612708 558.17,18.97 C564.283582,21.7466252 569.09306,26.770972 571.6,33 C572.924604,36.1672978 573.60452,39.5668775 573.6,43 C573.590995,44.9350388 573.36967,46.8632463 572.94,48.75 L579.64,48.75 C579.992619,46.9340045 580.180051,45.0898059 580.2,43.24 C580.243091,38.7559548 579.400304,34.3075348 577.72,30.15 C576.168964,26.2837938 573.887358,22.752737 571,19.75 C568.119548,16.8075694 564.669232,14.4835402 560.86,12.92 C552.817009,9.61118332 543.792991,9.61118332 535.75,12.92 C531.99353,14.5051498 528.593139,16.8276166 525.75,19.75 C522.879864,22.7314687 520.635755,26.2574402 519.15,30.12 C517.550907,34.2968512 516.753649,38.7377481 516.8,43.21 C516.816598,45.0595053 517.000683,46.9037062 517.35,48.72 L524.06,48.72 Z" id="Shape" fill="#6EBD44"></path>
            <path d="M575.31,96 C576.027786,98.4468361 576.407967,100.980255 576.44,103.53 C576.465224,107.339279 575.699045,111.112283 574.19,114.61 C572.749663,118.000313 570.672093,121.082721 568.07,123.69 C565.479846,126.278302 562.427026,128.357612 559.07,129.82 C552.231777,132.806103 544.458223,132.806103 537.62,129.82 C534.302577,128.371262 531.299782,126.289007 528.78,123.69 C526.241009,121.05616 524.207281,117.978451 522.78,114.61 C521.274108,111.111635 520.511328,107.338601 520.54,103.53 C520.581779,100.978872 520.972058,98.4454245 521.7,96 L514.83,96 C514.266798,98.7107315 513.97867,101.471393 513.97,104.24 C513.924783,108.895643 514.847629,113.509874 516.68,117.79 C518.395799,121.835205 520.920883,125.486708 524.1,128.52 C527.297693,131.536904 531.027513,133.934162 535.1,135.59 C543.640785,139.043409 553.189215,139.043409 561.73,135.59 C565.816668,133.915391 569.569522,131.520745 572.81,128.52 C576.050529,125.51171 578.62277,121.856063 580.36,117.79 C582.160938,113.509496 583.05966,108.903547 583,104.26 C582.98954,101.492 582.704815,98.7318473 582.15,96.02 L575.31,96 Z" id="Shape" fill="#6EBD44"></path>
        </g>
    </g>
</svg>