<?xml version="1.0" encoding="UTF-8"?>
<svg width="160px" height="158px" viewBox="0 0 160 158" version="1.1" xmlns="http://www.w3.org/2000/svg" xmlns:xlink="http://www.w3.org/1999/xlink">
    <!-- Generator: Sketch 46.2 (44496) - http://www.bohemiancoding.com/sketch -->
    <title>Group</title>
    <desc>Created with Sketch.</desc>
    <defs>
        <path d="M0.275,68.468 C0.275,31.053 30.605,0.733 68.01,0.733 C105.412,0.733 135.755,31.053 135.755,68.468 C135.755,105.865 105.412,136.211 68.01,136.211 C30.605,136.211 0.275,105.865 0.275,68.468 Z" id="path-1"></path>
    </defs>
    <g id="Page-1" stroke="none" stroke-width="1" fill="none" fill-rule="evenodd">
        <g id="logo-NDG-GENEROSO" transform="translate(-713.000000, -27.000000)">
            <g id="Group" transform="translate(713.000000, 26.000000)">
                <g id="Group-33" transform="translate(0.000000, 148.276000)">
                    <path d="M0.8082,2.0463 C0.8082,1.4733 1.2612,1.0203 1.8352,1.0203 C2.4092,1.0203 2.8622,1.4733 2.8622,2.0463 L2.8622,5.1803 L6.6502,1.4193 C6.9032,1.1663 7.1562,1.0203 7.5162,1.0203 C8.0892,1.0203 8.4632,1.4593 8.4632,1.9663 C8.4632,2.2863 8.3172,2.5263 8.0892,2.7393 L5.4622,5.1933 L8.3292,8.7943 C8.4902,8.9943 8.6102,9.2083 8.6102,9.5153 C8.6102,10.0883 8.1692,10.5153 7.5702,10.5153 C7.1692,10.5153 6.9292,10.3153 6.7032,10.0223 L4.0362,6.5273 L2.8622,7.6213 L2.8622,9.4873 C2.8622,10.0623 2.4092,10.5153 1.8352,10.5153 C1.2612,10.5153 0.8082,10.0623 0.8082,9.4873 L0.8082,2.0463 Z" id="Fill-1" fill="#43240C"></path>
                    <path d="M15.5602,6.5278 L14.2662,3.4468 L12.9722,6.5278 L15.5602,6.5278 Z M9.7862,9.1148 L13.0392,1.7658 C13.2662,1.2598 13.6792,0.9528 14.2402,0.9528 L14.3602,0.9528 C14.9192,0.9528 15.3202,1.2598 15.5462,1.7658 L18.8002,9.1148 C18.8672,9.2608 18.9072,9.3948 18.9072,9.5278 C18.9072,10.0748 18.4802,10.5148 17.9332,10.5148 C17.4542,10.5148 17.1332,10.2348 16.9472,9.8078 L16.3202,8.3408 L12.2122,8.3408 L11.5592,9.8748 C11.3852,10.2748 11.0392,10.5148 10.6122,10.5148 C10.0792,10.5148 9.6652,10.0888 9.6652,9.5548 C9.6652,9.4078 9.7182,9.2608 9.7862,9.1148 L9.7862,9.1148 Z" id="Fill-3" fill="#43240C"></path>
                    <path d="M22.1315,9.768 L19.1045,2.527 C19.0375,2.367 18.9845,2.206 18.9845,2.034 C18.9845,1.459 19.4375,1.02 20.0115,1.02 C20.5445,1.02 20.8915,1.327 21.0515,1.74 L23.3855,7.781 L25.7455,1.673 C25.8785,1.339 26.2385,1.02 26.7325,1.02 C27.2925,1.02 27.7455,1.447 27.7455,2.006 C27.7455,2.166 27.6935,2.34 27.6395,2.46 L24.5855,9.768 C24.3715,10.275 23.9855,10.581 23.4255,10.581 L23.2915,10.581 C22.7315,10.581 22.3445,10.275 22.1315,9.768" id="Fill-5" fill="#43240C"></path>
                    <path d="M33.6969,6.5278 L32.4029,3.4468 L31.1089,6.5278 L33.6969,6.5278 Z M27.9229,9.1148 L31.1759,1.7658 C31.4029,1.2598 31.8159,0.9528 32.3769,0.9528 L32.4969,0.9528 C33.0559,0.9528 33.4569,1.2598 33.6829,1.7658 L36.9369,9.1148 C37.0039,9.2608 37.0439,9.3948 37.0439,9.5278 C37.0439,10.0748 36.6169,10.5148 36.0699,10.5148 C35.5909,10.5148 35.2699,10.2348 35.0839,9.8078 L34.4569,8.3408 L30.3489,8.3408 L29.6959,9.8748 C29.5219,10.2748 29.1759,10.5148 28.7489,10.5148 C28.2159,10.5148 27.8019,10.0888 27.8019,9.5548 C27.8019,9.4078 27.8549,9.2608 27.9229,9.1148 L27.9229,9.1148 Z" id="Fill-7" fill="#43240C"></path>
                    <path d="M42.3317,2.0737 C42.3317,1.4997 42.7847,1.0467 43.3587,1.0467 L43.5717,1.0467 C44.0647,1.0467 44.3587,1.2867 44.6397,1.6467 L48.6007,6.8467 L48.6007,2.0337 C48.6007,1.4727 49.0537,1.0197 49.6127,1.0197 C50.1737,1.0197 50.6267,1.4727 50.6267,2.0337 L50.6267,9.4617 C50.6267,10.0347 50.1737,10.4887 49.6007,10.4887 L49.5327,10.4887 C49.0397,10.4887 48.7467,10.2487 48.4667,9.8877 L44.3587,4.5007 L44.3587,9.5017 C44.3587,10.0617 43.9057,10.5147 43.3457,10.5147 C42.7847,10.5147 42.3317,10.0617 42.3317,9.5017 L42.3317,2.0737 Z" id="Fill-9" fill="#43240C"></path>
                    <path d="M52.9196,2.0463 C52.9196,1.4733 53.3726,1.0203 53.9456,1.0203 C54.5196,1.0203 54.9736,1.4733 54.9736,2.0463 L54.9736,9.4873 C54.9736,10.0623 54.5196,10.5153 53.9456,10.5153 C53.3726,10.5153 52.9196,10.0623 52.9196,9.4873 L52.9196,2.0463 Z" id="Fill-11" fill="#43240C"></path>
                    <path d="M56.6696,9.7553 C56.4566,9.5953 56.2826,9.2883 56.2826,8.9683 C56.2826,8.4213 56.7096,7.9813 57.2566,7.9813 C57.5096,7.9813 57.6696,8.0483 57.8696,8.1943 C58.2826,8.5013 58.6436,8.6613 59.1096,8.6613 C59.9106,8.6613 60.3906,8.1943 60.3906,7.1143 L60.3906,2.0463 C60.3906,1.4733 60.8436,1.0203 61.4176,1.0203 C61.9906,1.0203 62.4436,1.4733 62.4436,2.0463 L62.4436,7.2073 C62.4436,8.3153 62.1236,9.1413 61.5646,9.7013 C60.9906,10.2753 60.1496,10.5683 59.1366,10.5683 C58.0696,10.5683 57.2566,10.2083 56.6696,9.7553" id="Fill-13" fill="#43240C"></path>
                    <path d="M64.5807,9.4076 L64.5807,2.1266 C64.5807,1.5536 65.0337,1.0996 65.6077,1.0996 L70.7817,1.0996 C71.2887,1.0996 71.7027,1.5126 71.7027,2.0196 C71.7027,2.5266 71.2887,2.9276 70.7817,2.9276 L66.6217,2.9276 L66.6217,4.8206 L70.1827,4.8206 C70.6887,4.8206 71.1017,5.2336 71.1017,5.7406 C71.1017,6.2476 70.6887,6.6476 70.1827,6.6476 L66.6217,6.6476 L66.6217,8.6076 L70.8497,8.6076 C71.3547,8.6076 71.7687,9.0206 71.7687,9.5276 C71.7687,10.0346 71.3547,10.4346 70.8497,10.4346 L65.6077,10.4346 C65.0337,10.4346 64.5807,9.9816 64.5807,9.4076" id="Fill-15" fill="#43240C"></path>
                    <path d="M77.0035,9.4477 C76.7765,9.2887 76.6165,8.9947 76.6165,8.6747 C76.6165,8.1407 77.0435,7.7277 77.5765,7.7277 C77.8435,7.7277 78.0295,7.8207 78.1635,7.9147 C78.8705,8.4347 79.6445,8.7547 80.5505,8.7547 C81.3915,8.7547 81.8985,8.4217 81.8985,7.8747 L81.8985,7.8477 C81.8985,7.3277 81.5775,7.0607 80.0175,6.6607 C78.1375,6.1807 76.9235,5.6607 76.9235,3.8067 L76.9235,3.7807 C76.9235,2.0867 78.2835,0.9667 80.1915,0.9667 C81.3245,0.9667 82.3115,1.2597 83.1505,1.7937 C83.3785,1.9267 83.6055,2.2067 83.6055,2.6067 C83.6055,3.1397 83.1785,3.5527 82.6455,3.5527 C82.4445,3.5527 82.2845,3.5007 82.1245,3.4067 C81.4435,3.0067 80.8045,2.7797 80.1635,2.7797 C79.3775,2.7797 78.9635,3.1397 78.9635,3.5937 L78.9635,3.6207 C78.9635,4.2337 79.3635,4.4337 80.9785,4.8467 C82.8715,5.3407 83.9385,6.0207 83.9385,7.6477 L83.9385,7.6747 C83.9385,9.5277 82.5245,10.5687 80.5115,10.5687 C79.2835,10.5687 78.0435,10.1947 77.0035,9.4477" id="Fill-17" fill="#43240C"></path>
                    <path d="M90.7623,6.5278 L89.4683,3.4468 L88.1743,6.5278 L90.7623,6.5278 Z M84.9883,9.1148 L88.2413,1.7658 C88.4683,1.2598 88.8813,0.9528 89.4423,0.9528 L89.5623,0.9528 C90.1213,0.9528 90.5223,1.2598 90.7483,1.7658 L94.0023,9.1148 C94.0693,9.2608 94.1093,9.3948 94.1093,9.5278 C94.1093,10.0748 93.6823,10.5148 93.1363,10.5148 C92.6563,10.5148 92.3353,10.2348 92.1493,9.8078 L91.5223,8.3408 L87.4143,8.3408 L86.7613,9.8748 C86.5873,10.2748 86.2413,10.5148 85.8143,10.5148 C85.2813,10.5148 84.8673,10.0888 84.8673,9.5548 C84.8673,9.4078 84.9203,9.2608 84.9883,9.1148 L84.9883,9.1148 Z" id="Fill-19" fill="#43240C"></path>
                    <path d="M95.4498,2.0737 C95.4498,1.4997 95.9028,1.0467 96.4768,1.0467 L96.7038,1.0467 C97.1428,1.0467 97.4508,1.2727 97.6378,1.5797 L100.1178,5.6207 L102.6118,1.5667 C102.8248,1.2197 103.1178,1.0467 103.5318,1.0467 L103.7588,1.0467 C104.3318,1.0467 104.7848,1.4997 104.7848,2.0737 L104.7848,9.4877 C104.7848,10.0617 104.3318,10.5147 103.7588,10.5147 C103.1978,10.5147 102.7448,10.0487 102.7448,9.4877 L102.7448,4.8337 L100.9448,7.6077 C100.7308,7.9277 100.4648,8.1277 100.0918,8.1277 C99.7178,8.1277 99.4508,7.9277 99.2378,7.6077 L97.4638,4.8737 L97.4638,9.5147 C97.4638,10.0747 97.0108,10.5147 96.4498,10.5147 C95.8898,10.5147 95.4498,10.0747 95.4498,9.5147 L95.4498,2.0737 Z" id="Fill-21" fill="#43240C"></path>
                    <path d="M114.3131,5.7944 L114.3131,5.7674 C114.3131,4.1674 113.1401,2.8334 111.4861,2.8334 C109.8331,2.8334 108.6851,4.1404 108.6851,5.7404 L108.6851,5.7674 C108.6851,7.3674 109.8591,8.7014 111.5131,8.7014 C113.1671,8.7014 114.3131,7.3944 114.3131,5.7944 M106.5391,5.7944 L106.5391,5.7674 C106.5391,3.1134 108.6321,0.9404 111.5131,0.9404 C114.3931,0.9404 116.4601,3.0864 116.4601,5.7404 L116.4601,5.7674 C116.4601,8.4214 114.3671,10.5954 111.4861,10.5954 C108.6051,10.5954 106.5391,8.4474 106.5391,5.7944" id="Fill-23" fill="#43240C"></path>
                    <path d="M121.2799,5.7944 L121.2799,5.7674 C121.2799,3.1134 123.2799,0.9404 126.1469,0.9404 C127.5479,0.9404 128.4949,1.3134 129.2679,1.8864 C129.4809,2.0464 129.6689,2.3404 129.6689,2.6994 C129.6689,3.2604 129.2149,3.7004 128.6549,3.7004 C128.3749,3.7004 128.1879,3.5934 128.0409,3.5004 C127.4669,3.0734 126.8679,2.8334 126.1339,2.8334 C124.5599,2.8334 123.4259,4.1404 123.4259,5.7404 L123.4259,5.7674 C123.4259,7.3674 124.5339,8.7014 126.1339,8.7014 C127.0009,8.7014 127.5749,8.4354 128.1609,7.9684 C128.3209,7.8344 128.5349,7.7404 128.7749,7.7404 C129.2949,7.7404 129.7349,8.1674 129.7349,8.6884 C129.7349,9.0084 129.5749,9.2614 129.3879,9.4214 C128.5479,10.1544 127.5609,10.5954 126.0669,10.5954 C123.3199,10.5954 121.2799,8.4754 121.2799,5.7944" id="Fill-25" fill="#D8232A"></path>
                    <path d="M135.5748,5.6342 C136.5748,5.6342 137.1478,5.1002 137.1478,4.3142 L137.1478,4.2862 C137.1478,3.4062 136.5348,2.9532 135.5348,2.9532 L133.4938,2.9532 L133.4938,5.6342 L135.5748,5.6342 Z M131.4398,2.1262 C131.4398,1.5532 131.8928,1.1002 132.4678,1.1002 L135.7078,1.1002 C136.8948,1.1002 137.8148,1.4332 138.4288,2.0462 C138.9488,2.5672 139.2278,3.3002 139.2278,4.1802 L139.2278,4.2072 C139.2278,5.6742 138.4948,6.5802 137.3608,7.0472 L138.7888,8.7812 C138.9888,9.0342 139.1218,9.2482 139.1218,9.5682 C139.1218,10.1422 138.6418,10.5152 138.1478,10.5152 C137.6808,10.5152 137.3748,10.2882 137.1348,9.9822 L135.1348,7.4472 L133.4938,7.4472 L133.4938,9.4882 C133.4938,10.0622 133.0408,10.5152 132.4678,10.5152 C131.8928,10.5152 131.4398,10.0622 131.4398,9.4882 L131.4398,2.1262 Z" id="Fill-27" fill="#D8232A"></path>
                    <path d="M141.0905,2.0737 C141.0905,1.4997 141.5435,1.0467 142.1175,1.0467 L142.3305,1.0467 C142.8235,1.0467 143.1175,1.2867 143.3985,1.6467 L147.3595,6.8467 L147.3595,2.0337 C147.3595,1.4727 147.8125,1.0197 148.3715,1.0197 C148.9325,1.0197 149.3855,1.4727 149.3855,2.0337 L149.3855,9.4617 C149.3855,10.0347 148.9325,10.4887 148.3595,10.4887 L148.2925,10.4887 C147.7985,10.4887 147.5055,10.2487 147.2255,9.8877 L143.1175,4.5007 L143.1175,9.5017 C143.1175,10.0617 142.6645,10.5147 142.1045,10.5147 C141.5435,10.5147 141.0905,10.0617 141.0905,9.5017 L141.0905,2.0737 Z" id="Fill-29" fill="#D8232A"></path>
                    <path d="M156.6071,6.5278 L155.3131,3.4468 L154.0191,6.5278 L156.6071,6.5278 Z M150.8331,9.1148 L154.0861,1.7658 C154.3131,1.2598 154.7261,0.9528 155.2871,0.9528 L155.4071,0.9528 C155.9661,0.9528 156.3671,1.2598 156.5931,1.7658 L159.8471,9.1148 C159.9141,9.2608 159.9541,9.3948 159.9541,9.5278 C159.9541,10.0748 159.5271,10.5148 158.9801,10.5148 C158.5011,10.5148 158.1801,10.2348 157.9941,9.8078 L157.3671,8.3408 L153.2591,8.3408 L152.6061,9.8748 C152.4321,10.2748 152.0861,10.5148 151.6591,10.5148 C151.1261,10.5148 150.7121,10.0888 150.7121,9.5548 C150.7121,9.4078 150.7651,9.2608 150.8331,9.1148 L150.8331,9.1148 Z" id="Fill-31" fill="#D8232A"></path>
                </g>
                <g id="Group-36" transform="translate(12.000000, 0.276000)">
                    <mask id="mask-2" fill="white">
                        <use xlink:href="#path-1"></use>
                    </mask>
                    <g id="Clip-35"></g>
                    <path d="M68.0381,136.3022 C105.4331,136.3022 135.8571,105.8792 135.8571,68.4852 C135.8571,31.0892 105.4331,0.6652 68.0381,0.6652 C30.6431,0.6652 0.2191,31.0892 0.2191,68.4852 C0.2191,105.8792 30.6431,136.3022 68.0381,136.3022" id="Fill-34" fill="#140000" mask="url(#mask-2)"></path>
                </g>
                <g id="Group-445" transform="translate(31.000000, 27.276000)">
                    <path d="M88.004,21.4706 C87.35,21.4706 86.848,20.9806 86.848,20.3396 C86.848,19.7166 87.35,19.2046 88.004,19.2046 C88.65,19.2046 89.16,19.7166 89.16,20.3396 C89.16,20.9806 88.65,21.4706 88.004,21.4706 L88.004,21.2966 C88.538,21.2966 88.958,20.8826 88.958,20.3396 C88.958,19.8206 88.538,19.3946 88.004,19.3946 C87.483,19.3946 87.042,19.8206 87.042,20.3396 C87.042,20.8826 87.483,21.2966 88.004,21.2966 L88.004,21.4706 Z" id="Fill-380" fill="#131615"></path>
                    <path d="M87.7716,20.9804 L87.5706,20.9804 L87.5706,19.7164 L88.0646,19.7164 C88.3586,19.7164 88.5146,19.8004 88.5146,20.0524 C88.5146,20.3184 88.3586,20.3864 88.1866,20.3864 L88.5386,20.9804 L88.2916,20.9804 L87.9886,20.4064 L87.7716,20.4064 L87.7716,20.2184 L88.0646,20.2184 C88.2176,20.2184 88.3136,20.2184 88.3136,20.0524 C88.3136,19.9164 88.2476,19.9084 88.0646,19.9084 L87.7716,19.9084 L87.7716,20.9804 Z" id="Fill-382" fill="#131615"></path>
                    <path d="M87.8976,21.3124 C87.2416,21.3124 86.7336,20.8104 86.7336,20.1834 C86.7336,19.5504 87.2416,19.0544 87.8976,19.0544 C88.5196,19.0544 89.0306,19.5504 89.0306,20.1834 C89.0306,20.8104 88.5196,21.3124 87.8976,21.3124 L87.8976,21.1254 C88.4166,21.1254 88.8436,20.7184 88.8436,20.1834 C88.8436,19.6344 88.4166,19.2204 87.8976,19.2204 C87.3706,19.2204 86.9166,19.6344 86.9166,20.1834 C86.9166,20.7184 87.3706,21.1254 87.8976,21.1254 L87.8976,21.3124 Z" id="Fill-384" fill="#FFFFFE"></path>
                    <path d="M87.6359,20.8281 L87.4539,20.8281 L87.4539,19.5511 L87.9449,19.5511 C88.2469,19.5511 88.3929,19.6191 88.3929,19.8731 C88.3929,20.1461 88.2179,20.2191 88.0649,20.2191 L88.4159,20.8281 L88.1809,20.8281 L87.8689,20.2401 L87.6359,20.2401 L87.6359,20.0491 L87.9449,20.0491 C88.0969,20.0491 88.2019,20.0491 88.2019,19.8731 C88.2019,19.7641 88.1299,19.7441 87.9449,19.7441 L87.6359,19.7441 L87.6359,20.8281 Z" id="Fill-386" fill="#FFFFFE"></path>
                    <g id="Group-394" transform="translate(11.000000, 0.000000)" fill="#131615">
                        <path d="M70.6407,3.1191 C70.4257,4.3901 69.9787,5.6131 68.9757,6.6401 C68.5217,7.1191 67.8437,7.6391 67.2087,7.8261 L67.5807,7.8261 L69.9237,7.8261 C70.7347,7.8261 72.3607,7.4281 73.2107,6.5571 C74.7837,4.9471 74.7547,3.1641 75.0837,0.7931 L72.7547,0.7931 C72.1647,0.7931 71.0267,0.8081 70.6407,3.1191" id="Fill-388"></path>
                        <path d="M0.4552,21.4472 L3.2472,21.4472 L3.2472,10.5492 L8.1152,19.2522 C9.1352,21.0742 9.8372,21.6872 11.7212,21.6872 C12.2852,21.6872 12.9972,21.6092 13.2682,21.4702 L13.2682,7.7832 L61.4902,7.7832 C62.2822,7.7832 64.9032,7.1192 64.9032,5.5862 L10.5012,5.5862 L10.5012,16.4672 L5.5992,7.7832 C4.5912,5.9512 3.8912,5.3342 1.9822,5.3342 C1.4252,5.3342 0.7092,5.4062 0.4552,5.5542 L0.4552,21.4472 Z" id="Fill-390"></path>
                        <path d="M55.3693,21.4316 C54.4713,17.1286 52.9903,12.3146 51.6183,9.5956 L48.0523,9.5956 C46.5443,12.3146 45.3583,16.4216 44.3613,21.4316 L47.1223,21.4316 C47.2253,20.7066 47.3473,19.9156 47.5223,19.1326 L51.5453,19.1326 C51.7093,19.9156 51.8733,20.7286 51.9943,21.4316 L55.3693,21.4316 Z M22.8783,16.6266 L22.8783,14.4196 L18.3523,14.4196 L18.3523,11.9046 L23.5933,11.9046 L23.5933,9.6956 L15.2333,9.6956 L15.2333,16.6756 C15.2333,18.3226 15.5003,19.8206 16.1973,20.5096 C17.1033,21.3786 18.6433,21.6996 20.6863,21.6996 C21.7633,21.6996 22.9313,21.5276 23.6363,21.1776 L23.6363,19.1096 C22.7693,19.3536 21.8563,19.4726 20.9973,19.4726 C19.7913,19.4726 19.0703,19.3556 18.6963,18.8476 C18.3713,18.3576 18.3523,17.5976 18.3523,16.6756 L18.3523,16.6266 L22.8783,16.6266 Z M29.5343,9.3726 C31.3073,9.3726 32.5633,9.7516 33.0603,10.0746 L33.0603,12.1836 C31.9823,11.8516 30.9453,11.6286 29.6933,11.6286 C28.8603,11.6286 28.4183,11.6996 28.1233,11.9356 C27.8263,12.1656 27.7443,13.1526 28.1233,13.4116 C29.1063,14.0836 32.0803,14.5726 33.0913,15.6796 C34.2263,16.9256 33.9893,19.8276 32.7933,20.7426 C31.8483,21.4476 30.2863,21.6996 28.9913,21.6996 C27.0753,21.6996 25.9033,21.3786 25.3153,21.0486 L25.3153,18.9106 C26.4673,19.2326 27.6853,19.4726 28.9473,19.4726 C29.7663,19.4726 30.2643,19.3536 30.5163,19.1446 C30.7753,18.9236 30.8753,17.9256 30.5163,17.6796 C29.5063,17.0136 26.7123,16.6096 25.6733,15.5156 C24.6403,14.4276 24.8453,11.4106 25.7683,10.5366 C26.7703,9.5956 28.1233,9.3726 29.5343,9.3726 L29.5343,9.3726 Z M64.4623,16.6266 L64.4623,14.4196 L59.6633,14.4196 L59.6633,11.9046 L64.9033,11.9046 L64.9033,9.6956 L56.5403,9.6956 L56.5403,19.4726 C56.5403,21.1996 57.9973,21.4316 59.6633,21.4316 L59.6633,16.6266 L64.4623,16.6266 Z M38.5193,15.5586 C38.5193,17.2456 38.6133,18.3226 38.9443,18.8556 C39.2833,19.3536 40.0963,19.4726 40.9753,19.4726 C41.9603,19.4726 42.7033,19.3556 43.5793,19.1096 L43.0973,21.2816 C42.5083,21.5726 41.6103,21.6996 40.7563,21.6996 C39.0283,21.6996 37.3083,21.4476 36.3513,20.4436 C35.4573,19.5256 35.1473,17.5976 35.1473,15.5586 C35.1473,13.4996 35.4573,11.5646 36.3513,10.6326 C37.3083,9.6546 39.0283,9.4136 40.7563,9.4136 C41.6833,9.4136 42.6813,9.5956 43.3313,9.9156 L43.3313,12.0096 C42.5163,11.7406 41.7893,11.6286 40.9753,11.6286 C40.0963,11.6286 39.2833,11.7736 38.9443,12.2676 C38.6133,12.8126 38.5193,13.8556 38.5193,15.5586 L38.5193,15.5586 Z M49.4663,12.4806 C50.1243,13.8046 50.6463,15.4606 51.0923,17.1526 L47.9453,17.1526 C48.3493,15.5776 48.8833,13.9456 49.4663,12.4806 L49.4663,12.4806 Z M73.9643,16.6266 L73.9643,14.4196 L69.4323,14.4196 L69.4323,11.9046 L74.6703,11.9046 L74.6703,9.6956 L66.3103,9.6956 L66.3103,16.6756 C66.3103,18.3226 66.5823,19.8206 67.2933,20.5096 C68.1763,21.3786 69.7253,21.6996 71.7713,21.6996 C72.8453,21.6996 74.0043,21.5276 74.7183,21.1776 L74.7183,19.1096 C73.8553,19.3536 72.9393,19.4726 72.0763,19.4726 C70.8873,19.4726 70.1413,19.3556 69.7853,18.8476 C69.4463,18.3576 69.4323,17.5976 69.4323,16.6756 L69.4323,16.6266 L73.9643,16.6266 Z" id="Fill-392"></path>
                    </g>
                    <path d="M81.3663,2.8808 C81.1593,4.1468 80.7213,5.3628 79.7283,6.4018 C79.2563,6.8848 78.5703,7.3808 77.9283,7.5858 L78.3113,7.5858 L80.6343,7.5858 C81.4573,7.5858 83.0833,7.1818 83.9263,6.3008 C85.5123,4.6898 85.4693,2.9238 85.8023,0.5328 L83.4823,0.5328 C82.8873,0.5328 81.7533,0.5628 81.3663,2.8808" id="Fill-395" fill="#D8232A"></path>
                    <path d="M11.1759,21.1992 L13.9719,21.1992 L13.9719,10.3032 L18.8449,19.0002 C19.8769,20.8402 20.5639,21.4472 22.4509,21.4472 C23.0209,21.4472 23.7349,21.3792 23.9949,21.2202 L23.9949,7.5492 L72.2239,7.5492 C73.0039,7.5492 75.6359,6.8852 75.6359,5.3442 L21.2069,5.3442 L21.2069,16.2202 L16.3269,7.5492 C15.2929,5.7052 14.6249,5.1012 12.7149,5.1012 C12.1479,5.1012 11.4209,5.1762 11.1759,5.3182 L11.1759,21.1992 Z" id="Fill-397" fill="#FFFFFE"></path>
                    <path d="M66.1154,21.1777 C65.1924,16.8767 63.7174,12.0547 62.3564,9.3377 L58.7864,9.3377 C57.2664,12.0547 56.0754,16.1957 55.0764,21.1777 L57.8574,21.1777 C57.9494,20.4647 58.0764,19.6877 58.2594,18.8847 L62.2754,18.8847 C62.4444,19.6877 62.5994,20.4887 62.7094,21.1777 L66.1154,21.1777 Z M33.5994,16.3907 L33.5994,14.1637 L29.0794,14.1637 L29.0794,11.6637 L34.3294,11.6637 L34.3294,9.4317 L25.9544,9.4317 L25.9544,16.4357 C25.9544,18.0937 26.2334,19.5507 26.9134,20.2697 C27.8214,21.1247 29.3714,21.4567 31.4174,21.4567 C32.4954,21.4567 33.6474,21.2817 34.3694,20.9377 L34.3694,18.8557 C33.4774,19.1097 32.5914,19.2327 31.7234,19.2327 C30.5234,19.2327 29.8024,19.1327 29.4284,18.5897 C29.0894,18.1187 29.0794,17.3667 29.0794,16.4357 L29.0794,16.3907 L33.5994,16.3907 Z M40.2714,9.1577 C42.0414,9.1577 43.2894,9.5257 43.7824,9.8227 L43.7824,11.9437 C42.7074,11.6117 41.6664,11.3807 40.4114,11.3807 C39.5724,11.3807 39.1294,11.4647 38.8554,11.6987 C38.5354,11.9067 38.4624,12.9257 38.8554,13.1757 C39.8434,13.8397 42.8064,14.3317 43.8084,15.4397 C44.9674,16.6877 44.7014,19.5917 43.5174,20.5097 C42.5834,21.2147 41.0064,21.4567 39.7244,21.4567 C37.8194,21.4567 36.6274,21.1247 36.0424,20.8107 L36.0424,18.6577 C37.1874,18.9897 38.4134,19.2327 39.6604,19.2327 C40.4914,19.2327 40.9934,19.1097 41.2314,18.9097 C41.5164,18.6857 41.6024,17.6797 41.2314,17.4507 C40.2484,16.7557 37.4424,16.3517 36.3974,15.2677 C35.3754,14.1897 35.5574,11.1637 36.4914,10.2907 C37.4864,9.3377 38.8554,9.1577 40.2714,9.1577 L40.2714,9.1577 Z M75.1894,16.3907 L75.1894,14.1637 L70.3864,14.1637 L70.3864,11.6637 L75.6364,11.6637 L75.6364,9.4317 L67.2794,9.4317 L67.2794,19.2327 C67.2794,20.9547 68.7244,21.1777 70.3864,21.1777 L70.3864,16.3907 L75.1894,16.3907 Z M49.2274,15.3187 C49.2274,17.0137 49.3254,18.0937 49.6754,18.6167 C50.0044,19.1097 50.8364,19.2327 51.7044,19.2327 C52.6834,19.2327 53.4334,19.1327 54.3024,18.8557 L53.8124,21.0317 C53.2294,21.3397 52.3284,21.4567 51.4694,21.4567 C49.7664,21.4567 48.0274,21.2147 47.0874,20.2187 C46.1864,19.2737 45.8904,17.3667 45.8904,15.3187 C45.8904,13.2637 46.1864,11.3107 47.0874,10.3927 C48.0274,9.4137 49.7664,9.1697 51.4694,9.1697 C52.4114,9.1697 53.4074,9.3377 54.0514,9.6547 L54.0514,11.7737 C53.2544,11.4957 52.5024,11.3807 51.7044,11.3807 C50.8364,11.3807 50.0044,11.5257 49.6754,12.0097 C49.3254,12.5737 49.2274,13.6167 49.2274,15.3187 L49.2274,15.3187 Z M60.1814,12.2347 C60.8454,13.5647 61.3704,15.2147 61.8284,16.9237 L58.6894,16.9237 C59.0704,15.3377 59.5944,13.6987 60.1814,12.2347 L60.1814,12.2347 Z M84.6764,16.3907 L84.6764,14.1637 L80.1574,14.1637 L80.1574,11.6637 L85.4094,11.6637 L85.4094,9.4317 L77.0244,9.4317 L77.0244,16.4357 C77.0244,18.0937 77.3104,19.5507 78.0144,20.2697 C78.9014,21.1247 80.4464,21.4567 82.4994,21.4567 C83.5814,21.4567 84.7154,21.2817 85.4444,20.9377 L85.4444,18.8557 C84.5924,19.1097 83.6824,19.2327 82.8084,19.2327 C81.5974,19.2327 80.8884,19.1327 80.5054,18.5897 C80.1824,18.1187 80.1574,17.3667 80.1574,16.4357 L80.1574,16.3907 L84.6764,16.3907 Z" id="Fill-399" fill="#FFFFFE"></path>
                    <path d="M29.673,41.3671 C29.673,34.9121 33.205,31.0331 38.79,31.0331 C44.34,31.0331 47.891,34.9121 47.891,41.3671 C47.891,47.8121 44.34,51.6971 38.79,51.6971 C33.205,51.6971 29.673,47.8121 29.673,41.3671 M38.79,50.2711 C43.152,50.2711 44.009,44.9371 44.009,41.3671 C44.009,37.8061 43.152,32.4651 38.79,32.4651 C34.422,32.4651 33.535,37.8061 33.535,41.3671 C33.535,44.9371 34.422,50.2711 38.79,50.2711" id="Fill-401" fill="#131615"></path>
                    <path d="M75.1036,51.0038 C73.9376,51.4378 72.4906,51.6968 70.4456,51.6968 C62.7656,51.6968 59.3756,47.4278 59.3756,40.7658 C59.3756,35.0488 62.0916,31.0328 68.7726,31.0328 C71.7546,31.0328 75.6356,31.8928 75.6356,35.0488 C75.6356,36.2908 74.7096,37.0648 73.5756,37.0648 C71.9236,37.0648 71.5636,35.7338 71.2316,34.3218 C71.0236,33.3608 70.2266,32.4648 68.2086,32.4648 C65.2536,32.4648 62.9946,34.6228 62.9946,39.3808 C62.9946,44.8518 66.6116,50.1078 72.6576,50.1078 C73.4976,50.1078 74.3136,49.9238 75.1036,49.7678 L75.1036,51.0038 Z" id="Fill-403" fill="#131615"></path>
                    <path d="M93.7775,50.916 C92.7245,51.311 91.2595,51.697 88.5795,51.697 C81.8445,51.697 78.0315,48.041 78.0315,40.809 C78.0315,34.518 80.6125,31.033 86.9115,31.033 C90.8285,31.033 94.3435,33.215 94.3435,38.166 L94.3435,39.143 L81.6705,39.143 C81.6705,42.734 83.4535,50.107 90.7335,50.107 C91.7385,50.107 92.9165,49.961 93.7775,49.547 L93.7775,50.916 Z M90.4585,37.705 C90.4585,35.426 89.6805,32.465 86.3265,32.465 C83.0115,32.465 81.6705,36.121 81.6705,37.705 L90.4585,37.705 Z" id="Fill-405" fill="#131615"></path>
                    <path d="M46.6007,56.582 L43.3057,56.582 L43.3057,66.646 C43.3057,70.41 40.9347,74.293 38.2257,74.293 C36.0417,74.293 34.8867,72.672 34.8867,69.246 L34.8867,56.471 L28.4217,56.471 L28.4217,57.18 C29.6887,57.242 31.6207,57.375 31.6207,59.855 L31.6207,70.162 C31.6207,73.992 33.4667,76.396 36.9727,76.396 C41.4427,76.396 42.7027,72.793 43.2447,71.43 L43.3297,71.43 L43.3297,76.273 L46.6007,76.316 L46.6007,56.582 Z" id="Fill-407" fill="#131615"></path>
                    <path d="M48.5411,50.4765 C50.3861,50.4765 51.8861,50.0745 51.8861,47.2575 L51.8861,29.7015 C51.8861,27.1465 49.8631,27.0115 48.5411,26.8765 L48.5411,26.1365 L55.3241,25.1095 L55.3241,47.2575 C55.3241,50.0745 56.8231,50.4765 58.6891,50.4765 L58.6891,51.2165 L48.5411,51.2165 L48.5411,50.4765 Z" id="Fill-409" fill="#131615"></path>
                    <path d="M62.0919,61.5937 C61.7489,60.2517 60.7589,57.9277 57.7059,57.9277 C56.1139,57.9277 54.1459,58.6077 54.1459,60.5407 C54.1459,62.9027 57.8419,64.0777 60.2409,65.4117 C62.4339,66.5797 64.2389,67.7067 64.2389,70.8167 C64.2389,74.3647 61.1169,76.3967 56.3249,76.3967 C53.9189,76.3967 51.9519,76.0237 50.7989,75.6387 L50.4739,71.0587 L51.5569,71.0587 C51.9759,72.5157 53.0219,75.0257 56.6489,75.0257 C59.4309,75.0257 60.9029,73.0957 60.9029,71.6777 C60.9029,68.7577 55.3849,67.3067 53.0219,65.6097 C51.2959,64.4217 50.7989,63.3827 50.7989,61.7027 C50.7989,57.8637 54.4009,56.5647 57.9159,56.5647 C59.6799,56.5647 61.9329,56.9937 62.8729,57.2887 L63.1799,61.5937 L62.0919,61.5937 Z" id="Fill-411" fill="#131615"></path>
                    <path d="M77.1271,76.2226 C76.4621,76.3046 75.7961,76.3966 75.1381,76.3966 C68.8181,76.3966 68.4731,74.8616 68.4731,70.2436 L68.4731,58.3616 L65.0821,58.3616 L65.0821,56.9936 C68.4731,56.9936 70.6531,55.2986 70.6531,50.7866 L71.7351,50.7866 L71.7351,56.9936 L76.7681,56.9936 L76.7681,58.3616 L71.7351,58.3616 L71.7351,71.4006 C71.7351,74.5356 73.1621,75.0256 75.4621,75.0256 C76.0071,75.0256 76.5471,74.9026 77.1271,74.8246 L77.1271,76.2226 Z" id="Fill-413" fill="#131615"></path>
                    <path d="M77.3722,66.4882 C77.3722,60.2932 80.7262,56.5642 86.0922,56.5642 C91.4512,56.5642 94.8392,60.2932 94.8392,66.4882 C94.8392,72.6722 91.4512,76.3962 86.0922,76.3962 C80.7262,76.3962 77.3722,72.6722 77.3722,66.4882 M86.0922,75.0252 C90.2682,75.0252 91.1132,69.9122 91.1132,66.4882 C91.1132,63.0452 90.2682,57.9272 86.0922,57.9272 C81.9052,57.9272 81.0782,63.0452 81.0782,66.4882 C81.0782,69.9122 81.9052,75.0252 86.0922,75.0252" id="Fill-415" fill="#131615"></path>
                    <path d="M13.9249,51.4374 C8.8929,53.0234 3.7999,55.1974 3.7999,63.7014 C3.7999,68.1384 4.9469,71.0994 6.7689,73.0424 C8.8689,75.6174 12.1619,76.9744 16.8649,76.9744 C20.9259,76.9744 24.9399,76.1584 26.2339,75.8674 L26.2339,62.4624 L17.8499,62.4624 L17.8499,63.0854 C21.7189,63.6254 22.3479,63.9294 22.3479,66.9124 L22.3479,74.9314 C21.1859,75.1874 20.4799,75.2754 19.2159,75.2894 L19.2159,75.2754 C18.2879,75.2754 17.4319,75.2034 16.6329,75.0954 C10.2309,74.0974 8.3919,68.7424 8.2539,63.2324 C8.3649,57.0424 10.5729,54.0544 16.3559,52.2364 C21.3929,50.6384 26.5299,48.4864 26.5299,40.0034 C26.5299,28.2814 18.5939,26.8764 11.1069,26.8764 L0.5359,26.8764 L0.5359,27.6464 C2.9729,27.6464 4.4559,27.9454 4.4559,30.8674 L4.4559,52.2074 C5.8569,52.0194 8.4819,51.5154 8.4819,48.4574 L8.4819,31.7054 C8.4819,28.6544 8.8469,28.4164 11.1069,28.4164 C19.6579,28.4164 22.0659,32.7654 22.0659,40.0034 C22.0659,46.4844 19.8269,49.5584 13.9249,51.4374" id="Fill-417" fill="#131615"></path>
                    <path d="M94.4806,76.248 C93.8606,76.248 93.3516,75.752 93.3516,75.113 C93.3516,74.494 93.8606,73.992 94.4806,73.992 C95.1486,73.992 95.6336,74.494 95.6336,75.113 C95.6336,75.752 95.1486,76.248 94.4806,76.248 L94.4806,76.051 C95.0356,76.051 95.4506,75.652 95.4506,75.113 C95.4506,74.59 95.0356,74.168 94.4806,74.168 C93.9786,74.168 93.5406,74.59 93.5406,75.113 C93.5406,75.652 93.9786,76.051 94.4806,76.051 L94.4806,76.248 Z" id="Fill-419" fill="#131615"></path>
                    <path d="M94.2589,75.7558 L94.0759,75.7558 L94.0759,74.4938 L94.5639,74.4938 C94.8529,74.4938 95.0079,74.5668 95.0079,74.8338 C95.0079,75.0958 94.8389,75.1488 94.7009,75.1488 L95.0349,75.7558 L94.7909,75.7558 L94.4709,75.1758 L94.2589,75.1758 L94.2589,74.9848 L94.5639,74.9848 C94.7009,74.9848 94.8059,74.9748 94.8059,74.8338 C94.8059,74.7068 94.7329,74.6658 94.5639,74.6658 L94.2589,74.6658 L94.2589,75.7558 Z" id="Fill-421" fill="#131615"></path>
                    <path d="M94.381,76.08 C93.735,76.08 93.242,75.58 93.242,74.965 C93.242,74.328 93.735,73.822 94.381,73.822 C95.01,73.822 95.538,74.328 95.538,74.965 C95.538,75.58 95.01,76.08 94.381,76.08 L94.381,75.904 C94.912,75.904 95.337,75.488 95.337,74.965 C95.337,74.424 94.912,74.019 94.381,74.019 C93.871,74.019 93.418,74.424 93.418,74.965 C93.418,75.488 93.871,75.904 94.381,75.904 L94.381,76.08 Z" id="Fill-423" fill="#FFFFFE"></path>
                    <path d="M94.1407,75.5878 L93.9537,75.5878 L93.9537,74.3278 L94.4387,74.3278 C94.7387,74.3278 94.8877,74.4008 94.8877,74.6598 C94.8877,74.9318 94.7097,74.9838 94.5637,74.9838 L94.9117,75.5878 L94.6827,75.5878 L94.3687,75.0198 L94.1407,75.0198 L94.1407,74.8338 L94.4387,74.8338 C94.5917,74.8338 94.7017,74.8238 94.7017,74.6598 C94.7017,74.5448 94.6277,74.5158 94.4387,74.5158 L94.1407,74.5158 L94.1407,75.5878 Z" id="Fill-425" fill="#FFFFFE"></path>
                    <path d="M29.3195,41.0038 C29.3195,34.5548 32.8395,30.6758 38.4135,30.6758 C44.0015,30.6758 47.5345,34.5548 47.5345,41.0038 C47.5345,47.4608 44.0015,51.3258 38.4135,51.3258 C32.8395,51.3258 29.3195,47.4608 29.3195,41.0038 M38.4135,49.9238 C42.7795,49.9238 43.6415,44.5758 43.6415,41.0038 C43.6415,37.4528 42.7795,32.0978 38.4135,32.0978 C34.0535,32.0978 33.1735,37.4528 33.1735,41.0038 C33.1735,44.5758 34.0535,49.9238 38.4135,49.9238" id="Fill-427" fill="#FFFFFE"></path>
                    <path d="M74.7325,50.6386 C73.5695,51.0706 72.1185,51.3256 70.0945,51.3256 C62.3945,51.3256 59.0165,47.0626 59.0165,40.4086 C59.0165,34.6816 61.7235,30.6756 68.4065,30.6756 C71.3885,30.6756 75.2695,31.5406 75.2695,34.6816 C75.2695,35.9336 74.3505,36.7046 73.2175,36.7046 C71.5485,36.7046 71.2175,35.3726 70.8575,33.9546 C70.6535,32.9906 69.8605,32.0976 67.8415,32.0976 C64.8985,32.0976 62.6185,34.2536 62.6185,39.0196 C62.6185,44.4826 66.2285,49.7426 72.2915,49.7426 C73.1385,49.7426 73.9445,49.5586 74.7325,49.4026 L74.7325,50.6386 Z" id="Fill-429" fill="#FFFFFE"></path>
                    <path d="M93.4181,50.5507 C92.3681,50.9417 90.8991,51.3257 88.2181,51.3257 C81.4801,51.3257 77.6781,47.6717 77.6781,40.4457 C77.6781,34.1577 80.2481,30.6757 86.5421,30.6757 C90.4581,30.6757 93.9791,32.8237 93.9791,37.8207 L93.9791,38.7697 L81.2981,38.7697 C81.2981,42.3807 83.0761,49.7417 90.3631,49.7417 C91.3591,49.7417 92.5501,49.6077 93.4181,49.1857 L93.4181,50.5507 Z M90.0991,37.3477 C90.0991,35.0607 89.3211,32.0977 85.9601,32.0977 C82.6531,32.0977 81.2981,35.7697 81.2981,37.3477 L90.0991,37.3477 Z" id="Fill-431" fill="#FFFFFE"></path>
                    <path d="M46.2189,56.205 L42.9439,56.205 L42.9439,66.279 C42.9439,70.031 40.5559,73.941 37.8559,73.941 C35.6709,73.941 34.5139,72.299 34.5139,68.887 L34.5139,56.082 L28.0819,56.082 L28.0819,56.793 C29.3319,56.898 31.2529,57.016 31.2529,59.486 L31.2529,69.793 C31.2529,73.625 33.0789,76.023 36.6009,76.023 C41.0689,76.023 42.3259,72.441 42.8769,71.059 L42.9439,71.059 L42.9439,75.904 L46.2409,75.937 L46.2189,56.205 Z" id="Fill-433" fill="#FFFFFE"></path>
                    <path d="M48.174,50.1074 C50.028,50.1074 51.515,49.6934 51.515,46.8774 L51.515,29.3394 C51.515,26.7834 49.491,26.6504 48.174,26.5294 L48.174,25.7734 L54.961,24.7404 L54.961,46.8774 C54.961,49.6934 56.46,50.1074 58.296,50.1074 L58.296,50.8434 L48.174,50.8434 L48.174,50.1074 Z" id="Fill-435" fill="#FFFFFE"></path>
                    <path d="M61.7404,61.2304 C61.3814,59.8694 60.3914,57.5604 57.3394,57.5604 C55.7484,57.5604 53.7714,58.2264 53.7714,60.1734 C53.7714,62.5294 57.4724,63.7264 59.8834,65.0434 C62.0584,66.2104 63.8834,67.3494 63.8834,70.4574 C63.8834,73.9924 60.7464,76.0234 55.9834,76.0234 C53.5534,76.0234 51.5874,75.6584 50.4274,75.2894 L50.1264,70.6894 L51.2054,70.6894 C51.6324,72.1464 52.6704,74.6604 56.2674,74.6604 C59.0634,74.6604 60.5344,72.7364 60.5344,71.3124 C60.5344,68.3984 55.0024,66.9334 52.6704,65.2534 C50.9394,64.0434 50.4274,63.0154 50.4274,61.3264 C50.4274,57.4844 54.0354,56.2054 57.5604,56.2054 C59.3094,56.2054 61.5564,56.6364 62.4924,56.9064 L62.8004,61.2304 L61.7404,61.2304 Z" id="Fill-437" fill="#FFFFFE"></path>
                    <path d="M76.7677,75.8574 C76.1087,75.9374 75.4277,76.0234 74.7527,76.0234 C68.4617,76.0234 68.1147,74.4944 68.1147,69.8864 L68.1147,57.9764 L64.7237,57.9764 L64.7237,56.6364 C68.1147,56.6364 70.2687,54.9234 70.2687,50.4084 L71.3697,50.4084 L71.3697,56.6364 L76.3887,56.6364 L76.3887,57.9764 L71.3697,57.9764 L71.3697,71.0354 C71.3697,74.1684 72.7917,74.6604 75.0987,74.6604 C75.6357,74.6604 76.1877,74.5354 76.7677,74.4434 L76.7677,75.8574 Z" id="Fill-439" fill="#FFFFFE"></path>
                    <path d="M76.9904,66.1249 C76.9904,59.9299 80.3664,56.2049 85.7184,56.2049 C91.0764,56.2049 94.4704,59.9299 94.4704,66.1249 C94.4704,72.2989 91.0764,76.0229 85.7184,76.0229 C80.3664,76.0229 76.9904,72.2989 76.9904,66.1249 M85.7184,74.6599 C89.9084,74.6599 90.7594,69.5329 90.7594,66.1249 C90.7594,62.6819 89.9084,57.5609 85.7184,57.5609 C81.5454,57.5609 80.7214,62.6819 80.7214,66.1249 C80.7214,69.5329 81.5454,74.6599 85.7184,74.6599" id="Fill-441" fill="#FFFFFE"></path>
                    <path d="M13.5519,51.0703 C8.5259,52.6483 3.4249,54.8433 3.4249,63.3243 C3.4249,67.7753 4.5729,70.7183 6.4099,72.6853 C8.5109,75.2383 11.8209,76.6193 16.4979,76.6193 C20.5639,76.6193 24.5599,75.7853 25.8669,75.5193 L25.8669,62.0863 L17.4829,62.0863 L17.4829,62.7263 C21.3329,63.2653 21.9799,63.5563 21.9799,66.5313 L21.9799,74.5663 C20.8209,74.8243 20.1139,74.9023 18.8589,74.9143 L18.8589,74.9023 C17.9259,74.9023 17.0639,74.8343 16.2779,74.7363 C9.8639,73.7343 8.0379,68.3593 7.8919,62.8773 C7.9959,56.6773 10.2099,53.6813 15.9879,51.8533 C21.0189,50.2713 26.1609,48.1233 26.1609,39.6153 C26.1609,27.9083 18.2249,26.5093 10.7459,26.5093 L0.1589,26.5093 L0.1589,27.2953 C2.6079,27.2953 4.0859,27.5843 4.0859,30.5023 L4.0859,51.8433 C5.4729,51.6253 8.1149,51.1463 8.1149,48.0913 L8.1199,31.3533 C8.1199,28.2773 8.4669,28.0373 10.7459,28.0373 C19.3129,28.0373 21.7049,32.3923 21.7049,39.6153 C21.7049,46.1253 19.4719,49.1853 13.5519,51.0703" id="Fill-443" fill="#FFFFFE"></path>
                </g>
            </g>
        </g>
    </g>
</svg>