<svg height="98" viewBox="0 0 362 98" width="362" xmlns="http://www.w3.org/2000/svg"><g><path d="m70.281 41.988h-30.267c-.781 0-1.414.633-1.414 1.415v14.798c0 .78.633 1.416 1.414 1.416h11.807v18.385s-2.651.904-9.981.904c-8.647 0-20.727-3.159-20.727-29.723 0-26.569 12.579-30.065 24.388-30.065 10.223 0 14.626 1.799 17.429 2.667.881.269 1.695-.607 1.695-1.389l3.376-14.297c0-.366-.124-.807-.54-1.105-1.138-.812-8.081-4.697-25.621-4.697-20.205 0-40.932 8.596-40.932 49.922s23.73 47.484 43.727 47.484c16.557 0 26.601-7.075 26.601-7.075.414-.229.459-.807.459-1.072v-46.153c0-.782-.633-1.415-1.414-1.415"/><path d="m226.265 5.248c0-.787-.624-1.422-1.406-1.422h-17.042c-.778 0-1.411.635-1.411 1.422 0 .004.005 32.935.005 32.935h-26.565v-32.935c0-.787-.626-1.422-1.406-1.422h-17.041c-.775 0-1.408.635-1.408 1.422v89.178c0 .787.633 1.427 1.408 1.427h17.041c.78 0 1.406-.64 1.406-1.427v-38.144h26.565s-.047 38.141-.047 38.144c0 .787.632 1.427 1.412 1.427h17.082c.781 0 1.405-.64 1.407-1.427z"/><path d="m102.44 16.951c0-6.137-4.919-11.096-10.989-11.096-6.064 0-10.988 4.959-10.988 11.096 0 6.13 4.924 11.102 10.988 11.102 6.07 0 10.989-4.972 10.989-11.102"/><path d="m101.222 75.615c0-2.286 0-41.165 0-41.165 0-.782-.631-1.421-1.41-1.421h-16.989c-.779 0-1.476.804-1.476 1.586v58.976c0 1.733 1.08 2.249 2.477 2.249h15.306c1.68 0 2.092-.825 2.092-2.277 0-3.161 0-15.545 0-17.948"/><path d="m291.032 33.164h-16.911c-.775 0-1.407.639-1.407 1.425v43.727s-4.297 3.143-10.395 3.143c-6.097 0-7.715-2.767-7.715-8.737 0-5.978 0-38.133 0-38.133 0-.786-.63-1.425-1.407-1.425h-17.164c-.774 0-1.409.639-1.409 1.425v41.02c0 17.735 9.884 22.074 23.481 22.074 11.156 0 20.15-6.163 20.15-6.163s.428 3.248.622 3.633c.193.384.698.772 1.244.772l10.919-.049c.774 0 1.409-.64 1.409-1.423l-.006-59.864c0-.786-.631-1.425-1.411-1.425"/><path d="m330.584 81.405c-5.866-.178-9.845-2.84-9.845-2.84v-28.241s3.925-2.406 8.741-2.836c6.09-.545 11.958 1.294 11.958 15.822 0 15.319-2.648 18.343-10.854 18.095zm6.67-50.245c-9.605 0-16.138 4.286-16.138 4.286v-30.198c0-.787-.63-1.422-1.406-1.422h-17.091c-.777 0-1.408.635-1.408 1.422v89.178c0 .787.631 1.427 1.41 1.427h11.858c.534 0 .938-.275 1.237-.757.295-.479.72-4.112.72-4.112s6.988 6.622 20.217 6.622c15.532 0 24.439-7.878 24.439-35.365 0-27.489-14.226-31.081-23.838-31.081z"/><path d="m150.202 33.021h-12.784s-.019-16.885-.019-16.888c0-.64-.33-.959-1.069-.959h-17.42c-.678 0-1.041.298-1.041.949v17.452s-8.73 2.108-9.321 2.278c-.587.17-1.02.712-1.02 1.359v10.967c0 .789.63 1.425 1.409 1.425h8.932v26.384c0 19.597 13.746 21.522 23.021 21.522 4.239 0 9.309-1.361 10.146-1.67.506-.186.8-.711.8-1.279l.015-12.064c0-.787-.665-1.424-1.413-1.424-.746 0-2.651.303-4.613.303-6.28 0-8.407-2.92-8.407-6.699 0-3.776-.001-25.073-.001-25.073h12.785c.779 0 1.41-.636 1.41-1.425v-13.737c0-.787-.631-1.421-1.41-1.421"/></g></svg>