<svg height="235" viewBox="0 0 213 235" width="213" xmlns="http://www.w3.org/2000/svg"><g fill-rule="evenodd"><path d="m132.9795 79.5451v-15.851s0-.753.753-.753h15.987s.752 0 .752-.753v-16.116s0-.753-.752-.753h-16.116s-.753 0-.753.753v15.907s0 .753-.753.753h-15.896s-.753 0-.753-.753v-15.907s0-.753-.753-.753h-16.116s-.752 0-.752.753v15.907s0 .753-.753.753h-15.897s-.753 0-.753-.753v-15.907s0-.753-.752-.753h-16.116s-.753 0-.753.753v16.116s0 .753.753.753h16s.753 0 .753.753v15.851s0 .753-.753.753h-16s-.753 0-.753.753l1.476 16.115s0 .753.752.753h14.525s.753 0 .753.753v15.774s0 .753-.753.753h-8.681s-.753 0-.401.666c0 0 .431 2.123 3.485 6.612 2.774 4.077 5.817 6.804 5.817 6.804s.561.502.561-.251v-12.946s0-.753.753-.753h16.028s.752 0 .752.753v20.279s0 .753.753.753h16.028s.753 0 .753-.753v-20.279s0-.753.753-.753h16.028s.753 0 .753.753v12.946s0 .753.495.186c0 0 3.109-2.662 5.882-6.739 3.055-4.489 3.634-6.553 3.634-6.553s.203-.725-.55-.725h-8.667s-.753 0-.753-.753v-15.774s0-.753.753-.753h14.511s.753 0 .753-.753l1.475-16.115s0-.753-.752-.753h-15.987s-.753 0-.753-.753zm-35.152 17.412s0 .753-.753.753h-15.897s-.753 0-.753-.753v-15.851s0-.753.753-.753h15.897s.753 0 .753.753zm17.531-17.412s0 .753-.753.753h-15.922s-.753 0-.753-.753v-15.851s0-.753.753-.753h15.922s.753 0 .753.753zm0 34.901s0 .753-.753.753h-15.922s-.753 0-.753-.753v-15.774s0-.753.753-.753h15.922s.753 0 .753.753zm17.492-17.489s0 .753-.753.753h-15.896s-.753 0-.753-.753v-15.851s0-.753.753-.753h15.896s.753 0 .753.753z"/><path d="m141.358 10.7911 8.394-9.418h-5.436l-7.328 8.416v-8.416h-4.158v20.268h4.158v-9.619l7.674 9.619h5.81zm-29.273 10.907c1.394-.305 2.731-.802 4.013-1.489v-10.592h-7.719v4.123h3.539v3.292c-.409.229-.957.453-1.644.673-.687.219-1.505.329-2.452.329-.929 0-1.769-.162-2.522-.487-.752-.324-1.398-.777-1.936-1.36-.539-.582-.953-1.269-1.24-2.061-.289-.792-.432-1.665-.432-2.619 0-.935.143-1.804.432-2.605.287-.802.701-1.493 1.24-2.076.538-.582 1.184-1.035 1.936-1.36.753-.324 1.593-.486 2.522-.486 1.115 0 2.043.162 2.787.486.742.325 1.411.802 2.006 1.432l3.065-3.436c-1.003-.954-2.169-1.626-3.497-2.018-1.328-.391-2.782-.587-4.361-.587-1.542 0-2.963.249-4.263.745-1.301.496-2.425 1.207-3.372 2.132-.947.926-1.686 2.047-2.215 3.364-.53 1.317-.794 2.787-.794 4.409s.264 3.091.794 4.408c.529 1.317 1.268 2.439 2.215 3.364.947.926 2.071 1.637 3.372 2.133 1.3.496 2.721.744 4.263.744 1.449 0 2.87-.153 4.263-.458zm-36.115-.057h4.475v-20.268h-4.475v7.557h-8.691v-7.557h-4.475v20.268h4.475v-8.76h8.691z"/><path d="m150.472 37.5152h-5.658c.054-.29.185-.575.395-.854.209-.28.545-.613 1.007-1l2.031-1.66c.72-.591 1.231-1.15 1.532-1.677.301-.526.451-1.101.451-1.724 0-.849-.333-1.545-.999-2.088-.667-.542-1.526-.814-2.579-.814-.592 0-1.161.065-1.709.193-.548.129-1.059.323-1.531.581v1.612c.472-.29.951-.505 1.434-.645.484-.14.994-.21 1.532-.21.677 0 1.209.145 1.595.436.387.29.581.671.581 1.144 0 .409-.111.771-.331 1.088s-.744.809-1.571 1.475l-1.79 1.467c-.677.538-1.179 1.102-1.507 1.693s-.492 1.219-.492 1.886v.564h7.609zm-27.594-2.031c0-1.075-.365-1.929-1.096-2.563s-1.719-.951-2.966-.951c-.226 0-.492.016-.798.048s-.572.07-.798.113l.113-2.789h4.449v-1.483h-5.868l-.274 5.803c.495-.096.962-.169 1.403-.217.44-.049.865-.073 1.273-.073.881 0 1.572.188 2.072.564.499.377.749.893.749 1.548 0 .645-.228 1.161-.685 1.547-.457.387-1.067.581-1.829.581-.549 0-1.115-.07-1.701-.21-.586-.139-1.137-.338-1.652-.596v1.628c.419.215.945.387 1.579.516s1.279.193 1.935.193c1.235 0 2.227-.333 2.974-.999.747-.667 1.12-1.553 1.12-2.66zm-28.222-1.257c-.419-.452-1.107-.871-2.064-1.258.667-.29 1.182-.655 1.548-1.096.365-.44.548-.924.548-1.451 0-.784-.336-1.434-1.008-1.95-.671-.516-1.534-.774-2.587-.774-1.042 0-1.918.288-2.627.862-.71.575-1.064 1.271-1.064 2.088 0 .559.158 1.048.475 1.467s.793.774 1.427 1.064c-.774.29-1.384.69-1.83 1.201-.446.51-.669 1.082-.669 1.716 0 .882.401 1.61 1.201 2.185.801.575 1.824.862 3.071.862 1.225 0 2.233-.306 3.023-.919.789-.612 1.184-1.402 1.184-2.369 0-.634-.209-1.177-.628-1.628zm-2.096-2.515c-.269.312-.661.58-1.177.806l-.661-.258c-.58-.226-.994-.459-1.241-.701s-.37-.524-.37-.847c0-.44.187-.811.564-1.112.376-.301.843-.451 1.402-.451.537 0 .986.15 1.346.451s.54.667.54 1.096c0 .366-.134.704-.403 1.016zm.983 4.175c0 .548-.231.989-.693 1.322s-1.058.499-1.789.499-1.333-.179-1.805-.54c-.473-.359-.71-.819-.71-1.378 0-.462.17-.881.508-1.257.339-.376.803-.677 1.394-.903l1.258.5c.645.236 1.112.491 1.402.766.29.274.435.604.435.991zm-28.492 3.095h1.769v-11.01h-1.666l-2.335 1.128v1.532l2.232-1z"/><path d="m45.5941 234.2199h3.909v-8.419l7.217 8.419h5.462l-8.57-9.497 7.894-8.244h-5.112l-6.891 7.367v-7.367h-3.909zm18.242-5.012c.476 1.153 1.14 2.135 1.992 2.945s1.862 1.432 3.032 1.867c1.169.434 2.447.651 3.834.651 1.386 0 2.664-.217 3.833-.651 1.17-.435 2.18-1.057 3.032-1.867s1.516-1.792 1.993-2.945c.476-1.152.714-2.438.714-3.858s-.238-2.707-.714-3.859c-.477-1.153-1.141-2.134-1.993-2.945-.852-.81-1.862-1.432-3.032-1.866-1.169-.435-2.447-.652-3.833-.652-1.387 0-2.665.217-3.834.652-1.17.434-2.18 1.056-3.032 1.866-.852.811-1.516 1.792-1.992 2.945-.476 1.152-.714 2.439-.714 3.859s.238 2.706.714 3.858zm3.733-6.139c.259-.701.631-1.307 1.115-1.816.485-.51 1.065-.906 1.742-1.191.676-.283 1.432-.426 2.268-.426.835 0 1.591.143 2.267.426.677.285 1.257.681 1.742 1.191.484.509.856 1.115 1.115 1.816.259.702.388 1.462.388 2.281 0 .835-.129 1.599-.388 2.292-.259.694-.631 1.295-1.115 1.805-.485.509-1.065.906-1.742 1.19-.676.284-1.432.426-2.267.426-.836 0-1.592-.142-2.268-.426-.677-.284-1.257-.681-1.742-1.19-.484-.51-.856-1.111-1.115-1.805-.259-.693-.388-1.457-.388-2.292 0-.819.129-1.579.388-2.281zm18.861 11.151h3.909v-13.606h.05l4.485 13.606h2.982l4.661-13.606h.05v13.606h3.909v-17.741h-5.888l-4.11 11.577h-.05l-4.084-11.577h-5.914zm24.924-5.012c.477 1.153 1.141 2.135 1.993 2.945s1.862 1.432 3.032 1.867c1.169.434 2.447.651 3.833.651 1.387 0 2.665-.217 3.834-.651 1.169-.435 2.18-1.057 3.032-1.867s1.516-1.792 1.992-2.945c.476-1.152.714-2.438.714-3.858s-.238-2.707-.714-3.859c-.476-1.153-1.14-2.134-1.992-2.945-.852-.81-1.863-1.432-3.032-1.866-1.169-.435-2.447-.652-3.834-.652-1.386 0-2.664.217-3.833.652-1.17.434-2.18 1.056-3.032 1.866-.852.811-1.516 1.792-1.993 2.945-.476 1.152-.714 2.439-.714 3.859s.238 2.706.714 3.858zm3.734-6.139c.259-.701.63-1.307 1.115-1.816.484-.51 1.065-.906 1.742-1.191.676-.283 1.432-.426 2.267-.426.836 0 1.592.143 2.268.426.677.285 1.257.681 1.742 1.191.484.509.856 1.115 1.115 1.816.258.702.388 1.462.388 2.281 0 .835-.13 1.599-.388 2.292-.259.694-.631 1.295-1.115 1.805-.485.509-1.065.906-1.742 1.19-.676.284-1.432.426-2.268.426-.835 0-1.591-.142-2.267-.426-.677-.284-1.258-.681-1.742-1.19-.485-.51-.856-1.111-1.115-1.805-.259-.693-.388-1.457-.388-2.292 0-.819.129-1.579.388-2.281zm18.861 11.151h3.909v-7.091h1.929l3.709 7.091h4.685l-4.51-7.492c1.253-.234 2.205-.79 2.857-1.667.651-.877.977-1.942.977-3.194 0-1.036-.18-1.901-.539-2.594s-.844-1.244-1.453-1.654c-.61-.409-1.32-.701-2.13-.877-.811-.175-1.666-.263-2.568-.263h-6.866zm3.909-14.433h2.556c.35 0 .709.025 1.077.075.367.05.693.146.977.288s.518.347.702.614.276.626.276 1.077c0 .485-.105.861-.314 1.128s-.472.464-.789.589-.673.2-1.065.225c-.393.026-.764.038-1.115.038h-2.305zm12.308 14.433h4.31l1.478-3.759h6.891l1.529 3.759h4.41l-7.718-17.741h-3.232zm11.351-7.066h-4.335l2.155-5.513z"/><path d="m17.3456 197.65h-6.941v3.608h3.182v2.882c-.367.2-.86.397-1.478.589s-1.353.288-2.205.288c-.836 0-1.591-.142-2.268-.426-.676-.284-1.257-.68-1.741-1.19-.485-.51-.857-1.111-1.115-1.804-.26-.693-.389-1.458-.389-2.293 0-.818.129-1.579.389-2.28.258-.702.63-1.307 1.115-1.817.484-.51 1.065-.906 1.741-1.19.677-.284 1.432-.426 2.268-.426 1.002 0 1.837.142 2.506.426.668.284 1.269.701 1.804 1.253l2.756-3.007c-.902-.836-1.95-1.424-3.145-1.767-1.194-.342-2.501-.514-3.921-.514-1.387 0-2.665.218-3.834.652s-2.18 1.057-3.032 1.867-1.516 1.791-1.992 2.944-.714 2.439-.714 3.859.238 2.706.714 3.859c.476 1.152 1.14 2.134 1.992 2.944s1.863 1.433 3.032 1.867 2.447.651 3.834.651c1.303 0 2.581-.134 3.834-.401s2.455-.701 3.608-1.303zm5.352 5.513c.476 1.152 1.14 2.134 1.992 2.944s1.863 1.433 3.032 1.867c1.17.434 2.447.651 3.834.651s2.665-.217 3.834-.651 2.18-1.057 3.032-1.867 1.516-1.792 1.992-2.944c.476-1.153.714-2.439.714-3.859s-.238-2.706-.714-3.859-1.14-2.134-1.992-2.944-1.863-1.433-3.032-1.867-2.447-.652-3.834-.652-2.664.218-3.834.652c-1.169.434-2.18 1.057-3.032 1.867s-1.516 1.791-1.992 2.944-.714 2.439-.714 3.859.238 2.706.714 3.859zm3.734-6.139c.259-.702.63-1.307 1.115-1.817.484-.51 1.065-.906 1.742-1.19.676-.284 1.432-.426 2.267-.426s1.591.142 2.268.426 1.257.68 1.741 1.19c.485.51.856 1.115 1.116 1.817.258.701.388 1.462.388 2.28 0 .835-.13 1.6-.388 2.293-.26.693-.631 1.294-1.116 1.804-.484.51-1.064.906-1.741 1.19s-1.433.426-2.268.426-1.591-.142-2.267-.426c-.677-.284-1.258-.68-1.742-1.19-.485-.51-.856-1.111-1.115-1.804s-.388-1.458-.388-2.293c0-.818.129-1.579.388-2.28zm30.781-5.187c-.752-.668-1.596-1.144-2.531-1.429-.936-.284-1.905-.426-2.907-.426-.869 0-1.713.122-2.531.364-.819.242-1.541.605-2.167 1.09-.627.484-1.128 1.086-1.504 1.804s-.564 1.553-.564 2.506c0 .985.205 1.779.614 2.38s.923 1.086 1.541 1.453c.618.368 1.287.661 2.005.877.718.218 1.386.435 2.005.652.617.217 1.131.48 1.541.789.409.31.614.731.614 1.266 0 .317-.08.593-.238.827-.159.234-.368.426-.627.576s-.551.263-.877.338-.648.113-.965.113c-.651 0-1.282-.146-1.892-.439-.61-.292-1.115-.705-1.516-1.24l-2.781 3.057c.852.786 1.771 1.353 2.756 1.704.986.351 2.055.526 3.208.526.918 0 1.791-.117 2.618-.351.827-.233 1.554-.592 2.18-1.077.627-.484 1.124-1.094 1.491-1.829.368-.735.552-1.595.552-2.581 0-1.036-.201-1.863-.602-2.481s-.906-1.111-1.516-1.478c-.61-.368-1.265-.652-1.967-.852-.701-.201-1.357-.401-1.967-.602-.61-.2-1.115-.442-1.516-.726s-.601-.693-.601-1.228c0-.334.083-.618.25-.852s.384-.422.652-.564c.267-.142.551-.246.852-.313.3-.067.593-.1.877-.1.484 0 .998.096 1.541.288s.973.488 1.29.889zm5.033 16.337h3.909v-6.916h2.857c.935 0 1.804-.087 2.606-.263.802-.175 1.495-.472 2.08-.889.584-.418 1.044-.978 1.378-1.679.334-.702.501-1.57.501-2.606 0-1.053-.18-1.925-.539-2.619-.359-.693-.843-1.244-1.453-1.654-.61-.409-1.324-.697-2.142-.864-.819-.167-1.688-.251-2.606-.251h-6.591zm3.909-14.433h2.005c.367 0 .752.021 1.153.063s.764.137 1.09.288c.325.15.592.363.802.639.208.275.313.639.313 1.09 0 .418-.08.764-.238 1.04-.159.275-.368.493-.627.651-.259.159-.551.272-.877.338-.325.067-.664.101-1.015.101h-2.606zm12.877 9.422c.476 1.152 1.14 2.134 1.992 2.944s1.863 1.433 3.032 1.867c1.17.434 2.447.651 3.834.651s2.665-.217 3.834-.651 2.18-1.057 3.032-1.867 1.516-1.792 1.992-2.944c.476-1.153.714-2.439.714-3.859s-.238-2.706-.714-3.859-1.14-2.134-1.992-2.944-1.863-1.433-3.032-1.867-2.447-.652-3.834-.652-2.664.218-3.834.652c-1.169.434-2.18 1.057-3.032 1.867s-1.516 1.791-1.992 2.944-.714 2.439-.714 3.859.238 2.706.714 3.859zm3.734-6.139c.259-.702.63-1.307 1.115-1.817.484-.51 1.065-.906 1.742-1.19.676-.284 1.432-.426 2.267-.426s1.591.142 2.268.426 1.257.68 1.741 1.19c.485.51.856 1.115 1.116 1.817.258.701.388 1.462.388 2.28 0 .835-.13 1.6-.388 2.293-.26.693-.631 1.294-1.116 1.804-.484.51-1.064.906-1.741 1.19s-1.433.426-2.268.426-1.591-.142-2.267-.426c-.677-.284-1.258-.68-1.742-1.19-.485-.51-.856-1.111-1.115-1.804s-.388-1.458-.388-2.293c0-.818.129-1.579.388-2.28zm18.861 11.15h6.389c1.32 0 2.581-.192 3.784-.576s2.263-.948 3.182-1.691c.919-.744 1.65-1.663 2.193-2.757s.814-2.359.814-3.796c0-1.62-.28-2.998-.839-4.135-.56-1.135-1.316-2.058-2.268-2.768s-2.067-1.224-3.345-1.542c-1.278-.317-2.627-.476-4.047-.476h-5.863zm3.909-14.132h2.305c.818 0 1.599.104 2.343.313.743.209 1.39.522 1.942.94.551.417.99.948 1.315 1.591.326.643.489 1.399.489 2.267 0 1.003-.163 1.851-.489 2.544-.325.693-.773 1.253-1.34 1.679-.568.426-1.241.731-2.017.914-.777.184-1.617.276-2.519.276h-2.029zm14.039 14.132h4.31l1.478-3.758h6.891l1.529 3.758h4.41l-7.718-17.741h-3.232zm11.351-7.066h-4.335l2.155-5.513zm11.236 7.066h3.909v-7.091h1.93l3.708 7.091h4.686l-4.51-7.492c1.252-.234 2.205-.789 2.856-1.666.652-.877.977-1.942.977-3.195 0-1.036-.179-1.9-.538-2.594-.36-.693-.844-1.244-1.454-1.654-.61-.409-1.32-.701-2.13-.877-.81-.175-1.666-.263-2.568-.263h-6.866zm3.909-14.433h2.556c.351 0 .71.025 1.077.075.368.05.693.147.978.288.284.142.517.347.701.614.184.268.276.627.276 1.078 0 .484-.105.86-.313 1.127-.209.268-.472.464-.79.589-.317.125-.672.201-1.064.226-.393.025-.765.037-1.116.037h-2.305zm26.128-1.904c-.752-.668-1.596-1.144-2.531-1.429-.936-.284-1.905-.426-2.907-.426-.869 0-1.712.122-2.531.364-.818.242-1.541.605-2.167 1.09-.627.484-1.128 1.086-1.504 1.804-.375.718-.563 1.553-.563 2.506 0 .985.204 1.779.614 2.38.409.601.922 1.086 1.541 1.453.617.368 1.286.661 2.004.877.718.218 1.387.435 2.005.652s1.131.48 1.541.789c.409.31.614.731.614 1.266 0 .317-.08.593-.238.827-.159.234-.368.426-.627.576s-.551.263-.877.338c-.325.075-.647.113-.964.113-.652 0-1.283-.146-1.892-.439-.61-.292-1.115-.705-1.516-1.24l-2.782 3.057c.852.786 1.771 1.353 2.757 1.704.985.351 2.054.526 3.207.526.919 0 1.792-.117 2.619-.351.826-.233 1.553-.592 2.18-1.077.626-.484 1.123-1.094 1.49-1.829.368-.735.552-1.595.552-2.581 0-1.036-.201-1.863-.602-2.481s-.906-1.111-1.516-1.478c-.61-.368-1.265-.652-1.967-.852-.701-.201-1.357-.401-1.967-.602-.61-.2-1.115-.442-1.516-.726s-.601-.693-.601-1.228c0-.334.083-.618.251-.852.166-.234.384-.422.651-.564s.551-.246.852-.313.593-.1.877-.1c.484 0 .998.096 1.541.288s.973.488 1.291.889zm4.126 16.337h3.91v-8.419l7.216 8.419h5.463l-8.57-9.497 7.893-8.244h-5.112l-6.89 7.367v-7.367h-3.91zm18.002 0h4.31l1.478-3.758h6.891l1.528 3.758h4.411l-7.718-17.741h-3.233zm11.351-7.066h-4.335l2.155-5.513z"/><path d="m35.3642 182.1285h3.909v-7.668h7.593v7.668h3.909v-17.741h-3.909v6.615h-7.593v-6.615h-3.909zm21.279 0h3.909v-7.091h1.929l3.709 7.091h4.686l-4.511-7.492c1.253-.234 2.205-.79 2.857-1.667.651-.877.977-1.942.977-3.194 0-1.036-.18-1.901-.539-2.594s-.843-1.244-1.453-1.654c-.61-.409-1.32-.701-2.13-.877-.81-.175-1.666-.263-2.568-.263h-6.866zm3.909-14.433h2.556c.35 0 .709.025 1.077.075.367.05.693.146.977.288s.518.347.702.614.276.626.276 1.077c0 .485-.105.861-.314 1.128s-.472.464-.789.589-.673.2-1.065.225c-.393.026-.764.038-1.115.038h-2.305zm19.537 14.433h3.132l7.317-17.741h-4.184l-4.461 11.627h-.05l-4.385-11.627h-4.46zm9.524 0h4.31l1.479-3.759h6.891l1.528 3.759h4.41l-7.717-17.741h-3.233zm11.352-7.066h-4.335l2.155-5.513zm12.852 7.066h3.909v-14.283h5.061v-3.458h-14.032v3.458h5.062zm24.05-16.338c-.752-.668-1.596-1.144-2.531-1.428-.936-.284-1.904-.426-2.907-.426-.868 0-1.712.121-2.53.363-.819.243-1.542.606-2.168 1.09-.626.485-1.128 1.087-1.503 1.805-.376.718-.564 1.553-.564 2.505 0 .986.204 1.779.614 2.381.409.601.923 1.086 1.541 1.453.618.368 1.286.66 2.004.877.718.218 1.387.435 2.005.652s1.131.48 1.541.789c.409.309.614.731.614 1.265 0 .318-.08.594-.238.827-.159.234-.368.426-.627.577-.259.15-.551.263-.877.338-.325.075-.647.113-.964.113-.652 0-1.283-.146-1.892-.439-.61-.292-1.115-.705-1.516-1.24l-2.782 3.057c.852.785 1.771 1.353 2.757 1.704.985.351 2.055.526 3.207.526.919 0 1.792-.117 2.619-.351s1.553-.593 2.18-1.077c.626-.485 1.123-1.094 1.491-1.829.367-.735.551-1.596.551-2.581 0-1.036-.201-1.863-.601-2.481-.401-.618-.907-1.111-1.516-1.479-.61-.367-1.266-.651-1.967-.852-.702-.2-1.358-.4-1.967-.601-.61-.2-1.116-.442-1.516-.727-.401-.283-.602-.693-.602-1.227 0-.334.084-.618.251-.852.166-.234.384-.422.651-.564s.551-.246.852-.313.593-.101.877-.101c.485 0 .998.097 1.541.289s.973.488 1.291.889zm4.377 16.338h3.909v-8.419l7.217 8.419h5.462l-8.569-9.497 7.893-8.244h-5.112l-6.891 7.367v-7.367h-3.909zm18.001 0h4.31l1.479-3.759h6.891l1.528 3.759h4.41l-7.718-17.741h-3.232zm11.352-7.066h-4.335l2.155-5.513z"/></g></svg>