<svg enable-background="new 0 0 155 60" viewBox="0 0 155 60" xmlns="http://www.w3.org/2000/svg"><path clip-rule="evenodd" d="m40.956 14h-24c-2.209 0-4 1.791-4 4v24c0 2.209 1.791 4 4 4h24c2.209 0 4-1.791 4-4v-24c0-2.209-1.791-4-4-4zm-7.734 5.867c0-.589.478-1.067 1.067-1.067s1.067.478 1.067 1.067v14.251c0 .589-.478 1.067-1.067 1.067s-1.067-.478-1.067-1.067zm-5.333-.54c0-.589.478-1.067 1.067-1.067s1.067.478 1.067 1.067v15.467c0 .589-.478 1.067-1.067 1.067s-1.067-.478-1.067-1.067zm-5.333.54c0-.589.478-1.067 1.067-1.067s1.066.478 1.066 1.067v14.251c0 .589-.477 1.067-1.066 1.067s-1.067-.478-1.067-1.067zm-5.333 2.133c0-.589.477-1.067 1.066-1.067s1.067.478 1.067 1.067v9.594c0 .589-.478 1.067-1.067 1.067s-1.066-.478-1.066-1.067zm23.094 16.27c-.164.142-4.116 3.457-11.361 3.457s-11.195-3.315-11.361-3.457c-.447-.383-.5-1.056-.116-1.504.382-.446 1.054-.499 1.501-.117.062.052 3.591 2.945 9.975 2.945 6.464 0 9.938-2.914 9.972-2.943.446-.384 1.121-.332 1.503.115.386.448.334 1.121-.113 1.504zm.372-6.676c0 .589-.478 1.067-1.067 1.067s-1.066-.478-1.066-1.067v-9.594c0-.589.477-1.067 1.066-1.067s1.067.478 1.067 1.067z" fill="#286efa" fill-rule="evenodd"/><path d="m57.65 34.626c0 .534-.408.973-.989.973-.565 0-.973-.44-.973-.973v-9.277c0-.534.408-.973.989-.973.565 0 .973.44.973.973z"/><path d="m70.333 25.349v8.477c0 1.146-.612 1.79-1.585 1.79h-.078c-.926 0-1.366-.534-1.758-1.319l-1.978-3.846-1.758-3.971.047 3.846.016 4.285c0 .534-.408.973-.989.973-.565 0-.973-.44-.973-.973v-8.477c0-1.052.612-1.79 1.68-1.79h.078c.989 0 1.397.534 1.79 1.319l1.946 3.815 1.664 3.705-.047-3.548-.016-4.285c0-.534.408-.973.989-.973.564-.001.972.438.972.972z"/><path d="m78.198 34.611c0 .534-.408.973-.989.973-.565 0-.973-.44-.973-.973v-8.398h-2.433c-.502 0-.91-.377-.91-.926 0-.534.408-.91.91-.91h6.828c.502 0 .91.377.91.926 0 .534-.408.91-.91.91h-2.433z"/><path d="m84.1 34.297v-8.712c0-.816.455-1.271 1.287-1.24h5.651c.502 0 .91.392.91.926s-.408.91-.91.91h-4.992v2.7h4.411c.487 0 .879.361.879.879s-.392.879-.879.879h-4.411v3.108h4.992c.502 0 .91.392.91.926s-.408.91-.91.91h-5.698c-.816.001-1.271-.454-1.24-1.286z"/><path d="m103.094 34.312c.267.455.094 1.036-.455 1.319-.534.267-1.115.063-1.381-.392l-2.182-4.034h-2.072l.016 3.422c0 .534-.408.973-.989.973-.565 0-.973-.44-.973-.973v-9.042c0-.816.455-1.271 1.287-1.24h3.72c2.559 0 3.626 1.664 3.626 3.359 0 1.617-.942 2.81-2.559 3.124zm-6.091-4.882h3.108c1.052 0 1.601-.675 1.601-1.633s-.581-1.617-1.617-1.617h-3.092z"/><path d="m107.74 34.752c-1.177-1.052-1.711-2.7-1.711-4.772 0-2.088.518-3.72 1.68-4.756.722-.628 1.695-1.052 3.108-1.052 1.24 0 2.198.283 2.92.895.628.502 1.083 1.209 1.35 2.198.141.518-.22 1.036-.816 1.146-.565.094-1.02-.267-1.193-.785-.188-.502-.44-.863-.738-1.115-.408-.361-.91-.518-1.57-.518-.706 0-1.319.204-1.774.659-.659.659-.942 1.837-.942 3.328 0 1.476.267 2.653.958 3.312.455.455 1.052.659 1.742.659.722 0 1.271-.188 1.727-.612.235-.22.44-.502.581-.832.204-.487.628-.848 1.177-.722s.895.659.722 1.177c-.283.863-.769 1.554-1.428 2.025-.722.518-1.617.785-2.747.785-1.444 0-2.355-.424-3.046-1.02z"/><path d="m117.3 29.98c0-3.516 1.444-5.808 4.851-5.808 3.375 0 4.835 2.229 4.835 5.808 0 3.626-1.476 5.808-4.835 5.808-3.422 0-4.851-2.182-4.851-5.808zm7.676 0c0-2.669-.973-3.971-2.841-3.971-1.837 0-2.81 1.303-2.81 3.971 0 2.669.942 3.971 2.81 3.971 1.852 0 2.841-1.303 2.841-3.971z"/><path d="m142.212 34.611c0 .534-.408.973-.989.973-.565 0-.973-.44-.973-.973v-4.207l.047-4.097-1.366 4.16-1.381 4.097c-.235.722-.722 1.005-1.334 1.005-.644 0-1.115-.298-1.366-1.02l-1.413-4.081-1.303-4.097.047 4.034v4.207c0 .534-.408.973-.989.973-.565 0-.973-.44-.973-.973v-8.398c0-1.162.628-1.837 1.727-1.837 1.036 0 1.617.549 1.946 1.554l1.444 4.285.879 2.92.895-2.92 1.444-4.285c.33-1.005.895-1.554 1.931-1.554 1.099 0 1.711.659 1.711 1.837z"/></svg>