<svg height="67" viewBox="0 0 306 67" width="306" xmlns="http://www.w3.org/2000/svg"><g fill="#d82332" fill-rule="evenodd" transform=""><path d="m219.2402 15.9629c0-3.123 3.246-5.67 7.231-5.67 4.027 0 7.272 2.547 7.272 5.67s-3.245 5.67-7.272 5.67c-3.985 0-7.231-2.547-7.231-5.67"/><path d="m83.5313 55.6514c-2.136 2.506-5.463 5.176-10.024 5.218 0 0-4.849.37-7.642-4.726 0 0-1.438-2.546-1.48-6.491v-.411c0-1.519.248-3.205.823-5.052 0 0 3.04-11.094 13.516-16.805 0 0 1.809-.986 4.807-1.849v6.656c-1.643 2.26-3.41 4.972-4.437 6.82-4.766 8.465-5.587 15.531-5.587 15.531-.617 4.067 3.164 3.205 3.164 3.205 3.492-.494 6.655-4.93 6.655-4.93.082-.083.123-.166.205-.248zm36.814-14.955-6.984 18.98h-10.272l4.561-12.653s-5.588 13.476-14.915 13.681c0 0-8.053.041-6.45-9.285 0 0-.945 2.055-2.754 4.232v-3.082c4.809-6.615 8.136-16.064 8.136-16.064 1.315-3.287 1.889-6.656 1.889-6.656.206-2.219-.697-3.082-2.095-3.328-1.889-.328-3.286.781-4.725 1.891-.821.656-1.972 2.095-3.205 3.779v-6.656c2.549-.78 5.959-1.479 9.779-1.397 0 0 6.451-.123 12.532 1.48l-9.779 26.418s-1.315 3.902 1.192 4.107c0 0 2.012.165 6.368-5.545 0 0 4.109-5.835 5.958-11.751l4.93-14.05h10.518l-3.081 9.121s2.753-4.439 6.204-7.069c3.451-2.629 8.012-3.779 11.135-3.122 3.162.657 6.08 2.589 5.834 8.054 0 0 5.711-8.629 14.01-8.382 4.437.124 7.765 2.712 7.642 7.355-.041 1.807-.287 2.999-.658 3.902-.328.904-5.998 16.394-5.998 16.394s-1.479 3.328.082 4.231c0 0 1.15 1.15 3.902-1.52 0 0 4.685-3.369 9.575-16.105l-.041 4.766s-4.274 9.285-7.725 12.735c0 0-8.053 8.711-13.641 3.781-2.342-2.096-3.656-5.587-1.848-10.888 1.232-3.615 5.217-14.297 5.464-14.996.288-.863.986-3.533-.124-4.642-.945-.946-2.464-1.563-5.176.246-1.726 1.15-4.068 3.862-5.341 5.793-.74 1.027-1.768 2.589-2.547 5.012l-7.273 20.213h-10.847s9.204-25.225 9.286-25.512c.123-.288 1.027-3 .616-4.561-.206-.781-1.233-2.836-4.231-1.602-1.768.739-3.822 2.423-6.082 5.587-.987 1.397-2.547 3.74-3.821 7.108z"/><path d="m16.4385 65.7173c-4.231-.576-17.339-4.109-15.654-14.626 1.274-8.053 12.408-16.229 33.731-13.887l-.082 1.684s-8.135-1.191-13.435 1.11c0 0-13.476 5.34-8.998 16.31.863 2.096 3.452 5.013 5.999 6.163 4.026 1.849 10.805 3.04 19.146-3.164 0 0 6.327-4.765 11.257-19.391 4.973-14.668 11.588-33.938 11.588-33.938s1.519-2.918-3.082-2.711h-8.588l.945-2.342h25.721s-6.779 19.844-13.026 37.306c-4.271 11.915-9.326 17.994-15.982 21.775-12.531 7.107-25.761 6.244-29.54 5.711"/><path d="m196.7656 60.2939s-5.218.041-6.203-6.163c-.206-1.356-.247-4.396 1.355-8.751 1.356-3.574 4.15-11.052 4.807-12.818 0 0 1.603-5.341-3.409-4.602 0 0-2.589.164-6.122 4.848 0 0-2.959 2.835-5.752 10.928l-5.629 15.859h-10.56l12.778-34.798h9.655l-3.369 8.997s4.396-7.437 10.888-9.45c0 0 7.806-2.465 10.766 2.013 0 0 2.67 3.206.738 8.382l-5.998 16.722s-1.562 3.533.41 4.149c2.178.74 6.37-4.314 7.971-6.984 0 0 2.67-4.355 4.191-8.464l5.629-15.365h11.217l-9.533 27.28s-1.108 3.286.658 3.656c0 0 1.644.658 4.766-2.835 0 0 2.877-2.711 5.711-8.586l.74 2.301s-4.56 10.025-11.217 12.818c0 0-6.328 2.794-9.409-1.643 0 0-1.931-2.507-1.274-7.847 0 0-2.465 4.107-5.504 6.861 0 0-3.987 3.656-8.301 3.492"/><path d="m230.5391 49.5288c1.603 10.806 10.724 10.724 10.724 10.724 7.642.369 12.613-4.109 12.613-4.109 6.78-5.341 10.765-10.599 10.765-10.599v-3.944c-8.957 13.228-17.503 15.816-17.503 15.816-7.355 1.809-7.355-4.066-7.355-4.066-.041-6.861 5.424-17.338 5.424-17.338 4.313-8.792 9.368-10.478 9.368-10.478 3.82-1.601 3.245 2.384 3.245 2.384-.862 4.725-2.63 7.642-2.63 7.642l8.382-.575c1.768-3.822.74-7.683.74-7.683-2.383-6.944-14.75-2.795-14.75-2.795-10.272 3.205-14.792 11.299-14.792 11.299-4.108 5.999-4.272 12.161-4.272 12.161z"/><path d="m281.5273 54.9521c-2.096 2.465-5.506 5.219-10.23 5.26 0 0-4.849.369-7.642-4.766 0 0-1.439-2.506-1.48-6.451v-.41c.041-1.52.247-3.247.823-5.054 0 0 3.04-10.6 13.433-16.433 0 0 1.973-1.028 5.096-1.932v6.451c-1.644 2.259-3.368 4.971-4.438 6.82-4.765 8.463-5.587 15.529-5.587 15.529-.616 4.068 3.164 3.205 3.164 3.205 3.493-.493 6.656-4.929 6.656-4.929.082-.082.123-.165.205-.248zm9.49-31.101s6.451-.124 12.573 1.479l-9.696 26.007s-1.314 4.026 1.192 4.191c0 0 2.136.369 6.286-5.546 0 0 1.889-2.63 3.657-6.081l.738 2.095s-5.381 13.887-15.366 14.093c0 0-7.847.164-6.327-8.957 0 0-.82 1.808-2.547 3.82v-2.958c4.808-6.614 8.136-16.063 8.136-16.063 1.313-3.288 1.888-6.657 1.888-6.657.248-2.218-.698-3.081-2.094-3.328-1.889-.328-3.287.78-4.725 1.932-.781.616-1.973 2.053-3.205 3.739v-6.451c2.506-.74 5.834-1.398 9.49-1.315z"/></g></svg>