<svg height="252" viewBox="0 0 560 252" width="560" xmlns="http://www.w3.org/2000/svg"><g fill="none" fill-rule="evenodd" transform=""><path d="m419.0918 153.9102c-10.048-8.624-14.137-18.896-14.137-32.321 0-11.295 3.314-21.898 12.027-30.577 10.029-9.991 18.165-14.429 30.505-18.956 13.078-4.799 21.411-6.194 30.757-8.267 4.077-.911 9.177-2.015 12.73-2.826 1.601-.378 7.656-1.746 9.198-3.621 1.399-1.939 1.811-3.531 1.008-7.415-1.153-6.139-4.279-11.139-9.385-15.055-6.716-5.221-14.885-8.951-26.43-8.951-13.827-.114-23.461 2.63-35.669 9.916 0 0-2.581 1.179-3.565 1.472-2.429.678-4.557 1.172-6.49-.871-3.359-3.533-.786-7.887 1.888-10.917 1.461-1.635 3.847-3.736 6.499-5.724 17.112-12.911 31.374-16.399 53.402-16.399 17.69.926 27.011 3.498 38.724 11.775 11.889 8.321 17.807 21.004 17.829 36.759v82.066c0 2.189-.246 3.876.999 8.267.589 2.104 2.264 3.865 2.913 4.773 3.925 5.76 14.997 10.683 15.519 10.938.595.306 1.308.855 1.853 1.768.638 1.039 1.194 2.549.249 4.263-.808 1.408-4.116 2.974-7.235 3.376-17.547 2.221-27.781-2.095-36.617-9.143-2.359-1.971-3.856-3.579-6.434-6.454-1.743-1.923-3.854-5.035-4.865-6.67-1.443 1.733-2.959 3.496-4.765 4.996-12.451 10.268-23.588 16.046-39.742 16.522-16.861.385-30.651-4.22-40.766-12.724zm82.782-73.853-17.094 3.658c-11.228 2.9-21.793 7.208-28.476 13.269-6.24 5.637-10.619 11.619-11.069 20.9-.425 9.106 1.703 12.464 5.45 16.139 4.317 4.062 10.96 5.988 19.75 4.919 4.324-.524 8.532-1.875 10.609-2.714 2.695-1.09 5.482-2.17 10.215-6.01 5.797-4.722 10.615-11.86 10.615-19.788z" fill="#b9242a"/><path d="m112.2178 153.9102c-10.038-8.624-14.145-18.896-14.145-32.321 0-11.295 3.335-21.898 12.041-30.577 10.036-9.991 18.174-14.429 30.508-18.956 13.082-4.799 21.423-6.194 30.754-8.267 4.075-.911 9.171-2.015 12.716-2.826 1.619-.378 7.668-1.746 9.212-3.621 1.392-1.939 1.805-3.531 1.006-7.415-1.17-6.139-4.26-11.139-9.388-15.055-6.73-5.221-14.88-8.951-26.43-8.951-13.845-.114-23.434 2.63-35.659 9.916 0 0-2.587 1.179-3.572 1.472-2.437.678-4.551 1.172-6.489-.871-3.345-3.533-.799-7.887 1.896-10.917 1.435-1.635 3.859-3.736 6.508-5.724 17.096-12.911 31.349-16.399 53.386-16.399 17.671.926 27.001 3.498 38.731 11.775 11.899 8.321 17.803 21.004 17.825 36.759v82.066c0 2.189-.253 3.876.999 8.267.576 2.104 2.268 3.865 2.905 4.773 3.933 5.76 15.002 10.683 15.506 10.938.59.306 1.311.855 1.869 1.768.65 1.039 1.212 2.549.228 4.263-.786 1.408-4.076 2.974-7.243 3.376-17.518 2.221-27.773-2.095-36.595-9.143-2.333-1.971-3.843-3.579-6.435-6.454-1.72-1.923-3.816-5.035-4.855-6.67-1.453 1.733-2.959 3.496-4.761 4.996-12.448 10.268-23.612 16.046-39.757 16.522-16.864.385-30.641-4.22-40.761-12.724zm82.801-73.853-17.104 3.658c-11.245 2.9-21.809 7.208-28.481 13.269-6.22 5.637-10.637 11.619-11.068 20.9-.44 9.106 1.707 12.464 5.455 16.139 4.311 4.062 10.946 5.988 19.754 4.919 4.333-.524 8.5-1.875 10.582-2.714 2.714-1.09 5.51-2.17 10.234-6.01 5.8-4.722 10.628-11.86 10.628-19.788z" fill="#b9242a"/><path d="m262.8384 49.9541-.54-7.304-1.638-30.658s.041-.725.332-.993c.325-.259 1.034-.186 1.034-.186 7.343.52 10.21.779 19.669.779 9.456 0 10.101-.259 17.551-.789 0 0 .664-.116 1.058.196.373.287.299 1.038.299 1.038-.952 7.322-2.264 21.297-2.264 21.297 1.107-1.756 4.01-6.175 7.248-9.557 11.695-12.202 22.918-16.299 40.152-16.299 16.777 0 26.003 4.961 33.772 12.283 9.974 9.369 14.285 22.872 14.285 39.517v29.383l.176 37.219c.238 10.542.582 18.421 1.073 23.65.368 5.306 1.016 10.556 1.96 15.758 0 0 .008.685-.25.986-.282.341-1.103.318-1.103.318-7.805-.517-8.508-.795-18.328-.795-10.061 0-12.42.236-20.227.776 0 0-.83 0-1.249-.456-.221-.253-.113-.829-.113-.829.954-5.216 1.122-9.934 1.616-15.25.332-5.226.636-13.099.872-23.655l.468-37.66v-21.347c0-10.458-2.342-18.184-6.856-23.36-4.584-5.017-11.301-7.578-20.386-7.578-11.236 0-17.39 3.159-22.935 9.318-5.664 6.209-8.604 15.566-8.636 28.217v14.919l.217 37.207c.227 10.653.567 18.604 1.044 23.83.35 5.29.363 10.506 1.303 15.595 0 0 .236.704.018 1.049-.29.461-1.363.25-1.363.25-7.8-.532-10.799-.796-20.624-.796-9.947 0-10.641.264-18.456.796 0 0-.866.111-1.179-.25-.237-.282-.178-.928-.178-.928l1.638-29.666.54-7.303z" fill="#b9242a"/><path d="m46.875 1.5903s.022-.645.268-.919c.305-.336 1.111-.344 1.111-.344 7.929.535 12.223.898 22.464.898 10.35 0 17.032-.431 25.095-.955 0 0 .794-.079 1.112.249.285.287.241 1.024.241 1.024-1.321 8.159-3.245 36.671-3.749 42.083-.481 5.32-5.332 94.193-5.332 94.193-6.554 44.135-21.478 53.781-34.035 60.06-19.386 9.685-42.63 8.894-47.331 8.035-2.677-.502-6.041-1.795-6.54-4.522-.649-3.567 1.03-5.581 3.008-6.622.917-.504 3.894-1.148 3.894-1.148 10.661-2.427 16.532-5.813 23.326-11.629 7.583-6.475 17.743-18.952 18.928-38.81 0 0 1.053-20.737 1.053-63.256 0-39.521-2.554-72.288-3.513-78.337" fill="#b9242a"/><g fill="#0085bc"><path d="m71.1602 251.0098-5.858.046-13.075-37.985 6.903-.055 7.025 21.431c1.565 4.811 2.027 7.601 2.027 7.601h.109s.423-2.304 2.239-7.968l6.793-21.21 6.579-.049z"/><path d="m103.3208 216.9893c-6.358.055-8.727 5.224-8.654 14.321.077 9.757 2.586 15.162 9.052 15.112 5.646-.045 8.519-4.234 8.438-14.426-.074-9.261-2.043-15.062-8.836-15.007m.604 34.197c-10.797.087-16.183-8.199-16.273-19.435-.1-12.496 6.203-19.562 15.687-19.639 10.688-.082 15.906 8.372 15.991 19.44.096 11.838-5.54 19.558-15.405 19.634"/><path d="m147.9839 220.5801c-1.774-2.392-3.752-3.255-7.152-3.23l-3.997.034.222 27.785 4.165-.035c6.685-.054 9.335-4.511 9.267-13.115-.041-4.877-.513-8.767-2.505-11.439m5.618 24.291c-3.144 4.079-6.421 5.367-13.492 5.426l-9.371.074-.303-37.923 7.892-.064c7.123-.06 11.353 1.226 14.947 5.25 2.823 3.214 4.175 7.752 4.22 13.669.05 5.756-1.342 10.26-3.893 13.568"/><path d="m178.5791 218.3105h-.055s-3.784 13.954-4.637 16.48l9.317-.071c-.392-.821-4.344-14.929-4.625-16.409zm9.244 31.606-3.154-9.947-12.276.096-2.985 9.997-6.526.053 12.14-38.08 7.287-.06 12.42 37.886z"/><path d="m227.9478 250.3057c-4.334.037-8.727-1.079-12.466-3.298l2.369-4.837c3.412 1.942 6.435 3.067 10.274 3.035 4.661-.037 7.438-2.3 7.406-6.085-.022-2.794-1.792-4.533-5.691-5.6l-4.066-1.116c-3.456-.962-5.94-2.365-7.377-4.493-1.05-1.524-1.617-3.331-1.63-5.521-.055-6.685 5.169-11.276 12.783-11.34 4.334-.032 8.672 1.193 12.031 3.52l-2.814 4.465c-3.526-2.055-5.941-2.858-8.953-2.835-3.731.033-6.181 2.079-6.154 5.206.018 2.353 1.343 3.551 5.078 4.619l4.502 1.279c5.494 1.544 9.362 5.019 9.406 10.718.055 6.303-5.001 12.207-14.698 12.283"/><path d="m288.2988 218.1475c-1.162-1.197-2.809-1.842-5.272-1.824l-4.934.041.105 13.317 4.933-.039c4.655-.037 6.774-2.247 6.742-6.739-.017-2.084-.521-3.667-1.574-4.756m-3.648 16.526-6.413.055.118 14.467-6.248.05-.305-37.928 10.084-.08c5.536-.041 7.569.49 9.662 1.733 3.361 1.947 5.25 5.326 5.282 9.492.059 7.456-5.332 12.157-12.18 12.211"/><path d="m322.6152 215.2432c-6.358.05-8.727 5.223-8.654 14.321.078 9.757 2.587 15.156 9.052 15.106 5.646-.046 8.519-4.233 8.438-14.426-.073-9.261-2.042-15.056-8.836-15.001m.604 34.197c-10.796.086-16.183-8.2-16.274-19.436-.099-12.496 6.204-19.567 15.688-19.639 10.688-.086 15.906 8.367 15.992 19.439.095 11.84-5.541 19.553-15.406 19.636"/><path d="m359.4141 215.7158-3.453.026.096 12.008 3.234-.028c3.29-.027 5.038-.481 6.183-1.638 1.028-1.052 1.677-2.645 1.659-4.619-.032-3.835-2.128-5.795-7.719-5.749zm9.035 32.758-3.34-5.835c-2.668-4.638-4.443-7.251-6.54-9.321-.716-.704-1.268-1.085-2.477-1.131l.133 16.386-6.191.05-.304-37.928 11.563-.088c8.491-.069 12.371 4.831 12.416 10.754.046 5.422-3.426 10.44-9.344 10.486 1.38.704 3.93 4.352 5.927 7.515l5.664 9.053z"/><path d="m399.498 248.8857c-9.974.077-13.142-5.051-13.191-11.13l-.219-27.35 6.357-.05.204 25.485c.046 5.808 2.143 7.708 6.803 7.671 4.604-.034 6.835-2.735 6.794-7.775l-.204-25.49 6.304-.049.217 27.293c.054 6.958-4.732 11.328-13.065 11.395"/><path d="m447.1924 247.8467-12.934-20.119 12.19-17.803 7.787-.062-13.016 17.696 14.196 20.221zm-19.235.154-.306-37.925 6.413-.05.303 37.921z"/><path d="m473.8174 214.0371c-6.358.048-8.728 5.222-8.653 14.319.076 9.758 2.585 15.158 9.051 15.108 5.647-.046 8.518-4.23 8.438-14.426-.074-9.262-2.043-15.056-8.836-15.001m.604 34.195c-10.797.087-16.183-8.199-16.274-19.433-.1-12.498 6.204-19.57 15.689-19.641 10.686-.087 15.906 8.367 15.99 19.44.095 11.839-5.54 19.552-15.405 19.634"/><path d="m532.0889 247.166-1.945-23.495c-.183-2.412-.315-5.424-.323-6.577-.267 1.266-.74 3.679-1.433 6.099l-6.713 24.06-5.368.04-6.489-22.911c-.731-2.513-1.471-5.909-1.697-7.165.008 1.262-.187 4.879-.333 7.238l-1.456 22.921-6.194.05 3.149-37.955 8.386-.068 5.98 21.44c.9 3.174 1.248 5.306 1.477 6.459.157-1.157.625-3.736 1.32-6.372l5.799-21.64 8.386-.069 3.644 37.899z"/></g></g></svg>