<svg height="236" viewBox="0 0 500 236" width="500" xmlns="http://www.w3.org/2000/svg"><g fill="none"><path d="m117.899 235.841c65.121 0 117.914-52.876 117.914-117.9-.001-65.144-52.793-117.928-117.914-117.928-65.118 0-117.886 52.784-117.886 117.927 0 65.024 52.768 117.901 117.886 117.901" fill="#c8135c"/><g fill="#fff"><path d="m113.148 66.124v103.485h32.837v-9.297h-23.344v-94.188z"/><path d="m80.227 94.414c7.785 0 14.194-6.324 14.194-14.132 0-7.85-6.409-14.187-14.194-14.187-7.786 0-14.153 6.338-14.153 14.187 0 7.809 6.367 14.132 14.153 14.132"/><path d="m122.641 19.312c-1.292-.035-3.529-.035-4.743-.035-54.429 0-98.708 44.187-98.708 98.643 0 26.335 10.291 51.146 28.876 69.76 18.676 18.655 43.404 29.024 69.832 29.024 26.371 0 51.133-10.369 69.796-29.024 18.585-18.613 28.819-43.425 28.819-69.76v-4.51h-70.437v9.161h61.092c0 .185-.042 1.192-.042 1.398-3.007 46.594-41.984 83.369-89.228 83.369-23.858 0-46.417-9.261-63.28-26.109-16.885-16.885-26.235-39.409-26.235-63.316 0-23.887 9.352-46.367 26.235-63.245 16.864-16.921 39.424-26.237 63.282-26.237 1.059 0 3.571.056 4.743.079z"/></g><path d="m294.813 58.973h34.781v88.454h51.771v29.459h-86.555z" fill="#595959"/><path d="m470.243 165.146c-6.135 9.382-17.458 14.74-31.767 14.74-30.701 0-50.672-24.469-50.672-62.088 0-38.27 22.632-61.813 59.63-61.813 14.952 0 27.616 3.933 37.302 11.442 9.911 7.863 13.688 15.545 15.265 31.075h-36.514c-.943-9.128-7.708-14.924-16.836-14.924-13.992 0-22.202 13.039-22.202 34.688 0 21.939 8.528 35.101 22.823 35.101 11.5 0 17.938-6.248 20.613-20.401h-22.491v-24.771h54.606v68.688h-29.758v-11.737" fill="#595959"/></g></svg>