<?xml version="1.0" encoding="UTF-8"?>
<svg width="338px" height="75px" viewBox="0 0 338 75" version="1.1" xmlns="http://www.w3.org/2000/svg" xmlns:xlink="http://www.w3.org/1999/xlink">
    <!-- Generator: Sketch 46.2 (44496) - http://www.bohemiancoding.com/sketch -->
    <title>NEOS_logo_samo slova</title>
    <desc>Created with Sketch.</desc>
    <defs>
        <polygon id="path-1" points="30.178 0.276 0.06 0.276 0.06 75 30.178 75 60.296 75 60.296 0.276"></polygon>
    </defs>
    <g id="Page-1" stroke="none" stroke-width="1" fill="none" fill-rule="evenodd">
        <g id="NEOS_logo_samo-slova">
            <g id="Group-4">
                <mask id="mask-2" fill="white">
                    <use xlink:href="#path-1"></use>
                </mask>
                <g id="Clip-2"></g>
                <path d="M32.689,14.958 C32.689,16.653 32.124,18.016 31.003,19.045 C29.88,20.07 28.164,20.586 25.851,20.586 C25.851,20.586 14.053,13.737 13.95,15.77 C13.934,16.081 13.456,15.832 13.309,15.986 C13.487,20.583 13.597,24.755 13.597,24.755 L13.597,66.701 C13.597,69.437 12.966,71.502 11.688,72.904 C10.418,74.303 8.79,75 6.798,75 C4.746,75 3.098,74.295 1.855,72.873 C0.619,71.459 0,69.396 0,66.695 L0,11.442 C0,9.092 0.258,7.251 0.778,5.917 C1.105,5.153 1.843,4.661 2.391,4.041 C2.739,3.389 3.238,2.975 3.735,2.478 C3.793,2.437 3.802,2.366 3.863,2.331 C3.921,2.287 3.992,2.356 4.05,2.321 C5.185,1.293 6.326,0.254 8.334,0.28 C8.334,0.28 12.664,2.211 17.542,4.432 C23.546,7.172 30.38,10.352 31.003,10.919 C32.124,11.942 32.689,13.292 32.689,14.958" id="Fill-1" fill="#88C2BF" mask="url(#mask-2)"></path>
                <path d="M60.296,63.838 C60.296,66.182 60.033,68.025 59.513,69.359 C59.188,70.127 58.448,70.621 57.903,71.238 C57.557,71.887 57.053,72.301 56.56,72.801 C56.501,72.842 56.492,72.912 56.431,72.949 C56.281,73.049 56.094,73.008 55.941,73.096 C54.837,74.002 53.827,75.02 51.96,74.994 C51.96,74.994 47.63,73.068 42.752,70.842 C36.75,68.107 29.911,64.928 29.293,64.361 C28.17,63.33 27.606,61.986 27.606,60.32 C27.606,58.623 28.17,57.264 29.293,56.234 C30.415,55.207 32.134,54.693 34.446,54.693 C34.446,54.693 46.236,61.543 46.345,59.504 C46.36,59.197 46.839,59.447 46.987,59.293 C46.807,54.695 46.694,50.521 46.694,50.521 L46.694,8.576 C46.694,5.842 47.33,3.774 48.602,2.375 C49.873,0.975 51.504,0.276 53.493,0.276 C55.549,0.276 57.195,0.984 58.436,2.399 C59.677,3.819 60.296,5.879 60.296,8.583 L60.296,63.838" id="Fill-3" fill="#88C2BF" mask="url(#mask-2)"></path>
            </g>
            <path d="M147.278,6.29 C147.278,7.997 146.713,9.366 145.583,10.395 C144.452,11.428 142.73,11.946 140.405,11.946 C140.405,11.946 121.986,11.053 112.711,11.946 C110.097,12.2 108.992,14.201 108.882,16.243 C108.667,20.402 108.113,33.606 108.843,54.768 C108.992,59.074 110.443,60.979 115.63,61.076 C120.82,61.182 140.228,61.076 140.228,61.076 C142.522,61.076 144.247,61.606 145.405,62.666 C146.569,63.728 147.153,65.141 147.153,66.904 C147.153,68.602 146.569,69.982 145.405,71.041 C144.247,72.105 142.522,72.635 140.228,72.635 L103.242,72.635 C100.069,72.635 94.313,66.842 94.313,63.703 L94.313,9.622 C94.765,4.927 97.972,0.618 103.242,0.686 L140.405,0.686 C142.73,0.686 144.452,1.206 145.583,2.237 C146.713,3.274 147.278,4.624 147.278,6.29" id="Fill-5" fill="#99C973"></path>
            <path d="M126.441,42.428 C122.897,42.428 120.027,39.553 120.027,36.011 C120.027,32.465 122.897,29.597 126.441,29.597 C129.988,29.597 132.859,32.465 132.859,36.011 C132.859,39.553 129.988,42.428 126.441,42.428" id="Fill-6" fill="#99C973"></path>
            <path d="M202.038,62.381 C204.324,62.381 206.053,62.91 207.215,63.977 C208.376,65.035 208.953,66.447 208.953,68.207 C208.953,69.908 208.376,71.285 207.215,72.348 C206.053,73.41 204.324,73.939 202.038,73.939 L188.53,73.939 C185.357,73.939 179.6,68.145 179.6,65.006 L179.6,10.924 C180.051,6.23 183.258,1.923 188.53,1.993 L200.911,1.993 C203.231,1.993 204.954,2.512 206.084,3.543 C207.215,4.577 207.782,5.929 207.782,7.596 C207.782,9.299 207.215,10.669 206.084,11.698 C204.954,12.735 204.578,12.579 198,13.249 C195.385,13.518 194.274,15.5 194.17,17.545 C193.951,21.705 193.4,34.913 194.126,56.07 C194.274,60.377 193.118,62.281 198.304,62.381 C203.498,62.484 202.038,62.381 202.038,62.381" id="Fill-7" fill="#B3D594"></path>
            <path d="M246.554,65.006 C246.554,68.145 240.796,73.939 237.621,73.939 L224.117,73.939 C221.824,73.939 220.095,73.41 218.937,72.348 C217.773,71.285 217.195,69.908 217.195,68.207 C217.195,66.447 217.773,65.035 218.937,63.977 C220.095,62.91 221.824,62.381 224.117,62.381 C224.117,62.381 222.652,62.484 227.843,62.381 C233.027,62.281 231.871,60.377 232.021,56.07 C232.751,34.913 232.201,21.705 231.984,17.545 C231.871,15.5 230.765,13.497 228.15,13.249 C221.58,12.625 221.193,12.735 220.064,11.698 C218.937,10.669 218.367,9.299 218.367,7.596 C218.367,5.929 218.937,4.577 220.064,3.543 C221.193,2.512 222.921,1.993 225.242,1.993 L237.621,1.993 C242.892,1.923 246.099,6.23 246.554,10.924 L246.554,65.006" id="Fill-8" fill="#B3D594"></path>
            <g id="Group-12" transform="translate(280.000000, 0.000000)" fill="#88C2BF">
                <path d="M57.035,7.088 C57.035,9.081 56.339,10.715 54.935,11.99 C53.542,13.258 51.472,13.893 48.744,13.893 L25.013,13.893 C25.013,13.893 21.261,14.063 16.865,13.909 C16.734,13.907 16.609,13.891 16.476,13.887 C16.433,13.891 16.49,13.979 16.445,13.979 C14.414,14.084 11.759,15.448 11.767,18.063 C11.779,25.911 11.767,26.155 11.767,26.155 C11.767,28.467 11.246,30.186 10.226,31.307 C9.195,32.434 7.835,32.999 6.138,32.999 C4.48,32.999 3.136,32.434 2.109,31.307 C1.082,30.186 0.568,28.467 0.568,26.155 L0.568,8.629 C0.791,4.547 2.785,2.873 5.281,1.854 C5.623,1.645 5.824,1.225 6.199,1.069 C6.906,0.79 8.134,0.78 9.128,0.649 C9.208,0.643 9.255,0.592 9.335,0.583 L9.361,0.618 C10.175,0.52 10.714,0.282 11.712,0.282 L48.738,0.282 C51.437,0.282 53.501,0.906 54.912,2.146 C56.326,3.386 57.035,5.034 57.035,7.088" id="Fill-9"></path>
                <path d="M57.248,65.424 C57.296,68.762 55.4,70.578 52.982,71.809 C52.501,72.162 52.177,72.746 51.617,72.98 C50.289,73.504 48.447,73.764 46.103,73.764 L9.076,73.764 C6.376,73.764 4.32,73.143 2.904,71.906 C1.494,70.666 0.781,69.016 0.781,66.961 C0.781,64.969 1.482,63.338 2.878,62.062 C4.275,60.791 6.343,60.154 9.07,60.154 L32.798,60.154 C32.798,60.154 36.673,59.926 41.111,60.082 C41.265,60.09 41.416,60.107 41.568,60.111 C41.613,60.107 41.556,60.018 41.599,60.014 C43.636,59.908 46.046,58.607 46.054,55.99 C46.062,47.6 46.054,47.893 46.054,47.893 C46.054,45.582 46.564,43.863 47.587,42.742 C48.619,41.613 49.982,41.053 51.671,41.053 C53.339,41.053 54.679,41.613 55.707,42.742 C56.734,43.863 57.248,45.582 57.248,47.893 L57.248,65.424" id="Fill-11"></path>
            </g>
        </g>
    </g>
</svg>