<svg height="243" viewBox="0 0 800 243" width="800" xmlns="http://www.w3.org/2000/svg"><g fill="none"><g fill="#018cd1"><path d="m175.963 66.837c-11.077-11.077-29.466-16.767-54.662-16.913-25.196.146-43.586 5.836-54.662 16.913-11.077 11.077-16.768 29.467-16.914 54.663.146 25.196 5.837 43.586 16.914 54.662s29.466 16.767 54.662 16.913c25.196-.146 43.585-5.837 54.662-16.913 11.077-11.077 16.767-29.467 16.913-54.662-.146-25.196-5.836-43.586-16.913-54.663z"/><path d="m193.729 190.639c-.529.568-1.031 1.152-1.584 1.705-18.537 18.537-45.595 23.487-70.845 23.617-25.25-.129-52.308-5.08-70.845-23.617-.553-.553-1.055-1.137-1.584-1.705-6.851 2.708-12.568 6.286-17.053 10.771-2.01 2.01-3.833 4.272-5.483 6.765 1.276 1.466 2.598 2.904 3.992 4.298 23.803 23.803 58.55 30.161 90.974 30.327 32.424-.166 67.171-6.524 90.974-30.327 1.394-1.394 2.716-2.832 3.992-4.298-1.651-2.493-3.474-4.756-5.484-6.765-4.486-4.485-10.203-8.062-17.054-10.771z"/><path d="m212.274 30.526c-23.802-23.802-58.551-30.16-90.974-30.327-32.422.167-67.171 6.525-90.973 30.327-23.803 23.804-30.16 58.55-30.327 90.974.116 22.513 3.233 46.139 13.086 66.452.824-.924 1.665-1.838 2.551-2.723 6.028-6.028 12.975-10.582 20.451-14.035-6.918-15.346-9.162-32.913-9.249-49.693.13-25.249 5.08-52.308 23.617-70.845 18.536-18.536 45.596-23.487 70.845-23.617 25.249.13 52.309 5.081 70.845 23.617 18.536 18.537 23.487 45.595 23.617 70.845-.086 16.78-2.331 34.347-9.249 49.693 7.476 3.453 14.423 8.007 20.451 14.035.886.886 1.726 1.8 2.55 2.723 9.853-20.313 12.97-43.939 13.086-66.452-.166-32.424-6.523-67.171-30.327-90.974z"/></g><g fill="#101332" transform="translate(314 27)"><path d="m.177 51.188c5.163-1.473 11.873-2.876 20.136-4.204 8.258-1.328 17.404-1.991 27.435-1.991 9.439 0 17.332 1.293 23.676 3.872 6.339 2.583 11.394 6.195 15.156 10.841 3.761 4.647 6.416 10.254 7.965 16.816 1.549 6.565 2.323 13.756 2.323 21.573v67.98h-26.771v-63.777c0-6.195-.409-11.468-1.217-15.819-.813-4.349-2.14-7.889-3.983-10.621-1.847-2.727-4.353-4.718-7.523-5.974-3.174-1.252-7.046-1.881-11.618-1.881-3.393 0-6.933.221-10.62.664-3.689.442-6.416.813-8.186 1.106v96.302c-14.787 0-26.774-11.987-26.774-26.774v-88.113z"/><path d="m205.484 114.428c-1.756-3.843-4.217-7.151-7.316-9.834-3.051-2.634-6.704-4.795-10.861-6.426-4.019-1.574-8.355-2.927-12.89-4.022-2.407-.483-5.183-1.021-8.416-1.64-3.041-.577-5.93-1.454-8.594-2.608-2.558-1.104-4.795-2.57-6.651-4.358-1.588-1.527-2.359-3.511-2.359-6.067 0-3.119 1.329-5.335 4.183-6.973 3.218-1.85 7.111-2.787 11.574-2.787 4.765 0 8.814.938 12.033 2.787 3.326 1.911 6.158 4.31 8.414 7.129l1.498 1.871 1.911-1.447 16.143-12.222 1.788-1.354-1.181-1.906c-4.259-6.878-10.081-11.864-17.303-14.82-7.032-2.876-14.485-4.334-22.15-4.334-5.278 0-10.582.728-15.762 2.164-5.245 1.452-10.002 3.669-14.14 6.589-4.199 2.964-7.625 6.764-10.181 11.294-2.583 4.585-3.892 9.996-3.892 16.085 0 5.603 1.026 10.409 3.047 14.284 2.008 3.849 4.729 7.077 8.088 9.595 3.26 2.448 7.056 4.431 11.279 5.892 4.075 1.411 8.42 2.675 12.914 3.756 2.351.472 5.003 1.049 7.977 1.736 2.844.656 5.575 1.541 8.117 2.631 2.369 1.016 4.426 2.42 6.116 4.173 1.477 1.537 2.196 3.468 2.196 5.901 0 1.779-.485 3.3-1.48 4.649-1.107 1.496-2.511 2.705-4.288 3.692-1.846 1.025-4.01 1.79-6.437 2.274-2.511.505-5.024.76-7.473.76-5.501 0-10.18-1.191-13.908-3.542-3.985-2.508-7.642-5.418-10.87-8.651l-1.581-1.583-1.727 1.422-15.682 12.915-1.792 1.476 1.367 1.876c5.627 7.721 12.154 13.122 19.4 16.053 7.102 2.874 15.443 4.331 24.792 4.331 5.535 0 11.114-.642 16.583-1.909 5.567-1.29 10.612-3.425 14.995-6.345 4.437-2.96 8.102-6.833 10.895-11.512 2.832-4.749 4.268-10.488 4.268-17.059-.001-5.402-.889-10.091-2.644-13.936z"/><path d="m288.63 44.531h-14.872c-25.079 0-45.409 20.33-45.409 45.409v30.727c0 25.079 20.33 45.409 45.409 45.409h14.872c25.079 0 45.409-20.33 45.409-45.409v-30.727c0-25.079-20.329-45.409-45.409-45.409zm17.671 75.163c0 11.525-9.342 20.867-20.867 20.867h-8.48c-11.526 0-20.867-9.342-20.867-20.867v-28.782c0-11.525 9.342-20.867 20.867-20.867h8.48c11.525 0 20.867 9.342 20.867 20.867z"/><path d="m409.659 55.601h-25.627v-13.496c0-9.206 11.159-14.542 26.037-14.85v-27.18c-40.531 0-53.03 18.135-53.03 40.482v15.045 21.461 89.013h26.993v-86.55h25.627z"/><path d="m485.59 79.25h-25.627v44.795c0 9.206 11.159 14.542 26.037 14.85v27.181c-40.531 0-53.03-18.135-53.03-40.482v-17.77-23.924-83.825c14.908 0 26.992 12.085 26.992 26.993v28.259h25.627v23.923z"/></g></g></svg>