<svg enable-background="new 0 0 290 96" viewBox="0 0 290 96" xmlns="http://www.w3.org/2000/svg" xmlns:xlink="http://www.w3.org/1999/xlink"><linearGradient id="a" gradientUnits="userSpaceOnUse" x1="1" x2="291" y1="48" y2="48"><stop offset="0" stop-color="#1f4758"/><stop offset="1" stop-color="#4c8e9d"/></linearGradient><path d="m0 0h290v96h-290z" fill="url(#a)"/><g fill="#fff"><path d="m53.1 43.2c1.4.8 2.5 1.9 3.2 3.4.8 1.5 1.2 3.1 1.2 4.9s-.4 3.5-1.2 4.9-1.8 2.6-3.2 3.4-2.9 1.2-4.7 1.2c-1.7 0-3.2-.4-4.5-1.2s-2.3-1.9-3-3.3v11.3h-2.4v-25.8h2.4v4.4c.7-1.4 1.7-2.5 3-3.3s2.8-1.2 4.5-1.2c1.8.1 3.3.5 4.7 1.3zm-1.5 14.7c1.1-.6 1.9-1.5 2.5-2.6s.9-2.4.9-3.9c0-1.4-.3-2.7-.9-3.8s-1.4-2-2.5-2.6-2.3-1-3.6-1c-1.4 0-2.6.3-3.7 1-1.1.6-1.9 1.5-2.5 2.6s-.9 2.4-.9 3.8.3 2.7.9 3.9c.6 1.1 1.4 2 2.5 2.6s2.3 1 3.7 1c1.3 0 2.5-.3 3.6-1z"/><path d="m69.9 44.3c-.9-.3-1.8-.4-2.6-.4-1.2 0-2.2.2-2.9.7s-1.1 1.2-1.1 2.1c0 .6.2 1.2.6 1.6s.9.7 1.5 1 1.4.5 2.5.8c1.3.4 2.4.8 3.2 1.1.8.4 1.5.9 2.1 1.6s.9 1.6.9 2.8c0 1.7-.6 3-1.9 3.9s-2.9 1.4-4.9 1.4c-1.4 0-2.7-.2-4-.7s-2.3-1.1-3.2-1.9l1-1.7c.8.7 1.8 1.3 2.9 1.8 1.1.4 2.3.6 3.4.6 1.3 0 2.3-.3 3.1-.8s1.2-1.3 1.2-2.3c0-.7-.2-1.3-.6-1.7s-.9-.8-1.5-1c-.6-.3-1.5-.5-2.5-.9-1.3-.4-2.3-.8-3.1-1.1-.8-.4-1.5-.9-2-1.6-.7-.7-1-1.6-1-2.7 0-1.7.6-2.9 1.9-3.7 1.2-.8 2.8-1.3 4.6-1.3 1.1 0 2.1.1 3.1.4s1.9.7 2.7 1.2l-.9 1.8c-.8-.4-1.6-.7-2.5-1z"/><path d="m92.8 44.7c1.5 1.9 2.2 4.4 2.1 7.5h-15.7c.2 2 .9 3.6 2.2 4.9 1.3 1.2 3 1.9 4.9 1.9 1.2 0 2.3-.2 3.3-.6s1.9-1 2.7-1.8l1.4 1.4c-.9 1-2 1.7-3.3 2.3-1.3.5-2.7.8-4.2.8-1.8 0-3.4-.4-4.9-1.2-1.4-.8-2.5-1.9-3.3-3.4-.8-1.4-1.2-3.1-1.2-4.9s.4-3.5 1.2-4.9c.8-1.5 1.9-2.6 3.3-3.4s3-1.2 4.8-1.2c2.9-.1 5.2.8 6.7 2.6zm0 5.7c-.1-2-.8-3.5-2-4.7s-2.7-1.7-4.7-1.7c-1.9 0-3.5.6-4.8 1.8s-2 2.7-2.2 4.7h13.7z"/><path d="m116.2 42v18.9h-2.4v-4.5c-.6 1.5-1.6 2.6-2.8 3.4s-2.7 1.2-4.5 1.2c-2.2 0-4-.7-5.2-2-1.3-1.3-1.9-3.1-1.9-5.4v-11.6h2.4v11c0 1.8.5 3.2 1.5 4.2s2.3 1.5 4 1.5c2 0 3.6-.7 4.8-2.1s1.7-3.1 1.7-5.3v-9.3z"/><path d="m140.4 34.2v26.7h-2.4v-4.3c-.7 1.4-1.7 2.5-3 3.3s-2.8 1.2-4.5 1.2c-1.8 0-3.4-.4-4.8-1.2s-2.5-2-3.2-3.4-1.2-3.1-1.2-5c0-1.8.4-3.5 1.2-4.9s1.9-2.6 3.2-3.4c1.4-.8 2.9-1.2 4.7-1.2 1.7 0 3.2.4 4.6 1.2 1.3.8 2.3 1.9 3 3.3v-12.3zm-5.9 23.8c1.1-.6 1.9-1.5 2.5-2.6s.9-2.4.9-3.9c0-1.4-.3-2.7-.9-3.9-.6-1.1-1.5-2-2.5-2.7-1.1-.6-2.3-1-3.7-1s-2.6.3-3.7 1c-1.1.6-1.9 1.5-2.6 2.7-.6 1.1-.9 2.4-.9 3.9 0 1.4.3 2.7.9 3.9.6 1.1 1.5 2 2.6 2.6s2.3 1 3.7 1 2.6-.4 3.7-1z"/><path d="m160 43.2c1.4.8 2.6 1.9 3.4 3.4.8 1.4 1.2 3.1 1.2 4.9s-.4 3.5-1.2 5-1.9 2.6-3.4 3.4c-1.4.8-3.1 1.2-4.9 1.2s-3.5-.4-4.9-1.2-2.6-1.9-3.4-3.4-1.2-3.1-1.2-5c0-1.8.4-3.5 1.2-4.9s1.9-2.6 3.4-3.4c1.4-.8 3.1-1.2 4.9-1.2s3.5.4 4.9 1.2zm-8.5 1.8c-1.1.6-1.9 1.5-2.5 2.6s-.9 2.4-.9 3.9.3 2.8.9 3.9 1.4 2 2.5 2.6 2.3.9 3.7.9 2.6-.3 3.7-.9 1.9-1.5 2.5-2.6.9-2.4.9-3.9c0-1.4-.3-2.7-.9-3.9-.6-1.1-1.4-2-2.5-2.6s-2.3-.9-3.7-.9c-1.4-.1-2.6.3-3.7.9z"/><path d="m179.2 35.8c-1.3 0-2.6.3-3.6.9s-1.9 1.5-2.5 2.6-.9 2.4-.9 3.8.3 2.7.9 3.9c.6 1.1 1.4 2 2.5 2.6s2.3.9 3.6.9c1.2 0 2.3-.2 3.4-.6s1.9-1.1 2.6-1.9l1.4 1.4c-.8 1-1.9 1.8-3.2 2.3-1.3.6-2.7.8-4.2.8-1.8 0-3.4-.4-4.8-1.2s-2.5-1.9-3.3-3.4-1.2-3.1-1.2-4.9.4-3.5 1.2-4.9 1.9-2.6 3.3-3.4 3-1.2 4.8-1.2c1.5 0 2.8.2 4 .7s2.3 1.2 3.1 2l-1.4 1.6c-1.6-1.3-3.5-2-5.7-2z"/><path d="m203.4 34.8c1.4.8 2.6 1.9 3.4 3.4.8 1.4 1.2 3.1 1.2 4.9s-.4 3.5-1.2 5-1.9 2.6-3.4 3.4-3.1 1.2-4.9 1.2-3.5-.4-4.9-1.2-2.6-1.9-3.4-3.4-1.2-3.1-1.2-5c0-1.8.4-3.5 1.2-4.9s1.9-2.6 3.4-3.4c1.4-.8 3.1-1.2 4.9-1.2 1.9 0 3.5.4 4.9 1.2zm-8.5 1.9c-1.1.6-1.9 1.5-2.5 2.6s-.9 2.4-.9 3.9.3 2.8.9 3.9 1.4 2 2.5 2.6 2.3.9 3.7.9 2.6-.3 3.7-.9 1.9-1.5 2.5-2.6.9-2.4.9-3.9c0-1.4-.3-2.7-.9-3.9-.6-1.1-1.4-2-2.5-2.6s-2.3-.9-3.7-.9c-1.4-.1-2.7.2-3.7.9z"/><path d="m230.3 25.9v26.7h-2.4v-4.3c-.7 1.4-1.7 2.5-3 3.3s-2.8 1.2-4.5 1.2c-1.8 0-3.4-.4-4.8-1.2s-2.5-2-3.2-3.4-1.2-3.1-1.2-5c0-1.8.4-3.5 1.2-4.9s1.9-2.6 3.2-3.4c1.4-.8 2.9-1.2 4.7-1.2 1.7 0 3.2.4 4.6 1.2 1.3.8 2.3 1.9 3 3.3v-12.3zm-5.8 23.8c1.1-.6 1.9-1.5 2.5-2.6s.9-2.4.9-3.9c0-1.4-.3-2.7-.9-3.9-.6-1.1-1.5-2-2.5-2.7-1.1-.6-2.3-1-3.7-1s-2.6.3-3.7 1c-1.1.6-1.9 1.5-2.6 2.7-.6 1.1-.9 2.4-.9 3.9 0 1.4.3 2.7.9 3.9.6 1.1 1.5 2 2.6 2.6s2.3 1 3.7 1c1.3-.1 2.6-.4 3.7-1z"/><path d="m251.6 36.4c1.5 1.9 2.2 4.4 2.1 7.5h-15.7c.2 2 .9 3.6 2.2 4.9s3 1.9 4.9 1.9c1.2 0 2.3-.2 3.3-.6s1.9-1 2.7-1.8l1.4 1.4c-.9 1-2 1.7-3.3 2.3-1.3.5-2.7.8-4.2.8-1.8 0-3.4-.4-4.9-1.2s-2.5-1.9-3.3-3.4c-.8-1.4-1.2-3.1-1.2-4.9s.4-3.5 1.2-4.9c.8-1.5 1.9-2.6 3.3-3.4s3-1.2 4.8-1.2c2.9-.2 5.2.8 6.7 2.6zm0 5.7c-.1-2-.8-3.5-2-4.7s-2.7-1.7-4.7-1.7c-1.9 0-3.5.6-4.8 1.8s-2 2.7-2.2 4.7h13.7z"/></g><path d="m170.4 58.5h82.4" fill="none" stroke="#fff" stroke-miterlimit="10" stroke-width="2"/></svg>