<?xml version="1.0" encoding="UTF-8"?>
<svg width="188px" height="50px" viewBox="0 0 188 50" version="1.1" xmlns="http://www.w3.org/2000/svg" xmlns:xlink="http://www.w3.org/1999/xlink">
    <!-- Generator: Sketch 46.2 (44496) - http://www.bohemiancoding.com/sketch -->
    <title>RTL_Television</title>
    <desc>Created with Sketch.</desc>
    <defs></defs>
    <g id="Page-1" stroke="none" stroke-width="1" fill="none" fill-rule="evenodd">
        <g id="RTL_Television">
            <path d="M0.094,36.876 L60.806,36.876 L60.806,0.601 L0.094,0.601 L0.094,36.876 Z M11.478,10.618 L25.442,10.618 L25.442,10.623 L43.039,10.64 C46.003,10.64 48.406,13.043 48.406,16.006 C48.406,18.969 46.003,21.372 43.039,21.372 L41.51,21.372 L49.727,27.466 L37.129,27.466 L30.165,21.372 L25.442,21.372 L25.442,27.466 L11.478,27.466 L11.478,10.618 L11.478,10.618 Z" id="Fill-2" fill="#B73346"></path>
            <path d="M35.304,15.732 C35.304,14.31 34.15,13.157 32.728,13.157 L25.442,13.157 L25.442,18.312 L32.728,18.308 C34.15,18.308 35.304,17.155 35.304,15.732" id="Fill-3" fill="#B73346"></path>
            <path d="M63.236,36.876 L123.949,36.876 L123.949,0.601 L63.236,0.601 L63.236,36.876 Z M75.682,10.64 L112.869,10.64 L112.869,13.827 L101.94,13.827 L101.94,28.094 L86.611,28.094 L86.611,13.827 L75.682,13.827 L75.682,10.64 L75.682,10.64 Z" id="Fill-4" fill="#E6B136"></path>
            <path d="M126.377,36.876 L187.09,36.876 L187.09,0.601 L126.377,0.601 L126.377,36.876 Z M166.286,28.094 L140.028,28.094 L140.028,10.64 L155.358,10.64 L155.358,24.907 L166.286,24.907 L166.286,28.094 L166.286,28.094 Z" id="Fill-5" fill="#235B96"></path>
            <polyline id="Fill-6" fill="#1A1919" points="0.936 44.088 0.936 43.416 7.724 43.416 7.724 44.088 4.899 44.088 4.899 49.322 3.784 49.322 3.784 44.088 0.936 44.088"></polyline>
            <polyline id="Fill-7" fill="#1A1919" points="28.064 43.416 28.064 44.088 23.174 44.088 23.174 45.952 27.873 45.952 27.873 46.624 23.174 46.624 23.174 48.649 28.265 48.649 28.265 49.322 22.059 49.322 22.059 43.416 28.064 43.416"></polyline>
            <polyline id="Fill-8" fill="#1A1919" points="44.026 48.649 48.287 48.649 48.287 49.322 42.91 49.322 42.91 43.416 44.026 43.416 44.026 48.649"></polyline>
            <polyline id="Fill-9" fill="#1A1919" points="68.686 43.416 68.686 44.088 63.797 44.088 63.797 45.952 68.496 45.952 68.496 46.624 63.797 46.624 63.797 48.649 68.888 48.649 68.888 49.322 62.681 49.322 62.681 43.416 68.686 43.416"></polyline>
            <polyline id="Fill-10" fill="#1A1919" points="90.238 43.416 87.201 49.322 86.001 49.322 82.941 43.416 84.126 43.416 86.63 48.415 89.052 43.416 90.238 43.416"></polyline>
            <polygon id="Fill-11" fill="#1A1919" points="104.742 49.322 105.857 49.322 105.857 43.416 104.742 43.416"></polygon>
            <path d="M125.14,44.185 C124.559,43.951 124.143,43.959 123.705,43.959 C121.71,43.959 121.355,45.215 122.351,45.587 C122.66,45.709 123.087,45.806 123.668,45.879 C124.38,46.008 125.092,46.146 125.805,46.276 C126.552,46.454 127.241,47.021 127.276,47.597 C127.36,48.779 125.734,49.548 123.87,49.508 C122.731,49.483 121.877,49.386 121.105,48.763 C120.524,48.285 120.501,47.912 120.476,47.45 L121.508,47.45 C121.497,47.799 121.687,48.617 123.182,48.796 C123.443,48.827 123.882,48.852 124.322,48.827 C124.772,48.796 125.235,48.722 125.543,48.544 C126.101,48.22 126.529,47.54 125.496,47.053 C124.986,46.875 124.274,46.762 123.692,46.672 C122.518,46.486 123.087,46.584 121.924,46.316 C121.544,46.226 120.879,45.968 120.773,45.23 C120.63,44.274 121.579,43.319 123.68,43.319 C124.405,43.319 125.258,43.408 125.781,43.627 C126.956,44.121 127.027,44.874 126.992,45.141 L125.912,45.141 C125.935,44.793 125.792,44.461 125.14,44.185" id="Fill-12" fill="#1A1919"></path>
            <polygon id="Fill-13" fill="#1A1919" points="142.064 49.322 143.179 49.322 143.179 43.416 142.064 43.416"></polygon>
            <path d="M166.035,46.414 C166.046,47.248 165.631,48.245 164.516,48.9 C164.1,49.143 163.056,49.501 161.858,49.508 C160.659,49.501 159.615,49.143 159.199,48.9 C158.083,48.245 157.668,47.248 157.68,46.414 C157.692,45.579 158.083,44.583 159.199,43.926 C159.615,43.683 160.659,43.327 161.858,43.319 C163.056,43.327 164.1,43.683 164.516,43.926 C165.631,44.583 166.023,45.579 166.035,46.414 Z M158.807,46.414 C158.783,47.134 159.175,47.847 159.757,48.26 C160.291,48.641 161.086,48.827 161.858,48.827 C162.628,48.827 163.424,48.641 163.957,48.26 C164.54,47.847 164.931,47.134 164.907,46.414 C164.931,45.692 164.54,44.979 163.957,44.566 C163.424,44.185 162.628,43.999 161.858,43.999 C161.086,43.999 160.291,44.185 159.757,44.566 C159.175,44.979 158.783,45.692 158.807,46.414 L158.807,46.414 Z" id="Fill-14" fill="#1A1919"></path>
            <polyline id="Fill-15" fill="#1A1919" points="181.533 44.591 181.533 49.322 180.418 49.322 180.418 43.416 181.735 43.416 186.066 48.195 186.066 43.416 187.181 43.416 187.181 49.322 185.912 49.322 181.533 44.591"></polyline>
        </g>
    </g>
</svg>