<?xml version="1.0" encoding="UTF-8"?>
<svg width="574px" height="159px" viewBox="0 0 574 159" version="1.1" xmlns="http://www.w3.org/2000/svg" xmlns:xlink="http://www.w3.org/1999/xlink">
    <!-- Generator: Sketch 46.2 (44496) - http://www.bohemiancoding.com/sketch -->
    <title>Group 22</title>
    <desc>Created with Sketch.</desc>
    <defs></defs>
    <g id="Page-1" stroke="none" stroke-width="1" fill="none" fill-rule="evenodd">
        <g id="RTL-Hrvatska-logo">
            <g id="Group-22" transform="translate(0.000000, 0.280000)">
                <polygon id="Fill-1" fill="#D02139" points="27.6758 157.708 27.6758 139.408 6.3188 139.408 6.3188 157.708 0.9678 157.708 0.9678 118.212 6.3188 118.212 6.3188 134.92 27.6758 134.92 27.6758 118.212 33.0318 118.212 33.0318 157.708"></polygon>
                <path d="M109.1597,129.5674 C109.1597,127.2674 108.3787,125.5194 106.8187,124.3114 C105.2587,123.1044 103.0137,122.5044 100.0807,122.5044 L87.3857,122.5044 L87.3857,137.0774 L100.3017,137.0774 C103.1287,137.0774 105.3047,136.4204 106.8467,135.1034 C108.3887,133.7844 109.1597,131.9394 109.1597,129.5674 L109.1597,129.5674 Z M109.9497,157.7084 L99.6857,141.3084 L87.3857,141.3084 L87.3857,157.7084 L82.0297,157.7084 L82.0297,118.2124 L100.6137,118.2124 C105.0567,118.2124 108.4897,119.2124 110.9137,121.1994 C113.3327,123.1884 114.5437,125.9594 114.5437,129.5104 C114.5437,132.4464 113.6857,134.9104 111.9777,136.9114 C110.2707,138.9114 107.9107,140.1704 104.8997,140.6934 L116.1137,157.7084 L109.9497,157.7084 Z" id="Fill-2" fill="#D02139"></path>
                <polygon id="Fill-4" fill="#D02139" points="179.2661 157.708 173.7171 157.708 157.6011 118.212 163.2331 118.212 174.1621 146.018 176.5211 152.999 178.8711 146.018 189.7491 118.212 195.3851 118.212"></polygon>
                <path d="M250.1846,122.25 L249.9326,123.036 C249.4636,124.587 248.7756,126.574 247.8576,129.007 L242.8126,141.983 L257.5876,141.983 L252.5116,128.952 C251.9876,127.657 251.4656,126.203 250.9416,124.577 L250.1846,122.25 Z M263.6916,157.708 L259.1846,146.159 L241.1886,146.159 L236.6486,157.708 L231.0946,157.708 L247.2146,118.212 L253.2956,118.212 L269.1636,157.708 L263.6916,157.708 Z" id="Fill-6" fill="#D02139"></path>
                <polygon id="Fill-8" fill="#D02139" points="324.8018 122.5859 324.8018 157.7079 319.4778 157.7079 319.4778 122.5859 305.9088 122.5859 305.9088 118.2119 338.3698 118.2119 338.3698 122.5859"></polygon>
                <path d="M414.9473,146.8076 C414.9473,150.4516 413.5243,153.2696 410.6793,155.2696 C407.8253,157.2726 403.8133,158.2676 398.6353,158.2676 C389.0143,158.2676 383.4333,154.9216 381.8993,148.2336 L387.0883,147.1966 C387.6833,149.5706 388.9603,151.3136 390.8953,152.4246 C392.8423,153.5356 395.4853,154.0916 398.8373,154.0916 C402.2893,154.0916 404.9603,153.4996 406.8323,152.3156 C408.7143,151.1256 409.6493,149.3866 409.6493,147.0826 C409.6493,145.7966 409.3563,144.7496 408.7683,143.9436 C408.1823,143.1436 407.3553,142.4796 406.2913,141.9556 C405.2253,141.4326 403.9503,140.9956 402.4803,140.6386 C401.0043,140.2796 399.3703,139.8986 397.5703,139.4906 C394.4483,138.7976 392.0803,138.1046 390.4643,137.4166 C388.8503,136.7226 387.5743,135.9516 386.6353,135.1036 C385.7103,134.2486 384.9933,133.2566 384.4993,132.1196 C384.0023,130.9766 383.7543,129.6666 383.7543,128.1906 C383.7543,124.8116 385.0503,122.2046 387.6363,120.3686 C390.2253,118.5416 393.9263,117.6226 398.7453,117.6226 C403.2353,117.6226 406.6583,118.3136 409.0363,119.6846 C411.4143,121.0586 413.0753,123.3996 414.0283,126.7066 L408.7513,127.6296 C408.1733,125.5366 407.0703,124.0226 405.4463,123.0776 C403.8213,122.1306 401.5723,121.6636 398.6903,121.6636 C395.5323,121.6636 393.1273,122.1856 391.4673,123.2336 C389.7963,124.2806 388.9693,125.8396 388.9693,127.9146 C388.9693,129.1256 389.2903,130.1326 389.9323,130.9256 C390.5753,131.7186 391.5113,132.3956 392.7223,132.9466 C393.9343,133.4946 396.3593,134.1746 399.9833,134.9746 C401.1973,135.2576 402.4083,135.5426 403.6103,135.8286 C404.8133,136.1206 405.9703,136.4646 407.0703,136.8666 C408.1733,137.2686 409.2103,137.7416 410.1733,138.2846 C411.1383,138.8256 411.9723,139.4906 412.6803,140.2716 C413.3873,141.0606 413.9463,141.9836 414.3503,143.0476 C414.7453,144.1136 414.9473,145.3656 414.9473,146.8076" id="Fill-10" fill="#D02139"></path>
                <polygon id="Fill-12" fill="#D02139" points="488.1924 157.708 472.4124 138.645 467.2544 142.575 467.2544 157.708 461.9024 157.708 461.9024 118.212 467.2544 118.212 467.2544 138.003 486.2934 118.212 492.5984 118.212 475.7804 135.369 494.8394 157.708"></polygon>
                <path d="M554.2861,122.25 L554.0401,123.036 C553.5711,124.587 552.8841,126.574 551.9651,129.007 L546.9161,141.983 L561.6951,141.983 L556.6191,128.952 C556.0961,127.657 555.5721,126.203 555.0481,124.577 L554.2861,122.25 Z M567.8001,157.708 L563.2921,146.159 L545.2901,146.159 L540.7571,157.708 L535.2021,157.708 L551.3221,118.212 L557.3981,118.212 L573.2701,157.708 L567.8001,157.708 Z" id="Fill-14" fill="#D02139"></path>
                <path d="M183.688,0.4604 L183.688,0.8004 C189.708,1.5984 195.387,4.2774 199.994,8.7644 C203.168,11.8384 205.582,15.5734 207.215,19.6024 L240.818,19.6024 L240.818,97.3954 C245.726,97.4324 311.527,97.7434 316.492,97.7704 L316.492,19.6024 L373.703,19.6024 L373.703,0.4604 L183.688,0.4604 Z" id="Fill-16" fill="#4D4E4C"></path>
                <polygon id="Fill-18" fill="#4D4E4C" points="468.3906 77.5015 468.3906 0.4605 386.5506 0.4605 386.5506 97.2215 573.2716 97.2215 573.2716 77.5015"></polygon>
                <path d="M122.9985,35.2739 C122.3185,39.9719 119.5485,43.8439 115.3685,45.8269 L114.8175,46.1019 L72.3145,46.1569 L72.3145,21.9869 L72.3145,19.2439 L72.1635,19.2159 L72.3475,19.2159 L72.3475,19.0329 L113.7445,19.0329 L114.2075,19.2159 C119.3835,21.0609 122.8785,26.0609 123.1725,31.9799 C123.2185,33.1269 123.1535,34.2009 122.9985,35.2739 M152.4625,61.7189 L152.8115,61.7189 C152.6005,61.5629 152.4715,61.4809 152.4715,61.4809 L161.6195,61.7189 C169.1985,61.9119 176.4985,58.9389 182.1735,53.3499 C187.2665,48.3679 190.5155,41.7799 191.4045,34.8339 C191.5425,33.5579 191.6435,32.2639 191.6255,30.9889 C191.5975,22.7119 188.1105,14.6009 182.1005,8.7649 C176.4015,3.2219 169.1025,0.2859 161.5005,0.4699 L0.9675,0.4699 L0.9675,97.2219 L72.3145,97.2219 C72.3145,91.9269 72.3475,63.8019 72.3475,63.8019 L72.3655,63.8019 L72.3655,63.5819 L91.0845,63.5819 C91.0845,63.5819 129.3025,95.9909 130.7885,97.2219 L203.1775,97.2219 C192.1575,89.4849 152.4625,61.7189 152.4625,61.7189" id="Fill-20" fill="#4D4E4C"></path>
            </g>
        </g>
    </g>
</svg>