<?xml version="1.0" encoding="UTF-8"?>
<svg width="346px" height="146px" viewBox="0 0 346 146" version="1.1" xmlns="http://www.w3.org/2000/svg" xmlns:xlink="http://www.w3.org/1999/xlink">
    <!-- Generator: Sketch 46.2 (44496) - http://www.bohemiancoding.com/sketch -->
    <title>Saltwater-Brand-Main</title>
    <desc>Created with Sketch.</desc>
    <defs>
        <polygon id="path-1" points="0.06 56.31 0.06 0.314 34.288 0.314 34.288 56.31"></polygon>
        <polygon id="path-3" points="0.06 61.665 0.06 0.099 287.962 0.099 287.962 61.665"></polygon>
        <polygon id="path-5" points="158.38 0.623 158.38 96.969 0.867 96.969 0.867 0.623"></polygon>
    </defs>
    <g id="Page-1" stroke="none" stroke-width="1" fill="none" fill-rule="evenodd">
        <g id="Saltwater-Brand-Main">
            <g id="Group-3" transform="translate(0.000000, 62.000000)">
                <mask id="mask-2" fill="white">
                    <use xlink:href="#path-1"></use>
                </mask>
                <g id="Clip-2"></g>
                <path d="M34.288,39.435 C34.288,50.02 26.157,56.31 16.108,56.31 C8.668,56.31 5.983,54.776 2.685,52.244 L1.227,55.16 L0,55.16 L0,41.352 L1.227,41.352 C4.986,50.941 9.742,52.475 16.108,52.475 C22.475,52.475 27.23,50.02 27.23,43.193 C27.23,37.057 23.702,33.529 18.102,31.15 L12.35,28.696 C4.679,25.398 0.153,22.099 0.153,14.812 C0.153,6.221 7.517,0.314 17.105,0.314 C22.015,0.314 27.998,1.619 31.526,3.46 L28.765,14.045 L27.537,14.045 C27.307,6.682 23.165,4.15 17.105,4.15 C11.813,4.15 7.517,6.221 7.517,11.514 C7.517,16.807 10.585,19.568 14.574,21.101 L22.015,24.017 C28.765,26.701 34.288,31.15 34.288,39.435" id="Fill-1" fill="#008BC0" mask="url(#mask-2)"></path>
            </g>
            <path d="M63.952,100.898 C63.952,93.611 60.5,87.168 54.9,87.168 C49.377,87.168 45.849,93.611 45.849,100.898 C45.849,108.262 49.377,115.088 54.9,115.088 C60.423,115.088 63.952,108.262 63.952,100.898 Z M73.617,116.086 L73.617,117.16 L65.409,117.16 L63.952,113.094 C62.187,116.469 58.889,118.156 54.9,118.156 C45.159,118.156 39.099,111.637 39.099,100.898 C39.099,90.312 45.159,84.099 54.9,84.099 C59.426,84.099 62.034,84.867 64.872,88.242 C64.872,88.318 66.867,87.168 68.861,84.176 L70.395,84.176 L70.395,112.941 C72.006,115.779 73.617,116.086 73.617,116.086 L73.617,116.086 Z" id="Fill-4" fill="#008BC0"></path>
            <path d="M91.715,116.086 L91.715,117.16 L78.598,117.16 L78.598,116.086 C78.598,116.086 80.132,115.779 81.743,113.094 L81.743,64.616 C80.132,61.777 78.522,61.471 78.522,61.471 L78.522,60.397 C78.522,60.397 84.274,59.476 87.266,57.252 L88.493,57.252 L88.493,112.941 C90.104,115.779 91.715,116.086 91.715,116.086" id="Fill-5" fill="#008BC0"></path>
            <path d="M107.226,118.233 C101.012,118.233 98.328,114.398 98.328,108.723 L98.328,90.236 C96.717,87.551 95.183,87.244 95.183,87.244 L95.183,86.17 C95.183,86.17 99.708,78.5 103.85,66.994 L105.078,66.994 L105.078,84.637 L111.061,84.176 L110.754,87.244 L105.078,87.781 L105.078,109.642 C105.078,113.478 106.305,115.166 109.22,115.166 C110.754,115.166 112.901,114.398 113.899,112.174 L115.279,112.174 C113.822,116.392 111.061,118.233 107.226,118.233" id="Fill-6" fill="#008BC0"></path>
            <path d="M167.065,88.394 L156.863,117.16 L152.567,117.16 L144.053,93.611 L135.999,117.16 L131.243,117.16 L121.042,88.318 C119.431,85.48 117.82,85.25 117.82,85.25 L117.82,84.176 L131.32,84.176 L131.32,85.25 C131.32,85.25 129.709,85.557 128.098,88.394 L135.309,107.879 L142.366,89.086 C142.366,89.086 144.513,87.014 146.047,84.176 L147.198,84.176 L156.633,107.648 L163.613,88.394 C162.002,85.557 160.392,85.25 160.392,85.25 L160.392,84.176 L170.287,84.176 L170.287,85.25 C170.287,85.25 168.293,85.787 167.065,88.394" id="Fill-7" fill="#008BC0"></path>
            <path d="M196.661,100.898 C196.661,93.611 193.209,87.168 187.61,87.168 C182.087,87.168 178.559,93.611 178.559,100.898 C178.559,108.262 182.087,115.088 187.61,115.088 C193.133,115.088 196.661,108.262 196.661,100.898 Z M206.326,116.086 L206.326,117.16 L198.119,117.16 L196.661,113.094 C194.897,116.469 191.599,118.156 187.61,118.156 C177.868,118.156 171.809,111.637 171.809,100.898 C171.809,90.312 177.868,84.099 187.61,84.099 C192.136,84.099 194.744,84.867 197.582,88.242 C197.582,88.318 199.576,87.168 201.57,84.176 L203.105,84.176 L203.105,112.941 C204.715,115.779 206.326,116.086 206.326,116.086 L206.326,116.086 Z" id="Fill-8" fill="#008BC0"></path>
            <path d="M221.924,118.233 C215.71,118.233 213.026,114.398 213.026,108.723 L213.026,90.236 C211.415,87.551 209.881,87.244 209.881,87.244 L209.881,86.17 C209.881,86.17 214.406,78.5 218.548,66.994 L219.776,66.994 L219.776,84.637 L225.759,84.176 L225.452,87.244 L219.776,87.781 L219.776,109.642 C219.776,113.478 221.003,115.166 223.918,115.166 C225.452,115.166 227.6,114.398 228.597,112.174 L229.978,112.174 C228.521,116.392 225.759,118.233 221.924,118.233" id="Fill-9" fill="#008BC0"></path>
            <path d="M249.607,86.476 C242.857,86.476 240.94,92.844 240.94,99.824 L257.125,96.756 C256.588,90.312 255.054,86.476 249.607,86.476 Z M251.065,115.088 C254.517,115.088 255.821,115.166 260.96,111.483 L262.647,111.483 C259.426,117.16 255.668,118.156 250.605,118.156 C238.792,118.156 233.576,111.1 233.576,101.205 L233.576,101.128 C233.576,90.082 239.176,83.409 249.224,83.409 C259.733,83.409 263.722,89.93 263.722,97.369 L263.722,98.98 L241.17,103.43 L240.787,103.736 C241.4,110.946 244.775,115.088 251.065,115.088 L251.065,115.088 Z" id="Fill-10" fill="#008BC0"></path>
            <g id="Group-14" transform="translate(0.000000, 84.000000)">
                <mask id="mask-4" fill="white">
                    <use xlink:href="#path-3"></use>
                </mask>
                <g id="Clip-12"></g>
                <path d="M287.962,0.099 L286.352,6.082 C281.903,5.238 278.604,9.457 277.837,10.071 L277.837,28.941 C279.448,31.779 281.059,32.086 281.059,32.086 L281.059,33.16 L267.866,33.16 L267.866,32.086 C267.866,32.086 269.477,31.779 271.087,28.941 L271.087,8.307 C269.477,5.469 267.866,5.162 267.866,5.162 L267.866,4.088 C267.866,4.088 271.471,3.168 274.846,0.176 L276.073,0.176 L277.837,6.696 C278.604,6.159 281.442,1.787 287.962,0.099" id="Fill-11" fill="#008BC0" mask="url(#mask-4)"></path>
                <polyline id="Fill-13" fill="#008BC0" mask="url(#mask-4)" points="0.048 48.512 3.207 48.512 5.306 56.946 5.343 56.946 8.093 48.512 10.787 48.512 13.518 57.169 13.555 57.169 15.766 48.512 18.701 48.512 14.855 61.665 12.273 61.665 9.375 52.561 9.337 52.561 6.439 61.665 3.95 61.665 0.048 48.512"></polyline>
            </g>
            <path d="M28.993,139.088 C28.993,139.708 29.089,140.274 29.281,140.788 C29.473,141.303 29.749,141.748 30.108,142.126 C30.467,142.504 30.897,142.798 31.399,143.008 C31.901,143.219 32.461,143.324 33.081,143.324 C33.7,143.324 34.26,143.219 34.762,143.008 C35.264,142.798 35.694,142.504 36.053,142.126 C36.412,141.748 36.688,141.303 36.88,140.788 C37.072,140.274 37.168,139.708 37.168,139.088 C37.168,138.481 37.072,137.918 36.88,137.398 C36.688,136.877 36.412,136.429 36.053,136.051 C35.694,135.674 35.264,135.379 34.762,135.168 C34.26,134.958 33.7,134.852 33.081,134.852 C32.461,134.852 31.901,134.958 31.399,135.168 C30.897,135.379 30.467,135.674 30.108,136.051 C29.749,136.429 29.473,136.877 29.281,137.398 C29.089,137.918 28.993,138.481 28.993,139.088 Z M25.984,139.088 C25.984,138.035 26.16,137.082 26.513,136.227 C26.866,135.373 27.358,134.645 27.99,134.045 C28.622,133.443 29.371,132.982 30.238,132.66 C31.105,132.338 32.052,132.178 33.081,132.178 C34.108,132.178 35.056,132.338 35.923,132.66 C36.79,132.982 37.54,133.443 38.171,134.045 C38.803,134.645 39.295,135.373 39.648,136.227 C40.001,137.082 40.178,138.035 40.178,139.088 C40.178,140.14 40.001,141.095 39.648,141.949 C39.295,142.805 38.803,143.531 38.171,144.133 C37.54,144.733 36.79,145.194 35.923,145.517 C35.056,145.838 34.108,146 33.081,146 C32.052,146 31.105,145.838 30.238,145.517 C29.371,145.194 28.622,144.733 27.99,144.133 C27.358,143.531 26.866,142.805 26.513,141.949 C26.16,141.095 25.984,140.14 25.984,139.088 L25.984,139.088 Z" id="Fill-15" fill="#008BC0"></path>
            <path d="M51.733,137.955 L53.442,137.955 C53.702,137.955 53.978,137.945 54.269,137.928 C54.56,137.908 54.823,137.853 55.059,137.76 C55.293,137.667 55.489,137.521 55.644,137.323 C55.798,137.125 55.876,136.847 55.876,136.487 C55.876,136.152 55.808,135.887 55.671,135.688 C55.535,135.49 55.362,135.339 55.151,135.233 C54.94,135.129 54.699,135.057 54.427,135.02 C54.154,134.982 53.888,134.964 53.628,134.964 L51.733,134.964 L51.733,137.955 Z M48.834,132.512 L53.925,132.512 C54.594,132.512 55.229,132.576 55.83,132.707 C56.43,132.837 56.956,133.054 57.409,133.357 C57.86,133.66 58.22,134.069 58.486,134.583 C58.752,135.098 58.886,135.738 58.886,136.506 C58.886,137.436 58.644,138.224 58.161,138.875 C57.678,139.525 56.972,139.937 56.043,140.11 L59.387,145.665 L55.913,145.665 L53.164,140.407 L51.733,140.407 L51.733,145.665 L48.834,145.665 L48.834,132.512 L48.834,132.512 Z" id="Fill-16" fill="#008BC0"></path>
            <polyline id="Fill-17" fill="#008BC0" points="67.673 132.512 70.571 132.512 70.571 137.974 75.68 132.512 79.47 132.512 73.618 138.624 79.972 145.665 75.921 145.665 70.571 139.423 70.571 145.665 67.673 145.665 67.673 132.512"></polyline>
            <path d="M94.165,135.726 C93.93,135.428 93.611,135.209 93.209,135.066 C92.806,134.924 92.425,134.852 92.066,134.852 C91.855,134.852 91.639,134.877 91.416,134.927 C91.193,134.977 90.982,135.054 90.784,135.159 C90.586,135.265 90.425,135.404 90.301,135.577 C90.177,135.75 90.115,135.961 90.115,136.209 C90.115,136.605 90.264,136.908 90.561,137.119 C90.858,137.33 91.233,137.51 91.685,137.658 C92.137,137.807 92.623,137.955 93.144,138.103 C93.663,138.252 94.149,138.463 94.602,138.735 C95.054,139.008 95.429,139.373 95.726,139.832 C96.023,140.29 96.172,140.902 96.172,141.671 C96.172,142.402 96.035,143.039 95.763,143.584 C95.49,144.129 95.122,144.582 94.658,144.94 C94.193,145.3 93.654,145.566 93.041,145.739 C92.428,145.912 91.781,146 91.1,146 C90.245,146 89.453,145.869 88.722,145.609 C87.991,145.349 87.31,144.928 86.678,144.346 L88.74,142.08 C89.038,142.477 89.412,142.783 89.864,142.999 C90.316,143.216 90.784,143.324 91.267,143.324 C91.502,143.324 91.741,143.297 91.982,143.24 C92.224,143.186 92.44,143.102 92.632,142.99 C92.824,142.879 92.979,142.736 93.097,142.562 C93.214,142.389 93.273,142.184 93.273,141.949 C93.273,141.553 93.122,141.24 92.818,141.012 C92.515,140.782 92.134,140.587 91.676,140.426 C91.217,140.265 90.722,140.103 90.189,139.943 C89.657,139.782 89.161,139.565 88.703,139.293 C88.245,139.02 87.864,138.661 87.561,138.215 C87.257,137.77 87.105,137.182 87.105,136.45 C87.105,135.744 87.245,135.125 87.523,134.592 C87.802,134.061 88.174,133.614 88.638,133.255 C89.103,132.895 89.638,132.627 90.245,132.447 C90.852,132.268 91.478,132.178 92.122,132.178 C92.865,132.178 93.583,132.283 94.277,132.493 C94.97,132.703 95.596,133.057 96.153,133.553 L94.165,135.726" id="Fill-18" fill="#008BC0"></path>
            <path d="M107.913,138.085 L109.845,138.085 C110.105,138.085 110.355,138.061 110.597,138.011 C110.839,137.961 111.055,137.878 111.248,137.76 C111.439,137.643 111.594,137.481 111.712,137.277 C111.83,137.072 111.888,136.816 111.888,136.506 C111.888,136.172 111.811,135.902 111.656,135.697 C111.501,135.494 111.303,135.336 111.062,135.224 C110.82,135.113 110.551,135.041 110.253,135.01 C109.956,134.979 109.671,134.964 109.399,134.964 L107.913,134.964 L107.913,138.085 Z M105.014,132.512 L109.9,132.512 C110.582,132.512 111.226,132.574 111.833,132.697 C112.439,132.821 112.969,133.035 113.421,133.338 C113.873,133.643 114.232,134.051 114.499,134.564 C114.765,135.078 114.898,135.726 114.898,136.506 C114.898,137.273 114.774,137.918 114.526,138.437 C114.278,138.959 113.938,139.373 113.505,139.683 C113.071,139.992 112.557,140.213 111.963,140.342 C111.368,140.473 110.724,140.537 110.031,140.537 L107.913,140.537 L107.913,145.665 L105.014,145.665 L105.014,132.512 L105.014,132.512 Z" id="Fill-19" fill="#008BC0"></path>
            <path d="M127.476,136.339 L125.877,140.426 L129.092,140.426 L127.476,136.339 Z M126.361,132.512 L128.757,132.512 L134.48,145.665 L131.209,145.665 L130.076,142.879 L124.967,142.879 L123.871,145.665 L120.676,145.665 L126.361,132.512 L126.361,132.512 Z" id="Fill-20" fill="#008BC0"></path>
            <path d="M151.088,135.93 C150.803,135.584 150.454,135.316 150.039,135.131 C149.624,134.945 149.144,134.852 148.599,134.852 C148.054,134.852 147.549,134.958 147.084,135.168 C146.62,135.379 146.218,135.674 145.877,136.051 C145.536,136.429 145.27,136.877 145.078,137.398 C144.886,137.918 144.79,138.481 144.79,139.088 C144.79,139.708 144.886,140.274 145.078,140.788 C145.27,141.303 145.533,141.748 145.868,142.126 C146.202,142.504 146.595,142.798 147.047,143.008 C147.5,143.219 147.986,143.324 148.506,143.324 C149.101,143.324 149.626,143.201 150.085,142.953 C150.543,142.705 150.921,142.357 151.218,141.912 L153.633,143.715 C153.076,144.494 152.37,145.07 151.516,145.441 C150.661,145.813 149.781,146 148.877,146 C147.849,146 146.902,145.838 146.035,145.517 C145.168,145.194 144.418,144.733 143.787,144.133 C143.155,143.531 142.663,142.805 142.31,141.949 C141.957,141.095 141.781,140.14 141.781,139.088 C141.781,138.035 141.957,137.082 142.31,136.227 C142.663,135.373 143.155,134.645 143.787,134.045 C144.418,133.443 145.168,132.982 146.035,132.66 C146.902,132.338 147.849,132.178 148.877,132.178 C149.249,132.178 149.636,132.211 150.039,132.279 C150.441,132.348 150.837,132.456 151.228,132.604 C151.618,132.753 151.992,132.951 152.352,133.199 C152.71,133.447 153.033,133.75 153.318,134.109 L151.088,135.93" id="Fill-21" fill="#008BC0"></path>
            <polyline id="Fill-22" fill="#008BC0" points="162.013 132.512 170.949 132.512 170.949 135.187 164.911 135.187 164.911 137.639 170.614 137.639 170.614 140.314 164.911 140.314 164.911 142.99 171.283 142.99 171.283 145.665 162.013 145.665 162.013 132.512"></polyline>
            <path d="M219.716,135.726 C219.48,135.428 219.162,135.209 218.759,135.066 C218.356,134.924 217.976,134.852 217.617,134.852 C217.406,134.852 217.189,134.877 216.966,134.927 C216.744,134.977 216.533,135.054 216.335,135.159 C216.137,135.265 215.976,135.404 215.852,135.577 C215.728,135.75 215.666,135.961 215.666,136.209 C215.666,136.605 215.814,136.908 216.112,137.119 C216.409,137.33 216.784,137.51 217.236,137.658 C217.688,137.807 218.174,137.955 218.694,138.103 C219.214,138.252 219.7,138.463 220.152,138.735 C220.605,139.008 220.98,139.373 221.276,139.832 C221.574,140.29 221.723,140.902 221.723,141.671 C221.723,142.402 221.586,143.039 221.314,143.584 C221.041,144.129 220.673,144.582 220.209,144.94 C219.744,145.3 219.205,145.566 218.592,145.739 C217.979,145.912 217.332,146 216.65,146 C215.796,146 215.003,145.869 214.272,145.609 C213.542,145.349 212.861,144.928 212.229,144.346 L214.291,142.08 C214.588,142.477 214.963,142.783 215.415,142.999 C215.867,143.216 216.335,143.324 216.818,143.324 C217.053,143.324 217.292,143.297 217.533,143.24 C217.774,143.186 217.991,143.102 218.183,142.99 C218.375,142.879 218.53,142.736 218.648,142.562 C218.765,142.389 218.824,142.184 218.824,141.949 C218.824,141.553 218.672,141.24 218.369,141.012 C218.065,140.782 217.685,140.587 217.227,140.426 C216.768,140.265 216.272,140.103 215.74,139.943 C215.208,139.782 214.712,139.565 214.254,139.293 C213.795,139.02 213.415,138.661 213.111,138.215 C212.808,137.77 212.656,137.182 212.656,136.45 C212.656,135.744 212.795,135.125 213.074,134.592 C213.353,134.061 213.725,133.614 214.189,133.255 C214.653,132.895 215.189,132.627 215.796,132.447 C216.403,132.268 217.028,132.178 217.672,132.178 C218.416,132.178 219.134,132.283 219.828,132.493 C220.521,132.703 221.146,133.057 221.704,133.553 L219.716,135.726" id="Fill-23" fill="#008BC0"></path>
            <path d="M233.464,138.085 L235.396,138.085 C235.656,138.085 235.907,138.061 236.148,138.011 C236.39,137.961 236.606,137.878 236.799,137.76 C236.991,137.643 237.146,137.481 237.263,137.277 C237.381,137.072 237.439,136.816 237.439,136.506 C237.439,136.172 237.362,135.902 237.208,135.697 C237.052,135.494 236.855,135.336 236.613,135.224 C236.372,135.113 236.102,135.041 235.805,135.01 C235.507,134.979 235.223,134.964 234.95,134.964 L233.464,134.964 L233.464,138.085 Z M230.565,132.512 L235.452,132.512 C236.133,132.512 236.777,132.574 237.384,132.697 C237.991,132.821 238.52,133.035 238.972,133.338 C239.424,133.643 239.783,134.051 240.05,134.564 C240.316,135.078 240.449,135.726 240.449,136.506 C240.449,137.273 240.325,137.918 240.078,138.437 C239.83,138.959 239.489,139.373 239.056,139.683 C238.622,139.992 238.108,140.213 237.514,140.342 C236.919,140.473 236.275,140.537 235.582,140.537 L233.464,140.537 L233.464,145.665 L230.565,145.665 L230.565,132.512 L230.565,132.512 Z" id="Fill-24" fill="#008BC0"></path>
            <polyline id="Fill-25" fill="#008BC0" points="249.069 132.512 251.967 132.512 251.967 142.99 257.336 142.99 257.336 145.665 249.069 145.665 249.069 132.512"></polyline>
            <polygon id="Fill-26" fill="#008BC0" points="265.585 145.665 268.483 145.665 268.483 132.512 265.585 132.512"></polygon>
            <polyline id="Fill-27" fill="#008BC0" points="280.354 135.075 276.602 135.075 276.602 132.512 287.005 132.512 287.005 135.075 283.253 135.075 283.253 145.665 280.354 145.665 280.354 135.075"></polyline>
            <g id="Group-31" transform="translate(187.000000, 44.000000)">
                <mask id="mask-6" fill="white">
                    <use xlink:href="#path-5"></use>
                </mask>
                <g id="Clip-29"></g>
                <polyline id="Fill-28" fill="#008BC0" mask="url(#mask-6)" points="6.417 96.969 9.275 94.232 6.538 91.373 4.056 91.639 0.867 94.695"></polyline>
                <path d="M154.857,5.843 C154.874,5.839 154.888,5.832 154.902,5.819 L158.346,2.641 C158.372,2.617 158.384,2.583 158.379,2.548 C158.375,2.515 158.352,2.485 158.322,2.47 L154.678,0.635 C154.677,0.635 154.676,0.633 154.674,0.636 C154.664,0.628 154.649,0.624 154.635,0.623 C154.634,0.623 154.631,0.624 154.627,0.624 C154.623,0.624 154.619,0.624 154.614,0.624 L148.597,1.567 C148.583,1.571 148.572,1.573 148.559,1.582 L146.603,2.757 C146.578,2.772 146.558,2.8 146.552,2.831 L146.346,4.288 C146.344,4.302 146.346,4.316 146.35,4.329 C146.353,4.343 146.36,4.354 146.367,4.366 L148.684,7.415 C148.711,7.448 148.755,7.465 148.796,7.454 L154.857,5.843" id="Fill-30" fill="#008BC0" mask="url(#mask-6)"></path>
            </g>
            <polyline id="Fill-32" fill="#008BC0" points="325.412 36.094 329.741 28.63 322.28 24.302 317.243 26.366 312.415 34.69"></polyline>
            <polyline id="Fill-33" fill="#008BC0" points="278.056 3.577 269.981 0.538 266.942 8.61 269.809 13.237 278.815 16.627"></polyline>
            <polyline id="Fill-34" fill="#008BC0" points="300.413 19.669 303.91 13.642 299.264 7.107 291.803 14.673 286.01 19.367 300.413 19.669"></polyline>
            <polyline id="Fill-35" fill="#008BC0" points="318.071 61.728 309.161 56.886 300.32 60.393 312.241 64.747 318.071 61.728"></polyline>
            <polyline id="Fill-36" fill="#008BC0" points="283.656 69.319 286.281 71.956 288.917 69.331 288.621 67.003 285.691 64.061"></polyline>
            <polyline id="Fill-37" fill="#008BC0" points="293.026 81.977 294.107 77.789 296.475 78.546 297.075 82.593 294.556 83.512 293.026 81.977"></polyline>
            <polyline id="Fill-38" fill="#008BC0" points="294.117 72.522 295.045 68.587 298.087 65.557 299.247 70.779 294.117 72.522"></polyline>
            <polyline id="Fill-39" fill="#008BC0" points="292.121 53.385 288.309 58.961 290.036 65.059 293.728 57.452 292.121 53.385"></polyline>
            <polyline id="Fill-40" fill="#008BC0" points="272.458 46.847 272.521 41.261 266.935 41.202 264.754 43.967 264.689 50.196"></polyline>
            <polyline id="Fill-41" fill="#008BC0" points="275.897 69.54 277.687 65.606 279.888 66.761 279.775 70.851 277.134 71.32 275.897 69.54"></polyline>
            <polyline id="Fill-42" fill="#008BC0" points="278.169 39.597 280.567 34.021 285.852 30.336 286.208 38.356 278.169 39.597"></polyline>
            <polyline id="Fill-43" fill="#008BC0" points="295.093 46.128 299.035 50.085 302.992 46.141 302.549 42.647 298.149 38.233"></polyline>
        </g>
    </g>
</svg>