<svg height="128" viewBox="0 0 448 128" width="448" xmlns="http://www.w3.org/2000/svg"><g fill="none" fill-rule="evenodd"><path d="m51.272 4.56c.693 0 1.391.235 2.059.695-5.145 2.421-10.66 8.519-12.989 20.696-3.404 1.054-6.731 2.084-9.807 3.037 2.728-9.288 9.206-24.428 20.737-24.428zm4.77 4.515c.987 2.474 1.629 6.024 1.629 10.815 0 .245-.002.469-.004.696-3.908 1.21-8.152 2.524-12.407 3.842 2.389-9.22 6.867-13.673 10.782-15.353zm11.843 8.349c-1.783.552-3.81 1.179-6.007 1.859.002-.423.003-.84.003-1.295 0-3.97-.55-7.166-1.435-9.7 3.552.446 5.917 4.486 7.439 9.136zm28.832 7.067c-.086-.626-.634-.972-1.087-1.01-.452-.038-10.02-.747-10.02-.747s-6.645-6.597-7.374-7.327c-.73-.729-2.155-.508-2.708-.345-.082.024-1.452.447-3.719 1.148-2.22-6.387-6.137-12.257-13.029-12.257-.19 0-.386.008-.583.019-1.959-2.592-4.387-3.718-6.484-3.718-16.054 0-23.724 20.069-26.129 30.268-6.238 1.933-10.67 3.307-11.236 3.485-3.483 1.092-3.592 1.202-4.049 4.483-.345 2.484-9.456 72.944-9.456 72.944l70.995 13.302 38.468-8.322s-13.504-91.297-13.589-91.923z" fill="#8cb849"/><path d="m95.63 23.481c-.452-.038-10.02-.747-10.02-.747s-6.645-6.597-7.374-7.326c-.273-.273-.641-.412-1.026-.472l-5.368 109.799 38.464-8.321s-13.504-91.296-13.589-91.923c-.086-.626-.634-.972-1.087-1.01" fill="#5a873e"/><path d="m58.78 44.736-4.743 14.109s-4.156-2.218-9.25-2.218c-7.468 0-7.844 4.687-7.844 5.868 0 6.444 16.797 8.913 16.797 24.007 0 11.875-7.531 19.522-17.687 19.522-12.188 0-18.419-7.585-18.419-7.585l3.263-10.781s6.406 5.5 11.812 5.5c3.531 0 4.969-2.781 4.969-4.813 0-8.406-13.781-8.781-13.781-22.593 0-11.625 8.343-22.875 25.187-22.875 6.49 0 9.696 1.859 9.696 1.859" fill="#fffffe"/><g fill="#0a0b09"><path d="m155.149 71.186c-3.837-2.082-5.809-3.836-5.809-6.248 0-3.069 2.74-5.042 7.015-5.042 4.979 0 9.426 2.083 9.426 2.083l3.508-10.742s-3.225-2.521-12.715-2.521c-13.209 0-22.361 7.563-22.361 18.196 0 6.028 4.275 10.632 9.975 13.92 4.604 2.63 6.248 4.494 6.248 7.235 0 2.85-2.302 5.151-6.577 5.151-6.369 0-12.386-3.288-12.386-3.288l-3.727 10.742s5.557 3.726 14.907 3.726c13.593 0 23.348-6.686 23.348-18.743 0-6.467-4.933-11.071-10.852-14.469"/><path d="m209.297 48.606c-6.686 0-11.947 3.179-16.003 8.002l-.219-.11 5.809-30.362h-15.126l-14.688 77.276h15.126l5.043-26.416c1.973-9.975 7.124-16.113 11.947-16.113 3.398 0 4.714 2.301 4.714 5.59 0 2.082-.22 4.603-.658 6.686l-5.7 30.253h15.127l5.918-31.239c.658-3.289 1.097-7.235 1.097-9.865 0-8.55-4.495-13.702-12.387-13.702"/><path d="m248.43 92.889c-5.152 0-7.344-4.384-7.344-9.864 0-8.66 4.494-22.8 12.715-22.8 5.37 0 7.124 4.604 7.124 9.098 0 9.317-4.494 23.566-12.495 23.566zm7.453-44.283c-18.195 0-30.252 16.442-30.252 34.747 0 11.729 7.234 21.155 20.826 21.155 17.866 0 29.923-16.003 29.923-34.747 0-10.851-6.357-21.155-20.497-21.155z"/><path d="m300.606 93.108c-3.928 0-6.248-2.191-6.248-2.191l2.521-14.141c1.754-9.426 6.686-15.674 11.948-15.674 4.603 0 6.028 4.275 6.028 8.33 0 9.756-5.809 23.676-14.249 23.676zm14.469-44.502c-10.21 0-16.004 8.988-16.004 8.988h-.219l.877-8.111h-13.372c-.658 5.481-1.864 13.811-3.07 20.059l-10.523 55.354h15.127l4.165-22.361h.329s3.105 1.973 8.879 1.973c17.757 0 29.375-18.195 29.375-36.61 0-10.194-4.494-19.292-15.564-19.292z"/><path d="m352.234 26.903c-4.822 0-8.659 3.836-8.659 8.769 0 4.494 2.85 7.564 7.125 7.564h.219c4.713 0 8.769-3.18 8.879-8.769 0-4.385-2.96-7.564-7.564-7.564"/><path d="m331.079 103.412h15.127l10.303-53.6h-15.236z"/><path d="m394.982 49.702h-10.523l.548-2.521c.877-5.151 3.946-9.755 8.989-9.755 2.692 0 4.822.767 4.822.767l2.96-11.838s-2.631-1.315-8.221-1.315c-5.371 0-10.742 1.535-14.798 5.042-5.152 4.385-7.563 10.742-8.769 17.099l-.438 2.521h-7.015l-2.192 11.4h7.015l-8.002 42.31h15.126l8.002-42.31h10.413z"/><path d="m431.373 49.812s-9.455 23.825-13.701 36.83h-.219c-.291-4.187-3.727-36.83-3.727-36.83h-15.894l9.098 49.216c.219 1.095.11 1.753-.329 2.521-1.754 3.398-4.713 6.686-8.221 9.097-2.849 2.083-6.028 3.398-8.549 4.275l4.165 12.825c3.069-.658 9.427-3.179 14.797-8.221 6.906-6.467 13.263-16.442 19.84-30.034l18.524-39.679z"/></g></g></svg>