<svg height="81" viewBox="0 0 82 81" width="82" xmlns="http://www.w3.org/2000/svg"><g fill="none" fill-rule="evenodd"><path d="m41.248.0754c22.299 0 40.4 18.1005 40.4 40.4002s-18.101 40.4004-40.4 40.4004c-22.3 0-40.4-18.1007-40.4-40.4004s18.1-40.4002 40.4-40.4002z" fill="#fff"/><g fill="#959995"><path d="m7.402 31.237c-.222.2323-.459.6216-.56 1.0568-.127.5391.058.903.439.992.352.0821.614-.1042.965-.6412.451-.7112.98-1.1046 1.644-.95.767.1795 1.192.9489.954 1.9652-.118.5043-.314.8448-.488 1.0592l-.645-.3619c.131-.1521.338-.446.44-.8812.126-.5391-.104-.833-.381-.8979-.358-.0839-.588.1467-.968.7139-.5.7359-.998 1.0274-1.661.8722-.754-.1762-1.264-.8932-.984-2.0884.116-.4975.374-.9767.585-1.1969z"/><path d="m5.508 35.9734 4.927-1.0007-.107.9455-2.237.4039c-.621.1156-1.196.215-1.781.2706l-.001.0141c.549.1904 1.108.4319 1.665.6805l2.094.9364-.105.924-4.567-2.18z"/><path d="m7.341 42.0594-.005-1.8019-1.405.0031.005 2.0153-.717.0016-.007-2.8884 4.783-.0109.007 2.782-.717.0017-.005-1.9095-1.234.0034.004 1.8026z"/><path d="m10.123 43.5821-2.768.35c-.93.1177-1.311.5594-1.237 1.144.08.6267.556.9457 1.486.8279l2.768-.35.11.8662-2.712.3432c-1.465.1854-2.208-.4862-2.353-1.6273-.139-1.0989.385-1.8878 1.877-2.0766l2.719-.344z"/><path d="m11.321 48.6491.63-.9226.167.631-.35.511.004.0136.553.258.165.624-1-.4772zm-4.307 2.9223c-.149-.1738-.375-.5841-.524-1.1465-.387-1.4684.296-2.6037 1.703-2.9754 1.523-.4024 2.717.4197 3.09 1.8333.147.5561.141.9761.097 1.1712l-.72-.0006c.039-.2449.039-.5753-.061-.9531-.248-.9398-1.018-1.4633-2.129-1.1695-1.016.2685-1.505 1.0291-1.234 2.0512.088.3361.251.675.407.8763z"/><path d="m12.014 51.6753-4.499 1.6324-.297-.8208 4.498-1.6324z"/><path d="m12.286 52.4277.363.7945-3.689 1.6824.816 1.7895-.665.3033-1.179-2.5838z"/><path d="m14.132 56.1605-4.18 2.3226-.424-.7626 4.18-2.3234z"/><path d="m15.349 57.6162.296-1.0772.363.5428-.165.5966.009.0118.606.0642.359.5368-1.101-.1262zm-4.026 1.3601c.018.3207.141.7597.389 1.1317.308.4599.7.5735 1.024.3568.302-.2013.345-.5205.192-1.1441-.212-.8148-.138-1.4705.429-1.8496.655-.438 1.507-.2223 2.087.6452.288.431.403.8063.441 1.0803l-.704.2231c-.022-.1988-.096-.5512-.344-.9226-.309-.4605-.681-.4934-.917-.3358-.306.2053-.294.5303-.14 1.1955.197.8678.069 1.4313-.497 1.8097-.643.4305-1.516.3135-2.198-.7075-.284-.4248-.458-.9405-.474-1.2452z"/><path d="m12.775 62.7796 3.617-3.1328.656.7565-.742 2.2774c-.199.5848-.431 1.1621-.679 1.6677l.015.0058c.436-.4617.893-.877 1.446-1.3559l1.261-1.092.53.6118-3.617 3.1326-.595-.6868.776-2.3251c.197-.5746.432-1.1918.687-1.7224l-.024-.0169c-.444.4312-.912.8556-1.508 1.3717l-1.293 1.1201z"/><path d="m20.086 63.6169-3.293 3.4709-.634-.601 3.293-3.4709z"/><path d="m20.872 69.5881c.69.487 1.529.1234 2.106-.694.52-.7366.646-1.6902-.067-2.1938-.713-.504-1.563-.0872-2.112.6895-.548.7769-.617 1.7106.067 2.194zm-.44.5493c-1.108-.782-1.205-2.1199-.399-3.2622.844-1.1946 2.205-1.5108 3.307-.7327 1.136.8026 1.199 2.1415.413 3.2549-.926 1.3105-2.248 1.4975-3.315.7443z"/><path d="m24.361 71.7375c.098.0737.262.1569.421.2373 1.009.5202 1.896.2619 2.445-.8207.482-.9334.213-1.7539-.761-2.2483-.247-.1255-.428-.1928-.555-.2253zm1.055-4.009c.377.1197.827.3 1.289.5344.797.4047 1.258.8451 1.483 1.3734.247.5475.241 1.1887-.125 1.9101-.389.766-.934 1.1976-1.526 1.3588-.619.1711-1.396.0237-2.225-.3967-.449-.2278-.778-.4268-1.022-.5901z"/><path d="m30.446 69.9663.818.3043-1.081 2.9075c-.46 1.2378-1.212 1.4278-2.097 1.0988-.233-.0866-.497-.23-.652-.3635l.345-.6216c.115.0956.282.1957.475.2678.466.1728.831.0663 1.121-.7119z"/><path d="m33.846 73.7645-1.743-.4627-.361 1.3583 1.949.5177-.184.693-2.793-.7421 1.229-4.6241 2.689.7142-.184.6931-1.845-.4904-.318 1.1941 1.743.4627z"/><path d="m35.224 71.3328.862.134-.622 4.0049 1.943.3019-.112.7224-2.806-.4359z"/><path d="m39.439 76.1964 2.456-3.5517v-.0213l-2.236-.0044.001-.7241 3.365.0068-.001.511-2.42 3.5233v.0213l2.449.0044-.002.7244-3.613-.0071z"/><path d="m46.154 74.3305-.521-1.1221c-.127-.2773-.246-.5915-.35-.8577l-.014.0021c-.036.2833-.065.6233-.114.9158l-.22 1.2148zm-1.278.8256-.24 1.3964-.894.1122.926-4.9376 1.106-.1387 2.137 4.5532-.929.1166-.598-1.2909z"/><path d="m50.067 74.6566c.312.0771.768.0893 1.196-.0389.531-.159.755-.5002.643-.8742-.104-.3471-.396-.4819-1.037-.5199-.841-.0375-1.447-.3013-1.642-.954-.225-.7552.231-1.507 1.231-1.806.497-.1484.89-.1477 1.163-.1031l.006.7396c-.197-.0379-.555-.0716-.984.0565-.53.1586-.671.505-.59.7768.106.3538.42.4377 1.101.4857.888.0683 1.389.3558 1.584 1.0092.221.7413-.147 1.5407-1.324 1.8925-.49.1465-1.034.1609-1.33.0865z"/><path d="m53.359 70.2856-1.255.5313-.285-.6733 3.327-1.408.285.6731-1.269.5367 1.58 3.7319-.804.3406z"/><path d="m57.206 70.0705.45-.255c.513-.2902.674-.7407.44-1.1543-.256-.4508-.693-.4883-1.187-.2087-.241.1364-.385.2422-.448.3028zm-1.792-1.4075c.258-.22.657-.4949 1.096-.7431.599-.3396 1.056-.4677 1.473-.3936.337.0618.631.2787.834.6371.304.537.146 1.1075-.172 1.4674l.01.0186c.366-.0602.709.1286 1.035.4738.43.442.814.8608.985.9757l-.778.441c-.132-.0886-.429-.3689-.834-.8248-.431-.4738-.721-.5377-1.16-.3058l-.383.2172.969 1.7105-.754.4265z"/><path d="m59.268 66.2484 1.673 2.2316c.562.7499 1.134.8618 1.605.5084.506-.3788.547-.9507-.015-1.7001l-1.673-2.2317.698-.5239 1.639 2.1864c.886 1.1813.67 2.1591-.25 2.8486-.886.6642-1.83.6004-2.733-.6036l-1.643-2.1919z"/><path d="m67.752 65.0018c-.078.2151-.323.6139-.74 1.021-1.086 1.0619-2.411 1.0267-3.429-.0142-1.102-1.1272-.975-2.5716.071-3.594.411-.4018.78-.6037.972-.6619l.354.6267c-.232.0879-.52.2503-.799.5232-.696.6798-.772 1.6081.032 2.4306.735.7512 1.638.8016 2.395.0623.248-.2433.463-.5519.561-.787zm-4.669-2.3075-1.113-.0931.467-.4565.617.0521.01-.0095-.048-.6084.462-.4515.078 1.1052z"/><path d="m68.542 64.3375-3.764-2.9531.618-.7876 2.376.2949c.612.0825 1.223.2012 1.766.3476l.004-.0156c-.537-.3398-1.031-.7098-1.607-1.161l-1.312-1.0294.5-.6368 3.763 2.9534-.56.7146-2.43-.3183c-.602-.0842-1.253-.1978-1.822-.3465l-.012.0266c.508.3535 1.014.7325 1.634 1.2186l1.346 1.0565z"/><path d="m71.145 56.8771-.927 1.5465 1.206.7227 1.036-1.7291.615.3686-1.486 2.4779-4.103-2.46 1.431-2.387.615.369-.982 1.6375 1.059.6355.927-1.5466z"/><path d="m73.325 55.1291c.256-.1946.551-.5419.72-.9554.209-.5127.084-.9014-.277-1.0488-.335-.1366-.624.0064-1.055.4816-.557.6314-1.142.9371-1.773.6797-.729-.298-1.028-1.1248-.634-2.0907.196-.4799.443-.7853.649-.9695l.58.4585c-.153.1295-.404.3876-.573.8015-.209.5124-.028.8394.235.9466.341.1394.603-.0524 1.069-.553.609-.6479 1.147-.8576 1.778-.6002.716.2925 1.107 1.0805.643 2.2172-.193.4735-.523.9061-.766 1.09z"/><path d="m71.984 49.8225-.374 1.3111-.703-.2001.99-3.4757.703.2002-.377 1.3244 3.899 1.1103-.239.8397z"/><path d="m72.081 46.3651 2.759.4227c.926.1417 1.413-.1785 1.502-.7612.096-.6247-.275-1.0619-1.201-1.204l-2.758-.4224.131-.8634 2.702.414c1.46.2238 1.991 1.0737 1.816 2.2103-.167 1.0951-.886 1.7103-2.374 1.4821l-2.709-.4151z"/><path d="m76.706 42.0931c.023-.1207.026-.3051.028-.4822.022-1.1358-.6-1.8185-1.815-1.8351-1.049-.021-1.668.5807-1.683 1.6737-.004.2774.015.4691.042.5973zm-4.065.8181c-.059-.391-.095-.8742-.087-1.3924.012-.8948.204-1.5026.579-1.9375.383-.4633.962-.7396 1.771-.7284.859.0115 1.487.3108 1.892.7704.426.4819.636 1.2442.624 2.1742-.007.5039-.04.8864-.08 1.1773z"/><path d="m72.448 37.4542 4.767-.4078.074.8702-4.767.4078z"/><path d="m72.22 35.6923-.135-.8624 3.065-.4769c1.304-.2029 1.837.3606 1.983 1.2933.038.2456.042.5465.001.747l-.711.0027c.027-.1481.033-.3429.001-.5461-.076-.4908-.347-.7575-1.168-.6301z"/><path d="m73.876 30.8708.446 1.7468 1.362-.3477-.499-1.9534.695-.1776.714 2.7992-4.635 1.1841-.688-2.6958.694-.1775.473 1.8499 1.196-.3057-.446-1.7468z"/><path d="m11.052 27.8241c-.199.4164-.688.5999-1.123.3916-.426-.1951-.6-.7031-.398-1.1258.201-.4228.697-.603 1.126-.3981.429.2046.6.7031.398 1.1259z"/><path d="m13.492 24.0398c.288-.1417.645-.4258.89-.7995.305-.4626.257-.8681-.07-1.0826-.302-.1988-.612-.1139-1.128.2693-.668.5123-1.301.6993-1.87.3253-.659-.4329-.793-1.3024-.219-2.1746.284-.4332.586-.6852.823-.8265l.48.562c-.174.0977-.47.3024-.716.6765-.304.4626-.19.8184.048.9743.308.2025.603.0649 1.155-.3365.724-.5185 1.292-.621 1.862-.2466.646.4255.878 1.2743.204 2.3008-.281.4271-.689.7879-.963.9218z"/><path d="m16.981 20.7715-4.649-1.9135.615-.7251 2.084.9108c.58.2495 1.112.4876 1.629.7673l.009-.0108c-.35-.4647-.679-.9761-1.004-1.4934l-1.217-1.944.601-.7089 2.579 4.3543z"/><path d="m19.514 15.1339-1.323 1.2247.954 1.0311 1.479-1.3694.488.5263-2.121 1.9621-3.249-3.5101 2.041-1.8901.488.5258-1.402 1.2974.839.906 1.323-1.2246z"/><path d="m19.51 11.7404 1.619 2.2713c.544.763 1.114.8887 1.593.5469.514-.367.569-.9379.025-1.7009l-1.619-2.2712.711-.5067 1.587 2.2251c.856 1.2022.617 2.1749-.319 2.8421-.902.6429-1.844.5563-2.717-.6689l-1.591-2.2311z"/><path d="m28.315 11.8291c-.136.1836-.485.495-1.001.766-1.345.7061-2.604.2932-3.28-.9953-.733-1.3951-.198-2.7428 1.097-3.4226.509-.2671.92-.3548 1.12-.3554l.16.7017c-.247.0177-.57.0907-.915.2723-.862.4518-1.2 1.3193-.665 2.3373.488.93 1.339 1.2368 2.275.7454.308-.1618.602-.3965.763-.5933zm-3.811-3.5471-1.04-.4082.578-.3033.576.2266.013-.0068.128-.5963.572-.2999-.242 1.0809z"/><path d="m27.974 6.9886 1.821 4.423-.808.3323-1.82-4.4231z"/><path d="m29.189 6.5108.832-.2645 1.226 3.8626 1.874-.5953.221.6967-2.705.8593z"/><path d="m33.687 5.2506 1.064 4.6637-.852.1945-1.064-4.664z"/><path d="m36.014 4.5594-.841-.7356.647-.0903.465.4082.014-.0021.323-.5174.639-.0889-.593.9351zm-.531 4.2152c.296.1238.744.2046 1.187.143.548-.0764.821-.3794.768-.7659-.05-.3585-.318-.5361-.946-.671-.826-.1647-1.384-.5168-1.477-1.1918-.109-.7803.457-1.4535 1.49-1.597.514-.0717.901-.0112 1.164.074l-.106.7312c-.188-.0665-.537-.1541-.98-.0926-.549.0761-.74.3967-.701.6778.051.3655.348.4961 1.014.6473.867.2019 1.318.5617 1.411 1.2364.107.7663-.378 1.5002-1.594 1.6693-.506.0703-1.046.0024-1.328-.116z"/><path d="m39.966 5.1985-1.363.0332-.018-.7312 3.612-.0883.018.7312-1.376.0334.099 4.053-.873.021z"/><path d="m45.595 7.3569-1.796-.1579-.123 1.4002 2.009.1768-.063.7143-2.879-.253.419-4.7672 2.773.2439-.063.7143-1.903-.1675-.108 1.2307 1.797.1579z"/><path d="m49.707 5.4203-.722 2.6948c-.242.9054.023 1.4245.592 1.5766.611.1641 1.086-.1572 1.328-1.0623l.722-2.6946.844.2259-.708 2.6399c-.382 1.4262-1.284 1.8604-2.395 1.5628-1.07-.2865-1.602-1.0686-1.213-2.5223l.709-2.6466z"/><path d="m53.741 10.7354c.182.2656.514.5774.919.7668.501.2347.896.1288 1.061-.2249.154-.3278.025-.623-.428-1.0779-.603-.5874-.879-1.1871-.591-1.8039.334-.714 1.175-.971 2.12-.5292.47.2194.763.4819.936.6966l-.487.5557c-.121-.159-.367-.4224-.772-.6115-.501-.2347-.837-.0703-.957.1871-.156.3341.022.6059.499 1.095.617.6412.8 1.1888.511 1.8063-.328.7007-1.135 1.0521-2.247.532-.463-.2165-.879-.5675-1.051-.8201z"/><path d="m58.599 11.4784c.078.0899.189.1671.34.2604.555.3443 1.064.2764 1.356-.1941.277-.4464.113-.882-.4-1.1999-.204-.1271-.361-.1988-.45-.2293zm.435-2.3443c.302.12.692.3124 1.186.6188.543.3369.864.6947.989 1.0725.118.3486.076.7656-.159 1.1458-.24.3855-.555.6246-.913.7034-.485.1083-1.033-.0311-1.557-.3568-.139-.0856-.256-.1667-.344-.2543l-.954 1.5378-.735-.4563z"/><path d="m62.739 11.4691.685.5417-2.515 3.1774 1.542 1.2195-.454.5732-2.226-1.7612z"/><path d="m66.299 14.4874-3.267 3.4949-.638-.5962 3.267-3.4947z"/><path d="m67.313 16.5611-.913-1.0112.542-.4899 2.421 2.6814-.543.4898-.922-1.022-3.008 2.715-.586-.648z"/><path d="m70.499 19.2608-2.293 1.5875c-.77.533-.904 1.1005-.569 1.5847.36.5192.93.5821 1.7.0487l2.293-1.587.497.7176-2.247 1.555c-1.213.84-2.182.5874-2.837-.3578-.629-.9101-.53-1.851.707-2.7073l2.252-1.559z"/><path d="m71.501 27.2995c-.203-.4147-.042-.9118.391-1.1235.419-.212.925-.0328 1.13.3886.206.4207.039.9209-.388 1.1296-.428.2089-.924.0327-1.13-.3883z"/></g><path d="m41.256 2.3055c-21.144 0-38.346 17.2023-38.346 38.3469 0 21.1442 17.202 38.3466 38.346 38.3466s38.347-17.2024 38.347-38.3466c0-21.1446-17.203-38.3469-38.347-38.3469zm0 .7343c20.74 0 37.612 16.8728 37.612 37.6126 0 20.7391-16.872 37.6116-37.612 37.6116-20.739 0-37.612-16.8725-37.612-37.6116 0-20.7398 16.873-37.6126 37.612-37.6126z" fill="#006bb0"/><path d="m41.256 11.1009c-16.295 0-29.551 13.2565-29.551 29.5514 0 16.2946 13.256 29.5511 29.551 29.5511s29.551-13.2565 29.551-29.5511c0-16.2949-13.256-29.5514-29.551-29.5514zm0 59.3474c-16.429 0-29.796-13.3666-29.796-29.796 0-16.4298 13.367-29.7963 29.796-29.7963 16.43 0 29.796 13.3665 29.796 29.7963 0 16.4294-13.366 29.796-29.796 29.796z" fill="#006bb0"/><path d="m44.739 54.666-.131-5.5791 1.348-.0179-.033-1.3048-1.329.0061-.14-5.2948.363.2797.605-.0281.582-.5502.023-.7954-.596-.4644h-.712l-.331.2249-.019-2.0505.318.2408.636.0176.622-.5794-.04-.746-.544-.5377-.786.0257-.238.2245-.202-5.2152 1.371-.0004-.051-1.3348-1.345.0233-.169-4.6374 1.378-.0561-.071-1.6812-1.754.0708.055 1.3457c-.553.0067-1.124.0151-1.695.0236-.576.0088-1.151.0172-1.708.024l.005-1.2861h-1.383l-.012 1.3176c-.636.0071-1.329.0064-2.001.0057-.647-.0011-1.315-.0017-1.933.0047l.279-.2885.006-.6682-.578-.464-.734.0203-.528.4511.02.6693.338.2943c-.344.0033-.735.004-1.126.0051-.397.0006-.794.0016-1.143.005l.309-.3193v-.6063l-.565-.4881-.796.0129-.491.4772.013.719.304.2256c-.627.007-1.291.0105-1.934.0135-.676.0034-1.375.0071-2.03.0145l.018-1.2438-1.409.0064-.011 1.2746c-.56.0071-1.149.0129-1.736.0186-.555.0054-1.109.0109-1.638.0173l.061-1.275-1.725.0192-.058 1.6149 1.343-.0125-.12 4.7168-1.324-.0003v1.3047l1.293.0119-.029 5.2792-.255-.3676h-.744l-.532.5262.006.7708.596.5123.713-.0193.251-.2695-.013 1.989-.267-.2196h-.74l-.6.5226-.007.6794.506.5705.756.0058.266-.2134-.052 5.0882h-1.372l-.013 1.3957 1.354.0121-.06 5.5058-1.395-.0119-.052 1.8457h1.785l.048-1.3664 23.33.0125-.007 1.3539h1.718v-1.8094z" fill="#006bb0"/><path d="m70.821 40.1625h-26.445v-.2448h26.445z" fill="#006bb0"/><path d="m49.17 36.8583h-5.629v-.2448h5.629c2.223 0 3.175-.456 4.096-.8973.876-.4197 1.704-.8161 3.492-.8161h13.479v.2449h-13.479c-1.733 0-2.536.3849-3.386.792-.946.4529-1.923.9213-4.202.9213z" fill="#006bb0"/><path d="m49.17 33.642h-5.629v-.2449h5.629c2.201 0 3.148-.9303 4.063-1.8299.843-.8282 1.714-1.6849 3.525-1.6849h12.116v.2449h-12.116c-1.71 0-2.508.7842-3.353 1.6144-.951.9345-1.934 1.9004-4.235 1.9004z" fill="#006bb0"/><path d="m70.481 45.1804h-13.723c-1.788 0-2.616-.3963-3.492-.816-.921-.4413-1.873-.8972-4.096-.8972h-5.629v-.2448h5.629c2.279 0 3.256.4683 4.202.9212.85.4072 1.653.792 3.386.792h13.723z" fill="#006bb0"/><path d="m69.364 50.1983h-12.606c-1.811 0-2.682-.8564-3.525-1.685-.915-.8996-1.862-1.83-4.063-1.83h-5.629v-.2448h5.629c2.301 0 3.284.9662 4.235 1.9004.845.8302 1.643 1.6145 3.353 1.6145h12.606z" fill="#006bb0"/></g></svg>