<svg xmlns="http://www.w3.org/2000/svg" width="300" height="30" viewBox="0 0 300 30">
  <path d="M131.3.1c1.1 0 1.9.4 1.9 1.5v2.5c0 1.1-.6 1.5-1.9 1.5h-7.8v22.1c0 1.1-.4 1.9-1.5 1.9h-3.4c-1.1 0-1.5-.8-1.5-1.9V5.5h-5.5c-1.3 0-1.9-.4-1.9-1.5V1.5c0-1.1.8-1.5 1.9-1.5h19.7zm5.1 1.9c0-1.3.6-1.9 2.1-1.9h16.4c1.1 0 1.9.4 1.9 1.5v2.5c0 1.1-.6 1.5-1.9 1.5h-12.2V24h12.2c1.3 0 1.9.4 1.9 1.5V28c0 1.1-.8 1.5-1.9 1.5h-16.4c-1.5 0-2.1-.6-2.1-1.9V2zm4.4 9.8h11.8c1.1 0 1.9.4 1.9 1.5v2.5c0 1.1-.6 1.5-1.9 1.5h-11.8v-5.5zM170.9 24h7.4c1.1 0 1.9.4 1.9 1.5V28c0 1.1-.6 1.5-1.9 1.5h-7.4c-7.2 0-11.4-5.3-11.4-12.4v-4.6c0-7.2 4.2-12.4 11.4-12.4h7.6c1.1 0 1.9.4 1.9 1.5v2.5c0 1.1-.6 1.5-1.9 1.5h-7.6c-3.8 0-5.1 3.6-5.1 7.4v3.8c0 3.7 1.3 7.2 5.1 7.2zm36.8-6.5H186V12h21.7v5.5zM190.2 2.2v25.5c0 1.1-.4 1.9-1.5 1.9h-3.4c-1.1 0-1.5-.8-1.5-1.9V2.2c0-1.1.4-1.9 1.5-1.9h3.4c1.1 0 1.5.8 1.5 1.9zm19 0v25.5c0 1.1-.4 1.9-1.5 1.9h-3.4c-1.1 0-1.5-.8-1.5-1.9V2.2c0-1.1.4-1.9 1.5-1.9h3.4c1 0 1.5.8 1.5 1.9zm16.2 22.1h7.4c1.1 0 1.9.4 1.9 1.5v2.5c0 1.1-.6 1.5-1.9 1.5h-7.4c-7.2 0-11.4-5.3-11.4-12.4v-4.6C214 5.6 218.2.4 225.4.4h7.6c1.1 0 1.9.4 1.9 1.5v2.5c0 1.1-.6 1.5-1.9 1.5h-7.6c-3.8 0-5.1 3.6-5.1 7.4v3.8c0 3.6 1.3 7.2 5.1 7.2zm19.8-21.9v25.5c0 1.1-.4 1.9-1.5 1.9h-3.4c-1.1 0-1.5-.8-1.5-1.9V2.4c0-1.1.4-1.9 1.5-1.9h3.4c1 0 1.5.8 1.5 1.9zM270.4.5c1.1 0 1.9.4 1.9 1.5v2.5c0 1.1-.6 1.5-1.9 1.5h-6.7v22c0 1.1-.4 1.9-1.5 1.9h-3.4c-1.1 0-1.5-.8-1.5-1.9V6h-7.6c-1.3 0-1.9-.4-1.9-1.5V2c0-1.1.8-1.5 1.9-1.5h20.7zm14.1 20.8L274 2.6c-.6-1.1-.4-2.1.8-2.1h3.4c1.5 0 2.1.8 2.7 1.9l6.1 11.4 5.9-11.4c.6-1.1 1.3-1.9 2.5-1.9h3.4c1.3 0 1.5 1.1.8 2.1l-10.9 18.7 1.1-2.7V28c0 1.1-.4 1.9-1.5 1.9h-3.4c-1.1 0-1.5-.6-1.5-1.9v-9l1.1 2.3z" fill="#414042"/>
  <path d="M68.6 29.5H54.9c-1.5 0-2.1-.6-2.1-1.9V2c0-1.1.4-1.9 1.5-1.9h3.4c1.1 0 1.5.8 1.5 1.9v22h9.5c1.3 0 1.9.4 1.9 1.5V28c-.1 1.1-.9 1.5-2 1.5zM80 27.6c0 1.1-.4 1.9-1.5 1.9h-3.4c-1.1 0-1.5-.8-1.5-1.9V2c0-1.1.4-1.9 1.5-1.9h3.4c1 0 1.5.8 1.5 1.9v25.6zM104.6.1c1.1 0 1.9.4 1.9 1.5v2.5c0 1.1-.6 1.5-1.9 1.5h-5.7v22.1c0 1.1-.4 1.9-1.5 1.9H94c-1.1 0-1.5-.8-1.5-1.9V5.5H85c-1.3 0-1.9-.4-1.9-1.5V1.5C83.1.4 83.9 0 85 0h19.6zM16 21.5c0-1.3-1.3-2.3-4-3.4-4.8-1.8-12-4.2-12-9.4C0 3.9 2.9.1 9.9.1h8.8c1.1 0 1.9.4 1.9 1.5v2.5c0 1.1-.8 1.5-1.9 1.5h-8.4c-1.9-.1-4.2.4-4.2 2.2 0 1.5 1.5 2.3 3.6 3.2 5.3 2.1 12.4 4.6 12.4 9.9 0 5.7-3.8 8.6-9.9 8.6H2.3C1.2 29.5.4 29.1.4 28v-2.5c0-1.1.8-1.5 1.9-1.5h9.5c1.9 0 4.2-.6 4.2-2.5zM37.7.1h-9.5c-1.3 0-2.1.8-2.1 2.5v25c0 1.1.4 1.9 1.5 1.9H31c1.1 0 1.5-.8 1.5-1.9v-6.7l5.9-1.3c5.7-1.3 11.2-3.2 11.2-9V8.1c-.1-6.1-5.8-8-11.9-8zm5.2 10.3c0 2.5-2.3 3.4-4.8 4l-5.7 1.3V5.5h5.7c2.5 0 4.8.8 4.8 3.4v1.5z" fill="#008eff"/>
</svg>
