<svg height="36" viewBox="0 0 312 36" width="312" xmlns="http://www.w3.org/2000/svg"><g fill="none"><g fill="#418aca" transform="translate(19 3)"><path d="m.5 5.7h7v23h7v-23h7v-5h-21z"/><path d="m43.7 17.7c-.4-.3-.8-.6-1.2-.8.9-.3 1.7-.8 2.3-1.3.7-.5 1.3-1.1 1.7-1.8.5-.7.8-1.4 1.1-2.2.2-.8.4-1.6.4-2.5 0-1.2-.2-2.2-.6-3.2s-1-1.8-1.9-2.6c-.9-.7-2-1.5-3.4-1.9s-3.1-.9-5-.9h-8.5v28h6v-10h1.6c.5 0 .9-.1 1.1 0s.5.3.7.7l4.5 8c.5.8 1.2 1.3 2.3 1.3h5.7l-5.8-9.6c-.3-.3-.6-.9-1-1.2zm-2.1-6.4c-.2.5-.5 1-.8 1.4-.4.4-.9.6-1.5.8s-1.3.2-2.2.2h-2.5v-8h2.5c1.6 0 2.8.4 3.6 1.1s1.2 1.7 1.2 2.9c-.1.5-.1 1.1-.3 1.6z"/><path d="m65.1.7-10.5 28h4.9c.5 0 1-.3 1.3-.6.4-.3.6-.5.7-.8l1.6-4.6h10.4l1.6 4.5c.1.4.4.8.7 1 .4.3.8.4 1.4.4h4.9l-10.5-28h-6.5zm-.5 17 2.5-7.3c.2-.5.4-1 .6-1.6s.4-1.3.6-2.1c.2.7.4 1.5.6 2.1s.4 1.1.6 1.5l2.5 7.3h-7.4z"/><path d="m103.1 1.3c-.4.3-.6.7-.7 1.1l-5.2 14.6c-.2.6-.5 1.4-.7 2.1s-.4 1.5-.6 2.4c-.2-.8-.4-1.6-.7-2.3-.2-.7-.5-1.4-.7-2.1l-5.3-14.6c-.1-.4-.4-1-.7-1.2s-.8-.6-1.3-.6h-5.1l10.9 28h5.7l10.9-28h-5.1c-.6 0-1 .3-1.4.6z"/><path d="m115.5 28.7h18v-5h-12v-7h9v-4h-9v-7h12v-5h-18z"/><path d="m146.5 23.7v-23h-6v28h16v-5z"/></g><g fill="#a8cae7" transform="translate(181 2)"><path d="m16.5 15.9c-.6-.5-1.4-1-2.2-1.4s-1.6-.7-2.5-1-1.7-.6-2.5-.8c-.8-.3-1.5-.6-2.2-.9-.6-.4-1.1-.8-1.5-1.3s-.6-1.2-.6-1.9c0-.6.1-1.2.3-1.7s.6-1 1-1.4 1-.7 1.6-.9c.7-.2 1.4-.3 2.3-.3s1.7.1 2.3.3 1.2.5 1.6.7c.5.3.8.5 1.1.7s.6.3.8.3.4 0 .5-.1.3-.2.4-.4l.9-1.8c-1-.9-2.1-1.7-3.4-2.2s-2.7-.7-4.3-.7c-1.4 0-2.6.2-3.7.6s-2 1-2.7 1.7-1.3 1.5-1.7 2.5c-.4.9-.6 1.9-.6 2.9 0 1.2.2 2.3.6 3.1s.9 1.5 1.5 2.1 1.3 1 2.1 1.4 1.6.7 2.5.9c.8.3 1.7.5 2.5.8s1.5.6 2.1.9c.6.4 1.1.8 1.5 1.4.4.5.6 1.2.6 2.1 0 .8-.1 1.5-.4 2.1s-.6 1.2-1.1 1.6c-.5.5-1.1.8-1.8 1s-1.5.4-2.4.4c-1.1 0-2-.1-2.8-.4s-1.4-.6-1.9-1-1-.7-1.3-1c-.4-.3-.7-.4-.9-.4s-.3 0-.5.1c-.1.1-.3.2-.4.4l-1.1 1.8c1.1 1.1 2.3 2 3.8 2.7s3.2 1 5 1c1.5 0 2.8-.2 4-.7s2.2-1.1 3-1.9 1.4-1.7 1.8-2.8.6-2.2.6-3.5c0-1.2-.2-2.1-.6-2.9s-.7-1.6-1.3-2.1z"/><path d="m49.6 5c-1.2-1.3-2.7-2.3-4.4-3s-3.6-1.1-5.7-1.1-3.9.4-5.6 1.1-3.2 1.7-4.4 3-2.2 2.8-2.8 4.5c-.7 1.8-1 3.7-1 5.8s.3 4 1 5.8 1.6 3.3 2.8 4.5c1.2 1.3 2.7 2.3 4.4 3s3.6 1 5.6 1 3.9-.3 5.7-1c1.7-.7 3.2-1.7 4.4-2.9 1.2-1.3 2.2-2.8 2.8-4.5.7-1.8 1-3.7 1-5.8s-.3-4-1-5.8-1.6-3.4-2.8-4.6zm-.8 14.9c-.5 1.4-1.1 2.5-2 3.5-.9.9-1.9 1.7-3.1 2.2s-2.6.8-4.1.8-2.9-.3-4.1-.8-2.3-1.2-3.1-2.2c-.9-.9-1.5-2.1-2-3.5s-.7-2.9-.7-4.6.2-3.3.7-4.6c.5-1.4 1.1-2.5 2-3.5s1.9-1.7 3.1-2.2 2.6-.8 4.1-.8 2.9.3 4.1.8 2.3 1.2 3.1 2.2c.9.9 1.5 2.1 2 3.5s.7 2.9.7 4.6-.2 3.3-.7 4.6z"/><path d="m62.5 29.7h4v-12h11v-3h-11v-10h13v-3h-17z"/><path d="m85.5 1.7v3h9v25h4v-25h9v-3z"/></g><g fill="#8db9df"><path d="m6.2.9c-.9.3-1.7.7-2.3 1.3s-1.1 1.2-1.4 2.1c-.3.8-.4 1.7-.4 2.7 0 .6 0 1.1.1 1.7s.1 1.1.2 1.7.2 1.1.2 1.7.1 1.1.1 1.7c0 .4 0 .7-.1 1s-.2.6-.3.8-.5.4-.7.5c-.3.1-.1.2-1.1.2v3.2c1 0 1.4.2 1.7.7s.5 1.1.5 1.8c0 .5 0 1.1-.1 1.7s-.1 1.1-.2 1.7-.2 1.1-.2 1.7-.1 1.1-.1 1.7c0 1 .1 1.9.4 2.7s.7 1.5 1.4 2.1c.6.6 1.4 1.2 2.3 1.5s2.1.6 3.4.6h.9v-2.8c0-.2 0-.4-.1-.5s-.2-.2-.3-.3-.2-.2-.4-.2c-.1 0-.3-.1-.4-.1-.8 0-1.4-.2-1.7-.7-.4-.5-.5-1.2-.5-2 0-.7 0-1.3.1-1.9s.1-1.2.2-1.8.1-1.1.2-1.7c.1-.5.1-1.1.1-1.7 0-.5-.1-.9-.2-1.4-.1-.4-.3-.8-.6-1.2s-.6-.7-.9-1c-.4-.3-.8-.5-1.3-.6.5-.1.9-.4 1.3-.6.4-.3.7-.6.9-1 .3-.4.4-.8.6-1.2.1-.4.2-.9.2-1.4 0-.6 0-1.1-.1-1.7-.1-.5-.1-1.1-.2-1.7s-.1-1.2-.2-1.8-.1-1.3-.1-1.9c0-.9.2-1.5.6-2s.9-.7 1.7-.7c.1 0 .2 0 .4-.1.1 0 .3-.1.4-.2s.2-.2.3-.3.1-.3.1-.5v-2h-.9c-1.4 0-2.6-.1-3.5.2z"/><path d="m310.4 16c-.3-.1-.5-.3-.7-.5-.1-.2-.3-.5-.4-.8s-.1-.6-.1-1c0-.5 0-1.1.1-1.7s.1-1.1.2-1.7.2-1.1.2-1.7.1-1.1.1-1.7c0-1-.1-1.9-.4-2.8-.3-.8-.7-1.5-1.4-2.1-.6-.6-1.4-.8-2.3-1.2s-2.1-.3-3.4-.3h-.8v2.1c0 .2 0 .4.1.5s.2.2.3.3.2.2.4.2c.1 0 .2.1.3.1.8 0 1.4.2 1.7.7.4.5.5 1.2.5 2 0 .7 0 1.3-.1 1.9s-.1 1.2-.2 1.8-.1 1.1-.2 1.7c-.1.5-.1 1.1-.1 1.7 0 .5.1.9.2 1.4.1.4.3.8.6 1.2s.6.7.9 1c.4.3.8.5 1.3.6-.5.1-.9.4-1.3.6-.4.3-.7.6-.9 1-.3.4-.4.8-.6 1.2-.1.4-.2.9-.2 1.4 0 .6 0 1.1.1 1.7s.1 1.1.2 1.7.1 1.2.2 1.8.1 1.3.1 1.9c0 .9-.2 1.5-.5 2-.4.5-.9.7-1.7.7-.1 0-.2 0-.4.1s-.3.1-.4.2-.2.2-.3.3-.1.3-.1.5v2.8h.8c1.3 0 2.5-.3 3.4-.6s1.7-.8 2.3-1.4 1.1-1.3 1.4-2.2c.3-.8.4-1.8.4-2.8 0-.6 0-1.2-.1-1.7s-.1-1.1-.2-1.7-.2-1.1-.2-1.7c-.1-.6-.1-1.1-.1-1.7 0-.7.3-1.3.6-1.8s.7-.7 1.7-.7v-3.2c-.9.1-.7.1-1-.1z"/></g></g></svg>