<svg height="316" viewBox="0 0 3001 316" width="3001" xmlns="http://www.w3.org/2000/svg"><path d="m276.495142 70.4951283h-110.056045v235.4962677h-59.169916v-235.4962677h-106.50585028v-59.1699166h275.73181128zm369.220279-59.1699166-121.890028 176.3263513v118.339833h-57.986518v-118.339833l-123.073427-176.3263513h73.370697l78.10429 115.9730363 80.471086-115.9730363zm169.225962 59.1699166v87.5714767c26.034763-14.20078 57.986518-16.567577 92.30507-16.567577h26.034763c28.40156 0 46.152535-4.733593 46.152535-36.685348 0-28.4015601-22.484569-34.3185517-46.152535-34.3185517zm0 235.4962677h-57.986519v-294.6661843h186.976937c56.803119 0 95.855269 36.6853483 95.855269 93.4884683 0 57.986518-40.235548 94.671866-106.505854 94.671866h-26.034763c-54.436324 0-67.453705 3.550195-92.30507 16.567577zm407.089027-105.322451v46.152535h184.61014v59.169916h-241.41326v-294.6661843h231.94607v57.9865182h-175.14295v71.0039001c26.03476-14.20078 57.98652-16.567577 92.30507-16.567577h42.60234v57.986518h-42.60234c-53.25293 1.183399-66.27031 4.733594-92.30507 18.934374zm466.25894 35.50195 29.58496-52.069527c22.48457 2.366797 39.05214 14.20078 61.53671 31.951755 14.20078-15.384178 22.48457-35.50195 22.48457-59.169917 0-66.2703061-60.35331-94.671866-115.97304-94.671866-56.80312 0-112.42284 29.5849582-112.42284 97.038663 0 67.453705 56.80312 97.038663 113.60624 97.038663 13.01738 0 26.03477-1.183398 37.86875-5.916991h-1.1834c-11.83398-7.10039-22.48457-13.017382-35.50195-14.20078zm171.59276-80.471087c0 37.868747-11.83398 69.820502-30.76836 94.671867 9.46719 4.733593 20.11777 9.467186 30.76836 9.467186l-29.58496 50.886129c-18.93437-1.183399-33.13515-9.467187-48.51933-20.117772-28.40156 15.384178-61.53671 24.851365-95.85527 24.851365-88.75487 0-172.77615-57.986518-172.77615-157.391978 0-99.40546 85.20468-156.20857994 173.95955-156.20857994 87.57148 0 172.77616 52.06952654 172.77616 153.84178294zm300.58318 52.069527h8.28378l-56.80312-108.8726468-69.8205 134.9074098c17.75098-9.467187 56.80312-26.034763 118.33984-26.034763zm-80.47109-165.6757667-18.93437-36.68534824h62.72011l158.57537 300.58317594h-63.90351l-23.66796-43.785738h-35.50195c-72.1873 0-147.92479 28.40156-157.39198 41.418942l-1.1834 3.550195h-61.53671zm541.99643-3.550195-39.05214 44.9691366c-22.48457-18.9343733-53.25293-26.0347633-87.57148-26.0347633-28.40156 0-59.16991 14.20078-59.16991 31.951755 0 17.7509754 7.10039 29.5849584 63.90351 29.5849584 125.44022 0 144.37459 42.60234 144.37459 89.938273 0 71.0039-65.08691 104.139053-149.10819 104.139053-50.88613 0-100.58886-24.851365-133.72401-62.720111l42.60234-42.60234c17.75098 18.934373 39.05215 48.519331 91.12167 48.519331 53.25293 0 91.12167-16.567576 91.12167-47.335933 0-27.218162-29.58495-31.951755-91.12167-31.951755-71.0039 0-121.89002-23.667967-121.89002-87.5714764 0-53.2529249 56.80311-88.75487487 121.89002-88.75487487 43.78574 1.18339833 84.02128 8.28378832 126.62362 37.86874657zm378.68747 31.951755h-111.23944v235.4962677h-57.98652v-235.4962677h-106.50585v-59.1699166h275.73181z" fill="#4ac3cf"/></svg>