<?xml version="1.0" encoding="UTF-8"?>
<svg width="116px" height="34px" viewBox="0 0 116 34" version="1.1" xmlns="http://www.w3.org/2000/svg" xmlns:xlink="http://www.w3.org/1999/xlink">
    <!-- Generator: Sketch 46.2 (44496) - http://www.bohemiancoding.com/sketch -->
    <title>Appstore</title>
    <desc>Created with Sketch.</desc>
    <defs>
        <rect id="path-1" x="0" y="0" width="116" height="34" rx="3.2"></rect>
    </defs>
    <g id="Page-1" stroke="none" stroke-width="1" fill="none" fill-rule="evenodd">
        <g id="Desktop" transform="translate(-799.000000, -4823.000000)">
            <g id="5-Get-ticket-section" transform="translate(0.000000, 4457.000000)">
                <g id="download" transform="translate(799.000000, 322.000000)">
                    <g id="Appstore" transform="translate(0.000000, 44.000000)">
                        <g id="backfround-copy">
                            <use fill="#000000" fill-rule="evenodd" xlink:href="#path-1"></use>
                            <rect stroke="#8F8F8F" stroke-width="0.5" x="0.25" y="0.25" width="115.5" height="33.5" rx="3.2"></rect>
                        </g>
                        <path d="M44.5250705,26.1113689 L46.4747251,26.1113689 L42.2067837,14.4390453 L40.2325537,14.4390453 L35.9646124,26.1113689 L37.8487324,26.1113689 L38.9382452,23.0133093 L43.4437495,23.0133093 L44.5250705,26.1113689 Z M41.1254627,16.5583445 L41.2647238,16.5583445 L42.9768154,21.4925908 L39.4051793,21.4925908 L41.1254627,16.5583445 Z M51.6442666,17.1569252 C50.4318763,17.1569252 49.3833226,17.7555059 48.8426621,18.758533 L48.7115929,18.758533 L48.7115929,17.3025259 L47.0158849,17.3025259 L47.0158849,28.9667606 L48.7771275,28.9667606 L48.7771275,24.7766957 L48.9163885,24.7766957 C49.3833226,25.7069225 50.3909172,26.2569696 51.6606502,26.2569696 C53.9134023,26.2569696 55.3469719,24.5016722 55.3469719,21.702903 C55.3469719,18.9041337 53.9134023,17.1569252 51.6442666,17.1569252 L51.6442666,17.1569252 Z M51.1445652,24.6958064 C49.6700365,24.6958064 48.7443602,23.5471786 48.7443602,21.7109919 C48.7443602,19.8667162 49.6700365,18.7180884 51.152757,18.7180884 C52.6436693,18.7180884 53.5365783,19.8424494 53.5365783,21.702903 C53.5365783,23.5714454 52.6436693,24.6958064 51.1445652,24.6958064 L51.1445652,24.6958064 Z M60.7786518,17.1569252 C59.5662616,17.1569252 58.5177079,17.7555059 57.9770473,18.758533 L57.8459781,18.758533 L57.8459781,17.3025259 L56.1502702,17.3025259 L56.1502702,28.9667606 L57.9115127,28.9667606 L57.9115127,24.7766957 L58.0507738,24.7766957 C58.5177079,25.7069225 59.5253024,26.2569696 60.7950355,26.2569696 C63.0477876,26.2569696 64.4813571,24.5016722 64.4813571,21.702903 C64.4813571,18.9041337 63.0477876,17.1569252 60.7786518,17.1569252 L60.7786518,17.1569252 Z M60.2789504,24.6958064 C58.8044218,24.6958064 57.8787454,23.5471786 57.8787454,21.7109919 C57.8787454,19.8667162 58.8044218,18.7180884 60.2871423,18.7180884 C61.7780546,18.7180884 62.6709636,19.8424494 62.6709636,21.702903 C62.6709636,23.5714454 61.7780546,24.6958064 60.2789504,24.6958064 L60.2789504,24.6958064 Z M68.2096366,22.9728647 C68.3407058,25.0598082 70.1019484,26.3944814 72.7233327,26.3944814 C75.5249372,26.3944814 77.2779879,24.9950968 77.2779879,22.7625526 C77.2779879,21.0072551 76.2785852,20.0365837 73.8538047,19.4784477 L72.5513044,19.1629794 C71.0112411,18.8070666 70.3886623,18.3298198 70.3886623,17.4966602 C70.3886623,16.4450995 71.3552978,15.7575406 72.805251,15.7575406 C74.1814777,15.7575406 75.1317295,16.4289217 75.3037579,17.5047491 L77.0895759,17.5047491 C76.9830822,15.5391395 75.2300314,14.1559328 72.8298264,14.1559328 C70.2494013,14.1559328 68.5291178,15.5391395 68.5291178,17.6179941 C68.5291178,19.3328469 69.5039451,20.3520519 71.6420117,20.8454765 L73.1656913,21.2094783 C74.7303301,21.5734801 75.4184434,22.1073494 75.4184434,22.9971315 C75.4184434,24.0325143 74.3371224,24.7847847 72.8625937,24.7847847 C71.2815713,24.7847847 70.1838667,24.0810479 70.028222,22.9728647 L68.2096366,22.9728647 Z M78.7939751,15.1670488 L78.7939751,17.3429706 L77.3276382,17.3429706 L77.3276382,18.8070666 L78.7939751,18.8070666 L78.7939751,23.7817575 C78.7939751,25.4804325 79.5721985,26.1599025 81.5300449,26.1599025 C81.8741016,26.1599025 82.1935828,26.1194578 82.4721049,26.0709243 L82.4721049,24.6230061 C82.2263501,24.6472729 82.0870891,24.6634507 81.8167588,24.6634507 C80.9402335,24.6634507 80.5552176,24.2590043 80.5552176,23.3368665 L80.5552176,18.8070666 L82.5540232,18.8070666 L82.5540232,17.3429706 L80.5552176,17.3429706 L80.5552176,15.1670488 L78.7939751,15.1670488 Z M86.9207657,24.7362511 C85.3888943,24.7362511 84.5287526,23.6280679 84.5287526,21.702903 C84.5287526,19.7939159 85.3888943,18.6776437 86.9207657,18.6776437 C88.4444453,18.6776437 89.3127789,19.7939159 89.3127789,21.702903 C89.3127789,23.619979 88.4444453,24.7362511 86.9207657,24.7362511 L86.9207657,24.7362511 Z M86.9207657,26.2812364 C89.5257664,26.2812364 91.1231724,24.5582947 91.1231724,21.702903 C91.1231724,18.8636891 89.5175745,17.1326584 86.9207657,17.1326584 C84.3157651,17.1326584 82.7101672,18.8636891 82.7101672,21.702903 C82.7101672,24.5582947 84.3075733,26.2812364 86.9207657,26.2812364 L86.9207657,26.2812364 Z M91.9264707,26.1113689 L93.6877133,26.1113689 L93.6877133,20.910188 C93.6877133,19.6725819 94.6297733,18.8394223 95.9568491,18.8394223 C96.2517548,18.8394223 96.7924153,18.8960448 96.9316763,18.9445784 L96.9316763,17.2297256 C96.7432644,17.181192 96.4073995,17.1569252 96.1534529,17.1569252 C94.9902136,17.1569252 94.0071945,17.7878616 93.7532479,18.653377 L93.6221787,18.653377 L93.6221787,17.3025259 L91.9264707,17.3025259 L91.9264707,26.1113689 Z M100.897019,18.6129323 C102.19952,18.6129323 103.05147,19.5108034 103.092429,20.8940101 L98.5869245,20.8940101 C98.6852264,19.5188923 99.5945191,18.6129323 100.897019,18.6129323 L100.897019,18.6129323 Z M103.084237,23.733224 C102.756564,24.4207829 102.027491,24.8009625 100.962554,24.8009625 C99.55356,24.8009625 98.6442673,23.8222022 98.5869245,22.2772169 L98.5869245,22.1801497 L104.886439,22.1801497 L104.886439,21.5734801 C104.886439,18.8070666 103.387335,17.1326584 100.905211,17.1326584 C98.3903207,17.1326584 96.7929147,18.9203116 96.7929147,21.7352587 C96.7929147,24.5502057 98.3575534,26.2812364 100.913403,26.2812364 C102.953168,26.2812364 104.378545,25.310565 104.779945,23.733224 L103.084237,23.733224 Z" id="App-Store" fill="#FFFFFF"></path>
                        <path d="M37.6151483,5.32806156 L37.6151483,10.8863109 L39.6475013,10.8863109 C41.3248752,10.8863109 42.2961917,9.86556518 42.2961917,8.08985281 C42.2961917,6.34110354 41.3170734,5.32806156 39.6475013,5.32806156 L37.6151483,5.32806156 Z M38.4889431,6.11384317 L39.5499796,6.11384317 C40.7163395,6.11384317 41.4067934,6.84569859 41.4067934,8.10140843 C41.4067934,9.37637761 40.7280421,10.1005293 39.5499796,10.1005293 L38.4889431,10.1005293 L38.4889431,6.11384317 Z M45.370857,10.2314929 C44.6413944,10.2314929 44.2318031,9.70378662 44.2318031,8.7870414 C44.2318031,7.87799993 44.6413944,7.34644178 45.370857,7.34644178 C46.0964187,7.34644178 46.5099109,7.87799993 46.5099109,8.7870414 C46.5099109,9.69993474 46.0964187,10.2314929 45.370857,10.2314929 L45.370857,10.2314929 Z M45.370857,10.9672002 C46.6113335,10.9672002 47.3720031,10.1467517 47.3720031,8.7870414 C47.3720031,7.4350348 46.6074326,6.61073448 45.370857,6.61073448 C44.1303805,6.61073448 43.3658101,7.4350348 43.3658101,8.7870414 C43.3658101,10.1467517 44.1264796,10.9672002 45.370857,10.9672002 L45.370857,10.9672002 Z M53.9457483,6.69162377 L53.1070614,6.69162377 L52.3502927,9.89252828 L52.2839779,9.89252828 L51.4101832,6.69162377 L50.606604,6.69162377 L49.7328093,9.89252828 L49.6703954,9.89252828 L48.9097258,6.69162377 L48.0593363,6.69162377 L49.2295971,10.8863109 L50.0916893,10.8863109 L50.965484,7.79711064 L51.0317988,7.79711064 L51.9094944,10.8863109 L52.7793883,10.8863109 L53.9457483,6.69162377 Z M55.0114659,10.8863109 L55.8501528,10.8863109 L55.8501528,8.4326693 C55.8501528,7.77785129 56.263645,7.369553 56.9384954,7.369553 C57.5626345,7.369553 57.8669023,7.70466575 57.8669023,8.37874311 L57.8669023,10.8863109 L58.7055893,10.8863109 L58.7055893,8.1707421 C58.7055893,7.1731076 58.1711702,6.61073448 57.2232589,6.61073448 C56.5835163,6.61073448 56.0881058,6.89192104 55.8813598,7.35799739 L55.8189459,7.35799739 L55.8189459,6.69162377 L55.0114659,6.69162377 L55.0114659,10.8863109 Z M60.1223851,10.8863109 L60.961072,10.8863109 L60.961072,5.05457874 L60.1223851,5.05457874 L60.1223851,10.8863109 Z M64.2112765,10.2314929 C63.4818139,10.2314929 63.0722226,9.70378662 63.0722226,8.7870414 C63.0722226,7.87799993 63.4818139,7.34644178 64.2112765,7.34644178 C64.9368382,7.34644178 65.3503304,7.87799993 65.3503304,8.7870414 C65.3503304,9.69993474 64.9368382,10.2314929 64.2112765,10.2314929 L64.2112765,10.2314929 Z M64.2112765,10.9672002 C65.451753,10.9672002 66.2124225,10.1467517 66.2124225,8.7870414 C66.2124225,7.4350348 65.4478521,6.61073448 64.2112765,6.61073448 C62.9708,6.61073448 62.2062296,7.4350348 62.2062296,8.7870414 C62.2062296,10.1467517 62.9668991,10.9672002 64.2112765,10.9672002 L64.2112765,10.9672002 Z M68.8072809,10.258456 C68.3508792,10.258456 68.0193053,10.0388994 68.0193053,9.66141604 C68.0193053,9.29163646 68.2845644,9.09519105 68.8696948,9.05667235 L69.9073261,8.99119055 L69.9073261,9.34171077 C69.9073261,9.86171331 69.4392218,10.258456 68.8072809,10.258456 L68.8072809,10.258456 Z M68.5927331,10.9556446 C69.1505574,10.9556446 69.6147609,10.7168286 69.8683174,10.2969747 L69.9346322,10.2969747 L69.9346322,10.8863109 L70.7421122,10.8863109 L70.7421122,8.02051914 C70.7421122,7.13458889 70.1413783,6.61073448 69.0764409,6.61073448 C68.1129261,6.61073448 67.4263731,7.07295896 67.340554,7.79325877 L68.1519348,7.79325877 C68.2455557,7.49666473 68.5693279,7.32718242 69.0374322,7.32718242 C69.61086,7.32718242 69.9073261,7.57755402 69.9073261,8.02051914 L69.9073261,8.38259498 L68.7565696,8.44807678 C67.7462444,8.50970671 67.1767175,8.9449681 67.1767175,9.69993474 C67.1767175,10.466457 67.7735505,10.9556446 68.5927331,10.9556446 L68.5927331,10.9556446 Z M73.6880488,10.9556446 C74.2731792,10.9556446 74.7685897,10.6821618 75.0221462,10.2237892 L75.088461,10.2237892 L75.088461,10.8863109 L75.8920401,10.8863109 L75.8920401,5.05457874 L75.0533531,5.05457874 L75.0533531,7.35799739 L74.9909392,7.35799739 C74.7607879,6.89577291 74.2692784,6.6222901 73.6880488,6.6222901 C72.6153097,6.6222901 71.9248558,7.4619979 71.9248558,8.7870414 C71.9248558,10.1159368 72.607508,10.9556446 73.6880488,10.9556446 L73.6880488,10.9556446 Z M73.9260019,7.36570113 C74.6281584,7.36570113 75.0689566,7.91651863 75.0689566,8.79089327 C75.0689566,9.66911978 74.6320592,10.2122335 73.9260019,10.2122335 C73.2160436,10.2122335 72.7908488,9.67682352 72.7908488,8.7870414 C72.7908488,7.90496302 73.2199445,7.36570113 73.9260019,7.36570113 L73.9260019,7.36570113 Z M81.526456,10.2314929 C80.7969934,10.2314929 80.3874021,9.70378662 80.3874021,8.7870414 C80.3874021,7.87799993 80.7969934,7.34644178 81.526456,7.34644178 C82.2520177,7.34644178 82.6655099,7.87799993 82.6655099,8.7870414 C82.6655099,9.69993474 82.2520177,10.2314929 81.526456,10.2314929 L81.526456,10.2314929 Z M81.526456,10.9672002 C82.7669325,10.9672002 83.527602,10.1467517 83.527602,8.7870414 C83.527602,7.4350348 82.7630316,6.61073448 81.526456,6.61073448 C80.2859795,6.61073448 79.521409,7.4350348 79.521409,8.7870414 C79.521409,10.1467517 80.2820786,10.9672002 81.526456,10.9672002 L81.526456,10.9672002 Z M84.7337509,10.8863109 L85.5724378,10.8863109 L85.5724378,8.4326693 C85.5724378,7.77785129 85.98593,7.369553 86.6607804,7.369553 C87.2849195,7.369553 87.5891873,7.70466575 87.5891873,8.37874311 L87.5891873,10.8863109 L88.4278743,10.8863109 L88.4278743,8.1707421 C88.4278743,7.1731076 87.8934551,6.61073448 86.9455439,6.61073448 C86.3058013,6.61073448 85.8103908,6.89192104 85.6036448,7.35799739 L85.5412308,7.35799739 L85.5412308,6.69162377 L84.7337509,6.69162377 L84.7337509,10.8863109 Z M92.4863389,5.67472992 L92.4863389,6.71088312 L91.7880832,6.71088312 L91.7880832,7.40807171 L92.4863389,7.40807171 L92.4863389,9.77697216 C92.4863389,10.585865 92.8569215,10.9094221 93.7892293,10.9094221 C93.9530658,10.9094221 94.1051997,10.8901628 94.2378293,10.8670516 L94.2378293,10.1775667 C94.1208032,10.1891223 94.0544884,10.1968261 93.9257597,10.1968261 C93.5083667,10.1968261 93.3250258,10.0042325 93.3250258,9.56511927 L93.3250258,7.40807171 L94.276838,7.40807171 L94.276838,6.71088312 L93.3250258,6.71088312 L93.3250258,5.67472992 L92.4863389,5.67472992 Z M95.4712842,10.8863109 L96.3099712,10.8863109 L96.3099712,8.43652117 C96.3099712,7.80096251 96.7351659,7.37340487 97.421719,7.37340487 C98.0536598,7.37340487 98.3696303,7.71236949 98.3696303,8.38259498 L98.3696303,10.8863109 L99.2083172,10.8863109 L99.2083172,8.17844584 C99.2083172,7.18081134 98.6621955,6.61458635 97.7064824,6.61458635 C97.0667398,6.61458635 96.5752303,6.89577291 96.3684842,7.36570113 L96.3021694,7.36570113 L96.3021694,5.05457874 L95.4712842,5.05457874 L95.4712842,10.8863109 Z M102.333694,7.31562681 C102.953932,7.31562681 103.359623,7.74318445 103.379127,8.40185434 L101.233649,8.40185434 C101.280459,7.74703633 101.713456,7.31562681 102.333694,7.31562681 L102.333694,7.31562681 Z M103.375226,9.75386093 C103.219191,10.0812699 102.872014,10.2623079 102.364901,10.2623079 C101.693951,10.2623079 101.260955,9.79623151 101.233649,9.06052422 L101.233649,9.01430177 L104.233417,9.01430177 L104.233417,8.72541147 C104.233417,7.40807171 103.519558,6.61073448 102.337595,6.61073448 C101.140028,6.61073448 100.379358,7.4619979 100.379358,8.80244888 C100.379358,10.1428999 101.124424,10.9672002 102.341496,10.9672002 C103.312812,10.9672002 103.991563,10.5049757 104.182706,9.75386093 L103.375226,9.75386093 Z" id="Download-on-the" fill="#FFFFFF"></path>
                        <g id="logo_apple" transform="translate(10.385675, 5.285383)" fill="#FFFFFF">
                            <path d="M15.4459565,11.8766678 C15.4202471,9.05526954 17.7855112,7.6826501 17.893668,7.61874626 C16.55412,5.69025097 14.4778649,5.42675706 13.7482501,5.40574758 C12.0044441,5.2245408 10.3129434,6.43608755 9.42463957,6.43608755 C8.51860512,6.43608755 7.15068815,5.42325548 5.67638748,5.45301891 C3.77921164,5.48190695 2.00437704,6.56652141 1.03096626,8.25078149 C-0.977912463,11.6849563 0.520324535,16.7316087 2.44498283,19.5074864 C3.40775525,20.8678504 4.53276279,22.38491 6.00529039,22.3315109 C7.44590289,22.2737348 7.98402707,21.4246016 9.7225139,21.4246016 C11.4450432,21.4246016 11.9503657,22.3315109 13.4521488,22.2964951 C14.9982585,22.2737348 15.9716693,20.9317542 16.9007535,19.5591348 C18.0133496,18.0026824 18.4601611,16.466364 18.4778918,16.3875785 C18.4424305,16.3761983 15.4760986,15.2583189 15.4459565,11.8766678" id="Fill-2"></path>
                            <path d="M12.6090581,3.5796735 C13.383886,2.62286671 13.9140314,1.32115427 13.7668673,0.00018313952 C12.6454058,0.0492052623 11.2429142,0.766153809 10.4352846,1.70195112 C9.72074084,2.52657325 9.08243869,3.87818321 9.24733341,5.14925683 C10.5070936,5.2420487 11.800542,4.52159857 12.6090581,3.5796735" id="Fill-3"></path>
                        </g>
                    </g>
                </g>
            </g>
        </g>
    </g>
</svg>