<?xml version="1.0" encoding="UTF-8"?>
<svg width="119px" height="35px" viewBox="0 0 119 35" version="1.1" xmlns="http://www.w3.org/2000/svg" xmlns:xlink="http://www.w3.org/1999/xlink">
    <!-- Generator: Sketch 46.2 (44496) - http://www.bohemiancoding.com/sketch -->
    <title>Playstore</title>
    <desc>Created with Sketch.</desc>
    <defs>
        <rect id="path-1" x="0" y="0" width="119" height="34.9360517" rx="4"></rect>
        <linearGradient x1="50%" y1="0%" x2="50%" y2="38.9125982%" id="linearGradient-2">
            <stop stop-color="#FBDA09" offset="0%"></stop>
            <stop stop-color="#FFBC00" offset="100%"></stop>
        </linearGradient>
        <path d="M11.7055549,3.05148833 L19.6275451,16.8955864 L19.6275451,16.8955864 C20.3187096,18.103433 19.899856,19.6428856 18.6920094,20.3340501 C18.3109655,20.5520944 17.8795645,20.6667984 17.4405454,20.6667984 L1.596795,20.6667984 L1.596795,20.6667984 C0.205176606,20.6667984 -0.922953001,19.5386688 -0.922953001,18.1470504 C-0.922953001,17.708042 -0.808254584,17.2766511 -0.590220394,16.8956137 L7.33153979,3.05151571 L7.33153979,3.05151571 C8.02268916,1.84366046 9.56213657,1.42478758 10.7699918,2.11593695 C11.1596141,2.33888355 11.4826034,2.66186882 11.7055549,3.05148833 Z" id="path-3"></path>
        <linearGradient x1="0%" y1="58.4755255%" x2="69.3064856%" y2="39.0830098%" id="linearGradient-5">
            <stop stop-color="#01E2FF" offset="0%"></stop>
            <stop stop-color="#01C4FF" offset="100%"></stop>
        </linearGradient>
        <linearGradient x1="20.2810876%" y1="20.1019903%" x2="83.820166%" y2="83.6214476%" id="linearGradient-6">
            <stop stop-color="#28D781" offset="0%"></stop>
            <stop stop-color="#02F076" offset="100%"></stop>
        </linearGradient>
        <linearGradient x1="74.4881466%" y1="17.4301299%" x2="10.1079427%" y2="91.1838038%" id="linearGradient-7">
            <stop stop-color="#F2414E" offset="0%"></stop>
            <stop stop-color="#E02554" offset="100%"></stop>
        </linearGradient>
    </defs>
    <g id="Page-1" stroke="none" stroke-width="1" fill="none" fill-rule="evenodd">
        <g id="Desktop" transform="translate(-980.000000, -4822.000000)">
            <g id="5-Get-ticket-section" transform="translate(0.000000, 4457.000000)">
                <g id="download" transform="translate(799.000000, 322.000000)">
                    <g id="Playstore" transform="translate(181.000000, 43.000000)">
                        <g id="background">
                            <use fill="#000000" fill-rule="evenodd" xlink:href="#path-1"></use>
                            <rect stroke="#8F8F8F" stroke-width="0.5" x="0.25" y="0.25" width="118.5" height="34.4360517" rx="4"></rect>
                        </g>
                        <g id="get-it-on" transform="translate(36.492266, 5.886364)" fill="#FFFFFF">
                            <path d="M26.5689307,5.72727273 C24.9778158,5.72727273 23.6879623,4.44517906 23.6879623,2.86363636 C23.6879623,1.28209367 24.9778158,0 26.5689307,0 C28.1600456,0 29.4498991,1.28209367 29.4498991,2.86363636 C29.4498991,4.44517906 28.1600456,5.72727273 26.5689307,5.72727273 Z M26.5689307,4.85227273 C27.6738716,4.85227273 28.5696032,3.9619299 28.5696032,2.86363636 C28.5696032,1.76534283 27.6738716,0.875 26.5689307,0.875 C25.4639898,0.875 24.5682582,1.76534283 24.5682582,2.86363636 C24.5682582,3.9619299 25.4639898,4.85227273 26.5689307,4.85227273 Z" id="o"></path>
                            <path d="M7.04236718,3.18181818 L7.04236718,4.93181818 L9.36314728,4.93181818 L9.36314728,5.56818182 L6.16207128,5.56818182 L6.16207128,5.25 L6.16207128,0.596590909 L6.16207128,0.238636364 L9.36314728,0.238636364 L9.36314728,0.875 L7.04236718,0.875 L7.04236718,2.54545455 L9.12306658,2.54545455 L9.12306658,3.18181818 L7.04236718,3.18181818 Z" id="e"></path>
                            <path d="M12.4841964,0.875 L12.4841964,5.56818182 L11.6039005,5.56818182 L11.6039005,0.875 L10.2434432,0.875 L10.2434432,0.238636364 L13.8446537,0.238636364 L13.8446537,0.875 L12.4841964,0.875 Z" id="t"></path>
                            <path d="M20.3268325,0.875 L20.3268325,5.56818182 L19.4465367,5.56818182 L19.4465367,0.875 L18.0860794,0.875 L18.0860794,0.238636364 L21.6872898,0.238636364 L21.6872898,0.875 L20.3268325,0.875 Z" id="t"></path>
                            <rect id="i" x="16.4055145" y="0.238636364" width="1" height="5.32954545"></rect>
                            <path d="M30.6903161,0.238636364 L30.1701412,0.238636364 L30.1701412,5.56818182 L31.0504371,5.56818182 L31.0504371,1.40853659 L33.6112979,5.56818182 L34.0514459,5.56818182 L34.4915938,5.56818182 L34.4915938,0.238636364 L33.6112979,0.238636364 L33.6112979,4.13830377 L31.2104909,0.238636364 L30.6903161,0.238636364 Z" id="n"></path>
                            <g id="g" transform="translate(0.000000, 0.079545)">
                                <polygon id="Rectangle-1" points="2.86362351 2.55898613 5.27383996 2.55898613 5.24997643 3.31720424 2.86362351 3.31720424"></polygon>
                                <path d="M4.79954794,0.774973876 C4.33042663,0.283186686 3.64417106,0 2.82782821,0 C1.26606182,0 0,1.25708433 0,2.80777644 C0,4.35846855 1.26606332,5.61332939 2.82782821,5.61555289 C4.41568508,5.62976022 5.74006434,4.51797849 5.47523509,2.5871694 C5.47523509,2.57775599 5.47519509,2.56836152 5.47511521,2.55898613 L4.77107547,2.55898613 C4.77680767,2.63959508 4.77880645,2.72255286 4.77690061,2.80777644 C4.77857851,4.1868134 3.97853585,4.83364046 2.85169174,4.83364046 C1.72484763,4.83364046 0.811359994,3.92663024 0.811359994,2.80777644 C0.811359994,1.68892264 1.72484763,0.781912427 2.85169174,0.781912427 C3.41543378,0.781912427 3.90402021,0.973361804 4.24802292,1.3225881 L4.79954794,0.774973876 Z" id="Oval-1"></path>
                            </g>
                        </g>
                        <g id="googleplay" transform="translate(36.092132, 15.272727)" fill="#FFFFFF">
                            <g id="big-P" transform="translate(49.936785, 0.397727)">
                                <path d="M0.400134499,2.79573778e-07 L4.93709101,0 C4.93709101,0 7.54889181,0.44169478 7.54889161,3.42282489 C7.54889141,6.40395501 4.93709101,6.84564979 4.93709101,6.84564979 L0.400134499,6.84565007 L0.400134499,2.79573778e-07 Z M1.2804304,1.65589079 L1.2804304,5.32954545 L4.36033814,5.32954545 C4.36033814,5.32954545 5.76193679,5.32954545 5.76193679,3.49271812 C5.76193679,1.65589079 4.36033814,1.65589079 4.36033814,1.65589079 L1.2804304,1.65589079 Z" id="Combined-Shape"></path>
                                <rect id="Rectangle-6" x="0" y="0" width="1.600538" height="11.1363636"></rect>
                            </g>
                            <rect id="y" x="58.4196369" y="0.397727273" width="1.600538" height="11.1363636"></rect>
                            <path d="M65.9524104,10.7378515 C65.5115658,11.0993925 64.8067659,11.4396625 63.6936043,11.5087669 C61.1434112,11.6670811 61.1420825,9.35397046 61.1420825,9.19798695 C61.1420825,9.04200344 61.0162981,7.1556341 63.0449096,6.85578502 C64.4813662,6.64346237 65.4874506,6.99723273 65.9524104,7.22185627 L65.9524104,6.89465035 C65.8383895,6.4613004 65.4845544,5.66505016 64.4237716,5.66505016 C62.9664137,5.66505016 62.6445798,6.44823109 62.6445798,6.44823109 L61.3113973,5.66505016 C61.3113973,5.66505016 62.0574221,4.13636363 64.2959161,4.13636364 C67.0792662,4.13636364 67.5531145,6.04460976 67.5531145,6.68730441 C67.5531145,6.69043274 67.5530589,6.69354085 67.5529484,6.69662884 L67.5529484,11.5305176 L65.9524104,11.5305176 L65.9524104,10.7378515 Z M65.8380751,8.35250577 C65.8380751,8.35250577 62.7546168,7.52640609 62.6474323,9.24820779 C62.5402478,10.9700095 65.6055751,10.1432495 65.8794562,8.9226851 C65.8794561,8.53455143 65.8380751,8.35250577 65.8380751,8.35250577 Z" id="a"></path>
                            <path d="M70.5562489,11.1115789 L69.0632145,14.6363636 L70.6637525,14.6363636 L74.9939581,4.41352983 L73.3934201,4.41352983 L71.3565179,9.22228822 L69.3032952,4.375 L67.7027572,4.375 L70.5562489,11.1115789 Z" id="y"></path>
                            <path d="M46.3536088,6.97817719 L41.2915901,9.05761414 C41.2915901,9.05761414 41.6185139,10.2077475 43.1404462,10.2154561 C44.3321759,10.2214923 45.0049141,9.16551218 45.0049141,9.16551218 L46.2892162,10.0300471 C46.2892162,10.0300471 45.2528548,11.6960758 43.1303301,11.6960758 C40.52204,11.6960758 39.3732347,9.42905931 39.3732347,7.95678399 C39.3732347,6.53828472 40.2850906,4.13636364 42.9684732,4.13636364 C45.6518557,4.13636364 46.3536088,6.97817719 46.3536088,6.97817719 Z M44.4276177,6.38910307 C44.4276177,6.38910307 43.7907455,5.42594723 42.8140087,5.60357445 C40.7479005,5.97931239 41.0079027,7.77648766 41.0079027,7.77648766 L44.4276177,6.38910307 Z" id="e"></path>
                            <rect id="i" x="36.9724277" y="0.397727273" width="1.69327303" height="11.1129679"></rect>
                            <path d="M34.2627085,4.37788454 L35.8279745,4.3913254 L35.8279745,11.4032675 C35.8279745,13.1947995 34.7548938,15.0859333 32.2286021,15.0859333 C29.7023103,15.0859333 28.886411,12.8610728 28.886411,12.8610728 L30.3239617,12.2601333 C30.3239617,12.2601333 30.7624054,13.6313133 32.3033053,13.6313114 C34.0580528,13.6313094 34.2629031,12.0444819 34.2629031,11.5013062 L34.2629031,10.7403481 C34.2629031,10.7403481 33.6557449,11.6849 32.1476736,11.6849021 C30.5126165,11.6849044 28.5696032,10.292453 28.5696032,7.9185996 C28.5696032,5.54474617 30.3991999,4.18692864 32.1665925,4.13753767 C33.5822577,4.09797596 34.2627085,5.07139737 34.2627085,5.07139737 L34.2627085,4.37788454 Z M32.2813223,10.259992 C33.4227784,10.259992 34.3481114,9.22067674 34.3481114,7.93861644 C34.3481114,6.65655615 33.4227784,5.61724092 32.2813223,5.61724092 C31.1398662,5.61724092 30.2145332,6.65655615 30.2145332,7.93861644 C30.2145332,9.22067674 31.1398662,10.259992 32.2813223,10.259992 Z" id="g"></path>
                            <path d="M24.05667,11.6931818 C21.95254,11.6931818 20.2468056,10.0015304 20.2468056,7.91477273 C20.2468056,5.82801501 21.95254,4.13636364 24.05667,4.13636364 C26.1607999,4.13636364 27.8665343,5.82801501 27.8665343,7.91477273 C27.8665343,10.0015304 26.1607999,11.6931818 24.05667,11.6931818 Z M24.0317689,10.2114528 C25.2144825,10.2114528 26.1732613,9.18319409 26.1732613,7.91477273 C26.1732613,6.64635137 25.2144825,5.61809269 24.0317689,5.61809269 C22.8490553,5.61809269 21.8902765,6.64635137 21.8902765,7.91477273 C21.8902765,9.18319409 22.8490553,10.2114528 24.0317689,10.2114528 Z" id="o"></path>
                            <path d="M15.8138993,11.6931818 C13.7097693,11.6931818 12.004035,10.0015304 12.004035,7.91477273 C12.004035,5.82801501 13.7097693,4.13636364 15.8138993,4.13636364 C17.9180292,4.13636364 19.6237636,5.82801501 19.6237636,7.91477273 C19.6237636,10.0015304 17.9180292,11.6931818 15.8138993,11.6931818 Z M15.7889982,10.2114528 C16.9717118,10.2114528 17.9304906,9.18319409 17.9304906,7.91477273 C17.9304906,6.64635137 16.9717118,5.61809269 15.7889982,5.61809269 C14.6062846,5.61809269 13.6475059,6.64635137 13.6475059,7.91477273 C13.6475059,9.18319409 14.6062846,10.2114528 15.7889982,10.2114528 Z" id="o"></path>
                            <g id="big-g">
                                <polygon id="Rectangle-1" points="5.97625775 5.3342246 11.0062747 5.3342246 10.9564725 6.91473559 5.97625775 6.91473559"></polygon>
                                <path d="M10.0164479,1.6154385 C9.03741209,0.590304642 7.60522657,0 5.90155453,0 C2.64221596,0 0,2.62040114 0,5.85282977 C0,9.08525839 2.6422191,11.7010246 5.90155453,11.7056595 C9.21534277,11.7352748 11.9792647,9.41775797 11.4265776,5.39297284 C11.4265776,5.37335051 11.4264941,5.35376768 11.4263274,5.3342246 L9.95702708,5.3342246 C9.96898993,5.50225453 9.97316128,5.67518061 9.96918387,5.85282977 C9.97268559,8.72744202 8.30303134,10.0757576 5.95135668,10.0757576 C3.59968202,10.0757576 1.69327303,8.1850884 1.69327303,5.85282977 C1.69327303,3.52057114 3.59968202,1.62990196 5.95135668,1.62990196 C7.1278618,1.62990196 8.14752044,2.02897954 8.86543914,2.75694421 L10.0164479,1.6154385 Z" id="Oval-1"></path>
                            </g>
                        </g>
                        <g id="logo_play" transform="translate(8.722932, 6.204545)">
                            <mask id="mask-4" fill="white">
                                <use xlink:href="#path-3"></use>
                            </mask>
                            <use id="yellow" fill="url(#linearGradient-2)" transform="translate(9.518885, 11.224786) rotate(-270.000000) translate(-9.518885, -11.224786) " xlink:href="#path-3"></use>
                            <polygon id="blue" fill="url(#linearGradient-5)" mask="url(#mask-4)" points="2.77555756e-17 -0.00784406599 11.1867078 11.0438316 -0.144493014 22.5323237"></polygon>
                            <polygon id="green" fill="url(#linearGradient-6)" mask="url(#mask-4)" points="-2.30040287 -2.2829908 11.1853802 11.0470642 15.1948606 7.24509771"></polygon>
                            <polygon id="red" fill="url(#linearGradient-7)" mask="url(#mask-4)" points="11.1872172 11.044521 17.3253298 17.1942302 -1.01169809 23.3439394"></polygon>
                        </g>
                    </g>
                </g>
            </g>
        </g>
    </g>
</svg>