<?xml version="1.0" encoding="UTF-8"?>
<svg width="120px" height="83px" viewBox="0 0 120 83" version="1.1" xmlns="http://www.w3.org/2000/svg" xmlns:xlink="http://www.w3.org/1999/xlink">
    <!-- Generator: Sketch 46.2 (44496) - http://www.bohemiancoding.com/sketch -->
    <title>Combined Shape</title>
    <desc>Created with Sketch.</desc>
    <defs></defs>
    <g id="Page-1" stroke="none" stroke-width="1" fill="none" fill-rule="evenodd">
        <g id="Desktop" transform="translate(-149.000000, -8609.000000)" fill-rule="nonzero" fill="#156CF0">
            <g id="12-footer" transform="translate(-1.000000, 8554.000000)">
                <g id="footer-/-Shift_Logo" transform="translate(150.000000, 55.000000)">
                    <path d="M120,83 L0,83 L0,0 L120,0 L120,83 Z M4.24801951,78.6641902 L115.747613,78.6641902 L115.747613,4.32988052 L4.24801951,4.32988052 L4.24801951,78.6641902 Z M25.3658537,67 L25.3658537,70 L12.6829268,70 L12.6829268,67 L25.3658537,67 Z M11.7073171,29.5041793 L15.3556134,26.0364672 C16.6229763,27.7851172 18.3574123,28.699386 20.3495928,28.699386 C21.9800765,28.699386 22.9882708,28.1076263 22.9882708,27.1134699 C22.9882708,26.1459427 22.4713576,25.7420667 20.7625537,25.3662993 L18.4343084,24.8277979 C14.8885403,24.0215253 13.1042643,22.0051039 13.1042643,18.8332717 C13.1042643,15.2043051 16.0021109,13 20.6856576,13 C23.7643526,13 26.4557187,13.9941564 28.2926829,15.8759524 L25.2139879,19.4516606 C23.945201,18.0003698 22.0313406,17.1127302 20.2712726,17.1127302 C18.8472694,17.1127302 17.9686594,17.623123 17.9686594,18.4575043 C17.9686594,19.3451439 18.5638927,19.7741697 20.452121,20.2046749 L23.0907991,20.8215844 C26.583879,21.6278571 28.1118345,23.4031363 28.1118345,26.6015978 C28.1118345,30.5797026 25.0844036,33 20.1374163,33 C16.5660162,32.9985206 13.4616891,31.7351135 11.7073171,29.5041793 Z M30.2439024,13 L35.5402463,13 L35.5402463,21.5777171 C36.3784855,19.7334548 37.7418865,18.822708 39.6290065,18.822708 C42.4611294,18.822708 43.902439,20.7246509 43.902439,24.4222829 L43.902439,33 L38.6075379,33 L38.6075379,25.0006072 C38.6075379,23.6223437 38.1357578,22.931694 37.1647855,22.931694 C36.1159045,22.931694 35.5388036,23.8136005 35.5388036,25.4423194 L35.5388036,33 L30.2439024,33 L30.2439024,13 Z M47.804878,13 L53.6585366,13 L53.6585366,17.6156172 L47.804878,17.6156172 L47.804878,13 Z M47.8611783,19.263512 L53.6022364,19.263512 L53.6022364,33 L47.8611783,33 L47.8611783,19.263512 Z M64.3888534,22.8215765 L61.6077537,22.8215765 L61.6077537,33 L56.5044359,33 L56.5044359,22.8215765 L54.6341463,22.8215765 L54.6341463,19.3193556 L56.5044359,19.3193556 L56.5044359,18.4987578 C56.5044359,14.8324174 58.3997553,13 62.1639736,13 C62.9123131,13.0085521 63.6578583,13.1003796 64.3888534,13.2740345 L64.3888534,17.0773922 C64.0058494,16.9948565 63.6168055,16.949506 63.2263537,16.9418806 C62.1903941,16.9418806 61.6091443,17.5155462 61.6091443,18.5017692 L61.6091443,19.3223669 L64.3902439,19.3223669 L64.3902439,22.8245878 L64.3888534,22.8215765 Z M66.3414634,20.155884 L68.5678239,20.155884 L68.5678239,17.0626523 L73.987565,15 L73.987565,20.155884 L77.0731707,20.155884 L77.0731707,23.6299819 L73.987565,23.6299819 L73.987565,27.6746325 C73.987565,28.9232765 74.6858863,29.6282525 75.9467032,29.6282525 C76.3237834,29.6321552 76.7005422,29.6046801 77.0731707,29.5461049 L77.0731707,33.728166 C75.8669794,33.9178524 75.1420835,34 74.390613,34 C70.445762,34 68.5693003,32.4526374 68.5693003,29.2205015 L68.5693003,23.6299819 L66.3414634,23.6299819 L66.3414634,20.155884 Z" id="Combined-Shape"></path>
                </g>
            </g>
        </g>
    </g>
</svg>