<?xml version="1.0" encoding="UTF-8"?>
<svg width="1440px" height="805px" viewBox="0 0 1440 805" version="1.1" xmlns="http://www.w3.org/2000/svg" xmlns:xlink="http://www.w3.org/1999/xlink">
    <!-- Generator: Sketch 46.2 (44496) - http://www.bohemiancoding.com/sketch -->
    <title>visual key</title>
    <desc>Created with Sketch.</desc>
    <defs></defs>
    <g id="Page-1" stroke="none" stroke-width="1" fill="none" fill-rule="evenodd">
        <g id="Desktop">
            <g id="1-Top-section" transform="translate(0.000000, -5.000000)">
                <g id="visual-key">
                    <polygon id="Fill-1" fill="#0E1E30" points="0 810 1440 810 1440 1 0 1"></polygon>
                    <path d="M675.92232,257.949183 C651.17664,257.949183 631.11672,237.914028 631.11672,213.198898 C631.11672,188.484487 651.17664,168.448614 675.92232,168.448614 C700.668,168.448614 720.72792,188.484487 720.72792,213.198898 C720.72792,237.914028 700.668,257.949183 675.92232,257.949183 Z" id="Fill-2" fill="#005DF2"></path>
                    <path d="M640.34172,328.639459 L640.34172,328.639459 C585.52668,328.639459 541.09044,284.258078 541.09044,229.510711 L541.09044,229.510711" id="Stroke-4" stroke="#FFFFFF" stroke-width="2.099" stroke-linejoin="round"></path>
                    <polyline id="Stroke-6" stroke="#16CAD8" stroke-width="8.394" stroke-linejoin="round" points="956.943576 214.939074 1216.16662 364.409914 1261.35022 338.353642"></polyline>
                    <path d="M541.380528,129.93705 L990.727488,389.03494" id="Stroke-8" stroke="#FFFFFF" stroke-width="2.099" stroke-linejoin="round"></path>
                    <path d="M1216.16683,364.409698 L1216.16683,609.33319" id="Stroke-10" stroke="#16CAD8" stroke-width="8.394" stroke-linejoin="round"></path>
                    <polygon id="Stroke-12" stroke="#FFFFFF" stroke-width="2.099" stroke-linejoin="round" points="1216.16035 520.600631 1080.72763 442.505165 1080.72763 286.314231 1216.16035 208.218765 1351.59307 286.314231 1351.59307 442.505165"></polygon>
                    <path d="M687.400992,122.920179 L607.853952,168.79012" id="Stroke-14" stroke="#FFFFFF" stroke-width="2.099" stroke-linejoin="round"></path>
                    <path d="M697.6844,638.288098 L697.6844,638.288098 C679.63328,638.288098 665,623.672884 665,605.644049 L665,605.644049 C665,587.615214 679.63328,573 697.6844,573 L697.6844,573 C715.73552,573 730.3688,587.615214 730.3688,605.644049 L730.3688,605.644049 C730.3688,623.672884 715.73552,638.288098 697.6844,638.288098" id="Fill-16" fill="#B9E8F2"></path>
                    <path d="M751.719744,461.084343 L751.719744,461.084343 C742.076784,461.084343 734.260464,453.276954 734.260464,443.646618 C734.260464,434.015563 742.076784,426.208174 751.719744,426.208174 L751.719744,426.208174 C761.362704,426.208174 769.179024,434.015563 769.179024,443.646618 C769.179024,453.276954 761.362704,461.084343 751.719744,461.084343" id="Fill-18" fill="#005DF2"></path>
                    <path d="M1080.72785,637.917201 L1080.72785,637.917201 C1071.08489,637.917201 1063.26857,630.109811 1063.26857,620.479475 L1063.26857,620.479475 C1063.26857,610.84842 1071.08489,603.041031 1080.72785,603.041031 L1080.72785,603.041031 C1090.37009,603.041031 1098.18713,610.84842 1098.18713,620.479475 L1098.18713,620.479475 C1098.18713,630.109811 1090.37009,637.917201 1080.72785,637.917201" id="Fill-20" fill="#005DF2"></path>
                    <path d="M577.04292,758.606839 L577.04292,758.606839 C567.39996,758.606839 559.58364,750.79945 559.58364,741.169114 L559.58364,741.169114 C559.58364,731.538059 567.39996,723.73067 577.04292,723.73067 C586.68588,723.73067 594.5022,731.538059 594.5022,741.169114 L594.5022,741.169114 C594.5022,750.79945 586.68588,758.606839 577.04292,758.606839" id="Fill-22" fill="#005DF2"></path>
                    <path d="M990.727848,258.644274 L990.727848,258.644274 C979.045128,258.644274 969.574248,249.185086 969.574248,237.51679 L969.574248,237.51679 C969.574248,225.848493 979.045128,216.389305 990.727848,216.389305 L990.727848,216.389305 C1002.41057,216.389305 1011.88145,225.848493 1011.88145,237.51679 L1011.88145,237.51679 C1011.88145,249.185086 1002.41057,258.644274 990.727848,258.644274" id="Fill-24" fill="#005DF2"></path>
                    <path d="M594.76728,521.517851 L594.76728,521.517851 C591.02976,521.517851 588,518.491831 588,514.758925 C588,511.02602 591.02976,508 594.76728,508 C598.5048,508 601.53456,511.02602 601.53456,514.758925 C601.53456,518.491831 598.5048,521.517851 594.76728,521.517851" id="Fill-26" fill="#005DF2"></path>
                    <path d="M1267.4952,193.05228 L1267.4952,193.05228 C1263.75768,193.05228 1260.72792,190.02626 1260.72792,186.293354 L1260.72792,186.293354 C1260.72792,182.560449 1263.75768,179.534429 1267.4952,179.534429 L1267.4952,179.534429 C1271.23272,179.534429 1274.26248,182.560449 1274.26248,186.293354 L1274.26248,186.293354 C1274.26248,190.02626 1271.23272,193.05228 1267.4952,193.05228" id="Fill-28" fill="#005DF2"></path>
                    <path d="M1087.4952,160.40744 L1087.4952,160.40744 C1083.75768,160.40744 1080.72792,157.38142 1080.72792,153.648515 C1080.72792,149.915609 1083.75768,146.889589 1087.4952,146.889589 L1087.4952,146.889589 C1091.23272,146.889589 1094.26248,149.915609 1094.26248,153.648515 C1094.26248,157.38142 1091.23272,160.40744 1087.4952,160.40744" id="Fill-30" fill="#005DF2"></path>
                    <path d="M902.623352,733.209572 L902.623352,733.209572 C898.885832,733.209572 895.856072,730.183553 895.856072,726.450647 L895.856072,726.450647 C895.856072,722.717741 898.885832,719.691721 902.623352,719.691721 C906.360872,719.691721 909.390632,722.717741 909.390632,726.450647 L909.390632,726.450647 C909.390632,730.183553 906.360872,733.209572 902.623352,733.209572" id="Fill-32" fill="#005DF2"></path>
                    <path d="M1333.96035,699.800316 L1333.96035,699.800316 C1330.22283,699.800316 1327.19307,696.774296 1327.19307,693.04139 C1327.19307,689.308485 1330.22283,686.282465 1333.96035,686.282465 C1337.69787,686.282465 1340.72763,689.308485 1340.72763,693.04139 C1340.72763,696.774296 1337.69787,699.800316 1333.96035,699.800316" id="Fill-34" fill="#005DF2"></path>
                    <polygon id="Fill-36" fill="#009DFF" points="1097.81287 404.769593 1097.81287 360.759993 1063.64239 341.365567 1063.64239 385.374448"></polygon>
                    <polygon id="Fill-38" fill="#52D2DF" points="1097.81287 468.173764 1097.81287 424.164164 1063.64239 404.769737 1063.64239 448.778618"></polygon>
                    <polygon id="Fill-40" fill="#B9E8F2" points="1097.81287 531.577862 1097.81287 487.568262 1063.64239 468.173836 1063.64239 512.182717"></polygon>
                    <path d="M281.926368,673.917411 L281.926368,673.917411 C271.453248,673.917411 262.963008,665.437653 262.963008,654.978182 L262.963008,654.977463 C262.963008,644.517992 271.453248,636.038234 281.926368,636.038234 L281.926368,636.038234 C292.399488,636.038234 300.889008,644.517992 300.889008,654.977463 L300.889008,654.978182 C300.889008,665.437653 292.399488,673.917411 281.926368,673.917411" id="Fill-42" fill="#52D2DF"></path>
                    <polygon id="Stroke-44" stroke="#FFFFFF" stroke-width="2.583" stroke-linejoin="round" points="380.261592 736.606714 281.926152 679.902645 281.926152 566.495227 380.261592 509.791159 478.597032 566.495227 478.597032 679.902645"></polygon>
                    <path d="M429.420024,723.730885 L429.420024,723.730885 C385.947144,723.730885 350.705304,688.532554 350.705304,645.113344 L350.705304,645.113344 C350.705304,601.693415 385.947144,566.495084 429.420024,566.495084 L429.420024,566.495084 C472.892904,566.495084 508.134744,601.693415 508.134744,645.113344 L508.134744,645.113344 C508.134744,688.532554 472.892904,723.730885 429.420024,723.730885" id="Fill-46" fill="#52D2DF"></path>
                    <polyline id="Stroke-48" stroke="#FFFFFF" stroke-width="2.583" stroke-linejoin="round" points="281.926296 566.495299 380.266056 623.199368 478.597176 566.495299"></polyline>
                    <path d="M380.266344,623.19908 L380.266344,736.606498" id="Stroke-50" stroke="#FFFFFF" stroke-width="2.583" stroke-linejoin="round"></path>
                    <path d="M185.368576,612.178044 L185.368576,612.178044 C161.970016,612.178044 143.002336,593.233062 143.002336,569.864108 L143.002336,569.864108 C143.002336,546.494435 161.970016,527.549453 185.368576,527.549453 L185.368576,527.549453 C208.767136,527.549453 227.734816,546.494435 227.734816,569.864108 L227.734816,569.864108 C227.734816,593.233062 208.767136,612.178044 185.368576,612.178044" id="Fill-52" fill="#005DF2"></path>
                </g>
            </g>
        </g>
    </g>
</svg>